# Created by MKDS Course Modifier
mtllib Bunny 1.mtl
g polygon0
usemtl Material57
v 0.1635742 1.127441 0.5239258
v 0.2583008 1.428955 0.5219727
v 0.3032227 1.084961 0.4499512
v 0.4013672 1.381836 0.4550781
v 0.5441895 1.334473 0.5219727
v 0.4697266 1.588867 0.4885254
v 0.5671387 1.556641 0.5219727
v 0.4855957 1.636963 0.5219727
vn -0.4179688 0.05859375 -0.90625
vn -0.3574219 0.1738281 -0.9179688
vn -0.01953125 -0.04492188 -0.9980469
vn 0.02539063 0.08007813 -0.9960938
vn 0.3867188 -0.0703125 -0.9199219
vn 0.08398438 0.2539063 -0.9628906
vn 0.3789063 0.2011719 -0.9042969
vn 0.1738281 0.5234375 -0.8339844
vt 0.2021484 -0.01757813
vt 0.3925781 -0.02636719
vt 0.1982422 -0.09863281
vt 0.390625 -0.09667969
vt 0.3886719 -0.1679688
vt 0.5253906 -0.09570313
vt 0.5244141 -0.1474609
vt 0.5576172 -0.09570313
f 1/1/1 2/2/2 3/3/3
f 2/2/2 4/4/4 3/3/3
f 3/3/3 4/4/4 5/5/5
f 4/4/4 6/6/6 5/5/5
f 5/5/5 6/6/6 7/7/7
f 6/6/6 8/8/8 7/7/7
v 0.4855957 1.636963 0.5219727
v 0.3723145 1.621094 0.5219727
v 0.4697266 1.588867 0.5556641
v 0.2583008 1.428955 0.5219727
v 0.4013672 1.381836 0.5888672
v 0.3032227 1.084961 0.5939941
v 0.5441895 1.334473 0.5219727
v 0.4428711 1.04248 0.5202637
vn 0.1738281 0.5234375 0.8339844
vn -0.1835938 0.3867188 0.9042969
vn 0.08398438 0.2539063 0.9628906
vn -0.3515625 0.1738281 0.9199219
vn 0.02539063 0.08007813 0.9960938
vn -0.0078125 -0.04882813 0.9980469
vn 0.390625 -0.07421875 0.9179688
vn 0.3730469 -0.203125 0.90625
vt 0.8759766 -0.2441406
vt 0.8056641 -0.2880859
vt 0.8759766 -0.2919922
vt 0.7587891 -0.4814453
vt 0.8759766 -0.4873047
vt 0.8759766 -0.7646484
vt 0.9941406 -0.4824219
vt 0.9863281 -0.7597656
f 9/9/9 10/10/10 11/11/11
f 10/10/10 12/12/12 11/11/11
f 11/11/11 12/12/12 13/13/13
f 12/12/12 14/14/14 13/13/13
f 13/13/13 14/14/14 15/15/15
f 14/14/14 16/16/16 15/15/15
v 0.4594727 0.6677246 0.6345215
v 0.1938477 0.9279785 0.6003418
v 0.1625977 0.651123 0.8376465
v -0.1625977 0.651123 0.8376465
v 0.1638184 0.3928223 0.8376465
v -0.1638184 0.3928223 0.8376465
v 0 0.1894531 0.704834
v -0.4487305 0.2629395 0.6162109
vn 0.8339844 0.2714844 0.4785156
vn 0.2949219 0.8164063 0.4980469
vn 0.3457031 0.265625 0.9003906
vn -0.2480469 0.2929688 0.9238281
vn 0.2460938 -0.25 0.9355469
vn -0.2949219 -0.3007813 0.90625
vn 0 -0.7207031 0.6933594
vn -0.6484375 -0.4609375 0.6054688
vt 0.7324219 -0.6035156
vt 0.5126953 -0.4121094
vt 0.4902344 -0.6474609
vt 0.2519531 -0.6474609
vt 0.4912109 -0.8300781
vt 0.2509766 -0.8300781
vt 0.3710938 -0.9716797
vt 0.04296875 -0.9179688
f 17/17/17 18/18/18 19/19/19
f 18/18/18 20/20/20 19/19/19
f 19/19/19 20/20/20 21/21/21
f 20/20/20 22/22/22 21/21/21
f 21/21/21 22/22/22 23/23/23
f 22/22/22 24/24/24 23/23/23
v -0.5668945 1.556641 0.5219727
v -0.5439453 1.334473 0.5219727
v -0.401123 1.381836 0.5888672
v -0.4428711 1.04248 0.5202637
v -0.3032227 1.084961 0.5939941
v -0.300293 0.8098145 0.5219727
v -0.2209473 0.8359375 0.5532227
vn -0.3984375 0.1425781 0.90625
vn -0.3984375 -0.08984375 0.9121094
vn -0.0234375 0.0625 0.9980469
vn -0.4042969 -0.1679688 0.8984375
vn 0.01953125 -0.08398438 0.9960938
vn -0.3398438 -0.2421875 0.9082031
vn 0.04882813 -0.1464844 0.9882813
vt 0.9482422 -0.2890625
vt 0.9941406 -0.4824219
vt 0.8759766 -0.4873047
vt 0.9863281 -0.7597656
vt 0.8759766 -0.7646484
vt 0.9501953 -0.9921875
vt 0.8759766 -0.9951172
f 25/25/25 26/26/26 27/27/27
f 26/26/26 28/28/28 27/27/27
f 27/27/27 28/28/28 29/29/29
f 28/28/28 30/30/30 29/29/29
f 29/29/29 30/30/30 31/31/31
v 0.4279785 0.2043457 0.5930176
v 0.4487305 0.2629395 0.6162109
v 0.1462402 0.1821289 0.6513672
v 0 0.1894531 0.704834
v -0.1462402 0.1821289 0.6513672
v -0.4487305 0.2629395 0.6162109
v -0.4279785 0.2043457 0.5930176
vn 0.8261719 -0.3964844 0.4003906
vn 0.6484375 -0.4609375 0.6054688
vn -0.1542969 -0.7832031 0.6015625
vn 0 -0.7207031 0.6933594
vn 0.21875 -0.7753906 0.5917969
vn -0.6484375 -0.4609375 0.6054688
vn -0.6171875 -0.4453125 0.6484375
vt 0.6835938 -0.9609375
vt 0.6992188 -0.9179688
vt 0.4775391 -0.9775391
vt 0.3710938 -0.9716797
vt 0.2646484 -0.9775391
vt 0.04296875 -0.9179688
vt 0.05859375 -0.9609375
f 32/32/32 33/33/33 34/34/34
f 33/33/33 35/35/35 34/34/34
f 34/34/34 35/35/35 36/36/36
f 35/35/35 37/37/37 36/36/36
f 36/36/36 37/37/37 38/38/38
v 0.265625 0.9958496 0.2890625
v -0.265625 0.9958496 0.2890625
v 0.1938477 0.9279785 0.6003418
v -0.1938477 0.9279785 0.6003418
v -0.1625977 0.651123 0.8376465
v -0.4594727 0.6677246 0.6345215
v -0.4633789 0.3898926 0.6345215
vn 0.4765625 0.8710938 0.1230469
vn -0.3320313 0.9316406 0.1425781
vn 0.2949219 0.8164063 0.4980469
vn -0.2988281 0.7871094 0.5390625
vn -0.2480469 0.2929688 0.9238281
vn -0.7519531 0.4257813 0.5039063
vn -0.875 -0.1425781 0.4628906
vt 0.5654297 -0.2236328
vt 0.1767578 -0.2236328
vt 0.5126953 -0.4121094
vt 0.2294922 -0.4121094
vt 0.2519531 -0.6474609
vt 0.009765625 -0.6035156
vt 0.03222656 -0.8242188
f 39/39/39 40/40/40 41/41/41
f 40/40/40 42/42/42 41/41/41
f 41/41/41 42/42/42 43/43/43
f 42/42/42 44/44/44 43/43/43
f 43/43/43 44/44/44 45/45/45
v 0.265625 0.9958496 0.2890625
v 0.1938477 0.9279785 0.6003418
v 0.5527344 0.6772461 0.2475586
v 0.4594727 0.6677246 0.6345215
v 0.5241699 0.3886719 0.2475586
v 0.4633789 0.3898926 0.6345215
v 0.4069824 0.2121582 0.2739258
vn 0.4765625 0.8710938 0.1230469
vn 0.2949219 0.8164063 0.4980469
vn 0.9003906 0.3945313 0.1796875
vn 0.8339844 0.2714844 0.4785156
vn 0.9667969 -0.2109375 0.1425781
vn 0.8515625 -0.1503906 0.5019531
vn 0.8125 -0.578125 -0.07617188
vt 0.7216797 -0.08691406
vt 0.6064453 -0.1123047
vt 0.7363281 -0.2050781
vt 0.59375 -0.2080078
vt 0.7363281 -0.3115234
vt 0.59375 -0.3105469
vt 0.7265625 -0.3759766
f 46/46/46 47/47/47 48/48/48
f 47/47/47 49/49/49 48/48/48
f 48/48/48 49/49/49 50/50/50
f 49/49/49 51/51/51 50/50/50
f 50/50/50 51/51/51 52/52/52
v 0.1418457 0.8623047 0.5219727
v 0.1635742 1.127441 0.5239258
v 0.2209473 0.8361816 0.4909668
v 0.3032227 1.084961 0.4499512
v 0.4428711 1.04248 0.5202637
v 0.5441895 1.334473 0.5219727
vn -0.3554688 0.03515625 -0.9335938
vn -0.4179688 0.05859375 -0.90625
vn -0.04101563 -0.1132813 -0.9921875
vn -0.01953125 -0.04492188 -0.9980469
vn 0.3613281 -0.1992188 -0.9101563
vn 0.3867188 -0.0703125 -0.9199219
vt 0.03710938 -0.04589844
vt 0.2021484 -0.01757813
vt 0.03613281 -0.09960938
vt 0.1982422 -0.09863281
vt 0.1943359 -0.1787109
vt 0.3886719 -0.1679688
f 53/53/53 54/54/54 55/55/55
f 54/54/54 56/56/56 55/55/55
f 55/55/55 56/56/56 57/57/57
f 56/56/56 58/58/58 57/57/57
v 0.300293 0.8098145 0.5219727
v 0.4428711 1.04248 0.5202637
v 0.2209473 0.8361816 0.5529785
v 0.3032227 1.084961 0.5939941
v 0.1635742 1.127441 0.5239258
v 0.2583008 1.428955 0.5219727
vn 0.3066406 -0.1816406 0.9335938
vn 0.3730469 -0.203125 0.90625
vn -0.03125 -0.1171875 0.9921875
vn -0.0078125 -0.04882813 0.9980469
vn -0.4082031 0.05273438 0.9121094
vn -0.3515625 0.1738281 0.9199219
vt 0.9501953 -0.9921875
vt 0.9863281 -0.7597656
vt 0.8759766 -0.9951172
vt 0.8759766 -0.7646484
vt 0.7646484 -0.7587891
vt 0.7587891 -0.4814453
f 59/59/59 60/60/60 61/61/61
f 60/60/60 62/62/62 61/61/61
f 61/61/61 62/62/62 63/63/63
f 62/62/62 64/64/64 63/63/63
v -0.2580566 1.428955 0.5219727
v -0.1635742 1.127441 0.5239258
v -0.401123 1.381836 0.4550781
v -0.3032227 1.084961 0.4499512
v -0.4428711 1.04248 0.5202637
v -0.300293 0.8098145 0.5219727
vn 0.3730469 0.1640625 -0.9121094
vn 0.4238281 0.1054688 -0.9003906
vn -0.01757813 0.0625 -0.9980469
vn 0.03320313 -0.08007813 -0.9960938
vn -0.3945313 -0.1640625 -0.9042969
vn -0.3300781 -0.2421875 -0.9121094
vt 0.3925781 -0.02636719
vt 0.2021484 -0.01757813
vt 0.390625 -0.09667969
vt 0.1982422 -0.09863281
vt 0.1943359 -0.1787109
vt 0.03417969 -0.1533203
f 65/65/65 66/66/66 67/67/67
f 66/66/66 68/68/68 67/67/67
f 67/67/67 68/68/68 69/69/69
f 68/68/68 70/70/70 69/69/69
v -0.4853516 1.636963 0.5219727
v -0.4694824 1.588867 0.5556641
v -0.3720703 1.621094 0.5219727
v -0.401123 1.381836 0.5888672
v -0.2580566 1.428955 0.5219727
v -0.1635742 1.127441 0.5239258
vn -0.1738281 0.5234375 0.8339844
vn -0.1132813 0.34375 0.9316406
vn 0.234375 0.3515625 0.90625
vn -0.0234375 0.0625 0.9980469
vn 0.3710938 0.1699219 0.9121094
vn 0.4121094 0.1035156 0.9042969
vt 0.8759766 -0.2441406
vt 0.8759766 -0.2919922
vt 0.8056641 -0.2880859
vt 0.8759766 -0.4873047
vt 0.7587891 -0.4814453
vt 0.7646484 -0.7587891
f 71/71/71 72/72/72 73/73/73
f 72/72/72 74/74/74 73/73/73
f 73/73/73 74/74/74 75/75/75
f 74/74/74 76/76/76 75/75/75
v -0.2580566 1.428955 0.5219727
v -0.401123 1.381836 0.4550781
v -0.3720703 1.621094 0.5219727
v -0.4694824 1.588867 0.4885254
v -0.4853516 1.636963 0.5219727
v -0.5668945 1.556641 0.5219727
vn 0.3730469 0.1640625 -0.9121094
vn -0.01757813 0.0625 -0.9980469
vn 0.234375 0.3515625 -0.90625
vn -0.1132813 0.34375 -0.9316406
vn -0.1738281 0.5234375 -0.8339844
vn -0.3984375 0.1425781 -0.90625
vt 0.3925781 -0.02636719
vt 0.390625 -0.09667969
vt 0.5273438 -0.04394531
vt 0.5253906 -0.09570313
vt 0.5576172 -0.09570313
vt 0.5244141 -0.1474609
f 77/77/77 78/78/78 79/79/79
f 78/78/78 80/80/80 79/79/79
f 79/79/79 80/80/80 81/81/81
f 80/80/80 82/82/82 81/81/81
v -0.4279785 0.2043457 0.5930176
v -0.4487305 0.2629395 0.6162109
v -0.4069824 0.2121582 0.2739258
v -0.4633789 0.3898926 0.6345215
v -0.5241699 0.3886719 0.2475586
v -0.5527344 0.6772461 0.2475586
vn -0.6171875 -0.4453125 0.6484375
vn -0.6484375 -0.4609375 0.6054688
vn -0.8359375 -0.5429688 -0.07421875
vn -0.875 -0.1425781 0.4628906
vn -0.9355469 -0.3261719 0.140625
vn -0.9472656 0.2910156 0.1289063
vt 0.609375 -0.3789063
vt 0.6005859 -0.3574219
vt 0.7265625 -0.3759766
vt 0.59375 -0.3105469
vt 0.7363281 -0.3115234
vt 0.7363281 -0.2050781
f 83/83/83 84/84/84 85/85/85
f 84/84/84 86/86/86 85/85/85
f 85/85/85 86/86/86 87/87/87
f 86/86/86 88/88/88 87/87/87
v -0.1635742 1.127441 0.5239258
v -0.1416016 0.8620605 0.5219727
v -0.3032227 1.084961 0.4499512
v -0.2209473 0.8359375 0.4909668
v -0.300293 0.8098145 0.5219727
vn 0.4238281 0.1054688 -0.9003906
vn 0.4160156 0.0078125 -0.9101563
vn 0.03320313 -0.08007813 -0.9960938
vn 0.04882813 -0.1464844 -0.9882813
vn -0.3300781 -0.2421875 -0.9121094
vt 0.2021484 -0.01757813
vt 0.03710938 -0.04589844
vt 0.1982422 -0.09863281
vt 0.03613281 -0.09960938
vt 0.03417969 -0.1533203
f 89/89/89 90/90/90 91/91/91
f 90/90/90 92/92/92 91/91/91
f 91/91/91 92/92/92 93/93/93
v -0.1938477 0.9279785 0.6003418
v -0.265625 0.9958496 0.2890625
v -0.4594727 0.6677246 0.6345215
v -0.5527344 0.6772461 0.2475586
v -0.4633789 0.3898926 0.6345215
vn -0.2988281 0.7871094 0.5390625
vn -0.3320313 0.9316406 0.1425781
vn -0.7519531 0.4257813 0.5039063
vn -0.9472656 0.2910156 0.1289063
vn -0.875 -0.1425781 0.4628906
vt 0.6064453 -0.1123047
vt 0.7216797 -0.08691406
vt 0.59375 -0.2080078
vt 0.7363281 -0.2050781
vt 0.59375 -0.3105469
f 94/94/94 95/95/95 96/96/96
f 95/95/95 97/97/97 96/96/96
f 96/96/96 97/97/97 98/98/98
v 0.4855957 1.636963 0.5219727
v 0.4697266 1.588867 0.5556641
v 0.5671387 1.556641 0.5219727
v 0.5441895 1.334473 0.5219727
vn 0.1738281 0.5234375 0.8339844
vn 0.08398438 0.2539063 0.9628906
vn 0.3789063 0.2011719 0.9042969
vn 0.390625 -0.07421875 0.9179688
vt 0.8759766 -0.2441406
vt 0.8759766 -0.2919922
vt 0.9482422 -0.2890625
vt 0.9941406 -0.4824219
f 99/99/99 100/100/100 101/101/101
f 100/100/100 102/102/102 101/101/101
v 0.4855957 1.636963 0.5219727
v 0.4697266 1.588867 0.4885254
v 0.3723145 1.621094 0.5219727
v 0.2583008 1.428955 0.5219727
vn 0.1738281 0.5234375 -0.8339844
vn 0.08398438 0.2539063 -0.9628906
vn -0.1835938 0.3867188 -0.9042969
vn -0.3574219 0.1738281 -0.9179688
vt 0.5576172 -0.09570313
vt 0.5253906 -0.09570313
vt 0.5273438 -0.04394531
vt 0.3925781 -0.02636719
f 103/103/103 104/104/104 105/105/105
f 104/104/104 106/106/106 105/105/105
v -0.1416016 0.8620605 0.5219727
v -0.1635742 1.127441 0.5239258
v -0.3032227 1.084961 0.5939941
v -0.401123 1.381836 0.5888672
vn 0.4082031 0 0.9121094
vn 0.4121094 0.1035156 0.9042969
vn 0.01953125 -0.08398438 0.9960938
vn -0.0234375 0.0625 0.9980469
vt 0.8007813 -0.9912109
vt 0.7646484 -0.7587891
vt 0.8759766 -0.7646484
vt 0.8759766 -0.4873047
f 107/107/107 108/108/108 109/109/109
f 108/108/108 110/110/110 109/109/109
v -0.5668945 1.556641 0.5219727
v -0.401123 1.381836 0.4550781
v -0.5439453 1.334473 0.5219727
v -0.4428711 1.04248 0.5202637
vn -0.3984375 0.1425781 -0.90625
vn -0.01757813 0.0625 -0.9980469
vn -0.3984375 -0.0859375 -0.9121094
vn -0.3945313 -0.1640625 -0.9042969
vt 0.5244141 -0.1474609
vt 0.390625 -0.09667969
vt 0.3886719 -0.1679688
vt 0.1943359 -0.1787109
f 111/111/111 112/112/112 113/113/113
f 112/112/112 114/114/114 113/113/113
v -0.4853516 1.636963 0.5219727
v -0.5668945 1.556641 0.5219727
v -0.4694824 1.588867 0.5556641
v -0.401123 1.381836 0.5888672
vn -0.1738281 0.5234375 0.8339844
vn -0.3984375 0.1425781 0.90625
vn -0.1132813 0.34375 0.9316406
vn -0.0234375 0.0625 0.9980469
vt 0.8759766 -0.2441406
vt 0.9482422 -0.2890625
vt 0.8759766 -0.2919922
vt 0.8759766 -0.4873047
f 115/115/115 116/116/116 117/117/117
f 116/116/116 118/118/118 117/117/117
v 0.4279785 0.2043457 0.5930176
v 0.4069824 0.2121582 0.2739258
v 0.4487305 0.2629395 0.6162109
v 0.4633789 0.3898926 0.6345215
vn 0.8261719 -0.3964844 0.4003906
vn 0.8125 -0.578125 -0.07617188
vn 0.6484375 -0.4609375 0.6054688
vn 0.8515625 -0.1503906 0.5019531
vt 0.609375 -0.3789063
vt 0.7265625 -0.3759766
vt 0.6005859 -0.3574219
vt 0.59375 -0.3105469
f 119/119/119 120/120/120 121/121/121
f 120/120/120 122/122/122 121/121/121
v 0.4633789 0.3898926 0.6345215
v 0.1638184 0.3928223 0.8376465
v 0.4487305 0.2629395 0.6162109
v 0 0.1894531 0.704834
vn 0.8515625 -0.1503906 0.5019531
vn 0.2460938 -0.25 0.9355469
vn 0.6484375 -0.4609375 0.6054688
vn 0 -0.7207031 0.6933594
vt 0.7099609 -0.8242188
vt 0.4912109 -0.8300781
vt 0.6992188 -0.9179688
vt 0.3710938 -0.9716797
f 123/123/123 124/124/124 125/125/125
f 124/124/124 126/126/126 125/125/125
v 0.4594727 0.6677246 0.6345215
v 0.1625977 0.651123 0.8376465
v 0.4633789 0.3898926 0.6345215
v 0.1638184 0.3928223 0.8376465
vn 0.8339844 0.2714844 0.4785156
vn 0.3457031 0.265625 0.9003906
vn 0.8515625 -0.1503906 0.5019531
vn 0.2460938 -0.25 0.9355469
vt 0.7324219 -0.6035156
vt 0.4902344 -0.6474609
vt 0.7099609 -0.8242188
vt 0.4912109 -0.8300781
f 127/127/127 128/128/128 129/129/129
f 128/128/128 130/130/130 129/129/129
v -0.4487305 0.2629395 0.6162109
v -0.1638184 0.3928223 0.8376465
v -0.4633789 0.3898926 0.6345215
v -0.1625977 0.651123 0.8376465
vn -0.6484375 -0.4609375 0.6054688
vn -0.2949219 -0.3007813 0.90625
vn -0.875 -0.1425781 0.4628906
vn -0.2480469 0.2929688 0.9238281
vt 0.04296875 -0.9179688
vt 0.2509766 -0.8300781
vt 0.03222656 -0.8242188
vt 0.2519531 -0.6474609
f 131/131/131 132/132/132 133/133/133
f 132/132/132 134/134/134 133/133/133
v -0.4694824 1.588867 0.4885254
v -0.401123 1.381836 0.4550781
v -0.5668945 1.556641 0.5219727
v 0.2583008 1.428955 0.5219727
v 0.4697266 1.588867 0.4885254
v 0.4013672 1.381836 0.4550781
v 0.5441895 1.334473 0.5219727
v 0.4697266 1.588867 0.5556641
v 0.4013672 1.381836 0.5888672
v -0.2209473 0.8359375 0.5532227
v -0.1416016 0.8620605 0.5219727
v -0.3032227 1.084961 0.5939941
v 0.300293 0.8098145 0.5219727
v 0.2209473 0.8361816 0.4909668
v 0.4428711 1.04248 0.5202637
v 0.1418457 0.8623047 0.5219727
v 0.2209473 0.8361816 0.5529785
v 0.1635742 1.127441 0.5239258
vn -0.1132813 0.34375 -0.9316406
vn -0.01757813 0.0625 -0.9980469
vn -0.3984375 0.1425781 -0.90625
vn -0.3574219 0.1738281 -0.9179688
vn 0.08398438 0.2539063 -0.9628906
vn 0.02539063 0.08007813 -0.9960938
vn 0.390625 -0.07421875 0.9179688
vn 0.08398438 0.2539063 0.9628906
vn 0.02539063 0.08007813 0.9960938
vn 0.04882813 -0.1464844 0.9882813
vn 0.4082031 0 0.9121094
vn 0.01953125 -0.08398438 0.9960938
vn 0.3027344 -0.1933594 -0.9335938
vn -0.04101563 -0.1132813 -0.9921875
vn 0.3613281 -0.1992188 -0.9101563
vn -0.3574219 0.0234375 0.9335938
vn -0.03125 -0.1171875 0.9921875
vn -0.4082031 0.05273438 0.9121094
vt 0.5253906 -0.09570313
vt 0.390625 -0.09667969
vt 0.5244141 -0.1474609
vt 0.3925781 -0.02636719
vt 0.5253906 -0.09570313
vt 0.390625 -0.09667969
vt 0.9941406 -0.4824219
vt 0.8759766 -0.2919922
vt 0.8759766 -0.4873047
vt 0.8759766 -0.9951172
vt 0.8007813 -0.9912109
vt 0.8759766 -0.7646484
vt 0.03417969 -0.1533203
vt 0.03613281 -0.09960938
vt 0.1943359 -0.1787109
vt 0.8007813 -0.9912109
vt 0.8759766 -0.9951172
vt 0.7646484 -0.7587891
f 135/135/135 136/136/136 137/137/137
f 138/138/138 139/139/139 140/140/140
f 141/141/141 142/142/142 143/143/143
f 144/144/144 145/145/145 146/146/146
f 147/147/147 148/148/148 149/149/149
f 150/150/150 151/151/151 152/152/152
g polygon1
usemtl Material58
v -0.5092773 0.009033203 -0.3486328
v -0.7678223 0.009033203 0.02026367
v -0.534668 0.1804199 -0.3234863
v -0.6933594 0.08569336 0.02978516
v -0.3395996 0.1484375 -0.2041016
v -0.6330566 0.08569336 0.07104492
v -0.5871582 0.009033203 0.1433105
v -0.6933594 0.08569336 0.02978516
v -0.7678223 0.009033203 0.02026367
vn -0.4726563 -0.8398438 -0.265625
vn -1 0.03320313 0.02734375
vn -0.9824219 0 -0.1914063
vn -0.4238281 0.8066406 0.4121094
vn 0.6132813 0.6074219 0.5039063
vn -0.09179688 0.8261719 0.5566406
vn 0.05664063 -0.1738281 0.9824219
vn -0.4238281 0.8066406 0.4121094
vn -1 0.03320313 0.02734375
vt 0.9755859 -0.09277344
vt 0.8486328 -0.5371094
vt 0.8525391 -0.03710938
vt 0.8046875 -0.421875
vt 0.6445313 -0.03613281
vt 0.7412109 -0.4199219
vt 0.6582031 -0.5341797
vt 0.8046875 -0.421875
vt 0.8486328 -0.5371094
f 153/153/153 154/154/154 155/155/155
f 154/154/154 156/156/156 155/155/155
f 155/155/155 156/156/156 157/157/157
f 156/156/156 158/158/158 157/157/157
f 157/157/157 158/158/158 159/159/159
f 158/158/158 160/160/160 159/159/159
f 159/159/159 160/160/160 161/161/161
v -0.4501953 0.2177734 -0.5803223
v -0.534668 0.1804199 -0.3234863
v -0.4619141 0.2927246 -0.5820313
v -0.5852051 0.387207 -0.189209
v -0.4655762 0.3898926 -0.6450195
v -0.5769043 0.6867676 -0.189209
v -0.4594727 0.6677246 -0.6450195
v -0.2614746 0.9958496 -0.2429199
v -0.1938477 0.9338379 -0.6025391
vn -0.6835938 -0.1875 -0.7050781
vn -0.9824219 0 -0.1914063
vn -0.6933594 -0.2851563 -0.6621094
vn -0.984375 -0.1757813 -0.0390625
vn -0.7304688 -0.1621094 -0.6621094
vn -0.9375 0.3203125 -0.1308594
vn -0.6972656 0.4316406 -0.5742188
vn -0.4355469 0.8925781 -0.1171875
vn -0.2734375 0.7734375 -0.5703125
vt 0.8417969 -0.9609375
vt 0.7861328 -0.9697266
vt 0.8417969 -0.9453125
vt 0.7578125 -0.9248047
vt 0.8554688 -0.9238281
vt 0.7578125 -0.8603516
vt 0.8554688 -0.8642578
vt 0.7695313 -0.7939453
vt 0.8466797 -0.8076172
f 162/162/162 163/163/163 164/164/164
f 163/163/163 165/165/165 164/164/164
f 164/164/164 165/165/165 166/166/166
f 165/165/165 167/167/167 166/166/166
f 166/166/166 167/167/167 168/168/168
f 167/167/167 169/169/169 168/168/168
f 168/168/168 169/169/169 170/170/170
v 0.534668 0.1804199 -0.3234863
v 0.4069824 0.2121582 0.2739258
v 0.3395996 0.1484375 -0.2041016
v 0.1044922 0.1257324 0.2963867
v 0 0.1257324 -0.2668457
v -0.1044922 0.1257324 0.2963867
v -0.3395996 0.1484375 -0.2041016
v -0.4069824 0.2121582 0.2739258
v -0.534668 0.1804199 -0.3234863
vn 0.96875 0.09765625 -0.2265625
vn 0.8125 -0.578125 -0.07617188
vn 0.1679688 -0.9863281 0
vn -0.1308594 -0.9511719 -0.2832031
vn 0 -0.9941406 -0.09960938
vn 0.1113281 -0.9707031 -0.2148438
vn -0.1679688 -0.9863281 0
vn -0.8359375 -0.5429688 -0.07421875
vn -0.9824219 0 -0.1914063
vt 0.7783203 -0.6035156
vt 0.6923828 -0.6210938
vt 0.7607422 -0.6308594
vt 0.6894531 -0.6650391
vt 0.7705078 -0.6796875
vt 0.6894531 -0.6943359
vt 0.7607422 -0.7285156
vt 0.6923828 -0.7382813
vt 0.7783203 -0.7558594
f 171/171/171 172/172/172 173/173/173
f 172/172/172 174/174/174 173/173/173
f 173/173/173 174/174/174 175/175/175
f 174/174/174 176/176/176 175/175/175
f 175/175/175 176/176/176 177/177/177
f 176/176/176 178/178/178 177/177/177
f 177/177/177 178/178/178 179/179/179
v 0.5092773 0.009033203 -0.3486328
v 0.534668 0.1804199 -0.3234863
v 0.7678223 0.009033203 0.02026367
v 0.6933594 0.08569336 0.02978516
v 0.6330566 0.08569336 0.07104492
v 0.534668 0.1804199 -0.3234863
v 0.3395996 0.1484375 -0.2041016
vn 0.5703125 -0.7207031 -0.3964844
vn 0.96875 0.09765625 -0.2265625
vn 0.9355469 -0.1933594 0.296875
vn 0.5175781 0.7949219 0.3164063
vn 0.1796875 0.7988281 0.5722656
vn 0.96875 0.09765625 -0.2265625
vn -0.7167969 0.4511719 0.53125
vt 0.9755859 -0.09277344
vt 0.8525391 -0.03710938
vt 0.8486328 -0.5371094
vt 0.8046875 -0.421875
vt 0.7412109 -0.4199219
vt 0.8525391 -0.03710938
vt 0.6445313 -0.03613281
f 180/180/180 181/181/181 182/182/182
f 181/181/181 183/183/183 182/182/182
f 182/182/182 183/183/183 184/184/184
f 183/183/183 185/185/185 184/184/184
f 184/184/184 185/185/185 186/186/186
v -0.0004882813 0.7495117 -0.6357422
v -0.05419922 0.6806641 -0.8515625
v 0.1062012 0.7087402 -0.8327637
v -0.04443359 0.7810059 -0.9345703
v 0.08520508 0.8039551 -0.9155273
v 0.0004882813 0.9362793 -0.8952637
vn -0.00390625 -0.578125 0.8164063
vn -0.4316406 -0.8378906 -0.3359375
vn 0.6230469 -0.6953125 -0.3574219
vn -0.1367188 -0.265625 -0.9550781
vn 0.4765625 -0.0546875 -0.8769531
vn 0.005859375 0.6054688 -0.7949219
vt 0.1552734 -0.5009766
vt 0.05664063 -0.640625
vt 0.2529297 -0.640625
vt 0.05664063 -0.8876953
vt 0.2529297 -0.8876953
vt 0.1552734 -0.984375
f 187/187/187 188/188/188 189/189/189
f 188/188/188 190/190/190 189/189/189
f 189/189/189 190/190/190 191/191/191
f 190/190/190 192/192/192 191/191/191
v -0.0004882813 0.7495117 -0.6357422
v -0.1889648 0.8034668 -0.7663574
v -0.05419922 0.6806641 -0.8515625
v -0.1518555 0.8815918 -0.8571777
v -0.04443359 0.7810059 -0.9345703
v 0.0004882813 0.9362793 -0.8952637
vn -0.00390625 -0.578125 0.8164063
vn -0.9277344 -0.3105469 0.2050781
vn -0.4316406 -0.8378906 -0.3359375
vn -0.8144531 0.25 -0.5234375
vn -0.1367188 -0.265625 -0.9550781
vn 0.005859375 0.6054688 -0.7949219
vt 0.1552734 -0.5009766
vt 0.05664063 -0.640625
vt 0.2529297 -0.640625
vt 0.05664063 -0.8876953
vt 0.2529297 -0.8876953
vt 0.1552734 -0.984375
f 193/193/193 194/194/194 195/195/195
f 194/194/194 196/196/196 195/195/195
f 195/195/195 196/196/196 197/197/197
f 196/196/196 198/198/198 197/197/197
v 0.4501953 0.2177734 -0.5803223
v 0.4619141 0.2927246 -0.5820313
v 0.534668 0.1804199 -0.3234863
v 0.5852051 0.387207 -0.189209
v 0.4069824 0.2121582 0.2739258
v 0.5241699 0.3886719 0.2475586
vn 0.6230469 -0.21875 -0.75
vn 0.6933594 -0.2851563 -0.6621094
vn 0.96875 0.09765625 -0.2265625
vn 0.984375 -0.1582031 -0.0859375
vn 0.8125 -0.578125 -0.07617188
vn 0.9667969 -0.2109375 0.1425781
vt 0.8417969 -0.9609375
vt 0.8417969 -0.9453125
vt 0.7861328 -0.9697266
vt 0.7578125 -0.9248047
vt 0.6582031 -0.9628906
vt 0.6640625 -0.9248047
f 199/199/199 200/200/200 201/201/201
f 200/200/200 202/202/202 201/201/201
f 201/201/201 202/202/202 203/203/203
f 202/202/202 204/204/204 203/203/203
v 0.4501953 0.2177734 -0.5803223
v 0.1733398 0.2080078 -0.6345215
v 0.4619141 0.2927246 -0.5820313
v 0 0.3005371 -0.7561035
v 0.4655762 0.3898926 -0.6450195
v 0.4594727 0.6677246 -0.6450195
vn 0.6230469 -0.21875 -0.75
vn -0.09765625 -0.6953125 -0.7128906
vn 0.6933594 -0.2851563 -0.6621094
vn 0.04492188 -0.4335938 -0.9003906
vn 0.7148438 -0.2050781 -0.6679688
vn 0.6992188 0.2070313 -0.6835938
vt 0.02441406 -0.2089844
vt 0.1210938 -0.3164063
vt 0.04882813 -0.1787109
vt 0.2236328 -0.34375
vt 0.08886719 -0.140625
vt 0.1962891 -0.046875
f 205/205/205 206/206/206 207/207/207
f 206/206/206 208/208/208 207/207/207
f 207/207/207 208/208/208 209/209/209
f 208/208/208 210/210/210 209/209/209
v 0.1938477 0.9338379 -0.6025391
v 0.5769043 0.6867676 -0.189209
v 0.4594727 0.6677246 -0.6450195
v 0.5852051 0.387207 -0.189209
v 0.4655762 0.3898926 -0.6450195
v 0.4619141 0.2927246 -0.5820313
vn 0.3183594 0.8320313 -0.4550781
vn 0.9023438 0.4238281 -0.07226563
vn 0.6992188 0.2070313 -0.6835938
vn 0.984375 -0.1582031 -0.0859375
vn 0.7148438 -0.2050781 -0.6679688
vn 0.6933594 -0.2851563 -0.6621094
vt 0.8466797 -0.8076172
vt 0.7578125 -0.8603516
vt 0.8554688 -0.8642578
vt 0.7578125 -0.9248047
vt 0.8554688 -0.9238281
vt 0.8417969 -0.9453125
f 211/211/211 212/212/212 213/213/213
f 212/212/212 214/214/214 213/213/213
f 213/213/213 214/214/214 215/215/215
f 214/214/214 216/216/216 215/215/215
v -0.0004882813 0.7495117 -0.6357422
v 0.05371094 0.9750977 -0.6433105
v -0.1062012 0.9465332 -0.6625977
v 0.0456543 1.020996 -0.746582
v -0.08520508 0.998291 -0.7670898
v 0.0004882813 0.9362793 -0.8952637
vn -0.00390625 -0.578125 0.8164063
vn 0.2851563 0.4941406 0.8222656
vn -0.6191406 0.5449219 0.5664063
vn 0.265625 0.9628906 0.0390625
vn -0.4667969 0.8652344 -0.1855469
vn 0.005859375 0.6054688 -0.7949219
vt 0.1552734 -0.5009766
vt 0.05664063 -0.640625
vt 0.2529297 -0.640625
vt 0.05664063 -0.8876953
vt 0.2529297 -0.8876953
vt 0.1552734 -0.984375
f 217/217/217 218/218/218 219/219/219
f 218/218/218 220/220/220 219/219/219
f 219/219/219 220/220/220 221/221/221
f 220/220/220 222/222/222 221/221/221
v 0.2614746 0.9958496 -0.2429199
v 0.265625 0.9958496 0.2890625
v 0.5769043 0.6867676 -0.189209
v 0.5527344 0.6772461 0.2475586
v 0.5241699 0.3886719 0.2475586
vn 0.3046875 0.9472656 -0.09179688
vn 0.4765625 0.8710938 0.1230469
vn 0.9023438 0.4238281 -0.07226563
vn 0.9003906 0.3945313 0.1796875
vn 0.9667969 -0.2109375 0.1425781
vt 0.7695313 -0.7939453
vt 0.6542969 -0.7939453
vt 0.7578125 -0.8603516
vt 0.6640625 -0.8623047
vt 0.6640625 -0.9248047
f 223/223/223 224/224/224 225/225/225
f 224/224/224 226/226/226 225/225/225
f 225/225/225 226/226/226 227/227/227
v -0.4501953 0.2177734 -0.5803223
v -0.4619141 0.2927246 -0.5820313
v -0.1733398 0.2080078 -0.6345215
v 0 0.3005371 -0.7561035
v 0.1733398 0.2080078 -0.6345215
vn -0.6835938 -0.1875 -0.7050781
vn -0.6933594 -0.2851563 -0.6621094
vn 0.09765625 -0.6953125 -0.7128906
vn 0.04492188 -0.4335938 -0.9003906
vn -0.09765625 -0.6953125 -0.7128906
vt 0.3388672 -0.5556641
vt 0.3710938 -0.5341797
vt 0.2412109 -0.4492188
vt 0.2236328 -0.34375
vt 0.1210938 -0.3164063
f 228/228/228 229/229/229 230/230/230
f 229/229/229 231/231/231 230/230/230
f 230/230/230 231/231/231 232/232/232
v -0.3615723 0.009033203 -0.5629883
v -0.204834 0.009033203 -0.4594727
v -0.5092773 0.009033203 -0.3486328
v -0.3286133 0.009033203 -0.2255859
v -0.5871582 0.009033203 0.1433105
vn -0.1738281 -0.7011719 -0.6914063
vn 0.6699219 -0.7402344 0.06054688
vn -0.4726563 -0.8398438 -0.265625
vn 0.5976563 -0.7128906 0.3652344
vn 0.05664063 -0.1738281 0.9824219
vt 0.5761719 -0.8603516
vt 0.6201172 -0.8603516
vt 0.5751953 -0.7636719
vt 0.6269531 -0.7626953
vt 0.6240234 -0.5957031
f 233/233/233 234/234/234 235/235/235
f 234/234/234 236/236/236 235/235/235
f 235/235/235 236/236/236 237/237/237
v 0.204834 0.009033203 -0.4594727
v 0.3615723 0.009033203 -0.5629883
v 0.3286133 0.009033203 -0.2255859
v 0.5092773 0.009033203 -0.3486328
v 0.7678223 0.009033203 0.02026367
vn -0.8339844 -0.546875 0.07421875
vn 0.3339844 -0.7441406 -0.5800781
vn -0.3789063 -0.8964844 0.2324219
vn 0.5703125 -0.7207031 -0.3964844
vn 0.9355469 -0.1933594 0.296875
vt 0.6201172 -0.8603516
vt 0.5761719 -0.8603516
vt 0.6269531 -0.7626953
vt 0.5751953 -0.7636719
vt 0.5722656 -0.5957031
f 238/238/238 239/239/239 240/240/240
f 239/239/239 241/241/241 240/240/240
f 240/240/240 241/241/241 242/242/242
v -0.4594727 0.6677246 -0.6450195
v 0 0.659668 -0.8208008
v -0.4655762 0.3898926 -0.6450195
v 0 0.3005371 -0.7561035
v -0.4619141 0.2927246 -0.5820313
vn -0.6972656 0.4316406 -0.5742188
vn -0.04882813 0.2207031 -0.9746094
vn -0.7304688 -0.1621094 -0.6621094
vn 0.04492188 -0.4335938 -0.9003906
vn -0.6933594 -0.2851563 -0.6621094
vt 0.5166016 -0.4003906
vt 0.3642578 -0.2167969
vt 0.4130859 -0.4990234
vt 0.2236328 -0.34375
vt 0.3710938 -0.5341797
f 243/243/243 244/244/244 245/245/245
f 244/244/244 246/246/246 245/245/245
f 245/245/245 246/246/246 247/247/247
v -0.265625 0.9958496 0.2890625
v -0.2614746 0.9958496 -0.2429199
v -0.5527344 0.6772461 0.2475586
v -0.5769043 0.6867676 -0.189209
v -0.5852051 0.387207 -0.189209
vn -0.3320313 0.9316406 0.1425781
vn -0.4355469 0.8925781 -0.1171875
vn -0.9472656 0.2910156 0.1289063
vn -0.9375 0.3203125 -0.1308594
vn -0.984375 -0.1757813 -0.0390625
vt 0.6542969 -0.7939453
vt 0.7695313 -0.7939453
vt 0.6640625 -0.8623047
vt 0.7578125 -0.8603516
vt 0.7578125 -0.9248047
f 248/248/248 249/249/249 250/250/250
f 249/249/249 251/251/251 250/250/250
f 250/250/250 251/251/251 252/252/252
v -0.534668 0.1804199 -0.3234863
v -0.4069824 0.2121582 0.2739258
v -0.5852051 0.387207 -0.189209
v -0.5241699 0.3886719 0.2475586
v -0.5527344 0.6772461 0.2475586
vn -0.9824219 0 -0.1914063
vn -0.8359375 -0.5429688 -0.07421875
vn -0.984375 -0.1757813 -0.0390625
vn -0.9355469 -0.3261719 0.140625
vn -0.9472656 0.2910156 0.1289063
vt 0.7861328 -0.9697266
vt 0.6582031 -0.9628906
vt 0.7578125 -0.9248047
vt 0.6640625 -0.9248047
vt 0.6640625 -0.8623047
f 253/253/253 254/254/254 255/255/255
f 254/254/254 256/256/256 255/255/255
f 255/255/255 256/256/256 257/257/257
v -0.1938477 0.9338379 -0.6025391
v 0.1938477 0.9338379 -0.6025391
v 0 0.659668 -0.8208008
v 0.4594727 0.6677246 -0.6450195
v 0 0.3005371 -0.7561035
vn -0.2734375 0.7734375 -0.5703125
vn 0.3183594 0.8320313 -0.4550781
vn -0.04882813 0.2207031 -0.9746094
vn 0.6992188 0.2070313 -0.6835938
vn 0.04492188 -0.4335938 -0.9003906
vt 0.5224609 -0.2089844
vt 0.3876953 -0.05957031
vt 0.3642578 -0.2167969
vt 0.1962891 -0.046875
vt 0.2236328 -0.34375
f 258/258/258 259/259/259 260/260/260
f 259/259/259 261/261/261 260/260/260
f 260/260/260 261/261/261 262/262/262
v 0.204834 0.009033203 -0.4594727
v 0.1733398 0.2080078 -0.6345215
v 0.3615723 0.009033203 -0.5629883
v 0.4501953 0.2177734 -0.5803223
vn -0.8339844 -0.546875 0.07421875
vn -0.09765625 -0.6953125 -0.7128906
vn 0.3339844 -0.7441406 -0.5800781
vn 0.6230469 -0.21875 -0.75
vt 0.8886719 -0.7539063
vt 0.875 -0.6757813
vt 0.9541016 -0.7539063
vt 0.9912109 -0.671875
f 263/263/263 264/264/264 265/265/265
f 264/264/264 266/266/266 265/265/265
v 0.3286133 0.009033203 -0.2255859
v 0.3395996 0.1484375 -0.2041016
v 0.204834 0.009033203 -0.4594727
v 0.1733398 0.2080078 -0.6345215
vn -0.3789063 -0.8964844 0.2324219
vn -0.7167969 0.4511719 0.53125
vn -0.8339844 -0.546875 0.07421875
vn -0.09765625 -0.6953125 -0.7128906
vt 0.5253906 -0.7089844
vt 0.5332031 -0.6308594
vt 0.4462891 -0.7089844
vt 0.3867188 -0.5976563
f 267/267/267 268/268/268 269/269/269
f 268/268/268 270/270/270 269/269/269
v 0.3286133 0.009033203 -0.2255859
v 0.5871582 0.009033203 0.1433105
v 0.3395996 0.1484375 -0.2041016
v 0.6330566 0.08569336 0.07104492
vn -0.3789063 -0.8964844 0.2324219
vn -0.3320313 0.0625 0.9414063
vn -0.7167969 0.4511719 0.53125
vn 0.1796875 0.7988281 0.5722656
vt 0.5556641 -0.08105469
vt 0.6582031 -0.5341797
vt 0.6445313 -0.03613281
vt 0.7412109 -0.4199219
f 271/271/271 272/272/272 273/273/273
f 272/272/272 274/274/274 273/273/273
v -0.3286133 0.009033203 -0.2255859
v -0.204834 0.009033203 -0.4594727
v -0.3395996 0.1484375 -0.2041016
v -0.1733398 0.2080078 -0.6345215
vn 0.5976563 -0.7128906 0.3652344
vn 0.6699219 -0.7402344 0.06054688
vn 0.6132813 0.6074219 0.5039063
vn 0.09765625 -0.6953125 -0.7128906
vt 0.5253906 -0.7089844
vt 0.4462891 -0.7089844
vt 0.5332031 -0.6308594
vt 0.3867188 -0.5976563
f 275/275/275 276/276/276 277/277/277
f 276/276/276 278/278/278 277/277/277
v 0.4501953 0.2177734 -0.5803223
v 0.534668 0.1804199 -0.3234863
v 0.3615723 0.009033203 -0.5629883
v 0.5092773 0.009033203 -0.3486328
vn 0.6230469 -0.21875 -0.75
vn 0.96875 0.09765625 -0.2265625
vn 0.3339844 -0.7441406 -0.5800781
vn 0.5703125 -0.7207031 -0.3964844
vt 0.3125 -0.6464844
vt 0.3652344 -0.6591797
vt 0.3154297 -0.7177734
vt 0.3603516 -0.7177734
f 279/279/279 280/280/280 281/281/281
f 280/280/280 282/282/282 281/281/281
v -0.204834 0.009033203 -0.4594727
v -0.3615723 0.009033203 -0.5629883
v -0.1733398 0.2080078 -0.6345215
v -0.4501953 0.2177734 -0.5803223
vn 0.6699219 -0.7402344 0.06054688
vn -0.1738281 -0.7011719 -0.6914063
vn 0.09765625 -0.6953125 -0.7128906
vn -0.6835938 -0.1875 -0.7050781
vt 0.8886719 -0.7539063
vt 0.9541016 -0.7539063
vt 0.875 -0.6757813
vt 0.9912109 -0.671875
f 283/283/283 284/284/284 285/285/285
f 284/284/284 286/286/286 285/285/285
v -0.534668 0.1804199 -0.3234863
v -0.4501953 0.2177734 -0.5803223
v -0.5092773 0.009033203 -0.3486328
v -0.3615723 0.009033203 -0.5629883
vn -0.9824219 0 -0.1914063
vn -0.6835938 -0.1875 -0.7050781
vn -0.4726563 -0.8398438 -0.265625
vn -0.1738281 -0.7011719 -0.6914063
vt 0.3652344 -0.6591797
vt 0.3125 -0.6464844
vt 0.3603516 -0.7177734
vt 0.3154297 -0.7177734
f 287/287/287 288/288/288 289/289/289
f 288/288/288 290/290/290 289/289/289
v -0.0004882813 0.7495117 -0.6357422
v 0.1889648 0.8520508 -0.7287598
v 0.05371094 0.9750977 -0.6433105
v 0.0456543 1.020996 -0.746582
vn -0.00390625 -0.578125 0.8164063
vn 0.9316406 0.09765625 0.3476563
vn 0.2851563 0.4941406 0.8222656
vn 0.265625 0.9628906 0.0390625
vt 0.1552734 -0.5009766
vt 0.05664063 -0.640625
vt 0.2529297 -0.640625
vt 0.2529297 -0.8876953
f 291/291/291 292/292/292 293/293/293
f 292/292/292 294/294/294 293/293/293
v 0.265625 0.9958496 0.2890625
v 0.2614746 0.9958496 -0.2429199
v -0.265625 0.9958496 0.2890625
v -0.2614746 0.9958496 -0.2429199
vn 0.4765625 0.8710938 0.1230469
vn 0.3046875 0.9472656 -0.09179688
vn -0.3320313 0.9316406 0.1425781
vn -0.4355469 0.8925781 -0.1171875
vt 0.8740234 -0.8056641
vt 0.8740234 -0.9003906
vt 0.96875 -0.8056641
vt 0.9677734 -0.9003906
f 295/295/295 296/296/296 297/297/297
f 296/296/296 298/298/298 297/297/297
v -0.0004882813 0.7495117 -0.6357422
v 0.1062012 0.7087402 -0.8327637
v 0.1889648 0.8520508 -0.7287598
v 0.1513672 0.920166 -0.8278809
vn -0.00390625 -0.578125 0.8164063
vn 0.6230469 -0.6953125 -0.3574219
vn 0.9316406 0.09765625 0.3476563
vn 0.7871094 0.3535156 -0.5058594
vt 0.1552734 -0.5009766
vt 0.05664063 -0.640625
vt 0.2529297 -0.640625
vt 0.2529297 -0.8876953
f 299/299/299 300/300/300 301/301/301
f 300/300/300 302/302/302 301/301/301
v -0.1462402 0.1821289 0.6513672
v -0.1044922 0.1257324 0.2963867
v 0.1462402 0.1821289 0.6513672
v 0.1044922 0.1257324 0.2963867
vn 0.21875 -0.7753906 0.5917969
vn 0.1113281 -0.9707031 -0.2148438
vn -0.1542969 -0.7832031 0.6015625
vn -0.1308594 -0.9511719 -0.2832031
vt 0.6386719 -0.7001953
vt 0.6894531 -0.6943359
vt 0.6386719 -0.6591797
vt 0.6894531 -0.6650391
f 303/303/303 304/304/304 305/305/305
f 304/304/304 306/306/306 305/305/305
v -0.1938477 0.9338379 -0.6025391
v -0.2614746 0.9958496 -0.2429199
v 0.1938477 0.9338379 -0.6025391
v 0.2614746 0.9958496 -0.2429199
vn -0.2734375 0.7734375 -0.5703125
vn -0.4355469 0.8925781 -0.1171875
vn 0.3183594 0.8320313 -0.4550781
vn 0.3046875 0.9472656 -0.09179688
vt 0.9560547 -0.9658203
vt 0.9677734 -0.9003906
vt 0.8867188 -0.9658203
vt 0.8740234 -0.9003906
f 307/307/307 308/308/308 309/309/309
f 308/308/308 310/310/310 309/309/309
v -0.0004882813 0.7495117 -0.6357422
v -0.1062012 0.9465332 -0.6625977
v -0.1889648 0.8034668 -0.7663574
v -0.1518555 0.8815918 -0.8571777
vn -0.00390625 -0.578125 0.8164063
vn -0.6191406 0.5449219 0.5664063
vn -0.9277344 -0.3105469 0.2050781
vn -0.8144531 0.25 -0.5234375
vt 0.1552734 -0.5009766
vt 0.05664063 -0.640625
vt 0.2529297 -0.640625
vt 0.2529297 -0.8876953
f 311/311/311 312/312/312 313/313/313
f 312/312/312 314/314/314 313/313/313
v 0.0004882813 0.9362793 -0.8952637
v 0.1513672 0.920166 -0.8278809
v 0.08520508 0.8039551 -0.9155273
v 0.1062012 0.7087402 -0.8327637
vn 0.005859375 0.6054688 -0.7949219
vn 0.7871094 0.3535156 -0.5058594
vn 0.4765625 -0.0546875 -0.8769531
vn 0.6230469 -0.6953125 -0.3574219
vt 0.1552734 -0.984375
vt 0.2529297 -0.8876953
vt 0.05664063 -0.8876953
vt 0.05664063 -0.640625
f 315/315/315 316/316/316 317/317/317
f 316/316/316 318/318/318 317/317/317
v 0.0004882813 0.9362793 -0.8952637
v -0.1518555 0.8815918 -0.8571777
v -0.08520508 0.998291 -0.7670898
v -0.1062012 0.9465332 -0.6625977
vn 0.005859375 0.6054688 -0.7949219
vn -0.8144531 0.25 -0.5234375
vn -0.4667969 0.8652344 -0.1855469
vn -0.6191406 0.5449219 0.5664063
vt 0.1552734 -0.984375
vt 0.2529297 -0.8876953
vt 0.05664063 -0.8876953
vt 0.05664063 -0.640625
f 319/319/319 320/320/320 321/321/321
f 320/320/320 322/322/322 321/321/321
v 0.3395996 0.1484375 -0.2041016
v 0 0.1257324 -0.2668457
v 0.1733398 0.2080078 -0.6345215
v -0.1733398 0.2080078 -0.6345215
vn 0.1679688 -0.9863281 0
vn 0 -0.9941406 -0.09960938
vn -0.09765625 -0.6953125 -0.7128906
vn 0.09765625 -0.6953125 -0.7128906
vt 0.7607422 -0.6308594
vt 0.7705078 -0.6796875
vt 0.8232422 -0.6552734
vt 0.8232422 -0.7041016
f 323/323/323 324/324/324 325/325/325
f 324/324/324 326/326/326 325/325/325
v 0.0004882813 0.9362793 -0.8952637
v 0.0456543 1.020996 -0.746582
v 0.1513672 0.920166 -0.8278809
v 0.1889648 0.8520508 -0.7287598
vn 0.005859375 0.6054688 -0.7949219
vn 0.265625 0.9628906 0.0390625
vn 0.7871094 0.3535156 -0.5058594
vn 0.9316406 0.09765625 0.3476563
vt 0.1552734 -0.984375
vt 0.2529297 -0.8876953
vt 0.05664063 -0.8876953
vt 0.05664063 -0.640625
f 327/327/327 328/328/328 329/329/329
f 328/328/328 330/330/330 329/329/329
v 0.4279785 0.2043457 0.5930176
v 0.1462402 0.1821289 0.6513672
v 0.3708496 0.009033203 0.5334473
v 0.1948242 0.009033203 0.550293
vn 0.8261719 -0.3964844 0.4003906
vn -0.1542969 -0.7832031 0.6015625
vn 0.421875 -0.6992188 0.578125
vn -0.2617188 -0.9042969 0.3378906
vt 0.4355469 -0.8652344
vt 0.5214844 -0.8759766
vt 0.453125 -0.9589844
vt 0.5068359 -0.9589844
f 331/331/331 332/332/332 333/333/333
f 332/332/332 334/334/334 333/333/333
v 0.4069824 0.2121582 0.2739258
v 0.4279785 0.2043457 0.5930176
v 0.3596191 0.009033203 0.3266602
v 0.3708496 0.009033203 0.5334473
vn 0.8125 -0.578125 -0.07617188
vn 0.8261719 -0.3964844 0.4003906
vn 0.4375 -0.7636719 -0.4726563
vn 0.421875 -0.6992188 0.578125
vt 0.3027344 -0.7519531
vt 0.3886719 -0.7558594
vt 0.3164063 -0.8427734
vt 0.3730469 -0.8427734
f 335/335/335 336/336/336 337/337/337
f 336/336/336 338/338/338 337/337/337
v 0.1948242 0.009033203 0.550293
v 0.1462402 0.1821289 0.6513672
v 0.1518555 0.009033203 0.3491211
v 0.1044922 0.1257324 0.2963867
vn -0.2617188 -0.9042969 0.3378906
vn -0.1542969 -0.7832031 0.6015625
vn -0.6640625 -0.7246094 -0.1835938
vn -0.1308594 -0.9511719 -0.2832031
vt 0.3691406 -0.9541016
vt 0.3955078 -0.8798828
vt 0.3164063 -0.9541016
vt 0.3027344 -0.9033203
f 339/339/339 340/340/340 341/341/341
f 340/340/340 342/342/342 341/341/341
v 0.1518555 0.009033203 0.3491211
v 0.1044922 0.1257324 0.2963867
v 0.3596191 0.009033203 0.3266602
v 0.4069824 0.2121582 0.2739258
vn -0.6640625 -0.7246094 -0.1835938
vn -0.1308594 -0.9511719 -0.2832031
vn 0.4375 -0.7636719 -0.4726563
vn 0.8125 -0.578125 -0.07617188
vt 0.5146484 -0.8349609
vt 0.5292969 -0.7792969
vt 0.4511719 -0.8349609
vt 0.4365234 -0.7382813
f 343/343/343 344/344/344 345/345/345
f 344/344/344 346/346/346 345/345/345
v 0.3708496 0.009033203 0.5334473
v 0.1948242 0.009033203 0.550293
v 0.3596191 0.009033203 0.3266602
v 0.1518555 0.009033203 0.3491211
vn 0.421875 -0.6992188 0.578125
vn -0.2617188 -0.9042969 0.3378906
vn 0.4375 -0.7636719 -0.4726563
vn -0.6640625 -0.7246094 -0.1835938
vt 0.5605469 -0.8925781
vt 0.6083984 -0.8857422
vt 0.5634766 -0.9814453
vt 0.6201172 -0.9716797
f 347/347/347 348/348/348 349/349/349
f 348/348/348 350/350/350 349/349/349
v -0.1948242 0.009033203 0.550293
v -0.3708496 0.009033203 0.5334473
v -0.1518555 0.009033203 0.3491211
v -0.3596191 0.009033203 0.3266602
vn 0.2011719 -0.7128906 0.671875
vn -0.5683594 -0.7890625 0.2304688
vn 0.5234375 -0.8398438 -0.1445313
vn -0.3066406 -0.6777344 -0.6699219
vt 0.6083984 -0.8857422
vt 0.5605469 -0.8925781
vt 0.6201172 -0.9716797
vt 0.5634766 -0.9814453
f 351/351/351 352/352/352 353/353/353
f 352/352/352 354/354/354 353/353/353
v -0.1462402 0.1821289 0.6513672
v -0.4279785 0.2043457 0.5930176
v -0.1948242 0.009033203 0.550293
v -0.3708496 0.009033203 0.5334473
vn 0.21875 -0.7753906 0.5917969
vn -0.6171875 -0.4453125 0.6484375
vn 0.2011719 -0.7128906 0.671875
vn -0.5683594 -0.7890625 0.2304688
vt 0.5214844 -0.8759766
vt 0.4355469 -0.8652344
vt 0.5068359 -0.9589844
vt 0.453125 -0.9589844
f 355/355/355 356/356/356 357/357/357
f 356/356/356 358/358/358 357/357/357
v -0.4279785 0.2043457 0.5930176
v -0.4069824 0.2121582 0.2739258
v -0.3708496 0.009033203 0.5334473
v -0.3596191 0.009033203 0.3266602
vn -0.6171875 -0.4453125 0.6484375
vn -0.8359375 -0.5429688 -0.07421875
vn -0.5683594 -0.7890625 0.2304688
vn -0.3066406 -0.6777344 -0.6699219
vt 0.3886719 -0.7558594
vt 0.3027344 -0.7519531
vt 0.3730469 -0.8427734
vt 0.3164063 -0.8427734
f 359/359/359 360/360/360 361/361/361
f 360/360/360 362/362/362 361/361/361
v -0.1948242 0.009033203 0.550293
v -0.1518555 0.009033203 0.3491211
v -0.1462402 0.1821289 0.6513672
v -0.1044922 0.1257324 0.2963867
vn 0.2011719 -0.7128906 0.671875
vn 0.5234375 -0.8398438 -0.1445313
vn 0.21875 -0.7753906 0.5917969
vn 0.1113281 -0.9707031 -0.2148438
vt 0.3691406 -0.9541016
vt 0.3164063 -0.9541016
vt 0.3955078 -0.8798828
vt 0.3027344 -0.9033203
f 363/363/363 364/364/364 365/365/365
f 364/364/364 366/366/366 365/365/365
v -0.1518555 0.009033203 0.3491211
v -0.3596191 0.009033203 0.3266602
v -0.1044922 0.1257324 0.2963867
v -0.4069824 0.2121582 0.2739258
vn 0.5234375 -0.8398438 -0.1445313
vn -0.3066406 -0.6777344 -0.6699219
vn 0.1113281 -0.9707031 -0.2148438
vn -0.8359375 -0.5429688 -0.07421875
vt 0.5146484 -0.8349609
vt 0.4511719 -0.8349609
vt 0.5292969 -0.7792969
vt 0.4365234 -0.7382813
f 367/367/367 368/368/368 369/369/369
f 368/368/368 370/370/370 369/369/369
v 0.5871582 0.009033203 0.1433105
v 0.7678223 0.009033203 0.02026367
v 0.6330566 0.08569336 0.07104492
v 0.2614746 0.9958496 -0.2429199
v 0.5769043 0.6867676 -0.189209
v 0.1938477 0.9338379 -0.6025391
v 0.5769043 0.6867676 -0.189209
v 0.5241699 0.3886719 0.2475586
v 0.5852051 0.387207 -0.189209
v -0.1733398 0.2080078 -0.6345215
v 0 0.1257324 -0.2668457
v -0.3395996 0.1484375 -0.2041016
v -0.1938477 0.9338379 -0.6025391
v 0 0.659668 -0.8208008
v -0.4594727 0.6677246 -0.6450195
v -0.7678223 0.009033203 0.02026367
v -0.5092773 0.009033203 -0.3486328
v -0.5871582 0.009033203 0.1433105
v -0.3395996 0.1484375 -0.2041016
v -0.5871582 0.009033203 0.1433105
v -0.3286133 0.009033203 -0.2255859
v 0.3286133 0.009033203 -0.2255859
v 0.7678223 0.009033203 0.02026367
v 0.5871582 0.009033203 0.1433105
vn -0.3320313 0.0625 0.9414063
vn 0.9355469 -0.1933594 0.296875
vn 0.1796875 0.7988281 0.5722656
vn 0.3046875 0.9472656 -0.09179688
vn 0.9023438 0.4238281 -0.07226563
vn 0.3183594 0.8320313 -0.4550781
vn 0.9023438 0.4238281 -0.07226563
vn 0.9667969 -0.2109375 0.1425781
vn 0.984375 -0.1582031 -0.0859375
vn 0.09765625 -0.6953125 -0.7128906
vn 0 -0.9941406 -0.09960938
vn -0.1679688 -0.9863281 0
vn -0.2734375 0.7734375 -0.5703125
vn -0.04882813 0.2207031 -0.9746094
vn -0.6972656 0.4316406 -0.5742188
vn -1 0.03320313 0.02734375
vn -0.4726563 -0.8398438 -0.265625
vn 0.05664063 -0.1738281 0.9824219
vn 0.6132813 0.6074219 0.5039063
vn 0.05664063 -0.1738281 0.9824219
vn 0.5976563 -0.7128906 0.3652344
vn -0.3789063 -0.8964844 0.2324219
vn 0.9355469 -0.1933594 0.296875
vn -0.3320313 0.0625 0.9414063
vt 0.6582031 -0.5341797
vt 0.8486328 -0.5371094
vt 0.7412109 -0.4199219
vt 0.7695313 -0.7939453
vt 0.7578125 -0.8603516
vt 0.8466797 -0.8076172
vt 0.7578125 -0.8603516
vt 0.6640625 -0.9248047
vt 0.7578125 -0.9248047
vt 0.8232422 -0.7041016
vt 0.7705078 -0.6796875
vt 0.7607422 -0.7285156
vt 0.5224609 -0.2089844
vt 0.3642578 -0.2167969
vt 0.5166016 -0.4003906
vt 0.5722656 -0.5957031
vt 0.5751953 -0.7636719
vt 0.6240234 -0.5957031
vt 0.6445313 -0.03613281
vt 0.6582031 -0.5341797
vt 0.5556641 -0.08105469
vt 0.6269531 -0.7626953
vt 0.5722656 -0.5957031
vt 0.6240234 -0.5957031
f 371/371/371 372/372/372 373/373/373
f 374/374/374 375/375/375 376/376/376
f 377/377/377 378/378/378 379/379/379
f 380/380/380 381/381/381 382/382/382
f 383/383/383 384/384/384 385/385/385
f 386/386/386 387/387/387 388/388/388
f 389/389/389 390/390/390 391/391/391
f 392/392/392 393/393/393 394/394/394
