# Created by MKDS Course Modifier
mtllib Giraffe 2.mtl
g polygon0
usemtl Material57
v 0.4006348 6.207031 1.422363
v 0 6.29541 1.427734
v 0 6.093994 1.776611
v -0.4006348 6.207031 1.422363
v -0.324707 6.0354 1.734619
v -0.5803223 5.666504 1.331787
v -0.5043945 5.59082 1.598633
v -0.3066406 5.236572 1.467041
v -0.3146973 5.489258 1.915039
v -0.2253418 5.223389 1.601807
v -0.1853027 5.174805 2.108887
v 0 5.154053 1.63916
v 0 5.112793 2.157715
v 0.1853027 5.174805 2.108887
v 0.2443848 5.324707 2.320313
v 0.2253418 5.223389 1.601807
v 0.3146973 5.489258 1.915039
v 0.3066406 5.236572 1.467041
v 0.5043945 5.59082 1.598633
v 0.3242188 5.301514 1.270996
v 0.5803223 5.666504 1.331787
v 0.3969727 5.801758 0.9887695
v 0.3540039 6.068115 1.118164
vn 0.6289063 0.7695313 0.09960938
vn 0 0.9980469 0.04492188
vn 0 0.7304688 0.6816406
vn -0.5410156 0.8398438 0.04492188
vn -0.6914063 0.4667969 0.5527344
vn -0.9941406 -0.0546875 -0.0859375
vn -0.9199219 -0.1269531 0.3691406
vn -0.8886719 -0.4003906 0.2246094
vn -0.9335938 -0.2480469 0.2578125
vn -0.78125 -0.4433594 0.4394531
vn -0.5800781 -0.7929688 0.1894531
vn -0.0390625 -0.8535156 0.5175781
vn 0.05664063 -0.9394531 0.3359375
vn 0.515625 -0.8515625 0.09375
vn 0.7949219 -0.3652344 0.484375
vn 0.7246094 -0.4804688 0.4941406
vn 0.9277344 -0.2207031 0.2988281
vn 0.9140625 -0.2890625 0.2832031
vn 0.9414063 -0.1386719 0.3066406
vn 0.9570313 -0.2128906 -0.1992188
vn 0.9824219 -0.02148438 -0.1855469
vn 0.5683594 0.009765625 -0.8222656
vn 0.6132813 0.5644531 -0.5527344
vt 0.6386719 -0.07421875
vt 0.6367188 -0.008789063
vt 0.3867188 -0.02832031
vt 0.6386719 -0.07421875
vt 0.4521484 -0.09472656
vt 0.640625 -0.3291016
vt 0.4921875 -0.3173828
vt 0.4375 -0.4912109
vt 0.3105469 -0.3164063
vt 0.3017578 -0.453125
vt 0.1181641 -0.4599609
vt 0.125 -0.546875
vt 0.02636719 -0.4560547
vt 0.1181641 -0.4599609
vt 0.1152344 -0.390625
vt 0.3017578 -0.453125
vt 0.3105469 -0.3164063
vt 0.4375 -0.4912109
vt 0.4921875 -0.3173828
vt 0.5800781 -0.4951172
vt 0.640625 -0.3291016
vt 0.765625 -0.3017578
vt 0.7558594 -0.1689453
f 1/1/1 2/2/2 3/3/3
f 2/2/2 4/4/4 3/3/3
f 3/3/3 4/4/4 5/5/5
f 4/4/4 6/6/6 5/5/5
f 5/5/5 6/6/6 7/7/7
f 6/6/6 8/8/8 7/7/7
f 7/7/7 8/8/8 9/9/9
f 8/8/8 10/10/10 9/9/9
f 9/9/9 10/10/10 11/11/11
f 10/10/10 12/12/12 11/11/11
f 11/11/11 12/12/12 13/13/13
f 12/12/12 14/14/14 13/13/13
f 13/13/13 14/14/14 15/15/15
f 14/14/14 16/16/16 15/15/15
f 15/15/15 16/16/16 17/17/17
f 16/16/16 18/18/18 17/17/17
f 17/17/17 18/18/18 19/19/19
f 18/18/18 20/20/20 19/19/19
f 19/19/19 20/20/20 21/21/21
f 20/20/20 22/22/22 21/21/21
f 21/21/21 22/22/22 23/23/23
v 0 5.112793 2.157715
v 0.2443848 5.324707 2.320313
v 0 5.303223 2.394775
v 0.232666 5.475098 2.249023
v 0 5.524658 2.289063
v 0 5.770752 2.007813
v -0.232666 5.475098 2.249023
v -0.2770996 5.691406 1.976563
v -0.3146973 5.489258 1.915039
v -0.5043945 5.59082 1.598633
vn 0.05664063 -0.9394531 0.3359375
vn 0.7949219 -0.3652344 0.484375
vn -0.0703125 -0.1132813 0.9902344
vn 0.5585938 0.4960938 0.6660156
vn 0 0.6035156 0.796875
vn 0 0.7011719 0.7128906
vn -0.5585938 0.4960938 0.6660156
vn -0.6445313 0.40625 0.6484375
vn -0.9335938 -0.2480469 0.2578125
vn -0.9199219 -0.1269531 0.3691406
vt 0.02636719 -0.4560547
vt 0.1152344 -0.390625
vt 0.02636719 -0.4052734
vt 0.1123047 -0.2988281
vt 0.02636719 -0.3017578
vt 0.2373047 -0.1083984
vt 0.1123047 -0.2988281
vt 0.2890625 -0.2119141
vt 0.3105469 -0.3164063
vt 0.4921875 -0.3173828
f 24/24/24 25/25/25 26/26/26
f 25/25/25 27/27/27 26/26/26
f 26/26/26 27/27/27 28/28/28
f 27/27/27 29/29/29 28/28/28
f 28/28/28 29/29/29 30/30/30
f 29/29/29 31/31/31 30/30/30
f 30/30/30 31/31/31 32/32/32
f 31/31/31 33/33/33 32/32/32
v 0.3242188 5.301514 1.270996
v 0.2470703 5.402344 1.054443
v 0.3969727 5.801758 0.9887695
v 0 5.412842 0.9477539
v 0 5.817139 0.894043
v -0.3969727 5.801758 0.9887695
v 0 6.135254 1.081055
v -0.3540039 6.068115 1.118164
v -0.4006348 6.207031 1.422363
vn 0.9570313 -0.2128906 -0.1992188
vn 0.71875 -0.01171875 -0.6953125
vn 0.5683594 0.009765625 -0.8222656
vn 0.046875 0.05664063 -0.9980469
vn 0 0.1992188 -0.9804688
vn -0.5683594 0.009765625 -0.8222656
vn 0 0.7285156 -0.6855469
vn -0.6132813 0.5644531 -0.5527344
vn -0.5410156 0.8398438 0.04492188
vt 0.5800781 -0.4951172
vt 0.7832031 -0.5166016
vt 0.765625 -0.3017578
vt 0.9697266 -0.4804688
vt 0.9677734 -0.3007813
vt 0.765625 -0.3017578
vt 0.9677734 -0.1699219
vt 0.7597656 -0.1689453
vt 0.7617188 -0.07421875
f 34/34/34 35/35/35 36/36/36
f 35/35/35 37/37/37 36/36/36
f 36/36/36 37/37/37 38/38/38
f 37/37/37 39/39/39 38/38/38
f 38/38/38 39/39/39 40/40/40
f 39/39/39 41/41/41 40/40/40
f 40/40/40 41/41/41 42/42/42
v 0.2253418 5.223389 1.601807
v 0.347168 3.374756 1.27124
v 0.3066406 5.236572 1.467041
v 0.5187988 3.765137 0.876709
v 0.3242188 5.301514 1.270996
v 0.435791 3.84375 0.3867188
v 0.2470703 5.402344 1.054443
v 0 5.412842 0.9477539
vn 0.7246094 -0.4804688 0.4941406
vn 0.5996094 0.06445313 0.7988281
vn 0.9140625 -0.2890625 0.2832031
vn 0.9355469 0.2910156 0.1992188
vn 0.9570313 -0.2128906 -0.1992188
vn 0.7089844 0.6035156 -0.3652344
vn 0.71875 -0.01171875 -0.6953125
vn 0.046875 0.05664063 -0.9980469
vt 0.4013672 -0.5458984
vt 0.4013672 -0.9921875
vt 0.5087891 -0.546875
vt 0.546875 -0.9345703
vt 0.5800781 -0.5390625
vt 0.7265625 -0.9736328
vt 0.7783203 -0.5507813
vt 0.9726563 -0.5527344
f 43/43/43 44/44/44 45/45/45
f 44/44/44 46/46/46 45/45/45
f 45/45/45 46/46/46 47/47/47
f 46/46/46 48/48/48 47/47/47
f 47/47/47 48/48/48 49/49/49
f 48/48/48 50/50/50 49/49/49
v 0.232666 5.475098 2.249023
v 0.2770996 5.691406 1.976563
v 0 5.770752 2.007813
v 0 6.093994 1.776611
v -0.2770996 5.691406 1.976563
v -0.324707 6.0354 1.734619
v -0.5043945 5.59082 1.598633
vn 0.5585938 0.4960938 0.6660156
vn 0.6445313 0.40625 0.6484375
vn 0 0.7011719 0.7128906
vn 0 0.7304688 0.6816406
vn -0.6445313 0.40625 0.6484375
vn -0.6914063 0.4667969 0.5527344
vn -0.9199219 -0.1269531 0.3691406
vt 0.1123047 -0.2988281
vt 0.2890625 -0.2119141
vt 0.2373047 -0.1083984
vt 0.3867188 -0.02832031
vt 0.2890625 -0.2119141
vt 0.4521484 -0.09472656
vt 0.4921875 -0.3173828
f 51/51/51 52/52/52 53/53/53
f 52/52/52 54/54/54 53/53/53
f 53/53/53 54/54/54 55/55/55
f 54/54/54 56/56/56 55/55/55
f 55/55/55 56/56/56 57/57/57
v 0.232666 5.475098 2.249023
v 0.3146973 5.489258 1.915039
v 0.2770996 5.691406 1.976563
v 0.5043945 5.59082 1.598633
v 0.324707 6.0354 1.734619
v 0.4006348 6.207031 1.422363
v 0 6.093994 1.776611
vn 0.5585938 0.4960938 0.6660156
vn 0.9277344 -0.2207031 0.2988281
vn 0.6445313 0.40625 0.6484375
vn 0.9414063 -0.1386719 0.3066406
vn 0.6113281 0.515625 0.6015625
vn 0.6289063 0.7695313 0.09960938
vn 0 0.7304688 0.6816406
vt 0.1123047 -0.2988281
vt 0.3105469 -0.3164063
vt 0.2890625 -0.2119141
vt 0.4921875 -0.3173828
vt 0.4521484 -0.09472656
vt 0.6386719 -0.07421875
vt 0.3867188 -0.02832031
f 58/58/58 59/59/59 60/60/60
f 59/59/59 61/61/61 60/60/60
f 60/60/60 61/61/61 62/62/62
f 61/61/61 63/63/63 62/62/62
f 62/62/62 63/63/63 64/64/64
v -0.5187988 3.765137 0.876709
v -0.3242188 5.301514 1.270996
v -0.435791 3.84375 0.3867188
v -0.2470703 5.402344 1.054443
v 0 3.895508 0.2629395
v 0 5.412842 0.9477539
v 0.435791 3.84375 0.3867188
vn -0.9472656 0.1738281 0.2675781
vn -0.9550781 -0.1601563 -0.25
vn -0.8242188 0.5039063 -0.2597656
vn -0.6445313 0.078125 -0.7597656
vn -0.09570313 0.765625 -0.6367188
vn 0.046875 0.05664063 -0.9980469
vn 0.7089844 0.6035156 -0.3652344
vt 0.546875 -0.9345703
vt 0.5800781 -0.5390625
vt 0.7265625 -0.9736328
vt 0.7783203 -0.5507813
vt 0.9951172 -0.9775391
vt 0.9726563 -0.5527344
vt 0.7265625 -0.9736328
f 65/65/65 66/66/66 67/67/67
f 66/66/66 68/68/68 67/67/67
f 67/67/67 68/68/68 69/69/69
f 68/68/68 70/70/70 69/69/69
f 69/69/69 70/70/70 71/71/71
v -0.232666 5.475098 2.249023
v -0.3146973 5.489258 1.915039
v -0.2443848 5.324707 2.320313
v -0.1853027 5.174805 2.108887
v 0 5.303223 2.394775
v 0 5.112793 2.157715
vn -0.5585938 0.4960938 0.6660156
vn -0.9335938 -0.2480469 0.2578125
vn -0.8027344 -0.1992188 0.5625
vn -0.5800781 -0.7929688 0.1894531
vn -0.0703125 -0.1132813 0.9902344
vn 0.05664063 -0.9394531 0.3359375
vt 0.1123047 -0.2988281
vt 0.3105469 -0.3164063
vt 0.1152344 -0.390625
vt 0.1181641 -0.4599609
vt 0.02636719 -0.4052734
vt 0.02636719 -0.4560547
f 72/72/72 73/73/73 74/74/74
f 73/73/73 75/75/75 74/74/74
f 74/74/74 75/75/75 76/76/76
f 75/75/75 77/77/77 76/76/76
v -0.2470703 5.402344 1.054443
v -0.3242188 5.301514 1.270996
v -0.3969727 5.801758 0.9887695
v -0.5803223 5.666504 1.331787
v -0.3540039 6.068115 1.118164
v -0.4006348 6.207031 1.422363
vn -0.6445313 0.078125 -0.7597656
vn -0.9550781 -0.1601563 -0.25
vn -0.5683594 0.009765625 -0.8222656
vn -0.9941406 -0.0546875 -0.0859375
vn -0.6132813 0.5644531 -0.5527344
vn -0.5410156 0.8398438 0.04492188
vt 0.7832031 -0.5166016
vt 0.5800781 -0.4951172
vt 0.765625 -0.3017578
vt 0.640625 -0.3291016
vt 0.7558594 -0.1689453
vt 0.6386719 -0.07421875
f 78/78/78 79/79/79 80/80/80
f 79/79/79 81/81/81 80/80/80
f 80/80/80 81/81/81 82/82/82
f 81/81/81 83/83/83 82/82/82
v 0.123291 6.5896 1.377197
v 0.03930664 6.098145 1.393799
v 0.1867676 6.591553 1.434326
v 0.1665039 6.102295 1.508545
v 0.2856445 6.08252 1.37793
vn -0.7324219 0.6796875 -0.03125
vn -0.984375 0.1699219 0.02929688
vn 0.07617188 0.6757813 0.7324219
vn 0.0546875 0.1464844 0.9882813
vn 0.9941406 0.078125 -0.06054688
vt 0.03808594 -0.01269531
vt 0.02050781 -0.1269531
vt 0.05566406 -0.01269531
vt 0.05566406 -0.1269531
vt 0.09179688 -0.1269531
f 84/84/84 85/85/85 86/86/86
f 85/85/85 87/87/87 86/86/86
f 86/86/86 87/87/87 88/88/88
v 0 6.29541 1.427734
v 0.4006348 6.207031 1.422363
v 0 6.135254 1.081055
v 0.3540039 6.068115 1.118164
v 0.3969727 5.801758 0.9887695
vn 0 0.9980469 0.04492188
vn 0.6289063 0.7695313 0.09960938
vn 0 0.7285156 -0.6855469
vn 0.6132813 0.5644531 -0.5527344
vn 0.5683594 0.009765625 -0.8222656
vt 0.9677734 -0.06835938
vt 0.7617188 -0.07421875
vt 0.9677734 -0.1699219
vt 0.7597656 -0.1689453
vt 0.765625 -0.3017578
f 89/89/89 90/90/90 91/91/91
f 90/90/90 92/92/92 91/91/91
f 91/91/91 92/92/92 93/93/93
v -0.03930664 6.098145 1.393799
v -0.1591797 6.078857 1.26709
v -0.1831055 6.579834 1.313721
v -0.2856445 6.08252 1.37793
v -0.2463379 6.581787 1.369141
vn 0.984375 0.1699219 0.02929688
vn 0.0390625 0.09375 -0.9941406
vn 0 0.5917969 -0.8066406
vn -0.9941406 0.078125 -0.06054688
vn -0.7929688 0.5996094 -0.09960938
vt 0.09179688 -0.1269531
vt 0.05566406 -0.1269531
vt 0.05566406 -0.01269531
vt 0.02050781 -0.1269531
vt 0.03808594 -0.01269531
f 94/94/94 95/95/95 96/96/96
f 95/95/95 97/97/97 96/96/96
f 96/96/96 97/97/97 98/98/98
v 0.1591797 6.078857 1.26709
v 0.03930664 6.098145 1.393799
v 0.1831055 6.579834 1.313721
v 0.123291 6.5896 1.377197
v 0.1867676 6.591553 1.434326
vn -0.0390625 0.09375 -0.9941406
vn -0.984375 0.1699219 0.02929688
vn 0 0.5917969 -0.8066406
vn -0.7324219 0.6796875 -0.03125
vn 0.07617188 0.6757813 0.7324219
vt 0.05566406 -0.1269531
vt 0.09179688 -0.1269531
vt 0.05566406 -0.01269531
vt 0.07421875 -0.01269531
vt 0.03808594 -0.01269531
f 99/99/99 100/100/100 101/101/101
f 100/100/100 102/102/102 101/101/101
f 101/101/101 102/102/102 103/103/103
v 0.7126465 6.049072 1.22583
v 0.2280273 5.828613 1.267822
v 0.501709 6.173584 1.05127
v 0.2905273 6.351318 1.178467
v 0.7751465 6.572266 1.139404
vn 0.40625 -0.4375 -0.8027344
vn -0.1894531 -0.4101563 -0.8925781
vn -0.005859375 -0.1660156 -0.9863281
vn -0.4140625 0.1503906 -0.8984375
vn 0.1796875 0.09375 -0.9785156
vt 0.03027344 -0.6103516
vt 0.05859375 -0.6621094
vt 0.05859375 -0.6103516
vt 0.08789063 -0.6103516
vt 0.05859375 -0.5595703
f 104/104/104 105/105/105 106/106/106
f 105/105/105 107/107/107 106/106/106
f 106/106/106 107/107/107 108/108/108
v 0.7126465 6.049072 1.22583
v 0.7751465 6.572266 1.139404
v 0.5029297 6.226563 1.35791
v 0.2905273 6.351318 1.178467
v 0.2280273 5.828613 1.267822
vn 0.4257813 -0.1601563 0.890625
vn 0.1933594 0.4101563 0.890625
vn 0.0078125 0.1660156 0.9863281
vn -0.4140625 0.4414063 0.796875
vn -0.1796875 -0.09765625 0.9785156
vt 0.1826172 -0.8242188
vt 0.1005859 -0.6767578
vt 0.1005859 -0.8232422
vt 0.01757813 -0.8242188
vt 0.1005859 -0.9716797
f 109/109/109 110/110/110 111/111/111
f 110/110/110 112/112/112 111/111/111
f 111/111/111 112/112/112 113/113/113
v -0.2280273 5.828613 1.267822
v -0.7126465 6.049072 1.22583
v -0.501709 6.173584 1.05127
v -0.7753906 6.572266 1.139404
v -0.2905273 6.351318 1.178467
vn 0.1894531 -0.4101563 -0.8925781
vn -0.40625 -0.4375 -0.8027344
vn 0.005859375 -0.1660156 -0.9863281
vn -0.1796875 0.09375 -0.9785156
vn 0.4140625 0.1503906 -0.8984375
vt 0.05859375 -0.6621094
vt 0.03027344 -0.6103516
vt 0.05859375 -0.6103516
vt 0.05859375 -0.5595703
vt 0.08789063 -0.6103516
f 114/114/114 115/115/115 116/116/116
f 115/115/115 117/117/117 116/116/116
f 116/116/116 117/117/117 118/118/118
v -0.7753906 6.572266 1.139404
v -0.7126465 6.049072 1.22583
v -0.5029297 6.226563 1.35791
v -0.2280273 5.828613 1.267822
v -0.2905273 6.351318 1.178467
vn -0.1933594 0.4101563 0.890625
vn -0.4257813 -0.1601563 0.890625
vn -0.0078125 0.1660156 0.9863281
vn 0.1796875 -0.09765625 0.9785156
vn 0.4140625 0.4414063 0.796875
vt 0.1005859 -0.6767578
vt 0.1826172 -0.8242188
vt 0.1005859 -0.8232422
vt 0.1005859 -0.9716797
vt 0.01757813 -0.8242188
f 119/119/119 120/120/120 121/121/121
f 120/120/120 122/122/122 121/121/121
f 121/121/121 122/122/122 123/123/123
v -0.347168 3.374756 1.27124
v -0.2253418 5.223389 1.601807
v -0.5187988 3.765137 0.876709
v -0.3066406 5.236572 1.467041
v -0.3242188 5.301514 1.270996
vn -0.4550781 0.03320313 0.890625
vn -0.78125 -0.4433594 0.4394531
vn -0.9472656 0.1738281 0.2675781
vn -0.8886719 -0.4003906 0.2246094
vn -0.9550781 -0.1601563 -0.25
vt 0.4013672 -0.9921875
vt 0.4013672 -0.5458984
vt 0.546875 -0.9345703
vt 0.5087891 -0.546875
vt 0.5800781 -0.5390625
f 124/124/124 125/125/125 126/126/126
f 125/125/125 127/127/127 126/126/126
f 126/126/126 127/127/127 128/128/128
v -0.123291 6.5896 1.377197
v -0.1867676 6.591553 1.434326
v -0.03930664 6.098145 1.393799
v -0.1665039 6.102295 1.508545
vn 0.7324219 0.6796875 -0.03125
vn -0.07617188 0.6757813 0.7324219
vn 0.984375 0.1699219 0.02929688
vn -0.0546875 0.1464844 0.9882813
vt 0.03808594 -0.01269531
vt 0.05566406 -0.01269531
vt 0.02050781 -0.1269531
vt 0.05566406 -0.1269531
f 129/129/129 130/130/130 131/131/131
f 130/130/130 132/132/132 131/131/131
v -0.2463379 6.581787 1.369141
v -0.2856445 6.08252 1.37793
v -0.1867676 6.591553 1.434326
v -0.1665039 6.102295 1.508545
vn -0.7929688 0.5996094 -0.09960938
vn -0.9941406 0.078125 -0.06054688
vn -0.07617188 0.6757813 0.7324219
vn -0.0546875 0.1464844 0.9882813
vt 0.07421875 -0.01269531
vt 0.09179688 -0.1269531
vt 0.05566406 -0.01269531
vt 0.05566406 -0.1269531
f 133/133/133 134/134/134 135/135/135
f 134/134/134 136/136/136 135/135/135
v 0.3540039 6.068115 1.118164
v 0.4006348 6.207031 1.422363
v 0.5803223 5.666504 1.331787
v 0.5043945 5.59082 1.598633
vn 0.6132813 0.5644531 -0.5527344
vn 0.6289063 0.7695313 0.09960938
vn 0.9824219 -0.02148438 -0.1855469
vn 0.9414063 -0.1386719 0.3066406
vt 0.7558594 -0.1689453
vt 0.6386719 -0.07421875
vt 0.640625 -0.3291016
vt 0.4921875 -0.3173828
f 137/137/137 138/138/138 139/139/139
f 138/138/138 140/140/140 139/139/139
v -0.123291 6.5896 1.377197
v -0.1831055 6.579834 1.313721
v -0.1867676 6.591553 1.434326
v -0.2463379 6.581787 1.369141
vn 0.7324219 0.6796875 -0.03125
vn 0 0.5917969 -0.8066406
vn -0.07617188 0.6757813 0.7324219
vn -0.7929688 0.5996094 -0.09960938
vt 0.07421875 -0.01269531
vt 0.05566406 -0.01269531
vt 0.03808594 -0.01269531
vt 0.03808594 -0.01269531
f 141/141/141 142/142/142 143/143/143
f 142/142/142 144/144/144 143/143/143
v 0.2856445 6.08252 1.37793
v 0.1831055 6.579834 1.313721
v 0.2463379 6.581787 1.369141
v 0.1867676 6.591553 1.434326
vn 0.9941406 0.078125 -0.06054688
vn 0 0.5917969 -0.8066406
vn 0.7929688 0.5996094 -0.09960938
vn 0.07617188 0.6757813 0.7324219
vt 0.02050781 -0.1269531
vt 0.05566406 -0.01269531
vt 0.03808594 -0.01269531
vt 0.03808594 -0.01269531
f 145/145/145 146/146/146 147/147/147
f 146/146/146 148/148/148 147/147/147
v -0.2443848 5.324707 2.320313
v 0 5.303223 2.394775
v -0.232666 5.475098 2.249023
v 0 5.524658 2.289063
vn -0.8027344 -0.1992188 0.5625
vn -0.0703125 -0.1132813 0.9902344
vn -0.5585938 0.4960938 0.6660156
vn 0 0.6035156 0.796875
vt 0.1152344 -0.390625
vt 0.02636719 -0.4052734
vt 0.1123047 -0.2988281
vt 0.02636719 -0.3017578
f 149/149/149 150/150/150 151/151/151
f 150/150/150 152/152/152 151/151/151
v 0.2253418 5.223389 1.601807
v 0 5.154053 1.63916
v 0 3.36499 1.340332
v -0.347168 3.374756 1.27124
vn 0.7246094 -0.4804688 0.4941406
vn -0.0390625 -0.8535156 0.5175781
vn 0.05664063 -0.07617188 0.9960938
vn -0.4550781 0.03320313 0.890625
vt 0.4013672 -0.5458984
vt 0.3007813 -0.5478516
vt 0.2939453 -0.9912109
vt 0.4013672 -0.9921875
f 153/153/153 154/154/154 155/155/155
f 154/154/154 156/156/156 155/155/155
v 0.347168 3.374756 1.27124
v 0.2253418 5.223389 1.601807
v 0 3.36499 1.340332
v -0.2280273 5.828613 1.267822
v -0.501709 6.173584 1.05127
v -0.2905273 6.351318 1.178467
v -0.7753906 6.572266 1.139404
v -0.5029297 6.226563 1.35791
v -0.2905273 6.351318 1.178467
v -0.3066406 5.236572 1.467041
v -0.5803223 5.666504 1.331787
v -0.3242188 5.301514 1.270996
v -0.2253418 5.223389 1.601807
v -0.347168 3.374756 1.27124
v 0 5.154053 1.63916
v -0.2470703 5.402344 1.054443
v -0.3969727 5.801758 0.9887695
v 0 5.412842 0.9477539
v 0.2253418 5.223389 1.601807
v 0.1853027 5.174805 2.108887
v 0 5.154053 1.63916
v 0.7126465 6.049072 1.22583
v 0.501709 6.173584 1.05127
v 0.7751465 6.572266 1.139404
v 0 6.29541 1.427734
v 0 6.135254 1.081055
v -0.4006348 6.207031 1.422363
v 0.1591797 6.078857 1.26709
v 0.1831055 6.579834 1.313721
v 0.2856445 6.08252 1.37793
v 0.7126465 6.049072 1.22583
v 0.5029297 6.226563 1.35791
v 0.2280273 5.828613 1.267822
v -0.123291 6.5896 1.377197
v -0.03930664 6.098145 1.393799
v -0.1831055 6.579834 1.313721
v 0 6.135254 1.081055
v 0.3969727 5.801758 0.9887695
v 0 5.817139 0.894043
v 0.2770996 5.691406 1.976563
v 0.324707 6.0354 1.734619
v 0 6.093994 1.776611
v 0.2443848 5.324707 2.320313
v 0.3146973 5.489258 1.915039
v 0.232666 5.475098 2.249023
v 0.2856445 6.08252 1.37793
v 0.2463379 6.581787 1.369141
v 0.1867676 6.591553 1.434326
vn 0.5996094 0.06445313 0.7988281
vn 0.7246094 -0.4804688 0.4941406
vn 0.05664063 -0.07617188 0.9960938
vn 0.1894531 -0.4101563 -0.8925781
vn 0.005859375 -0.1660156 -0.9863281
vn 0.4140625 0.1503906 -0.8984375
vn -0.1933594 0.4101563 0.890625
vn -0.0078125 0.1660156 0.9863281
vn 0.4140625 0.4414063 0.796875
vn -0.8886719 -0.4003906 0.2246094
vn -0.9941406 -0.0546875 -0.0859375
vn -0.9550781 -0.1601563 -0.25
vn -0.78125 -0.4433594 0.4394531
vn -0.4550781 0.03320313 0.890625
vn -0.0390625 -0.8535156 0.5175781
vn -0.6445313 0.078125 -0.7597656
vn -0.5683594 0.009765625 -0.8222656
vn 0.046875 0.05664063 -0.9980469
vn 0.7246094 -0.4804688 0.4941406
vn 0.515625 -0.8515625 0.09375
vn -0.0390625 -0.8535156 0.5175781
vn 0.40625 -0.4375 -0.8027344
vn -0.005859375 -0.1660156 -0.9863281
vn 0.1796875 0.09375 -0.9785156
vn 0 0.9980469 0.04492188
vn 0 0.7285156 -0.6855469
vn -0.5410156 0.8398438 0.04492188
vn -0.0390625 0.09375 -0.9941406
vn 0 0.5917969 -0.8066406
vn 0.9941406 0.078125 -0.06054688
vn 0.4257813 -0.1601563 0.890625
vn 0.0078125 0.1660156 0.9863281
vn -0.1796875 -0.09765625 0.9785156
vn 0.7324219 0.6796875 -0.03125
vn 0.984375 0.1699219 0.02929688
vn 0 0.5917969 -0.8066406
vn 0 0.7285156 -0.6855469
vn 0.5683594 0.009765625 -0.8222656
vn 0 0.1992188 -0.9804688
vn 0.6445313 0.40625 0.6484375
vn 0.6113281 0.515625 0.6015625
vn 0 0.7304688 0.6816406
vn 0.7949219 -0.3652344 0.484375
vn 0.9277344 -0.2207031 0.2988281
vn 0.5585938 0.4960938 0.6660156
vn 0.9941406 0.078125 -0.06054688
vn 0.7929688 0.5996094 -0.09960938
vn 0.07617188 0.6757813 0.7324219
vt 0.4013672 -0.9921875
vt 0.4013672 -0.5458984
vt 0.2939453 -0.9912109
vt 0.05859375 -0.6621094
vt 0.05859375 -0.6103516
vt 0.08789063 -0.6103516
vt 0.1005859 -0.6767578
vt 0.1005859 -0.8232422
vt 0.01757813 -0.8242188
vt 0.4375 -0.4912109
vt 0.640625 -0.3291016
vt 0.5800781 -0.4951172
vt 0.4013672 -0.5458984
vt 0.4013672 -0.9921875
vt 0.3007813 -0.5478516
vt 0.7832031 -0.5166016
vt 0.765625 -0.3017578
vt 0.9697266 -0.4804688
vt 0.3017578 -0.453125
vt 0.1181641 -0.4599609
vt 0.125 -0.546875
vt 0.03027344 -0.6103516
vt 0.05859375 -0.6103516
vt 0.05859375 -0.5595703
vt 0.9677734 -0.06835938
vt 0.9677734 -0.1699219
vt 0.7617188 -0.07421875
vt 0.05566406 -0.1269531
vt 0.05566406 -0.01269531
vt 0.02050781 -0.1269531
vt 0.1826172 -0.8242188
vt 0.1005859 -0.8232422
vt 0.1005859 -0.9716797
vt 0.07421875 -0.01269531
vt 0.09179688 -0.1269531
vt 0.05566406 -0.01269531
vt 0.9677734 -0.1699219
vt 0.765625 -0.3017578
vt 0.9677734 -0.3007813
vt 0.2890625 -0.2119141
vt 0.4521484 -0.09472656
vt 0.3867188 -0.02832031
vt 0.1152344 -0.390625
vt 0.3105469 -0.3164063
vt 0.1123047 -0.2988281
vt 0.09179688 -0.1269531
vt 0.07421875 -0.01269531
vt 0.05566406 -0.01269531
f 157/157/157 158/158/158 159/159/159
f 160/160/160 161/161/161 162/162/162
f 163/163/163 164/164/164 165/165/165
f 166/166/166 167/167/167 168/168/168
f 169/169/169 170/170/170 171/171/171
f 172/172/172 173/173/173 174/174/174
f 175/175/175 176/176/176 177/177/177
f 178/178/178 179/179/179 180/180/180
f 181/181/181 182/182/182 183/183/183
f 184/184/184 185/185/185 186/186/186
f 187/187/187 188/188/188 189/189/189
f 190/190/190 191/191/191 192/192/192
f 193/193/193 194/194/194 195/195/195
f 196/196/196 197/197/197 198/198/198
f 199/199/199 200/200/200 201/201/201
f 202/202/202 203/203/203 204/204/204
g polygon1
usemtl Material58
v -0.5700684 2.416748 -0.9025879
v -0.5273438 2.368652 -0.3842773
v -0.6152344 2.526855 -0.9384766
v -0.7446289 2.678955 -0.3583984
v -0.6193848 2.572998 -1.056396
v -0.7851563 3.169922 -0.3457031
v -0.645752 3.005127 -1.047607
v -0.4707031 3.662598 -0.3322754
v -0.3391113 3.431396 -0.965332
v 0 3.720215 -0.3537598
v 0 3.489258 -0.9665527
v 0.4707031 3.662598 -0.3322754
v 0.3391113 3.431396 -0.965332
v 0.7851563 3.169922 -0.3457031
v 0.645752 3.005127 -1.047607
v 0.7446289 2.678955 -0.3583984
v 0.6193848 2.572998 -1.056396
v 0.6152344 2.526855 -0.9384766
vn -0.8632813 -0.2246094 -0.453125
vn -0.6992188 -0.6132813 0.3691406
vn -0.6425781 -0.6308594 -0.4355469
vn -0.9433594 -0.3320313 -0.005859375
vn -0.734375 -0.390625 -0.5566406
vn -0.9746094 0.1777344 -0.1386719
vn -0.7226563 0.3261719 -0.609375
vn -0.5703125 0.7792969 -0.2597656
vn -0.3007813 0.7207031 -0.625
vn 0.00390625 0.9511719 -0.3105469
vn 0.02734375 0.796875 -0.6035156
vn 0.4453125 0.8417969 -0.3046875
vn 0.4570313 0.6386719 -0.6171875
vn 0.9472656 0.2890625 -0.1328125
vn 0.7910156 0.1953125 -0.578125
vn 0.953125 -0.2988281 -0.0546875
vn 0.6367188 -0.4511719 -0.6269531
vn 0.6425781 -0.6308594 -0.4355469
vt 0.9160156 -0.9609375
vt 0.7382813 -0.9775391
vt 0.9277344 -0.9228516
vt 0.7294922 -0.8710938
vt 0.9677734 -0.9072266
vt 0.7255859 -0.7041016
vt 0.9648438 -0.7597656
vt 0.7207031 -0.5439453
vt 0.9365234 -0.6142578
vt 0.7285156 -0.3857422
vt 0.9375 -0.4648438
vt 0.7207031 -0.5439453
vt 0.9365234 -0.6142578
vt 0.7255859 -0.7041016
vt 0.9648438 -0.7597656
vt 0.7294922 -0.8710938
vt 0.9677734 -0.9072266
vt 0.9277344 -0.9228516
f 205/205/205 206/206/206 207/207/207
f 206/206/206 208/208/208 207/207/207
f 207/207/207 208/208/208 209/209/209
f 208/208/208 210/210/210 209/209/209
f 209/209/209 210/210/210 211/211/211
f 210/210/210 212/212/212 211/211/211
f 211/211/211 212/212/212 213/213/213
f 212/212/212 214/214/214 213/213/213
f 213/213/213 214/214/214 215/215/215
f 214/214/214 216/216/216 215/215/215
f 215/215/215 216/216/216 217/217/217
f 216/216/216 218/218/218 217/217/217
f 217/217/217 218/218/218 219/219/219
f 218/218/218 220/220/220 219/219/219
f 219/219/219 220/220/220 221/221/221
f 220/220/220 222/222/222 221/221/221
v 0.435791 3.84375 0.3867188
v 0 3.720215 -0.3537598
v 0 3.895508 0.2629395
v -0.4707031 3.662598 -0.3322754
v -0.435791 3.84375 0.3867188
v -0.763916 3.301758 0.416748
v -0.6779785 3.343506 1.041992
v -0.6494141 2.823242 1.06665
v -0.347168 3.374756 1.27124
v -0.3686523 2.832031 1.291504
v 0 2.832031 1.337646
v 0 2.387451 1.155762
vn 0.7089844 0.6035156 -0.3652344
vn 0.00390625 0.9511719 -0.3105469
vn -0.09570313 0.765625 -0.6367188
vn -0.5703125 0.7792969 -0.2597656
vn -0.8242188 0.5039063 -0.2597656
vn -0.9824219 0.1855469 0.0390625
vn -0.8828125 0.2871094 0.3710938
vn -0.8632813 -0.1171875 0.4921875
vn -0.4550781 0.03320313 0.890625
vn -0.375 -0.2285156 0.8984375
vn -0.04101563 -0.1484375 0.9882813
vn 0.009765625 -0.7832031 0.6210938
vt 0.4755859 -0.4736328
vt 0.7285156 -0.3857422
vt 0.5175781 -0.3261719
vt 0.7207031 -0.5439453
vt 0.4755859 -0.4736328
vt 0.4658203 -0.6591797
vt 0.2519531 -0.6445313
vt 0.2441406 -0.8222656
vt 0.1523438 -0.6337891
vt 0.1455078 -0.8193359
vt 0.03320313 -0.8193359
vt 0.03515625 -0.9707031
f 223/223/223 224/224/224 225/225/225
f 224/224/224 226/226/226 225/225/225
f 225/225/225 226/226/226 227/227/227
f 226/226/226 228/228/228 227/227/227
f 227/227/227 228/228/228 229/229/229
f 228/228/228 230/230/230 229/229/229
f 229/229/229 230/230/230 231/231/231
f 230/230/230 232/232/232 231/231/231
f 231/231/231 232/232/232 233/233/233
f 232/232/232 234/234/234 233/233/233
v 0.5700684 2.416748 -0.9025879
v 0.6152344 2.526855 -0.9384766
v 0.5273438 2.368652 -0.3842773
v 0.7446289 2.678955 -0.3583984
v 0.7084961 2.792725 0.447998
v 0.7851563 3.169922 -0.3457031
v 0.763916 3.301758 0.416748
v 0.435791 3.84375 0.3867188
v 0.5187988 3.765137 0.876709
vn 0.6464844 -0.1953125 -0.7363281
vn 0.6425781 -0.6308594 -0.4355469
vn 0.8535156 -0.4785156 0.203125
vn 0.953125 -0.2988281 -0.0546875
vn 0.9570313 -0.2773438 0.07617188
vn 0.9472656 0.2890625 -0.1328125
vn 0.9667969 0.2539063 0.03320313
vn 0.7089844 0.6035156 -0.3652344
vn 0.9355469 0.2910156 0.1992188
vt 0.9160156 -0.9609375
vt 0.9277344 -0.9228516
vt 0.7382813 -0.9775391
vt 0.7294922 -0.8710938
vt 0.4550781 -0.8330078
vt 0.7255859 -0.7041016
vt 0.4658203 -0.6591797
vt 0.4755859 -0.4736328
vt 0.3085938 -0.5009766
f 235/235/235 236/236/236 237/237/237
f 236/236/236 238/238/238 237/237/237
f 237/237/237 238/238/238 239/239/239
f 238/238/238 240/240/240 239/239/239
f 239/239/239 240/240/240 241/241/241
f 240/240/240 242/242/242 241/241/241
f 241/241/241 242/242/242 243/243/243
v 0.1435547 2.384766 1.069336
v 0 2.387451 1.155762
v 0.1154785 2.296143 0.4953613
v 0 2.287354 0.4953613
v 0.137207 2.229004 -0.3850098
v 0 2.220215 -0.3850098
v 0 2.552246 -1.147461
v -0.1369629 2.229004 -0.3850098
v -0.1555176 2.364502 -0.9711914
vn 0.01757813 -0.53125 0.8457031
vn 0.009765625 -0.7832031 0.6210938
vn -0.3535156 -0.9296875 -0.1035156
vn -0.001953125 -0.9941406 0.1132813
vn -0.1152344 -0.9550781 0.2734375
vn -0.015625 -0.9921875 -0.1171875
vn 0 -0.8007813 -0.5996094
vn 0.4921875 -0.8613281 0.1171875
vn 0.2109375 -0.359375 -0.9082031
vt 0.3876953 -0.09765625
vt 0.3769531 -0.02441406
vt 0.4570313 -0.09375
vt 0.4570313 -0.02441406
vt 0.5634766 -0.09667969
vt 0.5634766 -0.02441406
vt 0.6552734 -0.02441406
vt 0.5634766 -0.09667969
vt 0.6337891 -0.09960938
f 244/244/244 245/245/245 246/246/246
f 245/245/245 247/247/247 246/246/246
f 246/246/246 247/247/247 248/248/248
f 247/247/247 249/249/249 248/248/248
f 248/248/248 249/249/249 250/250/250
f 249/249/249 251/251/251 250/250/250
f 250/250/250 251/251/251 252/252/252
v -0.1369629 2.229004 -0.3850098
v -0.5273438 2.368652 -0.3842773
v -0.142334 1.628906 -0.4909668
v -0.479248 1.61084 -0.5024414
v -0.4626465 1.478271 -0.5148926
v -0.4824219 1.488525 -0.9428711
v -0.5102539 0.01538086 -0.8181152
v -0.2531738 0.01538086 -0.8310547
vn 0.4921875 -0.8613281 0.1171875
vn -0.6992188 -0.6132813 0.3691406
vn 0.4257813 -0.1289063 0.8964844
vn -0.8671875 -0.1503906 0.4746094
vn -0.7050781 -0.06054688 0.7070313
vn -0.7519531 -0.1210938 -0.6464844
vn -0.8242188 -0.4140625 -0.3847656
vn 0.265625 -0.7324219 -0.6269531
vt 0.7851563 -0.05859375
vt 0.8349609 -0.01953125
vt 0.7861328 -0.09082031
vt 0.8359375 -0.0859375
vt 0.8369141 -0.1142578
vt 0.9042969 -0.1113281
vt 0.9033203 -0.2666016
vt 0.9638672 -0.2666016
f 253/253/253 254/254/254 255/255/255
f 254/254/254 256/256/256 255/255/255
f 255/255/255 256/256/256 257/257/257
f 256/256/256 258/258/258 257/257/257
f 257/257/257 258/258/258 259/259/259
f 258/258/258 260/260/260 259/259/259
v 0.1555176 2.364502 -0.9711914
v 0.5700684 2.416748 -0.9025879
v 0.1516113 1.636475 -1.00708
v 0.5048828 1.628906 -0.9533691
v 0.482666 1.488525 -0.9428711
v 0.4626465 1.478271 -0.5148926
v 0.5102539 0.01367188 -0.487793
v 0.2800293 0.01367188 -0.487793
vn -0.5253906 -0.40625 -0.7480469
vn 0.6464844 -0.1953125 -0.7363281
vn -0.3339844 -0.02734375 -0.9414063
vn 0.9199219 -0.1054688 -0.3769531
vn 0.7617188 -0.09179688 -0.6425781
vn 0.6933594 -0.07226563 0.7167969
vn 0.8203125 -0.3808594 0.4277344
vn -0.3144531 -0.6699219 0.6738281
vt 0.9628906 -0.02929688
vt 0.9042969 -0.0078125
vt 0.9628906 -0.08886719
vt 0.9042969 -0.08105469
vt 0.9042969 -0.1113281
vt 0.8369141 -0.1142578
vt 0.8388672 -0.2666016
vt 0.7910156 -0.2666016
f 261/261/261 262/262/262 263/263/263
f 262/262/262 264/264/264 263/263/263
f 263/263/263 264/264/264 265/265/265
f 264/264/264 266/266/266 265/265/265
f 265/265/265 266/266/266 267/267/267
f 266/266/266 268/268/268 267/267/267
v -0.1555176 2.364502 -0.9711914
v -0.1369629 2.229004 -0.3850098
v -0.1516113 1.636475 -1.00708
v -0.142334 1.628906 -0.4909668
v -0.1452637 1.495361 -0.5053711
v -0.4626465 1.478271 -0.5148926
v -0.5102539 0.01367188 -0.487793
v -0.5102539 0.01538086 -0.8181152
vn 0.2109375 -0.359375 -0.9082031
vn 0.4921875 -0.8613281 0.1171875
vn 0.875 -0.02148438 -0.4824219
vn 0.4257813 -0.1289063 0.8964844
vn 0.7050781 -0.04296875 0.7089844
vn -0.7050781 -0.06054688 0.7070313
vn -0.3476563 -0.6542969 0.671875
vn -0.8242188 -0.4140625 -0.3847656
vt 0.7119141 -0.02929688
vt 0.7851563 -0.05859375
vt 0.7128906 -0.08886719
vt 0.7861328 -0.09082031
vt 0.7861328 -0.1191406
vt 0.8369141 -0.1142578
vt 0.8388672 -0.2666016
vt 0.9033203 -0.2666016
f 269/269/269 270/270/270 271/271/271
f 270/270/270 272/272/272 271/271/271
f 271/271/271 272/272/272 273/273/273
f 272/272/272 274/274/274 273/273/273
f 273/273/273 274/274/274 275/275/275
f 274/274/274 276/276/276 275/275/275
v 0.1154785 2.296143 0.4953613
v 0.5095215 2.436279 0.4597168
v 0.1123047 1.638672 0.5339355
v 0.4602051 1.625732 0.517334
v 0.4438477 1.503906 0.5366211
v 0.4680176 1.501709 0.9709473
v 0.4934082 0.007568359 0.9658203
v 0.2661133 0.007568359 0.9929199
vn -0.3535156 -0.9296875 -0.1035156
vn 0.7441406 -0.578125 -0.3339844
vn -0.5 -0.09375 -0.8613281
vn 0.859375 -0.140625 -0.4921875
vn 0.6621094 -0.1191406 -0.7402344
vn 0.7792969 -0.07226563 0.6230469
vn 0.8515625 -0.390625 0.3515625
vn -0.2207031 -0.6894531 0.6894531
vt 0.9609375 -0.05371094
vt 0.9101563 -0.01171875
vt 0.9609375 -0.08300781
vt 0.9091797 -0.07617188
vt 0.9091797 -0.1025391
vt 0.8457031 -0.109375
vt 0.8496094 -0.2666016
vt 0.7871094 -0.2666016
f 277/277/277 278/278/278 279/279/279
f 278/278/278 280/280/280 279/279/279
f 279/279/279 280/280/280 281/281/281
f 280/280/280 282/282/282 281/281/281
f 281/281/281 282/282/282 283/283/283
f 282/282/282 284/284/284 283/283/283
v 0.5700684 2.416748 -0.9025879
v 0.5273438 2.368652 -0.3842773
v 0.5048828 1.628906 -0.9533691
v 0.479248 1.61084 -0.5024414
v 0.4626465 1.478271 -0.5148926
v 0.1455078 1.495361 -0.5053711
v 0.2800293 0.01367188 -0.487793
v 0.2531738 0.01538086 -0.8310547
vn 0.6464844 -0.1953125 -0.7363281
vn 0.8535156 -0.4785156 0.203125
vn 0.9199219 -0.1054688 -0.3769531
vn 0.4570313 -0.1582031 0.875
vn 0.6933594 -0.07226563 0.7167969
vn -0.6875 -0.08789063 0.7207031
vn -0.3144531 -0.6699219 0.6738281
vn -0.7773438 -0.5058594 -0.3730469
vt 0.9042969 -0.0078125
vt 0.8349609 -0.01953125
vt 0.9042969 -0.08105469
vt 0.8359375 -0.0859375
vt 0.8369141 -0.1142578
vt 0.7861328 -0.1191406
vt 0.7910156 -0.2666016
vt 0.7138672 -0.2666016
f 285/285/285 286/286/286 287/287/287
f 286/286/286 288/288/288 287/287/287
f 287/287/287 288/288/288 289/289/289
f 288/288/288 290/290/290 289/289/289
f 289/289/289 290/290/290 291/291/291
f 290/290/290 292/292/292 291/291/291
v 0.5095215 2.436279 0.4597168
v 0.5388184 2.421387 0.9750977
v 0.4602051 1.625732 0.517334
v 0.4875488 1.632324 0.972168
v 0.4680176 1.501709 0.9709473
v 0.1384277 1.509033 1.037598
v 0.2661133 0.007568359 0.9929199
v 0.2219238 0.008789063 0.6682129
vn 0.7441406 -0.578125 -0.3339844
vn 0.8789063 -0.2167969 0.4257813
vn 0.859375 -0.140625 -0.4921875
vn 0.5976563 -0.078125 0.7988281
vn 0.7792969 -0.07226563 0.6230469
vn -0.5976563 -0.06835938 0.7988281
vn -0.2207031 -0.6894531 0.6894531
vn -0.8203125 -0.4785156 -0.3105469
vt 0.9101563 -0.01171875
vt 0.84375 -0.0234375
vt 0.9091797 -0.07617188
vt 0.8457031 -0.08105469
vt 0.8457031 -0.109375
vt 0.7871094 -0.1181641
vt 0.7871094 -0.2666016
vt 0.7109375 -0.2666016
f 293/293/293 294/294/294 295/295/295
f 294/294/294 296/296/296 295/295/295
f 295/295/295 296/296/296 297/297/297
f 296/296/296 298/298/298 297/297/297
f 297/297/297 298/298/298 299/299/299
f 298/298/298 300/300/300 299/299/299
v -0.1154785 2.296143 0.4953613
v -0.1435547 2.384766 1.069336
v -0.1120605 1.638672 0.5339355
v -0.1396484 1.629395 1.046631
v -0.1384277 1.509033 1.037598
v -0.4680176 1.501709 0.9709473
v -0.4934082 0.007568359 0.9658203
v -0.4729004 0.009033203 0.6318359
vn 0.04296875 -0.9570313 -0.2851563
vn 0.2421875 -0.7324219 0.6367188
vn 0.9179688 -0.04296875 -0.3945313
vn 0.2753906 -0.03710938 0.9609375
vn 0.6210938 -0.03710938 0.7832031
vn -0.7910156 -0.05078125 0.609375
vn -0.4296875 -0.6542969 0.6210938
vn -0.7734375 -0.4316406 -0.4628906
vt 0.7128906 -0.05371094
vt 0.7871094 -0.04394531
vt 0.7128906 -0.08300781
vt 0.7871094 -0.09277344
vt 0.7871094 -0.1181641
vt 0.8457031 -0.109375
vt 0.8496094 -0.2666016
vt 0.9082031 -0.2666016
f 301/301/301 302/302/302 303/303/303
f 302/302/302 304/304/304 303/303/303
f 303/303/303 304/304/304 305/305/305
f 304/304/304 306/306/306 305/305/305
f 305/305/305 306/306/306 307/307/307
f 306/306/306 308/308/308 307/307/307
v -0.1435547 2.384766 1.069336
v -0.5388184 2.421387 0.9750977
v -0.1396484 1.629395 1.046631
v -0.4875488 1.632324 0.972168
v -0.4680176 1.501709 0.9709473
v -0.4436035 1.503906 0.5366211
v -0.4729004 0.009033203 0.6318359
v -0.2219238 0.008789063 0.6682129
vn 0.2421875 -0.7324219 0.6367188
vn -0.6855469 -0.2089844 0.6972656
vn 0.2753906 -0.03710938 0.9609375
vn -0.9257813 -0.1015625 0.3632813
vn -0.7910156 -0.05078125 0.609375
vn -0.6484375 -0.1347656 -0.75
vn -0.7734375 -0.4316406 -0.4628906
vn 0.3808594 -0.7070313 -0.5957031
vt 0.7871094 -0.04394531
vt 0.84375 -0.0234375
vt 0.7871094 -0.09277344
vt 0.8457031 -0.08105469
vt 0.8457031 -0.109375
vt 0.9091797 -0.1025391
vt 0.9082031 -0.2666016
vt 0.9589844 -0.2666016
f 309/309/309 310/310/310 311/311/311
f 310/310/310 312/312/312 311/311/311
f 311/311/311 312/312/312 313/313/313
f 312/312/312 314/314/314 313/313/313
f 313/313/313 314/314/314 315/315/315
f 314/314/314 316/316/316 315/315/315
v 0.5388184 2.421387 0.9750977
v 0.1435547 2.384766 1.069336
v 0.4875488 1.632324 0.972168
v 0.1398926 1.629395 1.046631
v 0.1384277 1.509033 1.037598
v 0.1105957 1.530518 0.5537109
v 0.2219238 0.008789063 0.6682129
vn 0.8789063 -0.2167969 0.4257813
vn 0.01757813 -0.53125 0.8457031
vn 0.5976563 -0.078125 0.7988281
vn -0.8554688 -0.01367188 0.5175781
vn -0.5976563 -0.06835938 0.7988281
vn -0.7558594 -0.08398438 -0.6503906
vn -0.8203125 -0.4785156 -0.3105469
vt 0.84375 -0.0234375
vt 0.7871094 -0.04394531
vt 0.8457031 -0.08105469
vt 0.7871094 -0.09277344
vt 0.7871094 -0.1181641
vt 0.7128906 -0.1064453
vt 0.7109375 -0.2666016
f 317/317/317 318/318/318 319/319/319
f 318/318/318 320/320/320 319/319/319
f 319/319/319 320/320/320 321/321/321
f 320/320/320 322/322/322 321/321/321
f 321/321/321 322/322/322 323/323/323
v 0.5273438 2.368652 -0.3842773
v 0.137207 2.229004 -0.3850098
v 0.479248 1.61084 -0.5024414
v 0.142334 1.628906 -0.4909668
v 0.1455078 1.495361 -0.5053711
v 0.1499023 1.491943 -0.9882813
v 0.2531738 0.01538086 -0.8310547
vn 0.8535156 -0.4785156 0.203125
vn -0.1152344 -0.9550781 0.2734375
vn 0.4570313 -0.1582031 0.875
vn -0.8984375 -0.06640625 0.4335938
vn -0.6875 -0.08789063 0.7207031
vn -0.6640625 -0.09765625 -0.7421875
vn -0.7773438 -0.5058594 -0.3730469
vt 0.8349609 -0.01953125
vt 0.7851563 -0.05859375
vt 0.8359375 -0.0859375
vt 0.7861328 -0.09082031
vt 0.7861328 -0.1191406
vt 0.7128906 -0.1191406
vt 0.7138672 -0.2666016
f 324/324/324 325/325/325 326/326/326
f 325/325/325 327/327/327 326/326/326
f 326/326/326 327/327/327 328/328/328
f 327/327/327 329/329/329 328/328/328
f 328/328/328 329/329/329 330/330/330
v -0.5273438 2.368652 -0.3842773
v -0.5700684 2.416748 -0.9025879
v -0.479248 1.61084 -0.5024414
v -0.5048828 1.628906 -0.9533691
v -0.4824219 1.488525 -0.9428711
v -0.1499023 1.491943 -0.9882813
v -0.2531738 0.01538086 -0.8310547
vn -0.6992188 -0.6132813 0.3691406
vn -0.8632813 -0.2246094 -0.453125
vn -0.8671875 -0.1503906 0.4746094
vn -0.5546875 -0.078125 -0.828125
vn -0.7519531 -0.1210938 -0.6464844
vn 0.6601563 -0.1191406 -0.7421875
vn 0.265625 -0.7324219 -0.6269531
vt 0.8349609 -0.01953125
vt 0.9042969 -0.0078125
vt 0.8359375 -0.0859375
vt 0.9042969 -0.08105469
vt 0.9042969 -0.1113281
vt 0.9628906 -0.1191406
vt 0.9638672 -0.2666016
f 331/331/331 332/332/332 333/333/333
f 332/332/332 334/334/334 333/333/333
f 333/333/333 334/334/334 335/335/335
f 334/334/334 336/336/336 335/335/335
f 335/335/335 336/336/336 337/337/337
v 0.5187988 3.765137 0.876709
v 0.347168 3.374756 1.27124
v 0.6779785 3.343506 1.041992
v 0.3686523 2.832031 1.291504
v 0.6494141 2.823242 1.06665
v 0.5681152 2.515625 1.013184
v 0.7084961 2.792725 0.447998
vn 0.9355469 0.2910156 0.1992188
vn 0.5996094 0.06445313 0.7988281
vn 0.859375 0.1425781 0.4902344
vn 0.3828125 -0.1621094 0.9101563
vn 0.8652344 -0.1660156 0.4726563
vn 0.7070313 -0.5039063 0.4960938
vn 0.9570313 -0.2773438 0.07617188
vt 0.3085938 -0.5009766
vt 0.1523438 -0.6337891
vt 0.2519531 -0.6445313
vt 0.1455078 -0.8193359
vt 0.2441406 -0.8222656
vt 0.2617188 -0.9267578
vt 0.4550781 -0.8330078
f 338/338/338 339/339/339 340/340/340
f 339/339/339 341/341/341 340/340/340
f 340/340/340 341/341/341 342/342/342
f 341/341/341 343/343/343 342/342/342
f 342/342/342 343/343/343 344/344/344
v -0.5388184 2.421387 0.9750977
v -0.5095215 2.436279 0.4597168
v -0.4875488 1.632324 0.972168
v -0.4602051 1.625732 0.517334
v -0.4436035 1.503906 0.5366211
v -0.1105957 1.530518 0.5537109
v -0.2219238 0.008789063 0.6682129
vn -0.6855469 -0.2089844 0.6972656
vn -0.8808594 -0.4492188 -0.1445313
vn -0.9257813 -0.1015625 0.3632813
vn -0.390625 -0.1464844 -0.9082031
vn -0.6484375 -0.1347656 -0.75
vn 0.7519531 -0.125 -0.6484375
vn 0.3808594 -0.7070313 -0.5957031
vt 0.84375 -0.0234375
vt 0.9101563 -0.01171875
vt 0.8457031 -0.08105469
vt 0.9091797 -0.07617188
vt 0.9091797 -0.1025391
vt 0.9609375 -0.1064453
vt 0.9589844 -0.2666016
f 345/345/345 346/346/346 347/347/347
f 346/346/346 348/348/348 347/347/347
f 347/347/347 348/348/348 349/349/349
f 348/348/348 350/350/350 349/349/349
f 349/349/349 350/350/350 351/351/351
v 0.1435547 2.384766 1.069336
v 0.5681152 2.515625 1.013184
v 0 2.387451 1.155762
v 0.3686523 2.832031 1.291504
v 0 2.832031 1.337646
v 0 3.36499 1.340332
v -0.347168 3.374756 1.27124
vn 0.01757813 -0.53125 0.8457031
vn 0.7070313 -0.5039063 0.4960938
vn 0.009765625 -0.7832031 0.6210938
vn 0.3828125 -0.1621094 0.9101563
vn -0.04101563 -0.1484375 0.9882813
vn 0.05664063 -0.07617188 0.9960938
vn -0.4550781 0.03320313 0.890625
vt 0.2431641 -0.9716797
vt 0.2617188 -0.9267578
vt 0.03515625 -0.9707031
vt 0.1455078 -0.8193359
vt 0.03320313 -0.8193359
vt 0.03222656 -0.6376953
vt 0.1523438 -0.6337891
f 352/352/352 353/353/353 354/354/354
f 353/353/353 355/355/355 354/354/354
f 354/354/354 355/355/355 356/356/356
f 355/355/355 357/357/357 356/356/356
f 356/356/356 357/357/357 358/358/358
v -0.5273438 2.368652 -0.3842773
v -0.5095215 2.436279 0.4597168
v -0.7446289 2.678955 -0.3583984
v -0.7084961 2.792725 0.447998
v -0.763916 3.301758 0.416748
v -0.6494141 2.823242 1.06665
vn -0.6992188 -0.6132813 0.3691406
vn -0.8808594 -0.4492188 -0.1445313
vn -0.9433594 -0.3320313 -0.005859375
vn -0.953125 -0.2949219 0.0703125
vn -0.9824219 0.1855469 0.0390625
vn -0.8632813 -0.1171875 0.4921875
vt 0.7382813 -0.9775391
vt 0.4511719 -0.9541016
vt 0.7294922 -0.8710938
vt 0.4550781 -0.8330078
vt 0.4658203 -0.6591797
vt 0.2441406 -0.8222656
f 359/359/359 360/360/360 361/361/361
f 360/360/360 362/362/362 361/361/361
f 361/361/361 362/362/362 363/363/363
f 362/362/362 364/364/364 363/363/363
v 0.5273438 2.368652 -0.3842773
v 0.7084961 2.792725 0.447998
v 0.5095215 2.436279 0.4597168
v 0.5681152 2.515625 1.013184
v 0.5388184 2.421387 0.9750977
v 0.1435547 2.384766 1.069336
vn 0.8535156 -0.4785156 0.203125
vn 0.9570313 -0.2773438 0.07617188
vn 0.7441406 -0.578125 -0.3339844
vn 0.7070313 -0.5039063 0.4960938
vn 0.8789063 -0.2167969 0.4257813
vn 0.01757813 -0.53125 0.8457031
vt 0.7382813 -0.9775391
vt 0.4550781 -0.8330078
vt 0.4511719 -0.9541016
vt 0.2617188 -0.9267578
vt 0.2753906 -0.9589844
vt 0.2431641 -0.9716797
f 365/365/365 366/366/366 367/367/367
f 366/366/366 368/368/368 367/367/367
f 367/367/367 368/368/368 369/369/369
f 368/368/368 370/370/370 369/369/369
v 0.5700684 2.416748 -0.9025879
v 0.1555176 2.364502 -0.9711914
v 0.6152344 2.526855 -0.9384766
v 0 2.552246 -1.147461
v 0.6193848 2.572998 -1.056396
vn 0.6464844 -0.1953125 -0.7363281
vn -0.5253906 -0.40625 -0.7480469
vn 0.6425781 -0.6308594 -0.4355469
vn 0 -0.8007813 -0.5996094
vn 0.6367188 -0.4511719 -0.6269531
vt 0.3837891 -0.2363281
vt 0.609375 -0.2392578
vt 0.3867188 -0.2128906
vt 0.6669922 -0.1884766
vt 0.3935547 -0.1816406
f 371/371/371 372/372/372 373/373/373
f 372/372/372 374/374/374 373/373/373
f 373/373/373 374/374/374 375/375/375
v 0 3.489258 -0.9665527
v 0.3391113 3.431396 -0.965332
v 0 2.875488 -1.300293
v 0.645752 3.005127 -1.047607
v 0.6193848 2.572998 -1.056396
vn 0.02734375 0.796875 -0.6035156
vn 0.4570313 0.6386719 -0.6171875
vn 0 0.1152344 -0.9941406
vn 0.7910156 0.1953125 -0.578125
vn 0.6367188 -0.4511719 -0.6269531
vt 0.1884766 -0.03222656
vt 0.2753906 -0.046875
vt 0.1884766 -0.1904297
vt 0.3652344 -0.1582031
vt 0.3583984 -0.3046875
f 376/376/376 377/377/377 378/378/378
f 377/377/377 379/379/379 378/378/378
f 378/378/378 379/379/379 380/380/380
v 0.6193848 2.572998 -1.056396
v 0 2.552246 -1.147461
v 0 2.875488 -1.300293
v -0.6193848 2.572998 -1.056396
v -0.645752 3.005127 -1.047607
vn 0.6367188 -0.4511719 -0.6269531
vn 0 -0.8007813 -0.5996094
vn 0 0.1152344 -0.9941406
vn -0.734375 -0.390625 -0.5566406
vn -0.7226563 0.3261719 -0.609375
vt 0.3583984 -0.3046875
vt 0.1884766 -0.3125
vt 0.1884766 -0.1904297
vt 0.01855469 -0.3046875
vt 0.01171875 -0.1582031
f 381/381/381 382/382/382 383/383/383
f 382/382/382 384/384/384 383/383/383
f 383/383/383 384/384/384 385/385/385
v -0.2531738 0.01538086 -0.8310547
v -0.1499023 1.491943 -0.9882813
v -0.2800293 0.01367188 -0.487793
v -0.1452637 1.495361 -0.5053711
v -0.5102539 0.01367188 -0.487793
vn 0.265625 -0.7324219 -0.6269531
vn 0.6601563 -0.1191406 -0.7421875
vn 0.7871094 -0.4511719 0.4199219
vn 0.7050781 -0.04296875 0.7089844
vn -0.3476563 -0.6542969 0.671875
vt 0.7138672 -0.2666016
vt 0.7128906 -0.1191406
vt 0.7910156 -0.2666016
vt 0.7861328 -0.1191406
vt 0.8388672 -0.2666016
f 386/386/386 387/387/387 388/388/388
f 387/387/387 389/389/389 388/388/388
f 388/388/388 389/389/389 390/390/390
v 0.1435547 2.384766 1.069336
v 0.1154785 2.296143 0.4953613
v 0.1398926 1.629395 1.046631
v 0.1123047 1.638672 0.5339355
v 0.1105957 1.530518 0.5537109
vn 0.01757813 -0.53125 0.8457031
vn -0.3535156 -0.9296875 -0.1035156
vn -0.8554688 -0.01367188 0.5175781
vn -0.5 -0.09375 -0.8613281
vn -0.7558594 -0.08398438 -0.6503906
vt 0.7871094 -0.04394531
vt 0.7128906 -0.05371094
vt 0.7871094 -0.09277344
vt 0.7128906 -0.08300781
vt 0.7128906 -0.1064453
f 391/391/391 392/392/392 393/393/393
f 392/392/392 394/394/394 393/393/393
f 393/393/393 394/394/394 395/395/395
v -0.2219238 0.008789063 0.6682129
v -0.1105957 1.530518 0.5537109
v -0.2661133 0.007568359 0.9929199
v -0.1384277 1.509033 1.037598
v -0.4934082 0.007568359 0.9658203
vn 0.3808594 -0.7070313 -0.5957031
vn 0.7519531 -0.125 -0.6484375
vn 0.7480469 -0.46875 0.4707031
vn 0.6210938 -0.03710938 0.7832031
vn -0.4296875 -0.6542969 0.6210938
vt 0.7109375 -0.2666016
vt 0.7128906 -0.1064453
vt 0.7871094 -0.2666016
vt 0.7871094 -0.1181641
vt 0.8496094 -0.2666016
f 396/396/396 397/397/397 398/398/398
f 397/397/397 399/399/399 398/398/398
f 398/398/398 399/399/399 400/400/400
v -0.5095215 2.436279 0.4597168
v -0.1154785 2.296143 0.4953613
v -0.4602051 1.625732 0.517334
v -0.1120605 1.638672 0.5339355
v -0.1105957 1.530518 0.5537109
vn -0.8808594 -0.4492188 -0.1445313
vn 0.04296875 -0.9570313 -0.2851563
vn -0.390625 -0.1464844 -0.9082031
vn 0.9179688 -0.04296875 -0.3945313
vn 0.7519531 -0.125 -0.6484375
vt 0.9101563 -0.01171875
vt 0.9609375 -0.05371094
vt 0.9091797 -0.07617188
vt 0.9609375 -0.08300781
vt 0.9609375 -0.1064453
f 401/401/401 402/402/402 403/403/403
f 402/402/402 404/404/404 403/403/403
f 403/403/403 404/404/404 405/405/405
v -0.1435547 2.384766 1.069336
v 0 2.387451 1.155762
v -0.5681152 2.515625 1.013184
v -0.3686523 2.832031 1.291504
v -0.6494141 2.823242 1.06665
vn 0.2421875 -0.7324219 0.6367188
vn 0.009765625 -0.7832031 0.6210938
vn -0.7070313 -0.5039063 0.4960938
vn -0.375 -0.2285156 0.8984375
vn -0.8632813 -0.1171875 0.4921875
vt 0.2431641 -0.9716797
vt 0.03515625 -0.9707031
vt 0.2617188 -0.9267578
vt 0.1455078 -0.8193359
vt 0.2441406 -0.8222656
f 406/406/406 407/407/407 408/408/408
f 407/407/407 409/409/409 408/408/408
f 408/408/408 409/409/409 410/410/410
v 0 2.387451 1.155762
v -0.1435547 2.384766 1.069336
v 0 2.287354 0.4953613
v -0.1154785 2.296143 0.4953613
v 0 2.220215 -0.3850098
vn 0.009765625 -0.7832031 0.6210938
vn 0.2421875 -0.7324219 0.6367188
vn -0.001953125 -0.9941406 0.1132813
vn 0.04296875 -0.9570313 -0.2851563
vn -0.015625 -0.9921875 -0.1171875
vt 0.3769531 -0.02441406
vt 0.3876953 -0.09765625
vt 0.4570313 -0.02441406
vt 0.4570313 -0.09375
vt 0.5634766 -0.02441406
f 411/411/411 412/412/412 413/413/413
f 412/412/412 414/414/414 413/413/413
f 413/413/413 414/414/414 415/415/415
v 0.2531738 0.01538086 -0.8310547
v 0.1499023 1.491943 -0.9882813
v 0.5102539 0.01538086 -0.8181152
v 0.482666 1.488525 -0.9428711
v 0.5102539 0.01367188 -0.487793
vn -0.7773438 -0.5058594 -0.3730469
vn -0.6640625 -0.09765625 -0.7421875
vn 0.3730469 -0.6835938 -0.6289063
vn 0.7617188 -0.09179688 -0.6425781
vn 0.8203125 -0.3808594 0.4277344
vt 0.9638672 -0.2666016
vt 0.9628906 -0.1191406
vt 0.9033203 -0.2666016
vt 0.9042969 -0.1113281
vt 0.8388672 -0.2666016
f 416/416/416 417/417/417 418/418/418
f 417/417/417 419/419/419 418/418/418
f 418/418/418 419/419/419 420/420/420
v 0.137207 2.229004 -0.3850098
v 0.1555176 2.364502 -0.9711914
v 0.142334 1.628906 -0.4909668
v 0.1516113 1.636475 -1.00708
v 0.1499023 1.491943 -0.9882813
vn -0.1152344 -0.9550781 0.2734375
vn -0.5253906 -0.40625 -0.7480469
vn -0.8984375 -0.06640625 0.4335938
vn -0.3339844 -0.02734375 -0.9414063
vn -0.6640625 -0.09765625 -0.7421875
vt 0.7851563 -0.05859375
vt 0.7119141 -0.02929688
vt 0.7861328 -0.09082031
vt 0.7128906 -0.08886719
vt 0.7128906 -0.1191406
f 421/421/421 422/422/422 423/423/423
f 422/422/422 424/424/424 423/423/423
f 423/423/423 424/424/424 425/425/425
v -0.5095215 2.436279 0.4597168
v -0.5273438 2.368652 -0.3842773
v -0.1154785 2.296143 0.4953613
v -0.1369629 2.229004 -0.3850098
v 0 2.220215 -0.3850098
vn -0.8808594 -0.4492188 -0.1445313
vn -0.6992188 -0.6132813 0.3691406
vn 0.04296875 -0.9570313 -0.2851563
vn 0.4921875 -0.8613281 0.1171875
vn -0.015625 -0.9921875 -0.1171875
vt 0.4609375 -0.1484375
vt 0.5634766 -0.1513672
vt 0.4570313 -0.09375
vt 0.5634766 -0.09667969
vt 0.5634766 -0.02441406
f 426/426/426 427/427/427 428/428/428
f 427/427/427 429/429/429 428/428/428
f 428/428/428 429/429/429 430/430/430
v -0.5700684 2.416748 -0.9025879
v -0.1555176 2.364502 -0.9711914
v -0.5048828 1.628906 -0.9533691
v -0.1516113 1.636475 -1.00708
v -0.1499023 1.491943 -0.9882813
vn -0.8632813 -0.2246094 -0.453125
vn 0.2109375 -0.359375 -0.9082031
vn -0.5546875 -0.078125 -0.828125
vn 0.875 -0.02148438 -0.4824219
vn 0.6601563 -0.1191406 -0.7421875
vt 0.9042969 -0.0078125
vt 0.9628906 -0.02929688
vt 0.9042969 -0.08105469
vt 0.9628906 -0.08886719
vt 0.9628906 -0.1191406
f 431/431/431 432/432/432 433/433/433
f 432/432/432 434/434/434 433/433/433
f 433/433/433 434/434/434 435/435/435
v 0.2219238 0.008789063 0.6682129
v 0.1105957 1.530518 0.5537109
v 0.4731445 0.009033203 0.6318359
v 0.4438477 1.503906 0.5366211
v 0.4934082 0.007568359 0.9658203
vn -0.8203125 -0.4785156 -0.3105469
vn -0.7558594 -0.08398438 -0.6503906
vn 0.2597656 -0.6953125 -0.6699219
vn 0.6621094 -0.1191406 -0.7402344
vn 0.8515625 -0.390625 0.3515625
vt 0.9589844 -0.2666016
vt 0.9609375 -0.1064453
vt 0.9082031 -0.2666016
vt 0.9091797 -0.1025391
vt 0.8496094 -0.2666016
f 436/436/436 437/437/437 438/438/438
f 437/437/437 439/439/439 438/438/438
f 438/438/438 439/439/439 440/440/440
v -0.347168 3.374756 1.27124
v -0.5187988 3.765137 0.876709
v -0.6779785 3.343506 1.041992
v -0.435791 3.84375 0.3867188
vn -0.4550781 0.03320313 0.890625
vn -0.9472656 0.1738281 0.2675781
vn -0.8828125 0.2871094 0.3710938
vn -0.8242188 0.5039063 -0.2597656
vt 0.1523438 -0.6337891
vt 0.3085938 -0.5009766
vt 0.2519531 -0.6445313
vt 0.4755859 -0.4736328
f 441/441/441 442/442/442 443/443/443
f 442/442/442 444/444/444 443/443/443
v 0.5187988 3.765137 0.876709
v 0.6779785 3.343506 1.041992
v 0.763916 3.301758 0.416748
v 0.7084961 2.792725 0.447998
vn 0.9355469 0.2910156 0.1992188
vn 0.859375 0.1425781 0.4902344
vn 0.9667969 0.2539063 0.03320313
vn 0.9570313 -0.2773438 0.07617188
vt 0.3085938 -0.5009766
vt 0.2519531 -0.6445313
vt 0.4658203 -0.6591797
vt 0.4550781 -0.8330078
f 445/445/445 446/446/446 447/447/447
f 446/446/446 448/448/448 447/447/447
v 0.7851563 3.169922 -0.3457031
v 0.4707031 3.662598 -0.3322754
v 0.435791 3.84375 0.3867188
v 0 3.720215 -0.3537598
vn 0.9472656 0.2890625 -0.1328125
vn 0.4453125 0.8417969 -0.3046875
vn 0.7089844 0.6035156 -0.3652344
vn 0.00390625 0.9511719 -0.3105469
vt 0.7255859 -0.7041016
vt 0.7207031 -0.5439453
vt 0.4755859 -0.4736328
vt 0.7285156 -0.3857422
f 449/449/449 450/450/450 451/451/451
f 450/450/450 452/452/452 451/451/451
v -0.5095215 2.436279 0.4597168
v -0.5681152 2.515625 1.013184
v -0.7084961 2.792725 0.447998
v -0.6494141 2.823242 1.06665
vn -0.8808594 -0.4492188 -0.1445313
vn -0.7070313 -0.5039063 0.4960938
vn -0.953125 -0.2949219 0.0703125
vn -0.8632813 -0.1171875 0.4921875
vt 0.4511719 -0.9541016
vt 0.2617188 -0.9267578
vt 0.4550781 -0.8330078
vt 0.2441406 -0.8222656
f 453/453/453 454/454/454 455/455/455
f 454/454/454 456/456/456 455/455/455
v -0.7446289 2.678955 -0.3583984
v -0.763916 3.301758 0.416748
v -0.7851563 3.169922 -0.3457031
v -0.4707031 3.662598 -0.3322754
vn -0.9433594 -0.3320313 -0.005859375
vn -0.9824219 0.1855469 0.0390625
vn -0.9746094 0.1777344 -0.1386719
vn -0.5703125 0.7792969 -0.2597656
vt 0.7294922 -0.8710938
vt 0.4658203 -0.6591797
vt 0.7255859 -0.7041016
vt 0.7207031 -0.5439453
f 457/457/457 458/458/458 459/459/459
f 458/458/458 460/460/460 459/459/459
v 0 2.472168 -2.054688
v 0.1237793 2.767334 -1.495117
v -0.1237793 2.767334 -1.495117
v 0 2.879395 -1.147705
vn 0 -0.8847656 0.4667969
vn 0 -0.921875 0.3886719
vn -0.8808594 -0.3984375 0.2578125
vn -0.6035156 -0.6699219 0.4316406
vt 0.02441406 -0.4306641
vt 0.2001953 -0.4550781
vt 0.2001953 -0.4052734
vt 0.3310547 -0.4306641
f 461/461/461 462/462/462 463/463/463
f 462/462/462 464/464/464 463/463/463
v 0.5273438 2.368652 -0.3842773
v 0.5095215 2.436279 0.4597168
v 0.137207 2.229004 -0.3850098
v 0.1154785 2.296143 0.4953613
vn 0.8535156 -0.4785156 0.203125
vn 0.7441406 -0.578125 -0.3339844
vn -0.1152344 -0.9550781 0.2734375
vn -0.3535156 -0.9296875 -0.1035156
vt 0.5634766 -0.1513672
vt 0.4609375 -0.1484375
vt 0.5634766 -0.09667969
vt 0.4570313 -0.09375
f 465/465/465 466/466/466 467/467/467
f 466/466/466 468/468/468 467/467/467
v 0.2531738 0.01538086 -0.8310547
v 0.5102539 0.01538086 -0.8181152
v 0.2800293 0.01367188 -0.487793
v 0.5102539 0.01367188 -0.487793
vn -0.7773438 -0.5058594 -0.3730469
vn 0.3730469 -0.6835938 -0.6289063
vn -0.3144531 -0.6699219 0.6738281
vn 0.8203125 -0.3808594 0.4277344
vt 0.03417969 -0.59375
vt 0.09863281 -0.5908203
vt 0.03808594 -0.5175781
vt 0.09863281 -0.5175781
f 469/469/469 470/470/470 471/471/471
f 470/470/470 472/472/472 471/471/471
v 0 2.472168 -2.054688
v -0.1237793 2.767334 -1.495117
v 0 3.067139 -1.5625
v 0 3.043213 -1.110107
vn -0.890625 0.2890625 -0.3496094
vn -0.8808594 -0.3984375 0.2578125
vn -0.9238281 0.34375 -0.1679688
vn -0.9667969 0.1582031 0.1972656
vt 0.02441406 -0.4707031
vt 0.1992188 -0.4501953
vt 0.2246094 -0.4042969
vt 0.3359375 -0.4052734
f 473/473/473 474/474/474 475/475/475
f 474/474/474 476/476/476 475/475/475
v -0.5700684 2.416748 -0.9025879
v -0.6152344 2.526855 -0.9384766
v -0.1555176 2.364502 -0.9711914
v 0 2.552246 -1.147461
vn -0.8632813 -0.2246094 -0.453125
vn -0.6425781 -0.6308594 -0.4355469
vn 0.2109375 -0.359375 -0.9082031
vn 0 -0.8007813 -0.5996094
vt 0.3837891 -0.2363281
vt 0.3867188 -0.2128906
vt 0.609375 -0.2392578
vt 0.6669922 -0.1884766
f 477/477/477 478/478/478 479/479/479
f 478/478/478 480/480/480 479/479/479
v 0 3.489258 -0.9665527
v 0 2.875488 -1.300293
v -0.3391113 3.431396 -0.965332
v -0.645752 3.005127 -1.047607
vn 0.02734375 0.796875 -0.6035156
vn 0 0.1152344 -0.9941406
vn -0.3007813 0.7207031 -0.625
vn -0.7226563 0.3261719 -0.609375
vt 0.1884766 -0.03222656
vt 0.1884766 -0.1904297
vt 0.1005859 -0.046875
vt 0.01171875 -0.1582031
f 481/481/481 482/482/482 483/483/483
f 482/482/482 484/484/484 483/483/483
v 0 2.472168 -2.054688
v 0 3.067139 -1.5625
v 0.1237793 2.767334 -1.495117
v 0 2.879395 -1.147705
vn 0.890625 0.2890625 -0.3496094
vn 0.96875 0.2441406 -0.05664063
vn 0.9277344 0.3632813 -0.0859375
vn 0.9726563 0.2109375 0.09570313
vt 0.02441406 -0.4707031
vt 0.2246094 -0.4042969
vt 0.1992188 -0.4501953
vt 0.3300781 -0.4482422
f 485/485/485 486/486/486 487/487/487
f 486/486/486 488/488/488 487/487/487
v -0.2661133 0.007568359 0.9929199
v -0.4934082 0.007568359 0.9658203
v -0.2219238 0.008789063 0.6682129
v -0.4729004 0.009033203 0.6318359
vn 0.7480469 -0.46875 0.4707031
vn -0.4296875 -0.6542969 0.6210938
vn 0.3808594 -0.7070313 -0.5957031
vn -0.7734375 -0.4316406 -0.4628906
vt 0.03710938 -0.5146484
vt 0.1015625 -0.5214844
vt 0.02832031 -0.5869141
vt 0.09667969 -0.5957031
f 489/489/489 490/490/490 491/491/491
f 490/490/490 492/492/492 491/491/491
v -0.5102539 0.01538086 -0.8181152
v -0.2531738 0.01538086 -0.8310547
v -0.5102539 0.01367188 -0.487793
v -0.2800293 0.01367188 -0.487793
vn -0.8242188 -0.4140625 -0.3847656
vn 0.265625 -0.7324219 -0.6269531
vn -0.3476563 -0.6542969 0.671875
vn 0.7871094 -0.4511719 0.4199219
vt 0.09863281 -0.5908203
vt 0.03417969 -0.59375
vt 0.09863281 -0.5175781
vt 0.03808594 -0.5175781
f 493/493/493 494/494/494 495/495/495
f 494/494/494 496/496/496 495/495/495
v 0.4934082 0.007568359 0.9658203
v 0.2661133 0.007568359 0.9929199
v 0.4731445 0.009033203 0.6318359
v 0.2219238 0.008789063 0.6682129
vn 0.8515625 -0.390625 0.3515625
vn -0.2207031 -0.6894531 0.6894531
vn 0.2597656 -0.6953125 -0.6699219
vn -0.8203125 -0.4785156 -0.3105469
vt 0.1015625 -0.5214844
vt 0.03710938 -0.5146484
vt 0.09667969 -0.5957031
vt 0.02832031 -0.5869141
f 497/497/497 498/498/498 499/499/499
f 498/498/498 500/500/500 499/499/499
v -0.5095215 2.436279 0.4597168
v -0.5388184 2.421387 0.9750977
v -0.5681152 2.515625 1.013184
v -0.1435547 2.384766 1.069336
vn -0.8808594 -0.4492188 -0.1445313
vn -0.6855469 -0.2089844 0.6972656
vn -0.7070313 -0.5039063 0.4960938
vn 0.2421875 -0.7324219 0.6367188
vt 0.4511719 -0.9541016
vt 0.2753906 -0.9589844
vt 0.2617188 -0.9267578
vt 0.2431641 -0.9716797
f 501/501/501 502/502/502 503/503/503
f 502/502/502 504/504/504 503/503/503
v -0.1499023 1.491943 -0.9882813
v -0.1516113 1.636475 -1.00708
v -0.1452637 1.495361 -0.5053711
v 0.1105957 1.530518 0.5537109
v 0.1123047 1.638672 0.5339355
v 0.4438477 1.503906 0.5366211
v -0.1120605 1.638672 0.5339355
v -0.1384277 1.509033 1.037598
v -0.1105957 1.530518 0.5537109
v 0.1516113 1.636475 -1.00708
v 0.482666 1.488525 -0.9428711
v 0.1499023 1.491943 -0.9882813
v 0.347168 3.374756 1.27124
v 0 3.36499 1.340332
v 0.3686523 2.832031 1.291504
v 0.6494141 2.823242 1.06665
v 0.7084961 2.792725 0.447998
v 0.6779785 3.343506 1.041992
v -0.6193848 2.572998 -1.056396
v 0 2.552246 -1.147461
v -0.6152344 2.526855 -0.9384766
v 0 3.043213 -1.110107
v 0 2.879395 -1.147705
v 0 3.067139 -1.5625
v 0 2.879395 -1.147705
v 0 3.043213 -1.110107
v -0.1237793 2.767334 -1.495117
v 0.1555176 2.364502 -0.9711914
v 0.137207 2.229004 -0.3850098
v 0 2.552246 -1.147461
vn 0.6601563 -0.1191406 -0.7421875
vn 0.875 -0.02148438 -0.4824219
vn 0.7050781 -0.04296875 0.7089844
vn -0.7558594 -0.08398438 -0.6503906
vn -0.5 -0.09375 -0.8613281
vn 0.6621094 -0.1191406 -0.7402344
vn 0.9179688 -0.04296875 -0.3945313
vn 0.6210938 -0.03710938 0.7832031
vn 0.7519531 -0.125 -0.6484375
vn -0.3339844 -0.02734375 -0.9414063
vn 0.7617188 -0.09179688 -0.6425781
vn -0.6640625 -0.09765625 -0.7421875
vn 0.5996094 0.06445313 0.7988281
vn 0.05664063 -0.07617188 0.9960938
vn 0.3828125 -0.1621094 0.9101563
vn 0.8652344 -0.1660156 0.4726563
vn 0.9570313 -0.2773438 0.07617188
vn 0.859375 0.1425781 0.4902344
vn -0.734375 -0.390625 -0.5566406
vn 0 -0.8007813 -0.5996094
vn -0.6425781 -0.6308594 -0.4355469
vn 0.9980469 0 0
vn 0.9726563 0.2109375 0.09570313
vn 0.96875 0.2441406 -0.05664063
vn -0.6035156 -0.6699219 0.4316406
vn -0.9667969 0.1582031 0.1972656
vn -0.8808594 -0.3984375 0.2578125
vn -0.5253906 -0.40625 -0.7480469
vn -0.1152344 -0.9550781 0.2734375
vn 0 -0.8007813 -0.5996094
vt 0.7128906 -0.1191406
vt 0.7128906 -0.08886719
vt 0.7861328 -0.1191406
vt 0.9609375 -0.1064453
vt 0.9609375 -0.08300781
vt 0.9091797 -0.1025391
vt 0.7128906 -0.08300781
vt 0.7871094 -0.1181641
vt 0.7128906 -0.1064453
vt 0.9628906 -0.08886719
vt 0.9042969 -0.1113281
vt 0.9628906 -0.1191406
vt 0.1523438 -0.6337891
vt 0.03222656 -0.6376953
vt 0.1455078 -0.8193359
vt 0.2441406 -0.8222656
vt 0.4550781 -0.8330078
vt 0.2519531 -0.6445313
vt 0.3935547 -0.1816406
vt 0.6669922 -0.1884766
vt 0.3867188 -0.2128906
vt 0.3359375 -0.4052734
vt 0.3300781 -0.4482422
vt 0.2246094 -0.4042969
vt 0.3300781 -0.4482422
vt 0.3359375 -0.4052734
vt 0.1992188 -0.4501953
vt 0.6337891 -0.09960938
vt 0.5634766 -0.09667969
vt 0.6552734 -0.02441406
f 505/505/505 506/506/506 507/507/507
f 508/508/508 509/509/509 510/510/510
f 511/511/511 512/512/512 513/513/513
f 514/514/514 515/515/515 516/516/516
f 517/517/517 518/518/518 519/519/519
f 520/520/520 521/521/521 522/522/522
f 523/523/523 524/524/524 525/525/525
f 526/526/526 527/527/527 528/528/528
f 529/529/529 530/530/530 531/531/531
f 532/532/532 533/533/533 534/534/534
