# Created by MKDS Course Modifier
mtllib Panda 2.mtl
g polygon0
usemtl Material
v -1.010498 0.5888672 1.460205
v -0.3449707 0.5336914 1.604248
v -1.05957 0.7329102 1.517578
v 0 0.5517578 1.735596
v -0.4143066 1.019287 2.156738
v 0.4143066 1.019287 2.156738
v -0.2646484 1.389648 2.354248
v 0.2661133 1.389648 2.354248
v 0.2641602 2.046143 2.178223
v 0.7451172 2.119873 1.937744
v 0.3146973 2.578369 1.882568
v 1.085205 2.209961 1.59082
v 0.4577637 2.851318 1.478271
vn -0.8398438 -0.359375 0.40625
vn 0.02929688 -0.6230469 0.78125
vn -0.65625 -0.5820313 0.4804688
vn 0 -0.8515625 0.5253906
vn -0.3320313 -0.5 0.7988281
vn 0.2851563 -0.5 0.8183594
vn -0.234375 -0.046875 0.9707031
vn 0.3242188 -0.01953125 0.9453125
vn 0.1542969 0.3417969 0.9277344
vn 0.5175781 0.2988281 0.8007813
vn 0.2421875 0.59375 0.7675781
vn 0.6542969 0.3203125 0.6835938
vn 0.15625 0.7480469 0.6445313
vt 0.03417969 -0.9609375
vt 0.2158203 -0.9726563
vt 0.01953125 -0.8896484
vt 0.3105469 -0.9423828
vt 0.2041016 -0.828125
vt 0.4160156 -0.828125
vt 0.2373047 -0.7294922
vt 0.3828125 -0.7294922
vt 0.3828125 -0.5605469
vt 0.5146484 -0.5449219
vt 0.3964844 -0.4072266
vt 0.6074219 -0.5234375
vt 0.4355469 -0.3222656
f 1/1/1 2/2/2 3/3/3
f 2/2/2 4/4/4 3/3/3
f 3/3/3 4/4/4 5/5/5
f 4/4/4 6/6/6 5/5/5
f 5/5/5 6/6/6 7/7/7
f 6/6/6 8/8/8 7/7/7
f 7/7/7 8/8/8 9/9/9
f 8/8/8 10/10/10 9/9/9
f 9/9/9 10/10/10 11/11/11
f 10/10/10 12/12/12 11/11/11
f 11/11/11 12/12/12 13/13/13
v -1.05957 0.7329102 1.517578
v -0.4143066 1.019287 2.156738
v -1.221191 1.045654 1.576416
v -0.9047852 1.342041 1.922852
v -1.085205 2.209961 1.59082
v -0.7434082 2.119873 1.937744
v -0.3132324 2.578369 1.882568
v -0.2624512 2.046143 2.178223
v 0.3146973 2.578369 1.882568
v 0.2641602 2.046143 2.178223
vn -0.65625 -0.5820313 0.4804688
vn -0.3320313 -0.5 0.7988281
vn -0.8769531 -0.1933594 0.4414063
vn -0.6386719 -0.04296875 0.7695313
vn -0.6542969 0.3203125 0.6855469
vn -0.5175781 0.2988281 0.8007813
vn -0.2421875 0.65625 0.7148438
vn -0.1542969 0.3886719 0.9082031
vn 0.2421875 0.59375 0.7675781
vn 0.1542969 0.3417969 0.9277344
vt 0.01953125 -0.8896484
vt 0.2041016 -0.828125
vt 0.01074219 -0.8066406
vt 0.078125 -0.7353516
vt 0.01269531 -0.5234375
vt 0.1064453 -0.5449219
vt 0.2246094 -0.4072266
vt 0.2382813 -0.5605469
vt 0.3964844 -0.4072266
vt 0.3828125 -0.5605469
f 14/14/14 15/15/15 16/16/16
f 15/15/15 17/17/17 16/16/16
f 16/16/16 17/17/17 18/18/18
f 17/17/17 19/19/19 18/18/18
f 18/18/18 19/19/19 20/20/20
f 19/19/19 21/21/21 20/20/20
f 20/20/20 21/21/21 22/22/22
f 21/21/21 23/23/23 22/22/22
v -1.010498 0.5888672 1.460205
v -1.05957 0.7329102 1.517578
v -0.9609375 0.6081543 0.6745605
v -1.237793 1.04248 0.5268555
v -1.381836 1.039063 -0.003417969
v -1.305176 2.233643 0.5776367
v -1.362061 2.25708 0.001953125
v -0.6171875 3.187988 0.001953125
vn -0.8398438 -0.359375 0.40625
vn -0.65625 -0.5820313 0.4804688
vn -0.7011719 -0.6660156 -0.2578125
vn -0.9394531 -0.328125 0.1054688
vn -0.9667969 -0.2558594 0.001953125
vn -0.9277344 0.3378906 0.1601563
vn -0.9394531 0.3378906 -0.04492188
vn -0.4199219 0.90625 -0.03710938
vt 0.640625 -0.9228516
vt 0.6259766 -0.8867188
vt 0.8300781 -0.9179688
vt 0.8652344 -0.8076172
vt 0.9863281 -0.8085938
vt 0.8535156 -0.5175781
vt 0.9863281 -0.5117188
vt 0.9863281 -0.3076172
f 24/24/24 25/25/25 26/26/26
f 25/25/25 27/27/27 26/26/26
f 26/26/26 27/27/27 28/28/28
f 27/27/27 29/29/29 28/28/28
f 28/28/28 29/29/29 30/30/30
f 29/29/29 31/31/31 30/30/30
v 0.6171875 3.187988 0.001953125
v 0.6274414 3.008301 0.6708984
v 1.362061 2.25708 0.001953125
v 1.305176 2.233643 0.5776367
v 1.237793 1.04248 0.5268555
v 1.221191 1.045654 1.576416
v 0.9609375 0.6081543 0.6745605
vn 0.4960938 0.8652344 -0.078125
vn 0.4023438 0.8886719 0.2207031
vn 0.9414063 0.3320313 0.04296875
vn 0.9296875 0.3417969 0.1386719
vn 0.9648438 -0.2285156 0.1289063
vn 0.8925781 -0.2519531 0.375
vn 0.8027344 -0.5859375 -0.1074219
vt 0.9863281 -0.3076172
vt 0.8300781 -0.3271484
vt 0.9863281 -0.5117188
vt 0.8535156 -0.5175781
vt 0.8652344 -0.8076172
vt 0.6103516 -0.8066406
vt 0.8300781 -0.9179688
f 32/32/32 33/33/33 34/34/34
f 33/33/33 35/35/35 34/34/34
f 34/34/34 35/35/35 36/36/36
f 35/35/35 37/37/37 36/36/36
f 36/36/36 37/37/37 38/38/38
v -0.4577637 2.851318 1.478271
v -0.6274414 3.008301 0.6708984
v -0.8562012 2.609131 1.130859
v -1.305176 2.233643 0.5776367
v -1.085205 2.209961 1.59082
v -1.221191 1.045654 1.576416
vn -0.1582031 0.7871094 0.5957031
vn -0.4707031 0.8515625 0.2304688
vn -0.7226563 0.6582031 0.2109375
vn -0.9277344 0.3378906 0.1601563
vn -0.6542969 0.3203125 0.6855469
vn -0.8769531 -0.1933594 0.4414063
vt 0.6357422 -0.3662109
vt 0.8300781 -0.3271484
vt 0.7177734 -0.4257813
vt 0.8535156 -0.5175781
vt 0.6074219 -0.5234375
vt 0.6103516 -0.8066406
f 39/39/39 40/40/40 41/41/41
f 40/40/40 42/42/42 41/41/41
f 41/41/41 42/42/42 43/43/43
f 42/42/42 44/44/44 43/43/43
v -0.4577637 2.851318 1.478271
v -0.8562012 2.609131 1.130859
v -0.7158203 3.217773 1.280273
v -1.099365 2.78125 1.185303
v -1.240479 3.064209 1.491455
v -1.438477 2.57666 1.392822
vn 0.6425781 0.0390625 -0.765625
vn -0.01953125 -0.1855469 -0.9824219
vn 0.06054688 0.3222656 -0.9453125
vn -0.4121094 0.2519531 -0.875
vn -0.546875 0.4726563 -0.6894531
vn -0.4921875 -0.1953125 -0.8476563
vt 0.04296875 -0.1064453
vt 0.1220703 -0.1542969
vt 0.09375 -0.03320313
vt 0.1699219 -0.1171875
vt 0.1914063 -0.05957031
vt 0.2373047 -0.1601563
f 45/45/45 46/46/46 47/47/47
f 46/46/46 48/48/48 47/47/47
f 47/47/47 48/48/48 49/49/49
f 48/48/48 50/50/50 49/49/49
v 0.4577637 2.851318 1.478271
v 0.7158203 3.217773 1.280273
v 0.8562012 2.609131 1.130859
v 1.099365 2.78125 1.185303
v 1.438477 2.57666 1.392822
v 1.240234 3.064209 1.491455
vn -0.6425781 0.0390625 -0.765625
vn -0.06054688 0.3222656 -0.9453125
vn 0.01953125 -0.1855469 -0.9824219
vn 0.4121094 0.2519531 -0.875
vn 0.4921875 -0.1953125 -0.8476563
vn 0.546875 0.4746094 -0.6894531
vt 0.04296875 -0.1064453
vt 0.09375 -0.03320313
vt 0.1220703 -0.1542969
vt 0.1699219 -0.1171875
vt 0.2373047 -0.1601563
vt 0.1914063 -0.05957031
f 51/51/51 52/52/52 53/53/53
f 52/52/52 54/54/54 53/53/53
f 53/53/53 54/54/54 55/55/55
f 54/54/54 56/56/56 55/55/55
v 1.05957 0.7329102 1.517578
v 1.221191 1.045654 1.576416
v 0.4143066 1.019287 2.156738
v 0.9067383 1.342041 1.922852
v 0.2661133 1.389648 2.354248
v 0.7451172 2.119873 1.937744
vn 0.6035156 -0.5722656 0.5546875
vn 0.8925781 -0.2519531 0.375
vn 0.2851563 -0.5 0.8183594
vn 0.6386719 -0.04296875 0.7675781
vn 0.3242188 -0.01953125 0.9453125
vn 0.5175781 0.2988281 0.8007813
vt 0.6005859 -0.8896484
vt 0.6103516 -0.8066406
vt 0.4160156 -0.828125
vt 0.5429688 -0.7353516
vt 0.3828125 -0.7294922
vt 0.5146484 -0.5449219
f 57/57/57 58/58/58 59/59/59
f 58/58/58 60/60/60 59/59/59
f 59/59/59 60/60/60 61/61/61
f 60/60/60 62/62/62 61/61/61
v 0.6171875 3.187988 0.001953125
v -0.6171875 3.187988 0.001953125
v 0.6274414 3.008301 0.6708984
v -0.6274414 3.008301 0.6708984
v -0.4577637 2.851318 1.478271
vn 0.4960938 0.8652344 -0.078125
vn -0.4199219 0.90625 -0.03710938
vn 0.4023438 0.8886719 0.2207031
vn -0.4707031 0.8515625 0.2304688
vn -0.1582031 0.7871094 0.5957031
vt 0.9863281 -0.3076172
vt 0.9863281 -0.03027344
vt 0.8310547 -0.3105469
vt 0.8310547 -0.02734375
vt 0.6357422 -0.06542969
f 63/63/63 64/64/64 65/65/65
f 64/64/64 66/66/66 65/65/65
f 65/65/65 66/66/66 67/67/67
v -1.438477 2.57666 1.392822
v -1.085205 2.209961 1.59082
v -1.240479 3.064209 1.491455
v -0.4577637 2.851318 1.478271
v -0.7158203 3.217773 1.280273
vn -0.4765625 0.015625 0.8789063
vn -0.6542969 0.3203125 0.6855469
vn -0.09375 0.25 0.9628906
vn -0.1582031 0.7871094 0.5957031
vn 0.1660156 0.5566406 0.8144531
vt 0.2373047 -0.1601563
vt 0.1669922 -0.2333984
vt 0.1914063 -0.05957031
vt 0.04296875 -0.1064453
vt 0.09375 -0.03320313
f 68/68/68 69/69/69 70/70/70
f 69/69/69 71/71/71 70/70/70
f 70/70/70 71/71/71 72/72/72
v 0.7158203 3.217773 1.280273
v 0.4577637 2.851318 1.478271
v 1.240234 3.064209 1.491455
v 1.085205 2.209961 1.59082
v 1.438477 2.57666 1.392822
vn -0.1660156 0.5566406 0.8144531
vn 0.15625 0.7480469 0.6445313
vn 0.09375 0.25 0.9628906
vn 0.6542969 0.3203125 0.6835938
vn 0.4765625 0.015625 0.8789063
vt 0.09375 -0.03320313
vt 0.04296875 -0.1064453
vt 0.1914063 -0.05957031
vt 0.1669922 -0.2333984
vt 0.2373047 -0.1601563
f 73/73/73 74/74/74 75/75/75
f 74/74/74 76/76/76 75/75/75
f 75/75/75 76/76/76 77/77/77
v 1.010498 0.5888672 1.460205
v 0.9609375 0.6081543 0.6745605
v 1.05957 0.7329102 1.517578
v 1.221191 1.045654 1.576416
vn 0.6308594 -0.40625 0.6621094
vn 0.8027344 -0.5859375 -0.1074219
vn 0.6035156 -0.5722656 0.5546875
vn 0.8925781 -0.2519531 0.375
vt 0.640625 -0.9228516
vt 0.8300781 -0.9179688
vt 0.6259766 -0.8867188
vt 0.6103516 -0.8066406
f 78/78/78 79/79/79 80/80/80
f 79/79/79 81/81/81 80/80/80
v 1.010498 0.5888672 1.460205
v 1.05957 0.7329102 1.517578
v 0.3449707 0.5336914 1.604248
v 0 0.5517578 1.735596
vn 0.6308594 -0.40625 0.6621094
vn 0.6035156 -0.5722656 0.5546875
vn -0.2695313 -0.6699219 0.6914063
vn 0 -0.8515625 0.5253906
vt 0.5869141 -0.9609375
vt 0.6005859 -0.8896484
vt 0.4042969 -0.9726563
vt 0.3105469 -0.9423828
f 82/82/82 83/83/83 84/84/84
f 83/83/83 85/85/85 84/84/84
v 0.4577637 2.851318 1.478271
v 0.8562012 2.609131 1.130859
v 0.6274414 3.008301 0.6708984
v 1.305176 2.233643 0.5776367
vn 0.15625 0.7480469 0.6445313
vn 0.7226563 0.6582031 0.2109375
vn 0.4023438 0.8886719 0.2207031
vn 0.9296875 0.3417969 0.1386719
vt 0.6357422 -0.3662109
vt 0.7177734 -0.4257813
vt 0.8300781 -0.3271484
vt 0.8535156 -0.5175781
f 86/86/86 87/87/87 88/88/88
f 87/87/87 89/89/89 88/88/88
v 0.8562012 2.609131 1.130859
v 1.085205 2.209961 1.59082
v 1.305176 2.233643 0.5776367
v 1.221191 1.045654 1.576416
vn 0.7226563 0.6582031 0.2109375
vn 0.6542969 0.3203125 0.6835938
vn 0.9296875 0.3417969 0.1386719
vn 0.8925781 -0.2519531 0.375
vt 0.7177734 -0.4257813
vt 0.6074219 -0.5234375
vt 0.8535156 -0.5175781
vt 0.6103516 -0.8066406
f 90/90/90 91/91/91 92/92/92
f 91/91/91 93/93/93 92/92/92
v -1.085205 2.209961 1.59082
v -0.3132324 2.578369 1.882568
v -0.4577637 2.851318 1.478271
v 0.4577637 2.851318 1.478271
vn -0.6542969 0.3203125 0.6855469
vn -0.2421875 0.65625 0.7148438
vn -0.1582031 0.7871094 0.5957031
vn 0.15625 0.7480469 0.6445313
vt 0.01269531 -0.5234375
vt 0.2246094 -0.4072266
vt 0.1845703 -0.3222656
vt 0.4355469 -0.3222656
f 94/94/94 95/95/95 96/96/96
f 95/95/95 97/97/97 96/96/96
v -0.7434082 2.119873 1.937744
v -0.9047852 1.342041 1.922852
v -0.2646484 1.389648 2.354248
v -0.4143066 1.019287 2.156738
vn -0.5175781 0.2988281 0.8007813
vn -0.6386719 -0.04296875 0.7695313
vn -0.234375 -0.046875 0.9707031
vn -0.3320313 -0.5 0.7988281
vt 0.1064453 -0.5449219
vt 0.078125 -0.7353516
vt 0.2373047 -0.7294922
vt 0.2041016 -0.828125
f 98/98/98 99/99/99 100/100/100
f 99/99/99 101/101/101 100/100/100
v 0.2641602 2.046143 2.178223
v -0.2624512 2.046143 2.178223
v -0.2646484 1.389648 2.354248
v -0.7434082 2.119873 1.937744
vn 0.1542969 0.3417969 0.9277344
vn -0.1542969 0.3886719 0.9082031
vn -0.234375 -0.046875 0.9707031
vn -0.5175781 0.2988281 0.8007813
vt 0.3828125 -0.5605469
vt 0.2382813 -0.5605469
vt 0.2373047 -0.7294922
vt 0.1064453 -0.5449219
f 102/102/102 103/103/103 104/104/104
f 103/103/103 105/105/105 104/104/104
v 1.221191 1.045654 1.576416
v 1.085205 2.209961 1.59082
v 0.9067383 1.342041 1.922852
v 0.7451172 2.119873 1.937744
vn 0.8925781 -0.2519531 0.375
vn 0.6542969 0.3203125 0.6835938
vn 0.6386719 -0.04296875 0.7675781
vn 0.5175781 0.2988281 0.8007813
vt 0.6103516 -0.8066406
vt 0.6074219 -0.5234375
vt 0.5429688 -0.7353516
vt 0.5146484 -0.5449219
f 106/106/106 107/107/107 108/108/108
f 107/107/107 109/109/109 108/108/108
v 0.9609375 0.6081543 0.6745605
v 1.381836 1.039063 -0.003417969
v 1.237793 1.04248 0.5268555
v 1.362061 2.25708 0.001953125
vn 0.8027344 -0.5859375 -0.1074219
vn 0.9589844 -0.2851563 -0.01367188
vn 0.9648438 -0.2285156 0.1289063
vn 0.9414063 0.3320313 0.04296875
vt 0.8300781 -0.9179688
vt 0.9863281 -0.8085938
vt 0.8652344 -0.8076172
vt 0.9863281 -0.5117188
f 110/110/110 111/111/111 112/112/112
f 111/111/111 113/113/113 112/112/112
v -1.085205 2.209961 1.59082
v -1.438477 2.57666 1.392822
v -0.8562012 2.609131 1.130859
v -1.099365 2.78125 1.185303
vn -0.28125 -0.6523438 -0.7050781
vn -0.4921875 -0.1953125 -0.8476563
vn -0.01953125 -0.1855469 -0.9824219
vn -0.4121094 0.2519531 -0.875
vt 0.1669922 -0.2333984
vt 0.2373047 -0.1601563
vt 0.1220703 -0.1542969
vt 0.1699219 -0.1171875
f 114/114/114 115/115/115 116/116/116
f 115/115/115 117/117/117 116/116/116
v -1.05957 0.7329102 1.517578
v -1.221191 1.045654 1.576416
v -1.237793 1.04248 0.5268555
v -1.305176 2.233643 0.5776367
vn -0.65625 -0.5820313 0.4804688
vn -0.8769531 -0.1933594 0.4414063
vn -0.9394531 -0.328125 0.1054688
vn -0.9277344 0.3378906 0.1601563
vt 0.6259766 -0.8867188
vt 0.6103516 -0.8066406
vt 0.8652344 -0.8076172
vt 0.8535156 -0.5175781
f 118/118/118 119/119/119 120/120/120
f 119/119/119 121/121/121 120/120/120
v 1.05957 0.7329102 1.517578
v 0.4143066 1.019287 2.156738
v 0 0.5517578 1.735596
v 0.7158203 3.217773 1.280273
v 1.240234 3.064209 1.491455
v 1.099365 2.78125 1.185303
v 1.085205 2.209961 1.59082
v 0.8562012 2.609131 1.130859
v 1.438477 2.57666 1.392822
v 0.4577637 2.851318 1.478271
v -0.3132324 2.578369 1.882568
v 0.3146973 2.578369 1.882568
v -0.6274414 3.008301 0.6708984
v -0.6171875 3.187988 0.001953125
v -1.305176 2.233643 0.5776367
v 0.4577637 2.851318 1.478271
v 0.6274414 3.008301 0.6708984
v -0.4577637 2.851318 1.478271
vn 0.6035156 -0.5722656 0.5546875
vn 0.2851563 -0.5 0.8183594
vn 0 -0.8515625 0.5253906
vn -0.06054688 0.3222656 -0.9453125
vn 0.546875 0.4746094 -0.6894531
vn 0.4121094 0.2519531 -0.875
vn 0.28125 -0.6523438 -0.7050781
vn 0.01953125 -0.1855469 -0.9824219
vn 0.4921875 -0.1953125 -0.8476563
vn 0.15625 0.7480469 0.6445313
vn -0.2421875 0.65625 0.7148438
vn 0.2421875 0.59375 0.7675781
vn -0.4707031 0.8515625 0.2304688
vn -0.4199219 0.90625 -0.03710938
vn -0.9277344 0.3378906 0.1601563
vn 0.15625 0.7480469 0.6445313
vn 0.4023438 0.8886719 0.2207031
vn -0.1582031 0.7871094 0.5957031
vt 0.6005859 -0.8896484
vt 0.4160156 -0.828125
vt 0.3105469 -0.9423828
vt 0.09375 -0.03320313
vt 0.1914063 -0.05957031
vt 0.1699219 -0.1171875
vt 0.1669922 -0.2333984
vt 0.1220703 -0.1542969
vt 0.2373047 -0.1601563
vt 0.4355469 -0.3222656
vt 0.2246094 -0.4072266
vt 0.3964844 -0.4072266
vt 0.8300781 -0.3271484
vt 0.9863281 -0.3076172
vt 0.8535156 -0.5175781
vt 0.6357422 -0.2724609
vt 0.8310547 -0.3105469
vt 0.6357422 -0.06542969
f 122/122/122 123/123/123 124/124/124
f 125/125/125 126/126/126 127/127/127
f 128/128/128 129/129/129 130/130/130
f 131/131/131 132/132/132 133/133/133
f 134/134/134 135/135/135 136/136/136
f 137/137/137 138/138/138 139/139/139
g polygon1
usemtl Material56
v 1.362061 2.25708 0.001953125
v 1.085205 2.091797 -1.588623
v 0.6171875 3.187988 0.001953125
v 0.4577637 2.747314 -1.483887
v -0.6171875 3.187988 0.001953125
v -0.4577637 2.747314 -1.483887
v -1.085205 2.091797 -1.588623
vn 0.9414063 0.3320313 0.04296875
vn 0.7890625 0.3398438 -0.5117188
vn 0.4960938 0.8652344 -0.078125
vn 0.2109375 0.7910156 -0.5722656
vn -0.4199219 0.90625 -0.03710938
vn -0.265625 0.7226563 -0.6367188
vn -0.7890625 0.3398438 -0.5117188
vt 0.8515625 -0.08691406
vt 0.9472656 -0.09765625
vt 0.8515625 -0.03222656
vt 0.9404297 -0.05859375
vt 0.8515625 -0.03222656
vt 0.9404297 -0.05859375
vt 0.9472656 -0.09765625
f 140/140/140 141/141/141 142/142/142
f 141/141/141 143/143/143 142/142/142
f 142/142/142 143/143/143 144/144/144
f 143/143/143 145/145/145 144/144/144
f 144/144/144 145/145/145 146/146/146
v 0.9909668 0.6081543 -0.6115723
v 1.062988 0.6777344 -1.401855
v 1.09082 0.8449707 -1.457031
v 0.3652344 0.5979004 -1.506104
v 0 0.7963867 -1.775146
v 0.3342285 0.3950195 -0.6115723
vn 0.7792969 -0.5371094 0.3222656
vn 0.7578125 -0.3066406 -0.578125
vn 0.6933594 -0.4765625 -0.5390625
vn -0.125 -0.515625 -0.8476563
vn 0 -0.6835938 -0.7304688
vn -0.21875 -0.9726563 0.06640625
vt 0.546875 -0.7685547
vt 0.8330078 -0.7949219
vt 0.8701172 -0.8525391
vt 0.8701172 -0.5419922
vt 0.9677734 -0.4101563
vt 0.546875 -0.53125
f 147/147/147 148/148/148 149/149/149
f 148/148/148 150/150/150 149/149/149
f 149/149/149 150/150/150 151/151/151
f 150/150/150 152/152/152 151/151/151
v -0.3652344 0.5979004 -1.506104
v 0 0.7963867 -1.775146
v -0.3342285 0.3950195 -0.6115723
v 0.3342285 0.3950195 -0.6115723
v -0.2468262 0.3950195 0.7299805
v 0.2468262 0.3950195 0.7299805
vn 0.390625 -0.609375 -0.6894531
vn 0 -0.6835938 -0.7304688
vn 0.09570313 -0.9726563 0.2148438
vn -0.21875 -0.9726563 0.06640625
vn 0.265625 -0.9628906 -0.04492188
vn -0.15625 -0.9453125 -0.2851563
vt 0.8701172 -0.2773438
vt 0.9677734 -0.4101563
vt 0.546875 -0.2890625
vt 0.546875 -0.53125
vt 0.06152344 -0.3203125
vt 0.06152344 -0.4990234
f 153/153/153 154/154/154 155/155/155
f 154/154/154 156/156/156 155/155/155
f 155/155/155 156/156/156 157/157/157
f 156/156/156 158/158/158 157/157/157
v 0 0.7963867 -1.775146
v 1.099609 1.045654 -1.588623
v 1.09082 0.8449707 -1.457031
v 1.381836 1.039063 -0.003417969
v 0.9909668 0.6081543 -0.6115723
vn 0 -0.6835938 -0.7304688
vn 0.6621094 -0.2109375 -0.71875
vn 0.6933594 -0.4765625 -0.5390625
vn 0.9589844 -0.2851563 -0.01367188
vn 0.7792969 -0.5371094 0.3222656
vt 0.9677734 -0.4101563
vt 0.9375 -0.9238281
vt 0.8701172 -0.8525391
vt 0.3261719 -0.9101563
vt 0.546875 -0.7685547
f 159/159/159 160/160/160 161/161/161
f 160/160/160 162/162/162 161/161/161
f 161/161/161 162/162/162 163/163/163
v -1.099609 1.045654 -1.588623
v -1.381836 1.039063 -0.003417969
v -1.085205 2.091797 -1.588623
v -1.362061 2.25708 0.001953125
v -0.6171875 3.187988 0.001953125
vn -0.6621094 -0.2109375 -0.71875
vn -0.9667969 -0.2558594 0.001953125
vn -0.7890625 0.3398438 -0.5117188
vn -0.9394531 0.3378906 -0.04492188
vn -0.4199219 0.90625 -0.03710938
vt 0.9472656 -0.1591797
vt 0.8525391 -0.1601563
vt 0.9472656 -0.09765625
vt 0.8515625 -0.08691406
vt 0.8515625 -0.03222656
f 164/164/164 165/165/165 166/166/166
f 165/165/165 167/167/167 166/166/166
f 166/166/166 167/167/167 168/168/168
v -0.4577637 2.747314 -1.483887
v 0.4577637 2.747314 -1.483887
v 0 1.897461 -2.021729
v 1.085205 2.091797 -1.588623
v 1.099609 1.045654 -1.588623
vn -0.265625 0.7226563 -0.6367188
vn 0.2109375 0.7910156 -0.5722656
vn 0 0.1445313 -0.9902344
vn 0.7890625 0.3398438 -0.5117188
vn 0.6621094 -0.2109375 -0.71875
vt 0.7177734 -0.06835938
vt 0.7509766 -0.03808594
vt 0.7607422 -0.08300781
vt 0.7939453 -0.04101563
vt 0.8330078 -0.08398438
f 169/169/169 170/170/170 171/171/171
f 170/170/170 172/172/172 171/171/171
f 171/171/171 172/172/172 173/173/173
v 0 0.7963867 -1.775146
v -1.099609 1.045654 -1.588623
v 0 1.897461 -2.021729
v -1.085205 2.091797 -1.588623
v -0.4577637 2.747314 -1.483887
vn 0 -0.6835938 -0.7304688
vn -0.6621094 -0.2109375 -0.71875
vn 0 0.1445313 -0.9902344
vn -0.7890625 0.3398438 -0.5117188
vn -0.265625 0.7226563 -0.6367188
vt 0.8007813 -0.1279297
vt 0.7539063 -0.1552734
vt 0.7607422 -0.08300781
vt 0.7148438 -0.1113281
vt 0.7177734 -0.06835938
f 174/174/174 175/175/175 176/176/176
f 175/175/175 177/177/177 176/176/176
f 176/176/176 177/177/177 178/178/178
v -1.062744 0.6777344 -1.401855
v -0.9909668 0.6081543 -0.6115723
v -1.09082 0.8449707 -1.457031
v -1.381836 1.039063 -0.003417969
v -1.099609 1.045654 -1.588623
vn -0.640625 -0.2949219 -0.7089844
vn -0.8300781 -0.5273438 0.1816406
vn -0.6933594 -0.4765625 -0.5390625
vn -0.9667969 -0.2558594 0.001953125
vn -0.6621094 -0.2109375 -0.71875
vt 0.8330078 -0.7949219
vt 0.546875 -0.7685547
vt 0.8701172 -0.8525391
vt 0.3261719 -0.9101563
vt 0.9375 -0.9238281
f 179/179/179 180/180/180 181/181/181
f 180/180/180 182/182/182 181/181/181
f 181/181/181 182/182/182 183/183/183
v 0.3449707 0.5336914 1.604248
v 0 0.5517578 1.735596
v 0.2468262 0.3950195 0.7299805
v -0.2468262 0.3950195 0.7299805
vn -0.2695313 -0.6699219 0.6914063
vn 0 -0.8515625 0.5253906
vn -0.15625 -0.9453125 -0.2851563
vn 0.265625 -0.9628906 -0.04492188
vt 0.3583984 -0.09179688
vt 0.3525391 -0.07421875
vt 0.4003906 -0.08691406
vt 0.4003906 -0.0625
f 184/184/184 185/185/185 186/186/186
f 185/185/185 187/187/187 186/186/186
v -0.9609375 0.6081543 0.6745605
v -0.8493652 0.02246094 0.8044434
v -1.010498 0.5888672 1.460205
v -0.8757324 0.02246094 1.313477
vn -0.7011719 -0.6660156 -0.2578125
vn -0.5449219 -0.7734375 -0.3222656
vn -0.8398438 -0.359375 0.40625
vn -0.4394531 -0.6601563 0.609375
vt 0.1347656 -0.1044922
vt 0.08886719 -0.1044922
vt 0.1347656 -0.03808594
vt 0.08886719 -0.03808594
f 188/188/188 189/189/189 190/190/190
f 189/189/189 191/191/191 190/190/190
v -0.2468262 0.3950195 0.7299805
v -0.3583984 0.02246094 0.8598633
v -0.9609375 0.6081543 0.6745605
v -0.8493652 0.02246094 0.8044434
vn 0.265625 -0.9628906 -0.04492188
vn 0.3925781 -0.6523438 -0.6484375
vn -0.7011719 -0.6660156 -0.2578125
vn -0.5449219 -0.7734375 -0.3222656
vt 0.1953125 -0.1044922
vt 0.1425781 -0.1044922
vt 0.1953125 -0.03808594
vt 0.1425781 -0.03808594
f 192/192/192 193/193/193 194/194/194
f 193/193/193 195/195/195 194/194/194
v -1.010498 0.5888672 1.460205
v -0.8757324 0.02246094 1.313477
v -0.3449707 0.5336914 1.604248
v -0.4599609 0.02246094 1.354736
vn -0.8398438 -0.359375 0.40625
vn -0.4394531 -0.6601563 0.609375
vn 0.02929688 -0.6230469 0.78125
vn 0.4941406 -0.7988281 0.3417969
vt 0.2568359 -0.03808594
vt 0.2041016 -0.03808594
vt 0.2568359 -0.1044922
vt 0.2041016 -0.1044922
f 196/196/196 197/197/197 198/198/198
f 197/197/197 199/199/199 198/198/198
v -0.3449707 0.5336914 1.604248
v -0.4599609 0.02246094 1.354736
v -0.2468262 0.3950195 0.7299805
v -0.3583984 0.02246094 0.8598633
vn 0.02929688 -0.6230469 0.78125
vn 0.4941406 -0.7988281 0.3417969
vn 0.265625 -0.9628906 -0.04492188
vn 0.3925781 -0.6523438 -0.6484375
vt 0.08203125 -0.03808594
vt 0.03710938 -0.03808594
vt 0.08203125 -0.1044922
vt 0.03710938 -0.1044922
f 200/200/200 201/201/201 202/202/202
f 201/201/201 203/203/203 202/202/202
v -0.2468262 0.3950195 0.7299805
v -0.9609375 0.6081543 0.6745605
v -0.3342285 0.3950195 -0.6115723
v -0.9909668 0.6081543 -0.6115723
vn 0.265625 -0.9628906 -0.04492188
vn -0.7011719 -0.6660156 -0.2578125
vn 0.09570313 -0.9726563 0.2148438
vn -0.8300781 -0.5273438 0.1816406
vt 0.06152344 -0.4990234
vt 0.08105469 -0.7578125
vt 0.546875 -0.53125
vt 0.546875 -0.7685547
f 204/204/204 205/205/205 206/206/206
f 205/205/205 207/207/207 206/206/206
v 0.4460449 0.0222168 -1.371826
v 0.8793945 0.0222168 -1.302979
v 0.5180664 0.0222168 -0.7460938
v 0.8793945 0.0222168 -0.7460938
vn -0.640625 -0.6835938 -0.3496094
vn 0.5546875 -0.6953125 -0.4570313
vn -0.2109375 -0.8085938 0.5488281
vn 0.4960938 -0.7148438 0.4921875
vt 0.2636719 -0.1035156
vt 0.2636719 -0.04101563
vt 0.3408203 -0.1035156
vt 0.3408203 -0.04101563
f 208/208/208 209/209/209 210/210/210
f 209/209/209 211/211/211 210/210/210
v 0.4460449 0.0222168 -1.371826
v 0.3652344 0.5979004 -1.506104
v 0.8793945 0.0222168 -1.302979
v 1.062988 0.6777344 -1.401855
vn -0.640625 -0.6835938 -0.3496094
vn -0.125 -0.515625 -0.8476563
vn 0.5546875 -0.6953125 -0.4570313
vn 0.7578125 -0.3066406 -0.578125
vt 0.1425781 -0.1044922
vt 0.1953125 -0.1044922
vt 0.1425781 -0.03808594
vt 0.1953125 -0.03808594
f 212/212/212 213/213/213 214/214/214
f 213/213/213 215/215/215 214/214/214
v 0.5180664 0.0222168 -0.7460938
v 0.3342285 0.3950195 -0.6115723
v 0.4460449 0.0222168 -1.371826
v 0.3652344 0.5979004 -1.506104
vn -0.2109375 -0.8085938 0.5488281
vn -0.21875 -0.9726563 0.06640625
vn -0.640625 -0.6835938 -0.3496094
vn -0.125 -0.515625 -0.8476563
vt 0.03710938 -0.1044922
vt 0.08203125 -0.1044922
vt 0.03710938 -0.03808594
vt 0.08203125 -0.03808594
f 216/216/216 217/217/217 218/218/218
f 217/217/217 219/219/219 218/218/218
v 0.8793945 0.0222168 -0.7460938
v 0.9909668 0.6081543 -0.6115723
v 0.5180664 0.0222168 -0.7460938
v 0.3342285 0.3950195 -0.6115723
vn 0.4960938 -0.7148438 0.4921875
vn 0.7792969 -0.5371094 0.3222656
vn -0.2109375 -0.8085938 0.5488281
vn -0.21875 -0.9726563 0.06640625
vt 0.2041016 -0.03808594
vt 0.2568359 -0.03808594
vt 0.2041016 -0.1044922
vt 0.2568359 -0.1044922
f 220/220/220 221/221/221 222/222/222
f 221/221/221 223/223/223 222/222/222
v 1.062988 0.6777344 -1.401855
v 0.9909668 0.6081543 -0.6115723
v 0.8793945 0.0222168 -1.302979
v 0.8793945 0.0222168 -0.7460938
vn 0.7578125 -0.3066406 -0.578125
vn 0.7792969 -0.5371094 0.3222656
vn 0.5546875 -0.6953125 -0.4570313
vn 0.4960938 -0.7148438 0.4921875
vt 0.1347656 -0.03808594
vt 0.1347656 -0.1044922
vt 0.08886719 -0.03808594
vt 0.08886719 -0.1044922
f 224/224/224 225/225/225 226/226/226
f 225/225/225 227/227/227 226/226/226
v 0.3342285 0.3950195 -0.6115723
v 0.9909668 0.6081543 -0.6115723
v 0.9609375 0.6081543 0.6745605
v 1.381836 1.039063 -0.003417969
vn -0.21875 -0.9726563 0.06640625
vn 0.7792969 -0.5371094 0.3222656
vn 0.8027344 -0.5859375 -0.1074219
vn 0.9589844 -0.2851563 -0.01367188
vt 0.546875 -0.53125
vt 0.546875 -0.7685547
vt 0.08105469 -0.7578125
vt 0.3261719 -0.9101563
f 228/228/228 229/229/229 230/230/230
f 229/229/229 231/231/231 230/230/230
v 1.099609 1.045654 -1.588623
v 1.085205 2.091797 -1.588623
v 1.381836 1.039063 -0.003417969
v 1.362061 2.25708 0.001953125
vn 0.6621094 -0.2109375 -0.71875
vn 0.7890625 0.3398438 -0.5117188
vn 0.9589844 -0.2851563 -0.01367188
vn 0.9414063 0.3320313 0.04296875
vt 0.9472656 -0.1591797
vt 0.9472656 -0.09765625
vt 0.8525391 -0.1601563
vt 0.8515625 -0.08691406
f 232/232/232 233/233/233 234/234/234
f 233/233/233 235/235/235 234/234/234
v 0.8493652 0.02246094 0.8044434
v 0.8757324 0.02246094 1.313477
v 0.3583984 0.02246094 0.8598633
v 0.4599609 0.02246094 1.354736
vn 0.3105469 -0.6367188 -0.7050781
vn 0.5878906 -0.7714844 0.2421875
vn -0.5605469 -0.8105469 -0.1660156
vn -0.2109375 -0.6757813 0.7050781
vt 0.2636719 -0.04101563
vt 0.3408203 -0.04101563
vt 0.2636719 -0.1035156
vt 0.3408203 -0.1035156
f 236/236/236 237/237/237 238/238/238
f 237/237/237 239/239/239 238/238/238
v 0 2.033691 -2.14917
v 0 2.114014 -1.788818
v 0.2897949 1.617432 -2.217773
v 0.2341309 1.799072 -1.825195
vn -0.3125 0.7675781 -0.5605469
vn 0.7929688 0.5917969 -0.1484375
vn 0.6484375 0.5507813 -0.5253906
vn 0.7832031 0.5996094 -0.1660156
vt 0.6015625 -0.04101563
vt 0.6621094 -0.04101563
vt 0.5927734 -0.07714844
vt 0.6660156 -0.07714844
f 240/240/240 241/241/241 242/242/242
f 241/241/241 243/243/243 242/242/242
v 0 2.114014 -1.788818
v 0 2.033691 -2.14917
v -0.2341309 1.799072 -1.825195
v -0.2897949 1.617432 -2.217773
vn -0.7871094 0.6015625 -0.1347656
vn -0.3125 0.7675781 -0.5605469
vn -0.7929688 0.5917969 -0.1445313
vn -0.5058594 0.4707031 -0.7226563
vt 0.6621094 -0.04101563
vt 0.6015625 -0.04101563
vt 0.6660156 -0.07714844
vt 0.5927734 -0.07714844
f 244/244/244 245/245/245 246/246/246
f 245/245/245 247/247/247 246/246/246
v -0.2341309 1.799072 -1.825195
v -0.2897949 1.617432 -2.217773
v 0.2341309 1.799072 -1.825195
v 0.2897949 1.617432 -2.217773
vn 0 -0.9082031 0.4199219
vn 0 -0.9082031 0.4199219
vn 0 -0.9082031 0.4199219
vn 0 -0.9082031 0.4199219
vt 0.6630859 -0.1064453
vt 0.5996094 -0.09667969
vt 0.6640625 -0.1269531
vt 0.6005859 -0.1386719
f 248/248/248 249/249/249 250/250/250
f 249/249/249 251/251/251 250/250/250
v -0.8757324 0.02246094 1.313477
v -0.8493652 0.02246094 0.8044434
v -0.4599609 0.02246094 1.354736
v -0.3583984 0.02246094 0.8598633
vn -0.4394531 -0.6601563 0.609375
vn -0.5449219 -0.7734375 -0.3222656
vn 0.4941406 -0.7988281 0.3417969
vn 0.3925781 -0.6523438 -0.6484375
vt 0.3408203 -0.04101563
vt 0.2636719 -0.04101563
vt 0.3408203 -0.1035156
vt 0.2636719 -0.1035156
f 252/252/252 253/253/253 254/254/254
f 253/253/253 255/255/255 254/254/254
v 1.010498 0.5888672 1.460205
v 0.8757324 0.02246094 1.313477
v 0.9609375 0.6081543 0.6745605
v 0.8493652 0.02246094 0.8044434
vn 0.6308594 -0.40625 0.6621094
vn 0.5878906 -0.7714844 0.2421875
vn 0.8027344 -0.5859375 -0.1074219
vn 0.3105469 -0.6367188 -0.7050781
vt 0.1347656 -0.03808594
vt 0.08886719 -0.03808594
vt 0.1347656 -0.1044922
vt 0.08886719 -0.1044922
f 256/256/256 257/257/257 258/258/258
f 257/257/257 259/259/259 258/258/258
v 0.3583984 0.02246094 0.8598633
v 0.2468262 0.3950195 0.7299805
v 0.8493652 0.02246094 0.8044434
v 0.9609375 0.6081543 0.6745605
vn -0.5605469 -0.8105469 -0.1660156
vn -0.15625 -0.9453125 -0.2851563
vn 0.3105469 -0.6367188 -0.7050781
vn 0.8027344 -0.5859375 -0.1074219
vt 0.1425781 -0.1044922
vt 0.1953125 -0.1044922
vt 0.1425781 -0.03808594
vt 0.1953125 -0.03808594
f 260/260/260 261/261/261 262/262/262
f 261/261/261 263/263/263 262/262/262
v 0.8757324 0.02246094 1.313477
v 1.010498 0.5888672 1.460205
v 0.4599609 0.02246094 1.354736
v 0.3449707 0.5336914 1.604248
vn 0.5878906 -0.7714844 0.2421875
vn 0.6308594 -0.40625 0.6621094
vn -0.2109375 -0.6757813 0.7050781
vn -0.2695313 -0.6699219 0.6914063
vt 0.2041016 -0.03808594
vt 0.2568359 -0.03808594
vt 0.2041016 -0.1044922
vt 0.2568359 -0.1044922
f 264/264/264 265/265/265 266/266/266
f 265/265/265 267/267/267 266/266/266
v -0.3342285 0.3950195 -0.6115723
v -0.5178223 0.0222168 -0.7460938
v -0.3652344 0.5979004 -1.506104
v -0.4458008 0.0222168 -1.371826
vn 0.09570313 -0.9726563 0.2148438
vn 0.6738281 -0.6601563 0.3320313
vn 0.390625 -0.609375 -0.6894531
vn 0.2109375 -0.7910156 -0.5761719
vt 0.08203125 -0.1044922
vt 0.03710938 -0.1044922
vt 0.08203125 -0.03808594
vt 0.03710938 -0.03808594
f 268/268/268 269/269/269 270/270/270
f 269/269/269 271/271/271 270/270/270
v -1.062744 0.6777344 -1.401855
v -1.09082 0.8449707 -1.457031
v -0.3652344 0.5979004 -1.506104
v 0 0.7963867 -1.775146
vn -0.640625 -0.2949219 -0.7089844
vn -0.6933594 -0.4765625 -0.5390625
vn 0.390625 -0.609375 -0.6894531
vn 0 -0.6835938 -0.7304688
vt 0.8330078 -0.7949219
vt 0.8701172 -0.8525391
vt 0.8701172 -0.5419922
vt 0.9677734 -0.4101563
f 272/272/272 273/273/273 274/274/274
f 273/273/273 275/275/275 274/274/274
v -0.9909668 0.6081543 -0.6115723
v -0.8791504 0.0222168 -0.7460938
v -0.3342285 0.3950195 -0.6115723
v -0.5178223 0.0222168 -0.7460938
vn -0.8300781 -0.5273438 0.1816406
vn -0.3007813 -0.7851563 0.5410156
vn 0.09570313 -0.9726563 0.2148438
vn 0.6738281 -0.6601563 0.3320313
vt 0.2568359 -0.03808594
vt 0.2041016 -0.03808594
vt 0.2568359 -0.1044922
vt 0.2041016 -0.1044922
f 276/276/276 277/277/277 278/278/278
f 277/277/277 279/279/279 278/278/278
v 0.4599609 0.02246094 1.354736
v 0.3449707 0.5336914 1.604248
v 0.3583984 0.02246094 0.8598633
v 0.2468262 0.3950195 0.7299805
vn -0.2109375 -0.6757813 0.7050781
vn -0.2695313 -0.6699219 0.6914063
vn -0.5605469 -0.8105469 -0.1660156
vn -0.15625 -0.9453125 -0.2851563
vt 0.03710938 -0.03808594
vt 0.08203125 -0.03808594
vt 0.03710938 -0.1044922
vt 0.08203125 -0.1044922
f 280/280/280 281/281/281 282/282/282
f 281/281/281 283/283/283 282/282/282
v -0.8791504 0.0222168 -1.302979
v -0.4458008 0.0222168 -1.371826
v -0.8791504 0.0222168 -0.7460938
v -0.5178223 0.0222168 -0.7460938
vn -0.7460938 -0.5820313 -0.3222656
vn 0.2109375 -0.7910156 -0.5761719
vn -0.3007813 -0.7851563 0.5410156
vn 0.6738281 -0.6601563 0.3320313
vt 0.2636719 -0.04101563
vt 0.2636719 -0.1035156
vt 0.3408203 -0.04101563
vt 0.3408203 -0.1035156
f 284/284/284 285/285/285 286/286/286
f 285/285/285 287/287/287 286/286/286
v -0.3652344 0.5979004 -1.506104
v -0.4458008 0.0222168 -1.371826
v -1.062744 0.6777344 -1.401855
v -0.8791504 0.0222168 -1.302979
vn 0.390625 -0.609375 -0.6894531
vn 0.2109375 -0.7910156 -0.5761719
vn -0.640625 -0.2949219 -0.7089844
vn -0.7460938 -0.5820313 -0.3222656
vt 0.1953125 -0.1044922
vt 0.1425781 -0.1044922
vt 0.1953125 -0.03808594
vt 0.1425781 -0.03808594
f 288/288/288 289/289/289 290/290/290
f 289/289/289 291/291/291 290/290/290
v -1.062744 0.6777344 -1.401855
v -0.8791504 0.0222168 -1.302979
v -0.9909668 0.6081543 -0.6115723
v -0.8791504 0.0222168 -0.7460938
vn -0.640625 -0.2949219 -0.7089844
vn -0.7460938 -0.5820313 -0.3222656
vn -0.8300781 -0.5273438 0.1816406
vn -0.3007813 -0.7851563 0.5410156
vt 0.1347656 -0.03808594
vt 0.08886719 -0.03808594
vt 0.1347656 -0.1044922
vt 0.08886719 -0.1044922
f 292/292/292 293/293/293 294/294/294
f 293/293/293 295/295/295 294/294/294
v -0.2468262 0.3950195 0.7299805
v 0 0.5517578 1.735596
v -0.3449707 0.5336914 1.604248
v 0 0.7963867 -1.775146
v 0 1.897461 -2.021729
v 1.099609 1.045654 -1.588623
v 0.2468262 0.3950195 0.7299805
v 0.3342285 0.3950195 -0.6115723
v 0.9609375 0.6081543 0.6745605
v -1.381836 1.039063 -0.003417969
v -0.9909668 0.6081543 -0.6115723
v -0.9609375 0.6081543 0.6745605
v -1.099609 1.045654 -1.588623
v 0 0.7963867 -1.775146
v -1.09082 0.8449707 -1.457031
v 0.2897949 1.617432 -2.217773
v -0.2897949 1.617432 -2.217773
v 0 2.033691 -2.14917
vn 0.265625 -0.9628906 -0.04492188
vn 0 -0.8515625 0.5253906
vn 0.02929688 -0.6230469 0.78125
vn 0 -0.6835938 -0.7304688
vn 0 0.1445313 -0.9902344
vn 0.6621094 -0.2109375 -0.71875
vn -0.15625 -0.9453125 -0.2851563
vn -0.21875 -0.9726563 0.06640625
vn 0.8027344 -0.5859375 -0.1074219
vn -0.9667969 -0.2558594 0.001953125
vn -0.8300781 -0.5273438 0.1816406
vn -0.7011719 -0.6660156 -0.2578125
vn -0.6621094 -0.2109375 -0.71875
vn 0 -0.6835938 -0.7304688
vn -0.6933594 -0.4765625 -0.5390625
vn 0.6484375 0.5507813 -0.5253906
vn -0.5058594 0.4707031 -0.7226563
vn -0.3125 0.7675781 -0.5605469
vt 0.4003906 -0.0625
vt 0.3525391 -0.07421875
vt 0.3583984 -0.05761719
vt 0.8007813 -0.1279297
vt 0.7607422 -0.08300781
vt 0.8330078 -0.08398438
vt 0.06152344 -0.4990234
vt 0.546875 -0.53125
vt 0.08105469 -0.7578125
vt 0.3261719 -0.9101563
vt 0.546875 -0.7685547
vt 0.08105469 -0.7578125
vt 0.9375 -0.9238281
vt 0.9677734 -0.4101563
vt 0.8701172 -0.8525391
vt 0.6005859 -0.1386719
vt 0.5996094 -0.09667969
vt 0.5361328 -0.1181641
f 296/296/296 297/297/297 298/298/298
f 299/299/299 300/300/300 301/301/301
f 302/302/302 303/303/303 304/304/304
f 305/305/305 306/306/306 307/307/307
f 308/308/308 309/309/309 310/310/310
f 311/311/311 312/312/312 313/313/313
