# Created by MKDS Course Modifier
mtllib Pig 1.mtl
g polygon0
usemtl Material4670
v 0.8500977 1.535889 1.195068
v 0.3586426 2.011719 1.110596
v 0.5603027 1.505127 1.558594
v -0.5603027 1.505127 1.558594
v 0.5209961 0.7265625 1.612305
v -0.5209961 0.7265625 1.612305
v -0.1916504 0.4726563 1.490967
v -0.6066895 0.5405273 1.408936
v 0 0.3500977 1.303711
v -0.8300781 0.486084 1.139893
vn 0.8574219 0.3632813 0.3652344
vn 0.2539063 0.7851563 0.5644531
vn 0.4921875 0.3242188 0.8085938
vn -0.3515625 0.3515625 0.8671875
vn 0.2871094 -0.2714844 0.9179688
vn -0.4042969 -0.2988281 0.8652344
vn -0.09765625 -0.6855469 0.7207031
vn -0.4765625 -0.6542969 0.5878906
vn 0 -0.90625 0.421875
vn -0.6894531 -0.5488281 0.4746094
vt 0.5859375 -0.5527344
vt 0.4384766 -0.4013672
vt 0.4648438 -0.5791016
vt 0.1308594 -0.5791016
vt 0.4521484 -0.8857422
vt 0.1357422 -0.8857422
vt 0.2470703 -0.9375
vt 0.1074219 -0.9375
vt 0.3037109 -0.9902344
vt 0.0234375 -0.9902344
f 1/1/1 2/2/2 3/3/3
f 2/2/2 4/4/4 3/3/3
f 3/3/3 4/4/4 5/5/5
f 4/4/4 6/6/6 5/5/5
f 5/5/5 6/6/6 7/7/7
f 6/6/6 8/8/8 7/7/7
f 7/7/7 8/8/8 9/9/9
f 8/8/8 10/10/10 9/9/9
v 1.08252 0.7163086 -0.002685547
v 1.034668 0.71875 0.395752
v 0.7529297 0.392334 0.5068359
v 0.8571777 0.7211914 1.184082
v 0.8300781 0.486084 1.139893
v 0.6066895 0.5405273 1.408936
v 0 0.3500977 1.303711
v 0.1916504 0.4726563 1.490967
v -0.1916504 0.4726563 1.490967
v 0.5209961 0.7265625 1.612305
vn 0.9472656 -0.3144531 -0.06054688
vn 0.9550781 -0.2480469 0.1679688
vn 0.7949219 -0.5957031 -0.1132813
vn 0.8867188 -0.1835938 0.4238281
vn 0.6875 -0.5195313 0.5078125
vn 0.4765625 -0.6542969 0.5878906
vn 0 -0.90625 0.421875
vn 0.1230469 -0.7402344 0.6601563
vn -0.09765625 -0.6855469 0.7207031
vn 0.2871094 -0.2714844 0.9179688
vt 0.984375 -0.9042969
vt 0.8505859 -0.9033203
vt 0.8310547 -0.9912109
vt 0.5849609 -0.9023438
vt 0.5849609 -0.9902344
vt 0.4921875 -0.9375
vt 0.3037109 -0.9902344
vt 0.3525391 -0.9375
vt 0.2470703 -0.9375
vt 0.4521484 -0.8857422
f 11/11/11 12/12/12 13/13/13
f 12/12/12 14/14/14 13/13/13
f 13/13/13 14/14/14 15/15/15
f 14/14/14 16/16/16 15/15/15
f 15/15/15 16/16/16 17/17/17
f 16/16/16 18/18/18 17/17/17
f 17/17/17 18/18/18 19/19/19
f 18/18/18 20/20/20 19/19/19
v -0.2568359 1.17749 1.555176
v -0.3632813 0.9760742 1.572754
v -0.3146973 0.9760742 1.720459
v -0.2355957 0.7404785 1.59375
v -0.2355957 0.7744141 1.723389
v 0.2355957 0.7404785 1.59375
v 0.2355957 0.7744141 1.723389
v 0.3146973 0.9760742 1.720459
vn -0.6601563 0.7011719 0.2695313
vn -0.9492188 0.015625 0.3125
vn -0.8847656 0.02539063 0.4648438
vn -0.6875 -0.6835938 0.2421875
vn -0.2070313 -0.5136719 0.8320313
vn 0.5273438 -0.8085938 0.2597656
vn 0.3183594 -0.453125 0.8320313
vn 0.8847656 0.02539063 0.4648438
vt 0.7412109 -0.2744141
vt 0.6904297 -0.2744141
vt 0.6904297 -0.2128906
vt 0.7675781 -0.2744141
vt 0.7675781 -0.2128906
vt 0.9023438 -0.2744141
vt 0.9023438 -0.2128906
vt 0.9794922 -0.2128906
f 21/21/21 22/22/22 23/23/23
f 22/22/22 24/24/24 23/23/23
f 23/23/23 24/24/24 25/25/25
f 24/24/24 26/26/26 25/25/25
f 25/25/25 26/26/26 27/27/27
f 26/26/26 28/28/28 27/27/27
v 1.08252 0.7163086 -0.002685547
v 1.067139 1.528076 0.001464844
v 1.034668 0.71875 0.395752
v 0.8500977 1.535889 1.195068
v 0.8571777 0.7211914 1.184082
v 0.5603027 1.505127 1.558594
v 0.5209961 0.7265625 1.612305
vn 0.9472656 -0.3144531 -0.06054688
vn 0.9316406 0.3613281 -0.0078125
vn 0.9550781 -0.2480469 0.1679688
vn 0.8574219 0.3632813 0.3652344
vn 0.8867188 -0.1835938 0.4238281
vn 0.4921875 0.3242188 0.8085938
vn 0.2871094 -0.2714844 0.9179688
vt 0.984375 -0.9042969
vt 0.9882813 -0.5439453
vt 0.8505859 -0.9033203
vt 0.5859375 -0.5527344
vt 0.5849609 -0.9023438
vt 0.4648438 -0.5791016
vt 0.4521484 -0.8857422
f 29/29/29 30/30/30 31/31/31
f 30/30/30 32/32/32 31/31/31
f 31/31/31 32/32/32 33/33/33
f 32/32/32 34/34/34 33/33/33
f 33/33/33 34/34/34 35/35/35
v -0.8300781 0.486084 1.139893
v -0.8571777 0.7211914 1.184082
v -1.034668 0.71875 0.395752
v -0.8500977 1.535889 1.195068
v -1.067139 1.528076 0.001464844
v -0.3586426 2.011719 1.110596
vn -0.6894531 -0.5488281 0.4746094
vn -0.8574219 -0.1113281 0.5019531
vn -0.9589844 -0.2402344 0.1464844
vn -0.8769531 0.3164063 0.3613281
vn -0.9121094 0.40625 0.04101563
vn -0.3828125 0.8242188 0.4179688
vt 0.5849609 -0.9902344
vt 0.5849609 -0.9023438
vt 0.8505859 -0.9033203
vt 0.5859375 -0.5527344
vt 0.9882813 -0.5439453
vt 0.6142578 -0.4013672
f 36/36/36 37/37/37 38/38/38
f 37/37/37 39/39/39 38/38/38
f 38/38/38 39/39/39 40/40/40
f 39/39/39 41/41/41 40/40/40
v -0.3586426 2.011719 1.110596
v -0.8500977 1.535889 1.195068
v -0.5603027 1.505127 1.558594
v -0.8571777 0.7211914 1.184082
v -0.5209961 0.7265625 1.612305
v -0.6066895 0.5405273 1.408936
vn -0.3828125 0.8242188 0.4179688
vn -0.8769531 0.3164063 0.3613281
vn -0.3515625 0.3515625 0.8671875
vn -0.8574219 -0.1113281 0.5019531
vn -0.4042969 -0.2988281 0.8652344
vn -0.4765625 -0.6542969 0.5878906
vt 0.1699219 -0.4013672
vt 0.02246094 -0.5527344
vt 0.1308594 -0.5791016
vt 0.0234375 -0.9023438
vt 0.1357422 -0.8857422
vt 0.1074219 -0.9375
f 42/42/42 43/43/43 44/44/44
f 43/43/43 45/45/45 44/44/44
f 44/44/44 45/45/45 46/46/46
f 45/45/45 47/47/47 46/46/46
v 0.3586426 2.011719 1.110596
v 0.8500977 1.535889 1.195068
v 0.4914551 2.191162 0.5039063
v 1.067139 1.528076 0.001464844
v 0.4836426 2.151123 0.001464844
vn 0.2539063 0.7851563 0.5644531
vn 0.8574219 0.3632813 0.3652344
vn 0.3398438 0.9316406 0.1308594
vn 0.9316406 0.3613281 -0.0078125
vn 0.4707031 0.8652344 -0.1738281
vt 0.6142578 -0.4013672
vt 0.5859375 -0.5527344
vt 0.8222656 -0.3134766
vt 0.9882813 -0.5439453
vt 0.9892578 -0.3369141
f 48/48/48 49/49/49 50/50/50
f 49/49/49 51/51/51 50/50/50
f 50/50/50 51/51/51 52/52/52
v 0.4836426 2.151123 0.001464844
v -0.4836426 2.151123 0.001464844
v 0.4914551 2.191162 0.5039063
v -0.4914551 2.191162 0.5039063
v -0.3586426 2.011719 1.110596
vn 0.4707031 0.8652344 -0.1738281
vn -0.3359375 0.9257813 -0.1679688
vn 0.3398438 0.9316406 0.1308594
vn -0.4433594 0.8867188 0.1308594
vn -0.3828125 0.8242188 0.4179688
vt 0.6044922 -0.01269531
vt 0.005859375 -0.01269531
vt 0.5654297 -0.2060547
vt 0.04003906 -0.1826172
vt 0.08300781 -0.3994141
f 53/53/53 54/54/54 55/55/55
f 54/54/54 56/56/56 55/55/55
f 55/55/55 56/56/56 57/57/57
v -1.067139 1.528076 0.001464844
v -1.08252 0.7163086 -0.002685547
v -1.034668 0.71875 0.395752
v -0.7529297 0.392334 0.5068359
v -0.8300781 0.486084 1.139893
vn -0.9121094 0.40625 0.04101563
vn -0.9472656 -0.3144531 -0.06054688
vn -0.9589844 -0.2402344 0.1464844
vn -0.6523438 -0.7109375 -0.2636719
vn -0.6894531 -0.5488281 0.4746094
vt 0.9882813 -0.5439453
vt 0.984375 -0.9042969
vt 0.8505859 -0.9033203
vt 0.8310547 -0.9912109
vt 0.5849609 -0.9902344
f 58/58/58 59/59/59 60/60/60
f 59/59/59 61/61/61 60/60/60
f 60/60/60 61/61/61 62/62/62
v -0.2568359 1.17749 1.555176
v -0.2426758 1.136475 1.714111
v 0.2568359 1.17749 1.555176
v 0.2426758 1.136475 1.714111
v 0.3146973 0.9760742 1.720459
vn -0.6601563 0.7011719 0.2695313
vn -0.234375 0.6484375 0.7246094
vn 0.5039063 0.8183594 0.2792969
vn 0.2265625 0.3789063 0.8964844
vn 0.8847656 0.02539063 0.4648438
vt 0.7412109 -0.2744141
vt 0.7412109 -0.2128906
vt 0.9287109 -0.2744141
vt 0.9287109 -0.2128906
vt 0.9794922 -0.2128906
f 63/63/63 64/64/64 65/65/65
f 64/64/64 66/66/66 65/65/65
f 65/65/65 66/66/66 67/67/67
v 0 0.3500977 1.303711
v 0.2702559 0.3366699 1.205102
v 0.8300781 0.486084 1.139893
v 0.7917402 0.3781738 1.096948
vn 0 -0.90625 0.421875
vn -0.2578125 -0.6953125 0.6699219
vn 0.6875 -0.5195313 0.5078125
vn 0.6171875 -0.4453125 0.6484375
vt 0.6298828 -0.03222656
vt 0.6621094 -0.06738281
vt 0.7226563 -0.01464844
vt 0.7294922 -0.06738281
f 68/68/68 69/69/69 70/70/70
f 69/69/69 71/71/71 70/70/70
v 0 0.3500977 1.303711
v -0.8300781 0.486084 1.139893
v -0.2702715 0.3366699 1.205054
v -0.7917558 0.3781738 1.0969
vn 0 -0.90625 0.421875
vn -0.6894531 -0.5488281 0.4746094
vn 0.03125 -0.6484375 0.7597656
vn -0.8261719 -0.3964844 0.4003906
vt 0.6298828 -0.03222656
vt 0.7226563 -0.01464844
vt 0.6621094 -0.06738281
vt 0.7294922 -0.06738281
f 72/72/72 73/73/73 74/74/74
f 73/73/73 75/75/75 74/74/74
v -0.4836426 2.151123 0.001464844
v -1.067139 1.528076 0.001464844
v -0.4914551 2.191162 0.5039063
v -0.3586426 2.011719 1.110596
vn -0.3359375 0.9257813 -0.1679688
vn -0.9121094 0.40625 0.04101563
vn -0.4433594 0.8867188 0.1308594
vn -0.3828125 0.8242188 0.4179688
vt 0.9892578 -0.3369141
vt 0.9882813 -0.5439453
vt 0.8222656 -0.3134766
vt 0.6142578 -0.4013672
f 76/76/76 77/77/77 78/78/78
f 77/77/77 79/79/79 78/78/78
v 0.3146973 0.9760742 1.720459
v 0.2426758 1.136475 1.714111
v 0.2355957 0.7744141 1.723389
v -0.2355957 0.7744141 1.723389
vn 0.8847656 0.02539063 0.4648438
vn 0.2265625 0.3789063 0.8964844
vn 0.3183594 -0.453125 0.8320313
vn -0.2070313 -0.5136719 0.8320313
vt 0.9541016 -0.08203125
vt 0.9228516 -0.015625
vt 0.921875 -0.1660156
vt 0.7890625 -0.1660156
f 80/80/80 81/81/81 82/82/82
f 81/81/81 83/83/83 82/82/82
v -0.3146973 0.9760742 1.720459
v -0.2355957 0.7744141 1.723389
v -0.2426758 1.136475 1.714111
v 0.2426758 1.136475 1.714111
vn -0.8847656 0.02539063 0.4648438
vn -0.2070313 -0.5136719 0.8320313
vn -0.234375 0.6484375 0.7246094
vn 0.2265625 0.3789063 0.8964844
vt 0.7578125 -0.08203125
vt 0.7890625 -0.1660156
vt 0.7910156 -0.015625
vt 0.9228516 -0.015625
f 84/84/84 85/85/85 86/86/86
f 85/85/85 87/87/87 86/86/86
v 0.2568359 1.17749 1.555176
v 0.3146973 0.9760742 1.720459
v 0.3632813 0.9760742 1.572754
v 0.2355957 0.7404785 1.59375
vn 0.5039063 0.8183594 0.2792969
vn 0.8847656 0.02539063 0.4648438
vn 0.9492188 0.015625 0.3125
vn 0.5273438 -0.8085938 0.2597656
vt 0.9287109 -0.2744141
vt 0.9794922 -0.2128906
vt 0.9794922 -0.2744141
vt 0.9023438 -0.2744141
f 88/88/88 89/89/89 90/90/90
f 89/89/89 91/91/91 90/90/90
v 0.8571777 0.7211914 1.184082
v 0.5209961 0.7265625 1.612305
v 0.6066895 0.5405273 1.408936
v 0.1916504 0.4726563 1.490967
vn 0.8867188 -0.1835938 0.4238281
vn 0.2871094 -0.2714844 0.9179688
vn 0.4765625 -0.6542969 0.5878906
vn 0.1230469 -0.7402344 0.6601563
vt 0.5849609 -0.9023438
vt 0.4521484 -0.8857422
vt 0.4921875 -0.9375
vt 0.3525391 -0.9375
f 92/92/92 93/93/93 94/94/94
f 93/93/93 95/95/95 94/94/94
v -0.8300781 0.486084 1.139893
v -0.7529297 0.392334 0.5068359
v -0.7917558 0.3781738 1.0969
v 0.3586426 2.011719 1.110596
v 0.4914551 2.191162 0.5039063
v -0.3586426 2.011719 1.110596
v -0.3586426 2.011719 1.110596
v -0.5603027 1.505127 1.558594
v 0.3586426 2.011719 1.110596
v -0.2568359 1.17749 1.555176
v -0.3146973 0.9760742 1.720459
v -0.2426758 1.136475 1.714111
v -0.8300781 0.486084 1.139893
v -0.6066895 0.5405273 1.408936
v -0.8571777 0.7211914 1.184082
v 0.7917402 0.3781738 1.096948
v 0.7529297 0.392334 0.5068359
v 0.8300781 0.486084 1.139893
vn -0.6894531 -0.5488281 0.4746094
vn -0.6523438 -0.7109375 -0.2636719
vn -0.8261719 -0.3964844 0.4003906
vn 0.2539063 0.7851563 0.5644531
vn 0.3398438 0.9316406 0.1308594
vn -0.3828125 0.8242188 0.4179688
vn -0.3828125 0.8242188 0.4179688
vn -0.3515625 0.3515625 0.8671875
vn 0.2539063 0.7851563 0.5644531
vn -0.6601563 0.7011719 0.2695313
vn -0.8847656 0.02539063 0.4648438
vn -0.234375 0.6484375 0.7246094
vn -0.6894531 -0.5488281 0.4746094
vn -0.4765625 -0.6542969 0.5878906
vn -0.8574219 -0.1113281 0.5019531
vn 0.6171875 -0.4453125 0.6484375
vn 0.7949219 -0.5957031 -0.1132813
vn 0.6875 -0.5195313 0.5078125
vt 0.65625 -0.09082031
vt 0.7304688 -0.1083984
vt 0.6611328 -0.1113281
vt 0.5273438 -0.3994141
vt 0.5654297 -0.2060547
vt 0.08300781 -0.3994141
vt 0.1699219 -0.4013672
vt 0.1308594 -0.5791016
vt 0.4384766 -0.4013672
vt 0.7412109 -0.2744141
vt 0.6904297 -0.2128906
vt 0.7412109 -0.2128906
vt 0.0234375 -0.9902344
vt 0.1074219 -0.9375
vt 0.0234375 -0.9023438
vt 0.6611328 -0.1113281
vt 0.7304688 -0.1083984
vt 0.65625 -0.09082031
f 96/96/96 97/97/97 98/98/98
f 99/99/99 100/100/100 101/101/101
f 102/102/102 103/103/103 104/104/104
f 105/105/105 106/106/106 107/107/107
f 108/108/108 109/109/109 110/110/110
f 111/111/111 112/112/112 113/113/113
g polygon1
usemtl Material4671
v 1.067139 1.528076 0.001464844
v 0.8500977 1.347412 -1.193359
v 0.4836426 2.151123 0.001464844
v 0.3586426 1.916992 -1.114746
v -0.4836426 2.151123 0.001464844
v -0.3586426 1.916992 -1.114746
v -0.8500977 1.347412 -1.193359
v 0 1.025391 -1.518555
v -0.8615723 0.7211914 -1.193359
v 0 0.5339355 -1.333496
v -0.8547363 0.5705566 -1.094482
v -0.2861328 0.3847656 -1.131348
v -0.8327479 0.4448242 -1.053015
vn 0.9316406 0.3613281 -0.0078125
vn 0.7832031 0.3320313 -0.5234375
vn 0.4707031 0.8652344 -0.1738281
vn 0.2226563 0.7851563 -0.5761719
vn -0.3359375 0.9257813 -0.1679688
vn -0.2792969 0.6953125 -0.6621094
vn -0.7832031 0.3320313 -0.5234375
vn 0 0.06054688 -0.9980469
vn -0.6582031 -0.2421875 -0.7128906
vn 0 -0.7050781 -0.7089844
vn -0.6855469 -0.484375 -0.5429688
vn 0.3710938 -0.6347656 -0.6777344
vn -0.6308594 -0.3242188 -0.7050781
vt 0.2841797 -0.5439453
vt 0.8359375 -0.6787109
vt 0.2851563 -0.3369141
vt 0.8007813 -0.4931641
vt 0.2851563 -0.3369141
vt 0.8007813 -0.4931641
vt 0.8359375 -0.6787109
vt 0.9863281 -0.7412109
vt 0.8300781 -0.9023438
vt 0.9609375 -0.9003906
vt 0.8037109 -0.9501953
vt 0.8789063 -0.9912109
vt 0.7773438 -0.9912109
f 114/114/114 115/115/115 116/116/116
f 115/115/115 117/117/117 116/116/116
f 116/116/116 117/117/117 118/118/118
f 117/117/117 119/119/119 118/118/118
f 118/118/118 119/119/119 120/120/120
f 119/119/119 121/121/121 120/120/120
f 120/120/120 121/121/121 122/122/122
f 121/121/121 123/123/123 122/122/122
f 122/122/122 123/123/123 124/124/124
f 123/123/123 125/125/125 124/124/124
f 124/124/124 125/125/125 126/126/126
v 0 1.526123 -1.958496
v 0.04858398 1.177979 -2.00415
v -0.04858398 1.177979 -2.00415
v 0.07299805 0.9733887 -1.890625
v -0.07299805 0.9733887 -1.890625
v 0.1213379 0.9155273 -1.63916
v -0.1213379 0.9155273 -1.63916
v 0.1948242 1.034912 -1.377686
v -0.1948242 1.034912 -1.377686
vn 0 0.1308594 -0.9921875
vn 0 -0.1875 -0.9824219
vn 0 -0.2929688 -0.9550781
vn 0 -0.703125 -0.7128906
vn 0 -0.8789063 -0.4785156
vn 0 -1 -0.01171875
vn 0 -0.9765625 0.2128906
vn 0 -0.9101563 0.4160156
vn 0 -0.9101563 0.4160156
vt 0.9746094 -0.3466797
vt 0.8886719 -0.3554688
vt 0.8886719 -0.3359375
vt 0.8457031 -0.3583984
vt 0.8457031 -0.3310547
vt 0.7363281 -0.3652344
vt 0.7363281 -0.3232422
vt 0.6318359 -0.3701172
vt 0.6328125 -0.3134766
f 127/127/127 128/128/128 129/129/129
f 128/128/128 130/130/130 129/129/129
f 129/129/129 130/130/130 131/131/131
f 130/130/130 132/132/132 131/131/131
f 131/131/131 132/132/132 133/133/133
f 132/132/132 134/134/134 133/133/133
f 133/133/133 134/134/134 135/135/135
v 0.7763672 0.392334 -0.4594727
v 0.8547363 0.5705566 -1.094482
v 1.08252 0.7163086 -0.002685547
v 0.8615723 0.7211914 -1.193359
v 0.8500977 1.347412 -1.193359
v 0 1.025391 -1.518555
v 0.3586426 1.916992 -1.114746
v -0.3586426 1.916992 -1.114746
vn 0.7617188 -0.5664063 0.3144531
vn 0.6855469 -0.484375 -0.5429688
vn 0.9472656 -0.3144531 -0.06054688
vn 0.6582031 -0.2421875 -0.7128906
vn 0.7832031 0.3320313 -0.5234375
vn 0 0.06054688 -0.9980469
vn 0.2226563 0.7851563 -0.5761719
vn -0.2792969 0.6953125 -0.6621094
vt 0.5029297 -0.9912109
vt 0.8037109 -0.9501953
vt 0.2802734 -0.9042969
vt 0.8300781 -0.9023438
vt 0.8359375 -0.6787109
vt 0.9863281 -0.7412109
vt 0.8007813 -0.4931641
vt 0.8007813 -0.4931641
f 136/136/136 137/137/137 138/138/138
f 137/137/137 139/139/139 138/138/138
f 138/138/138 139/139/139 140/140/140
f 139/139/139 141/141/141 140/140/140
f 140/140/140 141/141/141 142/142/142
f 141/141/141 143/143/143 142/142/142
v 0 1.526123 -1.958496
v 0 1.220215 -1.848877
v 0.04858398 1.177979 -2.00415
v 0 1.14624 -1.73877
v 0.07299805 0.9733887 -1.890625
v 0.1213379 0.9155273 -1.63916
vn 0.9570313 0.09765625 0.2734375
vn 0.9492188 0.2050781 0.2421875
vn 0.9511719 0.2109375 0.2285156
vn 0.9296875 0.359375 0.0703125
vn 0.9394531 0.3378906 0.06640625
vn 0.8710938 0.453125 -0.1894531
vt 0.9716797 -0.02929688
vt 0.8544922 -0.1357422
vt 0.8847656 -0.2275391
vt 0.7832031 -0.1210938
vt 0.84375 -0.2802734
vt 0.7412109 -0.28125
f 144/144/144 145/145/145 146/146/146
f 145/145/145 147/147/147 146/146/146
f 146/146/146 147/147/147 148/148/148
f 147/147/147 149/149/149 148/148/148
v -0.8327479 0.4448242 -1.053015
v -0.7763672 0.392334 -0.4594727
v -0.8547363 0.5705566 -1.094482
v -1.08252 0.7163086 -0.002685547
v -0.8615723 0.7211914 -1.193359
v -0.8500977 1.347412 -1.193359
vn -0.6308594 -0.3242188 -0.7050781
vn -0.8144531 -0.5507813 0.1777344
vn -0.6855469 -0.484375 -0.5429688
vn -0.9472656 -0.3144531 -0.06054688
vn -0.6582031 -0.2421875 -0.7128906
vn -0.7832031 0.3320313 -0.5234375
vt 0.7773438 -0.9912109
vt 0.5029297 -0.9912109
vt 0.8037109 -0.9501953
vt 0.2802734 -0.9042969
vt 0.8300781 -0.9023438
vt 0.8359375 -0.6787109
f 150/150/150 151/151/151 152/152/152
f 151/151/151 153/153/153 152/152/152
f 152/152/152 153/153/153 154/154/154
f 153/153/153 155/155/155 154/154/154
v 0.3803711 1.962891 1.095215
v 0.8508301 1.540527 1.054932
v 0.6367188 2.050537 0.9814453
v 1.028809 1.839355 0.9614258
v 1.056396 2.138184 0.8676758
vn 0.3144531 0.2636719 0.9121094
vn 0.2382813 0.2363281 0.9414063
vn 0.2246094 0.25 0.9414063
vn 0.1796875 0.2421875 0.953125
vn 0.1972656 0.2773438 0.9394531
vt 0.1425781 -0.2792969
vt 0.3681641 -0.2763672
vt 0.1542969 -0.1523438
vt 0.3398438 -0.1503906
vt 0.25 -0.02441406
f 156/156/156 157/157/157 158/158/158
f 157/157/157 159/159/159 158/158/158
f 158/158/158 159/159/159 160/160/160
v 0.2861328 0.3847656 -1.131348
v 0.2619629 0.2324219 -0.4594727
v 0 0.5339355 -1.333496
v -0.2619629 0.2324219 -0.4594727
v -0.2861328 0.3847656 -1.131348
vn -0.125 -0.53125 -0.8378906
vn -0.2011719 -0.9785156 0.06054688
vn 0 -0.7050781 -0.7089844
vn 0.08398438 -0.9765625 0.1953125
vn 0.3710938 -0.6347656 -0.6777344
vt 0.1240234 -0.6455078
vt 0.1210938 -0.7265625
vt 0.08886719 -0.6210938
vt 0.05761719 -0.7265625
vt 0.0546875 -0.6455078
f 161/161/161 162/162/162 163/163/163
f 162/162/162 164/164/164 163/163/163
f 163/163/163 164/164/164 165/165/165
v 0.7763672 0.392334 -0.4594727
v 0.7529297 0.392334 0.5068359
v 0.2619629 0.2324219 -0.4594727
v 0.1933594 0.2324219 0.5483398
v -0.1933594 0.2324219 0.5483398
vn 0.7617188 -0.5664063 0.3144531
vn 0.7949219 -0.5957031 -0.1132813
vn -0.2011719 -0.9785156 0.06054688
vn -0.1445313 -0.953125 -0.265625
vn 0.2480469 -0.96875 -0.03710938
vt 0.015625 -0.02539063
vt 0.140625 -0.02832031
vt 0.015625 -0.09082031
vt 0.140625 -0.09863281
vt 0.140625 -0.1484375
f 166/166/166 167/167/167 168/168/168
f 167/167/167 169/169/169 168/168/168
f 168/168/168 169/169/169 170/170/170
v 0.4736328 1.749268 0.6645508
v 0.3803711 1.962891 1.095215
v 0.7651367 1.943604 0.7661133
v 0.6367188 2.050537 0.9814453
v 1.056396 2.138184 0.8676758
vn -0.3671875 0.7988281 -0.4765625
vn -0.4296875 0.7207031 -0.5429688
vn 0.06054688 0.2421875 -0.96875
vn -0.4003906 0.703125 -0.5878906
vn 0.1191406 0.3144531 -0.9414063
vt 0.4238281 -0.1552734
vt 0.375 -0.1728516
vt 0.3613281 -0.08300781
vt 0.3359375 -0.09277344
vt 0.2978516 -0.01171875
f 171/171/171 172/172/172 173/173/173
f 172/172/172 174/174/174 173/173/173
f 173/173/173 174/174/174 175/175/175
v -0.4736328 1.749268 0.6645508
v -0.8508301 1.540527 1.054932
v -0.7651367 1.943604 0.7661133
v -1.028809 1.839355 0.9614258
v -1.056396 2.138184 0.8676758
vn -0.5332031 -0.4140625 -0.7363281
vn -0.4648438 -0.4492188 -0.7636719
vn -0.06054688 0.2421875 -0.96875
vn -0.4414063 -0.3925781 -0.8066406
vn -0.1191406 0.3144531 -0.9414063
vt 0.4238281 -0.1552734
vt 0.375 -0.1728516
vt 0.3613281 -0.08300781
vt 0.3359375 -0.09277344
vt 0.2978516 -0.01171875
f 176/176/176 177/177/177 178/178/178
f 177/177/177 179/179/179 178/178/178
f 178/178/178 179/179/179 180/180/180
v 0.7763672 0.392334 -0.4594727
v 0.8327794 0.4448242 -1.052942
v 0.8547363 0.5705566 -1.094482
v 0.2861328 0.3847656 -1.131348
v 0 0.5339355 -1.333496
vn 0.7617188 -0.5664063 0.3144531
vn 0.7480469 -0.3320313 -0.5742188
vn 0.6855469 -0.484375 -0.5429688
vn -0.125 -0.53125 -0.8378906
vn 0 -0.7050781 -0.7089844
vt 0.5029297 -0.9912109
vt 0.7773438 -0.9912109
vt 0.8037109 -0.9501953
vt 0.8789063 -0.9912109
vt 0.9609375 -0.9003906
f 181/181/181 182/182/182 183/183/183
f 182/182/182 184/184/184 183/183/183
f 183/183/183 184/184/184 185/185/185
v 0 1.14624 -1.73877
v -0.1213379 0.9155273 -1.63916
v 0 1.165283 -1.594971
v -0.1948242 1.034912 -1.377686
v 0 1.265137 -1.335938
vn -0.9296875 0.359375 0.0703125
vn -0.8710938 0.453125 -0.1894531
vn 0 0.9023438 -0.4296875
vn -0.7558594 0.5585938 -0.3417969
vn 0 0.9335938 -0.359375
vt 0.7832031 -0.1210938
vt 0.7412109 -0.28125
vt 0.7226563 -0.1787109
vt 0.6337891 -0.2324219
vt 0.6162109 -0.1376953
f 186/186/186 187/187/187 188/188/188
f 187/187/187 189/189/189 188/188/188
f 188/188/188 189/189/189 190/190/190
v 0 1.265137 -1.335938
v 0.1948242 1.034912 -1.377686
v 0 1.165283 -1.594971
v 0.1213379 0.9155273 -1.63916
v 0 1.14624 -1.73877
vn 0 0.9335938 -0.359375
vn 0.7558594 0.5585938 -0.3417969
vn 0 0.9023438 -0.4296875
vn 0.8710938 0.453125 -0.1894531
vn 0.9296875 0.359375 0.0703125
vt 0.6162109 -0.1376953
vt 0.6337891 -0.2324219
vt 0.7226563 -0.1787109
vt 0.7412109 -0.28125
vt 0.7832031 -0.1210938
f 191/191/191 192/192/192 193/193/193
f 192/192/192 194/194/194 193/193/193
f 193/193/193 194/194/194 195/195/195
v 0.2702559 0.3366699 1.205102
v 0 0.3500977 1.303711
v 0.1933594 0.2324219 0.5483398
v -0.1933594 0.2324219 0.5483398
vn -0.2578125 -0.6953125 0.6699219
vn 0 -0.90625 0.421875
vn -0.1445313 -0.953125 -0.265625
vn 0.2480469 -0.96875 -0.03710938
vt 0.2148438 -0.7197266
vt 0.1826172 -0.7314453
vt 0.2060547 -0.6396484
vt 0.1591797 -0.6396484
f 196/196/196 197/197/197 198/198/198
f 197/197/197 199/199/199 198/198/198
v 0.4736328 1.749268 0.6645508
v 0.7651367 1.943604 0.7661133
v 0.8508301 1.540527 1.054932
v 1.028809 1.839355 0.9614258
vn 0.5332031 -0.4140625 -0.7363281
vn 0.06054688 0.2421875 -0.96875
vn 0.4648438 -0.4492188 -0.7636719
vn 0.4414063 -0.3925781 -0.8066406
vt 0.4238281 -0.1552734
vt 0.3613281 -0.08300781
vt 0.375 -0.1728516
vt 0.3359375 -0.09277344
f 200/200/200 201/201/201 202/202/202
f 201/201/201 203/203/203 202/202/202
v -0.4736328 1.749268 0.6645508
v -0.7651367 1.943604 0.7661133
v -0.3803711 1.962891 1.095215
v -0.6367188 2.050537 0.9814453
vn 0.3671875 0.7988281 -0.4765625
vn -0.06054688 0.2421875 -0.96875
vn 0.4296875 0.7207031 -0.5429688
vn 0.4003906 0.703125 -0.5878906
vt 0.4238281 -0.1552734
vt 0.3613281 -0.08300781
vt 0.375 -0.1728516
vt 0.3359375 -0.09277344
f 204/204/204 205/205/205 206/206/206
f 205/205/205 207/207/207 206/206/206
v -1.08252 0.7163086 -0.002685547
v -1.067139 1.528076 0.001464844
v -0.8500977 1.347412 -1.193359
v -0.4836426 2.151123 0.001464844
vn -0.9472656 -0.3144531 -0.06054688
vn -0.9121094 0.40625 0.04101563
vn -0.7832031 0.3320313 -0.5234375
vn -0.3359375 0.9257813 -0.1679688
vt 0.2802734 -0.9042969
vt 0.2841797 -0.5439453
vt 0.8359375 -0.6787109
vt 0.2851563 -0.3369141
f 208/208/208 209/209/209 210/210/210
f 209/209/209 211/211/211 210/210/210
v 0.8547363 0.5705566 -1.094482
v 0 0.5339355 -1.333496
v 0.8615723 0.7211914 -1.193359
v 0 1.025391 -1.518555
vn 0.6855469 -0.484375 -0.5429688
vn 0 -0.7050781 -0.7089844
vn 0.6582031 -0.2421875 -0.7128906
vn 0 0.06054688 -0.9980469
vt 0.8037109 -0.9501953
vt 0.9609375 -0.9003906
vt 0.8300781 -0.9023438
vt 0.9863281 -0.7412109
f 212/212/212 213/213/213 214/214/214
f 213/213/213 215/215/215 214/214/214
v 0.3494251 0.01660156 -1.030554
v 0.6890121 0.01660156 -0.9789578
v 0.4057068 0.01660156 -0.5605699
v 0.6889099 0.01660156 -0.5605007
vn -0.59375 -0.7285156 -0.3417969
vn 0.5351563 -0.7167969 -0.4453125
vn -0.1816406 -0.8359375 0.5195313
vn 0.4824219 -0.734375 0.4765625
vt 0.5683594 -0.2246094
vt 0.4052734 -0.2246094
vt 0.5683594 -0.02441406
vt 0.4052734 -0.02441406
f 216/216/216 217/217/217 218/218/218
f 217/217/217 219/219/219 218/218/218
v 0.3494251 0.01660156 -1.030554
v 0.2861328 0.3847656 -1.131348
v 0.6890121 0.01660156 -0.9789578
v 0.8327794 0.4448242 -1.052942
vn -0.59375 -0.7285156 -0.3417969
vn -0.125 -0.53125 -0.8378906
vn 0.5351563 -0.7167969 -0.4453125
vn 0.7480469 -0.3320313 -0.5742188
vt 0.1240234 -0.9189453
vt 0.1240234 -0.8554688
vt 0.04394531 -0.9189453
vt 0.04394531 -0.8554688
f 220/220/220 221/221/221 222/222/222
f 221/221/221 223/223/223 222/222/222
v 0.8327794 0.4448242 -1.052942
v 0.7763672 0.392334 -0.4594727
v 0.6890121 0.01660156 -0.9789578
v 0.6889099 0.01660156 -0.5605007
vn 0.7480469 -0.3320313 -0.5742188
vn 0.7617188 -0.5664063 0.3144531
vn 0.5351563 -0.7167969 -0.4453125
vn 0.4824219 -0.734375 0.4765625
vt 0.1494141 -0.78125
vt 0.2294922 -0.78125
vt 0.1494141 -0.8369141
vt 0.2294922 -0.8369141
f 224/224/224 225/225/225 226/226/226
f 225/225/225 227/227/227 226/226/226
v 0.4057068 0.01660156 -0.5605699
v 0.2619629 0.2324219 -0.4594727
v 0.3494251 0.01660156 -1.030554
v 0.2861328 0.3847656 -1.131348
vn -0.1816406 -0.8359375 0.5195313
vn -0.2011719 -0.9785156 0.06054688
vn -0.59375 -0.7285156 -0.3417969
vn -0.125 -0.53125 -0.8378906
vt 0.2294922 -0.9130859
vt 0.2294922 -0.8603516
vt 0.1494141 -0.9130859
vt 0.1494141 -0.8603516
f 228/228/228 229/229/229 230/230/230
f 229/229/229 231/231/231 230/230/230
v 0.6889099 0.01660156 -0.5605007
v 0.7763672 0.392334 -0.4594727
v 0.4057068 0.01660156 -0.5605699
v 0.2619629 0.2324219 -0.4594727
vn 0.4824219 -0.734375 0.4765625
vn 0.7617188 -0.5664063 0.3144531
vn -0.1816406 -0.8359375 0.5195313
vn -0.2011719 -0.9785156 0.06054688
vt 0.04394531 -0.8359375
vt 0.04394531 -0.7724609
vt 0.1240234 -0.8359375
vt 0.1240234 -0.7724609
f 232/232/232 233/233/233 234/234/234
f 233/233/233 235/235/235 234/234/234
v 0.7917402 0.3781738 1.096948
v 0.6859993 0.01660156 0.9868618
v 0.7529297 0.392334 0.5068359
v 0.6655848 0.01660156 0.6045326
vn 0.6171875 -0.4453125 0.6484375
vn 0.5683594 -0.7890625 0.2304688
vn 0.7949219 -0.5957031 -0.1132813
vn 0.3066406 -0.6777344 -0.6699219
vt 0.1494141 -0.78125
vt 0.1494141 -0.8369141
vt 0.2294922 -0.78125
vt 0.2294922 -0.8369141
f 236/236/236 237/237/237 238/238/238
f 237/237/237 239/239/239 238/238/238
v -0.686071 0.01660156 0.986771
v -0.6654699 0.01660156 0.6044518
v -0.360395 0.01660156 1.017856
v -0.2807144 0.01660156 0.6460496
vn -0.421875 -0.6992188 0.578125
vn -0.5273438 -0.7890625 -0.3144531
vn 0.4667969 -0.8222656 0.3242188
vn 0.3632813 -0.6992188 -0.6152344
vt 0.4052734 -0.02441406
vt 0.4052734 -0.2246094
vt 0.5683594 -0.02441406
vt 0.5683594 -0.2246094
f 240/240/240 241/241/241 242/242/242
f 241/241/241 243/243/243 242/242/242
v -0.7529297 0.392334 0.5068359
v -0.6654699 0.01660156 0.6044518
v -0.7917558 0.3781738 1.0969
v -0.686071 0.01660156 0.986771
vn -0.6523438 -0.7109375 -0.2636719
vn -0.5273438 -0.7890625 -0.3144531
vn -0.8261719 -0.3964844 0.4003906
vn -0.421875 -0.6992188 0.578125
vt 0.2294922 -0.78125
vt 0.2294922 -0.8369141
vt 0.1494141 -0.78125
vt 0.1494141 -0.8369141
f 244/244/244 245/245/245 246/246/246
f 245/245/245 247/247/247 246/246/246
v -0.2702715 0.3366699 1.205054
v -0.360395 0.01660156 1.017856
v -0.1933594 0.2324219 0.5483398
v -0.2807144 0.01660156 0.6460496
vn 0.03125 -0.6484375 0.7597656
vn 0.4667969 -0.8222656 0.3242188
vn 0.2480469 -0.96875 -0.03710938
vn 0.3632813 -0.6992188 -0.6152344
vt 0.1494141 -0.8603516
vt 0.1494141 -0.9130859
vt 0.2294922 -0.8603516
vt 0.2294922 -0.9130859
f 248/248/248 249/249/249 250/250/250
f 249/249/249 251/251/251 250/250/250
v -0.7917558 0.3781738 1.0969
v -0.686071 0.01660156 0.986771
v -0.2702715 0.3366699 1.205054
v -0.360395 0.01660156 1.017856
vn -0.8261719 -0.3964844 0.4003906
vn -0.421875 -0.6992188 0.578125
vn 0.03125 -0.6484375 0.7597656
vn 0.4667969 -0.8222656 0.3242188
vt 0.04394531 -0.7724609
vt 0.04394531 -0.8359375
vt 0.1240234 -0.7724609
vt 0.1240234 -0.8359375
f 252/252/252 253/253/253 254/254/254
f 253/253/253 255/255/255 254/254/254
v -0.1933594 0.2324219 0.5483398
v -0.2807144 0.01660156 0.6460496
v -0.7529297 0.392334 0.5068359
v -0.6654699 0.01660156 0.6044518
vn 0.2480469 -0.96875 -0.03710938
vn 0.3632813 -0.6992188 -0.6152344
vn -0.6523438 -0.7109375 -0.2636719
vn -0.5273438 -0.7890625 -0.3144531
vt 0.1240234 -0.8554688
vt 0.1240234 -0.9189453
vt 0.04394531 -0.8554688
vt 0.04394531 -0.9189453
f 256/256/256 257/257/257 258/258/258
f 257/257/257 259/259/259 258/258/258
v -0.6889176 0.01660156 -0.97905
v -0.3493054 0.01660156 -1.030481
v -0.6890197 0.01660156 -0.560593
v -0.4058166 0.01660156 -0.5605239
vn -0.7246094 -0.6132813 -0.3164063
vn 0.2089844 -0.8027344 -0.5605469
vn -0.2929688 -0.8066406 0.5136719
vn 0.6328125 -0.7109375 0.3027344
vt 0.4052734 -0.2246094
vt 0.5683594 -0.2246094
vt 0.4052734 -0.02441406
vt 0.5683594 -0.02441406
f 260/260/260 261/261/261 262/262/262
f 261/261/261 263/263/263 262/262/262
v -0.2861328 0.3847656 -1.131348
v -0.3493054 0.01660156 -1.030481
v -0.8327479 0.4448242 -1.053015
v -0.6889176 0.01660156 -0.97905
vn 0.3710938 -0.6347656 -0.6777344
vn 0.2089844 -0.8027344 -0.5605469
vn -0.6308594 -0.3242188 -0.7050781
vn -0.7246094 -0.6132813 -0.3164063
vt 0.1240234 -0.8554688
vt 0.1240234 -0.9189453
vt 0.04394531 -0.8554688
vt 0.04394531 -0.9189453
f 264/264/264 265/265/265 266/266/266
f 265/265/265 267/267/267 266/266/266
v 0.3603081 0.01660156 1.017788
v 0.2702559 0.3366699 1.205102
v 0.280809 0.01660156 0.6459426
v 0.1933594 0.2324219 0.5483398
vn -0.2011719 -0.7128906 0.671875
vn -0.2578125 -0.6953125 0.6699219
vn -0.5234375 -0.8398438 -0.1445313
vn -0.1445313 -0.953125 -0.265625
vt 0.1494141 -0.9130859
vt 0.1494141 -0.8603516
vt 0.2294922 -0.9130859
vt 0.2294922 -0.8603516
f 268/268/268 269/269/269 270/270/270
f 269/269/269 271/271/271 270/270/270
v -0.2619629 0.2324219 -0.4594727
v -0.4058166 0.01660156 -0.5605239
v -0.2861328 0.3847656 -1.131348
v -0.3493054 0.01660156 -1.030481
vn 0.08398438 -0.9765625 0.1953125
vn 0.6328125 -0.7109375 0.3027344
vn 0.3710938 -0.6347656 -0.6777344
vn 0.2089844 -0.8027344 -0.5605469
vt 0.2294922 -0.8603516
vt 0.2294922 -0.9130859
vt 0.1494141 -0.8603516
vt 0.1494141 -0.9130859
f 272/272/272 273/273/273 274/274/274
f 273/273/273 275/275/275 274/274/274
v -0.7763672 0.392334 -0.4594727
v -0.6890197 0.01660156 -0.560593
v -0.2619629 0.2324219 -0.4594727
v -0.4058166 0.01660156 -0.5605239
vn -0.8144531 -0.5507813 0.1777344
vn -0.2929688 -0.8066406 0.5136719
vn 0.08398438 -0.9765625 0.1953125
vn 0.6328125 -0.7109375 0.3027344
vt 0.04394531 -0.7724609
vt 0.04394531 -0.8359375
vt 0.1240234 -0.7724609
vt 0.1240234 -0.8359375
f 276/276/276 277/277/277 278/278/278
f 277/277/277 279/279/279 278/278/278
v 0.6859993 0.01660156 0.9868618
v 0.7917402 0.3781738 1.096948
v 0.3603081 0.01660156 1.017788
v 0.2702559 0.3366699 1.205102
vn 0.5683594 -0.7890625 0.2304688
vn 0.6171875 -0.4453125 0.6484375
vn -0.2011719 -0.7128906 0.671875
vn -0.2578125 -0.6953125 0.6699219
vt 0.04394531 -0.8359375
vt 0.04394531 -0.7724609
vt 0.1240234 -0.8359375
vt 0.1240234 -0.7724609
f 280/280/280 281/281/281 282/282/282
f 281/281/281 283/283/283 282/282/282
v 0.280809 0.01660156 0.6459426
v 0.1933594 0.2324219 0.5483398
v 0.6655848 0.01660156 0.6045326
v 0.7529297 0.392334 0.5068359
vn -0.5234375 -0.8398438 -0.1445313
vn -0.1445313 -0.953125 -0.265625
vn 0.3066406 -0.6777344 -0.6699219
vn 0.7949219 -0.5957031 -0.1132813
vt 0.1240234 -0.9189453
vt 0.1240234 -0.8554688
vt 0.04394531 -0.9189453
vt 0.04394531 -0.8554688
f 284/284/284 285/285/285 286/286/286
f 285/285/285 287/287/287 286/286/286
v -0.8327479 0.4448242 -1.053015
v -0.6889176 0.01660156 -0.97905
v -0.7763672 0.392334 -0.4594727
v -0.6890197 0.01660156 -0.560593
vn -0.6308594 -0.3242188 -0.7050781
vn -0.7246094 -0.6132813 -0.3164063
vn -0.8144531 -0.5507813 0.1777344
vn -0.2929688 -0.8066406 0.5136719
vt 0.1494141 -0.78125
vt 0.1494141 -0.8369141
vt 0.2294922 -0.78125
vt 0.2294922 -0.8369141
f 288/288/288 289/289/289 290/290/290
f 289/289/289 291/291/291 290/290/290
v -0.1213379 0.9155273 -1.63916
v 0 1.14624 -1.73877
v -0.07299805 0.9733887 -1.890625
v -0.04858398 1.177979 -2.00415
vn -0.8710938 0.453125 -0.1894531
vn -0.9296875 0.359375 0.0703125
vn -0.9394531 0.3378906 0.06640625
vn -0.9511719 0.2109375 0.2285156
vt 0.7412109 -0.28125
vt 0.7832031 -0.1210938
vt 0.84375 -0.2802734
vt 0.8847656 -0.2275391
f 292/292/292 293/293/293 294/294/294
f 293/293/293 295/295/295 294/294/294
v 0.6655848 0.01660156 0.6045326
v 0.6859993 0.01660156 0.9868618
v 0.280809 0.01660156 0.6459426
v 0.3603081 0.01660156 1.017788
vn 0.3066406 -0.6777344 -0.6699219
vn 0.5683594 -0.7890625 0.2304688
vn -0.5234375 -0.8398438 -0.1445313
vn -0.2011719 -0.7128906 0.671875
vt 0.4052734 -0.2246094
vt 0.4052734 -0.02441406
vt 0.5683594 -0.2246094
vt 0.5683594 -0.02441406
f 296/296/296 297/297/297 298/298/298
f 297/297/297 299/299/299 298/298/298
v -0.7763672 0.392334 -0.4594727
v -0.2619629 0.2324219 -0.4594727
v -0.7529297 0.392334 0.5068359
v -0.1933594 0.2324219 0.5483398
vn -0.8144531 -0.5507813 0.1777344
vn 0.08398438 -0.9765625 0.1953125
vn -0.6523438 -0.7109375 -0.2636719
vn 0.2480469 -0.96875 -0.03710938
vt 0.015625 -0.2226563
vt 0.015625 -0.1572266
vt 0.140625 -0.2197266
vt 0.140625 -0.1484375
f 300/300/300 301/301/301 302/302/302
f 301/301/301 303/303/303 302/302/302
v -0.3803711 1.962891 1.095215
v -0.6367188 2.050537 0.9814453
v -0.8508301 1.540527 1.054932
v -1.028809 1.839355 0.9614258
vn -0.3144531 0.2636719 0.9121094
vn -0.2246094 0.25 0.9414063
vn -0.2382813 0.2363281 0.9414063
vn -0.1796875 0.2421875 0.953125
vt 0.1425781 -0.2792969
vt 0.1542969 -0.1523438
vt 0.3681641 -0.2763672
vt 0.3398438 -0.1503906
f 304/304/304 305/305/305 306/306/306
f 305/305/305 307/307/307 306/306/306
v 0 1.526123 -1.958496
v -0.04858398 1.177979 -2.00415
v 0 1.220215 -1.848877
v 0 1.14624 -1.73877
vn -0.9570313 0.09765625 0.2734375
vn -0.9511719 0.2109375 0.2285156
vn -0.9492188 0.2050781 0.2421875
vn -0.9296875 0.359375 0.0703125
vt 0.9716797 -0.02929688
vt 0.8847656 -0.2275391
vt 0.8544922 -0.1357422
vt 0.7832031 -0.1210938
f 308/308/308 309/309/309 310/310/310
f 309/309/309 311/311/311 310/310/310
v -1.08252 0.7163086 -0.002685547
v -0.7763672 0.392334 -0.4594727
v -0.7529297 0.392334 0.5068359
v -0.1933594 0.2324219 0.5483398
v 0 0.3500977 1.303711
v -0.2702715 0.3366699 1.205054
v -1.056396 2.138184 0.8676758
v -1.028809 1.839355 0.9614258
v -0.6367188 2.050537 0.9814453
v -0.2619629 0.2324219 -0.4594727
v 0.2619629 0.2324219 -0.4594727
v -0.1933594 0.2324219 0.5483398
v 1.067139 1.528076 0.001464844
v 1.08252 0.7163086 -0.002685547
v 0.8500977 1.347412 -1.193359
v 1.056396 2.138184 0.8676758
v 1.028809 1.839355 0.9614258
v 0.7651367 1.943604 0.7661133
v -1.056396 2.138184 0.8676758
v -0.6367188 2.050537 0.9814453
v -0.7651367 1.943604 0.7661133
v 0.7529297 0.392334 0.5068359
v 0.7763672 0.392334 -0.4594727
v 1.08252 0.7163086 -0.002685547
vn -0.9472656 -0.3144531 -0.06054688
vn -0.8144531 -0.5507813 0.1777344
vn -0.6523438 -0.7109375 -0.2636719
vn 0.2480469 -0.96875 -0.03710938
vn 0 -0.90625 0.421875
vn 0.03125 -0.6484375 0.7597656
vn -0.1972656 0.2773438 0.9394531
vn -0.1796875 0.2421875 0.953125
vn -0.2246094 0.25 0.9414063
vn 0.08398438 -0.9765625 0.1953125
vn -0.2011719 -0.9785156 0.06054688
vn 0.2480469 -0.96875 -0.03710938
vn 0.9316406 0.3613281 -0.0078125
vn 0.9472656 -0.3144531 -0.06054688
vn 0.7832031 0.3320313 -0.5234375
vn 0.1191406 0.3144531 -0.9414063
vn 0.4414063 -0.3925781 -0.8066406
vn 0.06054688 0.2421875 -0.96875
vn -0.1191406 0.3144531 -0.9414063
vn 0.4003906 0.703125 -0.5878906
vn -0.06054688 0.2421875 -0.96875
vn 0.7949219 -0.5957031 -0.1132813
vn 0.7617188 -0.5664063 0.3144531
vn 0.9472656 -0.3144531 -0.06054688
vt 0.6201172 -0.9042969
vt 0.8427734 -0.9912109
vt 0.3974609 -0.9912109
vt 0.1591797 -0.6396484
vt 0.1826172 -0.7314453
vt 0.1503906 -0.7197266
vt 0.25 -0.02441406
vt 0.3398438 -0.1503906
vt 0.1542969 -0.1523438
vt 0.015625 -0.1572266
vt 0.015625 -0.09082031
vt 0.140625 -0.1484375
vt 0.2841797 -0.5439453
vt 0.2802734 -0.9042969
vt 0.8359375 -0.6787109
vt 0.2978516 -0.01171875
vt 0.3359375 -0.09277344
vt 0.3613281 -0.08300781
vt 0.2978516 -0.01171875
vt 0.3359375 -0.09277344
vt 0.3613281 -0.08300781
vt 0.3974609 -0.9912109
vt 0.8427734 -0.9912109
vt 0.6201172 -0.9042969
f 312/312/312 313/313/313 314/314/314
f 315/315/315 316/316/316 317/317/317
f 318/318/318 319/319/319 320/320/320
f 321/321/321 322/322/322 323/323/323
f 324/324/324 325/325/325 326/326/326
f 327/327/327 328/328/328 329/329/329
f 330/330/330 331/331/331 332/332/332
f 333/333/333 334/334/334 335/335/335
