# Created by MKDS Course Modifier
mtllib Deer [A].mtl
g polygon0
usemtl Material57
v 0.2983398 1.749268 0.6914063
v 0.2180176 1.924316 0.9616699
v 0.1918945 1.740234 0.8820801
v 0.1691895 1.817871 1.196777
v 0.1281738 1.706299 1.095947
v 0 1.66333 1.129883
v 0 1.691895 0.9082031
v -0.1281738 1.706299 1.095947
v -0.1918945 1.740234 0.8820801
v -0.2180176 1.924316 0.9616699
v -0.2983398 1.749268 0.6914063
v -0.3493652 1.994629 0.7426758
v -0.3562012 2.046875 0.5578613
v -0.2248535 2.30249 0.8366699
v -0.2773438 2.345947 0.6203613
v 0 2.343018 0.8657227
v 0 2.406982 0.6242676
v 0.2773438 2.345947 0.6203613
v 0 2.351318 0.3840332
v 0.2451172 2.304932 0.409668
v 0.2749023 2.140625 0.3200684
v 0.3562012 2.046875 0.5578613
v 0.2932129 1.794189 0.515625
v 0.3493652 1.994629 0.7426758
v 0.2983398 1.749268 0.6914063
v 0.2180176 1.924316 0.9616699
vn 0.9492188 -0.1445313 0.2773438
vn 0.9375 -0.1054688 0.3300781
vn 0.7304688 -0.4160156 0.5429688
vn 0.7402344 -0.3867188 0.5507813
vn 0.4902344 -0.8554688 0.1601563
vn 0.06640625 -0.9023438 0.4257813
vn -0.0390625 -0.8691406 0.4941406
vn -0.5976563 -0.75 0.28125
vn -0.7890625 -0.3847656 0.4804688
vn -0.9394531 -0.1503906 0.3066406
vn -0.9570313 -0.1953125 0.2167969
vn -0.9472656 0.01757813 0.3203125
vn -0.9941406 0.07617188 -0.07421875
vn -0.7304688 0.5175781 0.4453125
vn -0.5332031 0.8457031 0.0234375
vn 0 0.8203125 0.5722656
vn 0 0.9980469 0.015625
vn 0.6191406 0.7832031 0.0390625
vn 0.01953125 0.8242188 -0.5664063
vn 0.6699219 0.5996094 -0.4375
vn 0.5546875 0.109375 -0.8242188
vn 0.984375 0.08398438 -0.1484375
vn 0.9746094 -0.0546875 -0.2148438
vn 0.9667969 0.005859375 0.2539063
vn 0.9492188 -0.1445313 0.2773438
vn 0.9375 -0.1054688 0.3300781
vt 0.4375 -0.4912109
vt 0.3105469 -0.3164063
vt 0.3017578 -0.453125
vt 0.1152344 -0.390625
vt 0.1181641 -0.4599609
vt 0.02636719 -0.4873047
vt 0.125 -0.546875
vt 0.1181641 -0.4599609
vt 0.3017578 -0.453125
vt 0.3105469 -0.3164063
vt 0.4375 -0.4912109
vt 0.4921875 -0.3359375
vt 0.640625 -0.3330078
vt 0.4521484 -0.09472656
vt 0.6386719 -0.1289063
vt 0.3867188 -0.02832031
vt 0.6367188 -0.008789063
vt 0.6386719 -0.1289063
vt 0.8574219 -0.01855469
vt 0.7558594 -0.1689453
vt 0.765625 -0.3017578
vt 0.640625 -0.3330078
vt 0.5800781 -0.4951172
vt 0.4921875 -0.3359375
vt 0.4375 -0.4912109
vt 0.3105469 -0.3164063
f 1/1/1 2/2/2 3/3/3
f 2/2/2 4/4/4 3/3/3
f 3/3/3 4/4/4 5/5/5
f 4/4/4 6/6/6 5/5/5
f 5/5/5 6/6/6 7/7/7
f 6/6/6 8/8/8 7/7/7
f 7/7/7 8/8/8 9/9/9
f 8/8/8 10/10/10 9/9/9
f 9/9/9 10/10/10 11/11/11
f 10/10/10 12/12/12 11/11/11
f 11/11/11 12/12/12 13/13/13
f 12/12/12 14/14/14 13/13/13
f 13/13/13 14/14/14 15/15/15
f 14/14/14 16/16/16 15/15/15
f 15/15/15 16/16/16 17/17/17
f 16/16/16 18/18/18 17/17/17
f 17/17/17 18/18/18 19/19/19
f 18/18/18 20/20/20 19/19/19
f 19/19/19 20/20/20 21/21/21
f 20/20/20 22/22/22 21/21/21
f 21/21/21 22/22/22 23/23/23
f 22/22/22 24/24/24 23/23/23
f 23/23/23 24/24/24 25/25/25
f 24/24/24 26/26/26 25/25/25
v 0.2932129 1.794189 0.515625
v 0.2102051 1.864014 0.3405762
v 0.2749023 2.140625 0.3200684
v 0 1.871338 0.3054199
v 0 2.151367 0.293457
v -0.2749023 2.140625 0.3200684
v -0.2451172 2.304932 0.409668
v -0.3562012 2.046875 0.5578613
v -0.2773438 2.345947 0.6203613
vn 0.9746094 -0.0546875 -0.2148438
vn 0.6035156 0.07617188 -0.7929688
vn 0.5546875 0.109375 -0.8242188
vn 0.02734375 0.1054688 -0.9941406
vn -0.03515625 0.2539063 -0.9667969
vn -0.6132813 0.04492188 -0.7890625
vn -0.5683594 0.5859375 -0.578125
vn -0.9941406 0.07617188 -0.07421875
vn -0.5332031 0.8457031 0.0234375
vt 0.5800781 -0.4951172
vt 0.7832031 -0.5166016
vt 0.765625 -0.3017578
vt 0.9697266 -0.4804688
vt 0.9628906 -0.1982422
vt 0.765625 -0.3017578
vt 0.7558594 -0.1689453
vt 0.640625 -0.3330078
vt 0.6386719 -0.1289063
f 27/27/27 28/28/28 29/29/29
f 28/28/28 30/30/30 29/29/29
f 29/29/29 30/30/30 31/31/31
f 30/30/30 32/32/32 31/31/31
f 31/31/31 32/32/32 33/33/33
f 32/32/32 34/34/34 33/33/33
f 33/33/33 34/34/34 35/35/35
v 0.1918945 2.064209 1.004395
v 0 2.119141 1.026123
v 0.1611328 1.996582 1.20459
v 0 2.031006 1.232422
v 0 1.802979 1.248291
v -0.1611328 1.996582 1.20459
v -0.1691895 1.817871 1.196777
v -0.2180176 1.924316 0.9616699
v -0.1281738 1.706299 1.095947
vn 0.6621094 0.4492188 0.5996094
vn 0 0.8398438 0.5429688
vn 0.6308594 0.4199219 0.6523438
vn 0 0.5761719 0.8183594
vn -0.05859375 -0.2929688 0.9550781
vn -0.6308594 0.4199219 0.6523438
vn -0.7539063 -0.3242188 0.5703125
vn -0.9394531 -0.1503906 0.3066406
vn -0.5976563 -0.75 0.28125
vt 0.2890625 -0.2119141
vt 0.03027344 -0.046875
vt 0.1123047 -0.2988281
vt 0.02636719 -0.3017578
vt 0.02636719 -0.4052734
vt 0.1123047 -0.2988281
vt 0.1152344 -0.390625
vt 0.3105469 -0.3164063
vt 0.1181641 -0.4599609
f 36/36/36 37/37/37 38/38/38
f 37/37/37 39/39/39 38/38/38
f 38/38/38 39/39/39 40/40/40
f 39/39/39 41/41/41 40/40/40
f 40/40/40 41/41/41 42/42/42
f 41/41/41 43/43/43 42/42/42
f 42/42/42 43/43/43 44/44/44
v 0.1918945 1.740234 0.8820801
v 0.2148438 1.257813 0.7866211
v 0.2983398 1.749268 0.6914063
v 0.3210449 1.499268 0.5424805
v 0.2932129 1.794189 0.515625
v 0.2695313 1.548096 0.2392578
v 0.2102051 1.864014 0.3405762
v 0 1.871338 0.3054199
vn 0.7304688 -0.4160156 0.5429688
vn 0.6132813 0.04296875 0.7890625
vn 0.9492188 -0.1445313 0.2773438
vn 0.9511719 0.2636719 0.1621094
vn 0.9746094 -0.0546875 -0.2148438
vn 0.6894531 0.6210938 -0.3730469
vn 0.6035156 0.07617188 -0.7929688
vn 0.02734375 0.1054688 -0.9941406
vt 0.5859375 -0.6015625
vt 0.5957031 -0.9667969
vt 0.7070313 -0.6542969
vt 0.7304688 -0.8710938
vt 0.8388672 -0.6894531
vt 0.8486328 -0.9443359
vt 0.9052734 -0.7089844
vt 0.9833984 -0.75
f 45/45/45 46/46/46 47/47/47
f 46/46/46 48/48/48 47/47/47
f 47/47/47 48/48/48 49/49/49
f 48/48/48 50/50/50 49/49/49
f 49/49/49 50/50/50 51/51/51
f 50/50/50 52/52/52 51/51/51
v -0.3210449 1.499268 0.5424805
v -0.2932129 1.794189 0.515625
v -0.2695313 1.548096 0.2392578
v -0.2102051 1.864014 0.3405762
v 0 1.579834 0.1975098
v 0 1.871338 0.3054199
v 0.2695313 1.548096 0.2392578
vn -0.9628906 0.1328125 0.234375
vn -0.96875 -0.03125 -0.2480469
vn -0.8183594 0.5078125 -0.2714844
vn -0.5214844 0.140625 -0.8417969
vn -0.05664063 0.7734375 -0.6308594
vn 0.02734375 0.1054688 -0.9941406
vn 0.6894531 0.6210938 -0.3730469
vt 0.7304688 -0.8710938
vt 0.8388672 -0.6894531
vt 0.8486328 -0.9443359
vt 0.9052734 -0.7089844
vt 0.9541016 -0.9794922
vt 0.9833984 -0.75
vt 0.8486328 -0.9443359
f 53/53/53 54/54/54 55/55/55
f 54/54/54 56/56/56 55/55/55
f 55/55/55 56/56/56 57/57/57
f 56/56/56 58/58/58 57/57/57
f 57/57/57 58/58/58 59/59/59
v 0 2.119141 1.026123
v 0.1918945 2.064209 1.004395
v 0 2.343018 0.8657227
v 0.2248535 2.30249 0.8366699
v 0.2773438 2.345947 0.6203613
v 0.3493652 1.994629 0.7426758
v 0.3562012 2.046875 0.5578613
vn 0 0.8398438 0.5429688
vn 0.6621094 0.4492188 0.5996094
vn 0 0.8203125 0.5722656
vn 0.6328125 0.5742188 0.5195313
vn 0.6191406 0.7832031 0.0390625
vn 0.9667969 0.005859375 0.2539063
vn 0.984375 0.08398438 -0.1484375
vt 0.2373047 -0.1083984
vt 0.2890625 -0.2119141
vt 0.3867188 -0.02832031
vt 0.4521484 -0.09472656
vt 0.6386719 -0.1289063
vt 0.4921875 -0.3359375
vt 0.640625 -0.3330078
f 60/60/60 61/61/61 62/62/62
f 61/61/61 63/63/63 62/62/62
f 62/62/62 63/63/63 64/64/64
f 63/63/63 65/65/65 64/64/64
f 64/64/64 65/65/65 66/66/66
v -0.2148438 1.257813 0.7866211
v -0.1918945 1.740234 0.8820801
v -0.3210449 1.499268 0.5424805
v -0.2983398 1.749268 0.6914063
v -0.2932129 1.794189 0.515625
vn -0.453125 0.02539063 0.890625
vn -0.7890625 -0.3847656 0.4804688
vn -0.9628906 0.1328125 0.234375
vn -0.9570313 -0.1953125 0.2167969
vn -0.96875 -0.03125 -0.2480469
vt 0.5957031 -0.9667969
vt 0.5859375 -0.6015625
vt 0.7304688 -0.8710938
vt 0.7070313 -0.6542969
vt 0.8388672 -0.6894531
f 67/67/67 68/68/68 69/69/69
f 68/68/68 70/70/70 69/69/69
f 69/69/69 70/70/70 71/71/71
v 0 2.119141 1.026123
v 0 2.343018 0.8657227
v -0.1918945 2.064209 1.004395
v -0.2248535 2.30249 0.8366699
v -0.3493652 1.994629 0.7426758
vn 0 0.8398438 0.5429688
vn 0 0.8203125 0.5722656
vn -0.6621094 0.4492188 0.5996094
vn -0.7304688 0.5175781 0.4453125
vn -0.9472656 0.01757813 0.3203125
vt 0.2373047 -0.1083984
vt 0.3867188 -0.02832031
vt 0.2890625 -0.2119141
vt 0.4521484 -0.09472656
vt 0.4921875 -0.3359375
f 72/72/72 73/73/73 74/74/74
f 73/73/73 75/75/75 74/74/74
f 74/74/74 75/75/75 76/76/76
v 0.1611328 1.996582 1.20459
v 0.2180176 1.924316 0.9616699
v 0.1918945 2.064209 1.004395
v 0.3493652 1.994629 0.7426758
v 0.2248535 2.30249 0.8366699
vn 0.6308594 0.4199219 0.6523438
vn 0.9375 -0.1054688 0.3300781
vn 0.6621094 0.4492188 0.5996094
vn 0.9667969 0.005859375 0.2539063
vn 0.6328125 0.5742188 0.5195313
vt 0.1123047 -0.2988281
vt 0.3105469 -0.3164063
vt 0.2890625 -0.2119141
vt 0.4921875 -0.3359375
vt 0.4521484 -0.09472656
f 77/77/77 78/78/78 79/79/79
f 78/78/78 80/80/80 79/79/79
f 79/79/79 80/80/80 81/81/81
v 0.2749023 2.140625 0.3200684
v 0 2.151367 0.293457
v 0 2.351318 0.3840332
v -0.2451172 2.304932 0.409668
v -0.2773438 2.345947 0.6203613
vn 0.5546875 0.109375 -0.8242188
vn -0.03515625 0.2539063 -0.9667969
vn 0.01953125 0.8242188 -0.5664063
vn -0.5683594 0.5859375 -0.578125
vn -0.5332031 0.8457031 0.0234375
vt 0.765625 -0.3017578
vt 0.9628906 -0.1982422
vt 0.8574219 -0.01855469
vt 0.7558594 -0.1689453
vt 0.6386719 -0.1289063
f 82/82/82 83/83/83 84/84/84
f 83/83/83 85/85/85 84/84/84
f 84/84/84 85/85/85 86/86/86
v 0.4934082 2.312012 0.484375
v 0.157959 2.15918 0.5134277
v 0.3474121 2.398193 0.3635254
v 0.2011719 2.52124 0.451416
v 0.5368652 2.674316 0.4245605
vn 0.40625 -0.4375 -0.8027344
vn -0.1894531 -0.4101563 -0.8925781
vn -0.005859375 -0.1660156 -0.9863281
vn -0.4140625 0.1503906 -0.8984375
vn 0.1796875 0.09375 -0.9785156
vt 0.2832031 -0.8232422
vt 0.3652344 -0.9707031
vt 0.3652344 -0.8232422
vt 0.4482422 -0.8232422
vt 0.3652344 -0.6757813
f 87/87/87 88/88/88 89/89/89
f 88/88/88 90/90/90 89/89/89
f 89/89/89 90/90/90 91/91/91
v 0.4934082 2.312012 0.484375
v 0.5368652 2.674316 0.4245605
v 0.3483887 2.434814 0.5759277
v 0.2011719 2.52124 0.451416
v 0.157959 2.15918 0.5134277
vn 0.4257813 -0.1601563 0.890625
vn 0.1933594 0.4101563 0.890625
vn 0.0078125 0.1660156 0.9863281
vn -0.4140625 0.4414063 0.796875
vn -0.1796875 -0.09765625 0.9785156
vt 0.2441406 -0.8242188
vt 0.1621094 -0.6767578
vt 0.1621094 -0.8232422
vt 0.08007813 -0.8242188
vt 0.1621094 -0.9716797
f 92/92/92 93/93/93 94/94/94
f 93/93/93 95/95/95 94/94/94
f 94/94/94 95/95/95 96/96/96
v -0.157959 2.15918 0.5134277
v -0.4934082 2.312012 0.484375
v -0.3474121 2.398193 0.3635254
v -0.5368652 2.674316 0.4245605
v -0.2011719 2.52124 0.451416
vn 0.1894531 -0.4101563 -0.8925781
vn -0.40625 -0.4375 -0.8027344
vn 0.005859375 -0.1660156 -0.9863281
vn -0.1796875 0.09375 -0.9785156
vn 0.4140625 0.1503906 -0.8984375
vt 0.3652344 -0.9707031
vt 0.2832031 -0.8232422
vt 0.3652344 -0.8232422
vt 0.3652344 -0.6757813
vt 0.4482422 -0.8232422
f 97/97/97 98/98/98 99/99/99
f 98/98/98 100/100/100 99/99/99
f 99/99/99 100/100/100 101/101/101
v -0.5368652 2.674316 0.4245605
v -0.4934082 2.312012 0.484375
v -0.3483887 2.434814 0.5759277
v -0.157959 2.15918 0.5134277
v -0.2011719 2.52124 0.451416
vn -0.1933594 0.4101563 0.890625
vn -0.4257813 -0.1601563 0.890625
vn -0.0078125 0.1660156 0.9863281
vn 0.1796875 -0.09765625 0.9785156
vn 0.4140625 0.4414063 0.796875
vt 0.1621094 -0.6767578
vt 0.2441406 -0.8242188
vt 0.1621094 -0.8232422
vt 0.1621094 -0.9716797
vt 0.08007813 -0.8242188
f 102/102/102 103/103/103 104/104/104
f 103/103/103 105/105/105 104/104/104
f 104/104/104 105/105/105 106/106/106
v 0.1918945 1.740234 0.8820801
v 0 1.691895 0.9082031
v 0 1.251709 0.8293457
v -0.2148438 1.257813 0.7866211
vn 0.7304688 -0.4160156 0.5429688
vn -0.0390625 -0.8691406 0.4941406
vn 0.05078125 -0.08398438 0.9960938
vn -0.453125 0.02539063 0.890625
vt 0.5859375 -0.6015625
vt 0.4951172 -0.6494141
vt 0.4990234 -0.9716797
vt 0.5957031 -0.9667969
f 107/107/107 108/108/108 109/109/109
f 108/108/108 110/110/110 109/109/109
v -0.2932129 1.794189 0.515625
v -0.2749023 2.140625 0.3200684
v -0.2102051 1.864014 0.3405762
v 0 1.871338 0.3054199
vn -0.96875 -0.03125 -0.2480469
vn -0.6132813 0.04492188 -0.7890625
vn -0.5214844 0.140625 -0.8417969
vn 0.02734375 0.1054688 -0.9941406
vt 0.5800781 -0.4951172
vt 0.765625 -0.3017578
vt 0.7832031 -0.5166016
vt 0.9697266 -0.4804688
f 111/111/111 112/112/112 113/113/113
f 112/112/112 114/114/114 113/113/113
v 0 2.119141 1.026123
v -0.1918945 2.064209 1.004395
v -0.1611328 1.996582 1.20459
v -0.2180176 1.924316 0.9616699
vn 0 0.8398438 0.5429688
vn -0.6621094 0.4492188 0.5996094
vn -0.6308594 0.4199219 0.6523438
vn -0.9394531 -0.1503906 0.3066406
vt 0.03027344 -0.046875
vt 0.2890625 -0.2119141
vt 0.1123047 -0.2988281
vt 0.3105469 -0.3164063
f 115/115/115 116/116/116 117/117/117
f 116/116/116 118/118/118 117/117/117
v -0.2983398 1.749268 0.6914063
v -0.3562012 2.046875 0.5578613
v -0.2932129 1.794189 0.515625
v -0.2749023 2.140625 0.3200684
vn -0.9570313 -0.1953125 0.2167969
vn -0.9941406 0.07617188 -0.07421875
vn -0.96875 -0.03125 -0.2480469
vn -0.6132813 0.04492188 -0.7890625
vt 0.4375 -0.4912109
vt 0.640625 -0.3330078
vt 0.5800781 -0.4951172
vt 0.765625 -0.3017578
f 119/119/119 120/120/120 121/121/121
f 120/120/120 122/122/122 121/121/121
v 0 1.66333 1.129883
v 0.1691895 1.817871 1.196777
v 0 1.802979 1.248291
v 0.1611328 1.996582 1.20459
vn 0.06640625 -0.9023438 0.4257813
vn 0.7402344 -0.3867188 0.5507813
vn -0.05859375 -0.2929688 0.9550781
vn 0.6308594 0.4199219 0.6523438
vt 0.02636719 -0.4873047
vt 0.1152344 -0.390625
vt 0.02636719 -0.4052734
vt 0.1123047 -0.2988281
f 123/123/123 124/124/124 125/125/125
f 124/124/124 126/126/126 125/125/125
v 0 1.66333 1.129883
v 0 1.802979 1.248291
v -0.1281738 1.706299 1.095947
v -0.1691895 1.817871 1.196777
vn 0.06640625 -0.9023438 0.4257813
vn -0.05859375 -0.2929688 0.9550781
vn -0.5976563 -0.75 0.28125
vn -0.7539063 -0.3242188 0.5703125
vt 0.02636719 -0.4873047
vt 0.02636719 -0.4052734
vt 0.1181641 -0.4599609
vt 0.1152344 -0.390625
f 127/127/127 128/128/128 129/129/129
f 128/128/128 130/130/130 129/129/129
v 0.2773438 2.345947 0.6203613
v 0.3562012 2.046875 0.5578613
v 0.2451172 2.304932 0.409668
v 0.1691895 1.817871 1.196777
v 0.2180176 1.924316 0.9616699
v 0.1611328 1.996582 1.20459
v 0 2.119141 1.026123
v -0.1611328 1.996582 1.20459
v 0 2.031006 1.232422
v 0 2.406982 0.6242676
v 0 2.351318 0.3840332
v -0.2773438 2.345947 0.6203613
v -0.1918945 2.064209 1.004395
v -0.3493652 1.994629 0.7426758
v -0.2180176 1.924316 0.9616699
v -0.1918945 1.740234 0.8820801
v -0.2148438 1.257813 0.7866211
v 0 1.691895 0.9082031
v 0.2148438 1.257813 0.7866211
v 0.1918945 1.740234 0.8820801
v 0 1.251709 0.8293457
v -0.157959 2.15918 0.5134277
v -0.3474121 2.398193 0.3635254
v -0.2011719 2.52124 0.451416
v -0.5368652 2.674316 0.4245605
v -0.3483887 2.434814 0.5759277
v -0.2011719 2.52124 0.451416
v 0.1918945 1.740234 0.8820801
v 0.1281738 1.706299 1.095947
v 0 1.691895 0.9082031
v 0.4934082 2.312012 0.484375
v 0.3474121 2.398193 0.3635254
v 0.5368652 2.674316 0.4245605
v 0.4934082 2.312012 0.484375
v 0.3483887 2.434814 0.5759277
v 0.157959 2.15918 0.5134277
vn 0.6191406 0.7832031 0.0390625
vn 0.984375 0.08398438 -0.1484375
vn 0.6699219 0.5996094 -0.4375
vn 0.7402344 -0.3867188 0.5507813
vn 0.9375 -0.1054688 0.3300781
vn 0.6308594 0.4199219 0.6523438
vn 0 0.8398438 0.5429688
vn -0.6308594 0.4199219 0.6523438
vn 0 0.5761719 0.8183594
vn 0 0.9980469 0.015625
vn 0.01953125 0.8242188 -0.5664063
vn -0.5332031 0.8457031 0.0234375
vn -0.6621094 0.4492188 0.5996094
vn -0.9472656 0.01757813 0.3203125
vn -0.9394531 -0.1503906 0.3066406
vn -0.7890625 -0.3847656 0.4804688
vn -0.453125 0.02539063 0.890625
vn -0.0390625 -0.8691406 0.4941406
vn 0.6132813 0.04296875 0.7890625
vn 0.7304688 -0.4160156 0.5429688
vn 0.05078125 -0.08398438 0.9960938
vn 0.1894531 -0.4101563 -0.8925781
vn 0.005859375 -0.1660156 -0.9863281
vn 0.4140625 0.1503906 -0.8984375
vn -0.1933594 0.4101563 0.890625
vn -0.0078125 0.1660156 0.9863281
vn 0.4140625 0.4414063 0.796875
vn 0.7304688 -0.4160156 0.5429688
vn 0.4902344 -0.8554688 0.1601563
vn -0.0390625 -0.8691406 0.4941406
vn 0.40625 -0.4375 -0.8027344
vn -0.005859375 -0.1660156 -0.9863281
vn 0.1796875 0.09375 -0.9785156
vn 0.4257813 -0.1601563 0.890625
vn 0.0078125 0.1660156 0.9863281
vn -0.1796875 -0.09765625 0.9785156
vt 0.6386719 -0.1289063
vt 0.640625 -0.3330078
vt 0.7558594 -0.1689453
vt 0.1152344 -0.390625
vt 0.3105469 -0.3164063
vt 0.1123047 -0.2988281
vt 0.03027344 -0.046875
vt 0.1123047 -0.2988281
vt 0.02636719 -0.3017578
vt 0.6367188 -0.008789063
vt 0.8574219 -0.01855469
vt 0.6386719 -0.1289063
vt 0.2890625 -0.2119141
vt 0.4921875 -0.3359375
vt 0.3105469 -0.3164063
vt 0.5859375 -0.6015625
vt 0.5957031 -0.9667969
vt 0.4951172 -0.6494141
vt 0.5957031 -0.9667969
vt 0.5859375 -0.6015625
vt 0.4990234 -0.9716797
vt 0.3652344 -0.9707031
vt 0.3652344 -0.8232422
vt 0.4482422 -0.8232422
vt 0.1621094 -0.6767578
vt 0.1621094 -0.8232422
vt 0.08007813 -0.8242188
vt 0.3017578 -0.453125
vt 0.1181641 -0.4599609
vt 0.125 -0.546875
vt 0.2832031 -0.8232422
vt 0.3652344 -0.8232422
vt 0.3652344 -0.6757813
vt 0.2441406 -0.8242188
vt 0.1621094 -0.8232422
vt 0.1621094 -0.9716797
f 131/131/131 132/132/132 133/133/133
f 134/134/134 135/135/135 136/136/136
f 137/137/137 138/138/138 139/139/139
f 140/140/140 141/141/141 142/142/142
f 143/143/143 144/144/144 145/145/145
f 146/146/146 147/147/147 148/148/148
f 149/149/149 150/150/150 151/151/151
f 152/152/152 153/153/153 154/154/154
f 155/155/155 156/156/156 157/157/157
f 158/158/158 159/159/159 160/160/160
f 161/161/161 162/162/162 163/163/163
f 164/164/164 165/165/165 166/166/166
g polygon1
usemtl Material58
v 0.2695313 1.548096 0.2392578
v 0.3210449 1.499268 0.5424805
v 0.4726563 1.212646 0.2580566
v 0.4194336 1.238525 0.6447754
v 0.4384766 0.8977051 0.2773438
v 0.4018555 0.9162598 0.6601563
v 0.3515625 0.7260742 0.6269531
v 0.2280273 0.921875 0.7993164
v 0 0.6467285 0.7150879
v 0 0.921875 0.8278809
v -0.2280273 0.921875 0.7993164
v -0.2148438 1.257813 0.7866211
v -0.4018555 0.9162598 0.6601563
v -0.4194336 1.238525 0.6447754
v -0.4726563 1.212646 0.2580566
v -0.2695313 1.548096 0.2392578
vn 0.6894531 0.6210938 -0.3730469
vn 0.9511719 0.2636719 0.1621094
vn 0.9667969 0.2539063 0.04101563
vn 0.859375 0.1425781 0.4902344
vn 0.9589844 -0.2773438 0.0625
vn 0.8652344 -0.1660156 0.4726563
vn 0.7070313 -0.5039063 0.4960938
vn 0.3828125 -0.1621094 0.9101563
vn 0.009765625 -0.7832031 0.6210938
vn -0.04101563 -0.1484375 0.9882813
vn -0.375 -0.2285156 0.8984375
vn -0.453125 0.02539063 0.890625
vn -0.8632813 -0.1171875 0.4921875
vn -0.8828125 0.2871094 0.3710938
vn -0.9804688 0.1855469 0.05273438
vn -0.8183594 0.5078125 -0.2714844
vt 0.3134766 -0.4570313
vt 0.2324219 -0.4599609
vt 0.3105469 -0.5380859
vt 0.2099609 -0.53125
vt 0.3056641 -0.6455078
vt 0.2060547 -0.640625
vt 0.2519531 -0.6923828
vt 0.1464844 -0.6396484
vt 0.04296875 -0.7138672
vt 0.04199219 -0.6396484
vt 0.1464844 -0.6396484
vt 0.1494141 -0.5244141
vt 0.2060547 -0.640625
vt 0.2099609 -0.53125
vt 0.3105469 -0.5380859
vt 0.3134766 -0.4570313
f 167/167/167 168/168/168 169/169/169
f 168/168/168 170/170/170 169/169/169
f 169/169/169 170/170/170 171/171/171
f 170/170/170 172/172/172 171/171/171
f 171/171/171 172/172/172 173/173/173
f 172/172/172 174/174/174 173/173/173
f 173/173/173 174/174/174 175/175/175
f 174/174/174 176/176/176 175/175/175
f 175/175/175 176/176/176 177/177/177
f 176/176/176 178/178/178 177/177/177
f 177/177/177 178/178/178 179/179/179
f 178/178/178 180/180/180 179/179/179
f 179/179/179 180/180/180 181/181/181
f 180/180/180 182/182/182 181/181/181
v 0.3996582 1.106201 -0.6481934
v 0.2099609 1.369873 -0.597168
v 0.4858398 1.175049 -0.2138672
v 0.2912598 1.47998 -0.2055664
v 0.2695313 1.548096 0.2392578
v 0 1.515625 -0.2189941
v 0 1.579834 0.1975098
v -0.2912598 1.47998 -0.2055664
v -0.2695313 1.548096 0.2392578
v -0.4726563 1.212646 0.2580566
vn 0.796875 0.1953125 -0.5722656
vn 0.4707031 0.6542969 -0.5917969
vn 0.9511719 0.2910156 -0.109375
vn 0.4511719 0.8613281 -0.234375
vn 0.6894531 0.6210938 -0.3730469
vn -0.00390625 0.9765625 -0.2167969
vn -0.05664063 0.7734375 -0.6308594
vn -0.5722656 0.796875 -0.1894531
vn -0.8183594 0.5078125 -0.2714844
vn -0.9804688 0.1855469 0.05273438
vt 0.34375 -0.5048828
vt 0.5390625 -0.4892578
vt 0.3798828 -0.2871094
vt 0.5449219 -0.2861328
vt 0.5625 -0.05566406
vt 0.6767578 -0.2929688
vt 0.6767578 -0.07714844
vt 0.8076172 -0.2861328
vt 0.8027344 -0.05566406
vt 0.9238281 -0.04980469
f 183/183/183 184/184/184 185/185/185
f 184/184/184 186/186/186 185/185/185
f 185/185/185 186/186/186 187/187/187
f 186/186/186 188/188/188 187/187/187
f 187/187/187 188/188/188 189/189/189
f 188/188/188 190/190/190 189/189/189
f 189/189/189 190/190/190 191/191/191
f 190/190/190 192/192/192 191/191/191
v 0.08886719 0.6450195 0.6616211
v 0 0.6467285 0.7150879
v 0.0715332 0.590332 0.3066406
v 0 0.5849609 0.3066406
v 0.08496094 0.5927734 -0.2380371
v 0 0.5874023 -0.2380371
v 0 0.8259277 -0.7099609
v -0.0847168 0.5927734 -0.2380371
v -0.09619141 0.6767578 -0.6010742
vn 0.01757813 -0.5429688 0.8398438
vn 0.009765625 -0.7832031 0.6210938
vn -0.3359375 -0.9316406 -0.1347656
vn -0.001953125 -0.9980469 0.07226563
vn -0.1425781 -0.9628906 0.2285156
vn -0.015625 -0.9824219 -0.1875
vn 0 -0.7265625 -0.6875
vn 0.5351563 -0.8417969 0.078125
vn 0.2324219 -0.3847656 -0.8925781
vt 0.02929688 -0.9199219
vt 0.01855469 -0.8457031
vt 0.09863281 -0.9160156
vt 0.09863281 -0.8457031
vt 0.2050781 -0.9189453
vt 0.2050781 -0.8457031
vt 0.296875 -0.8457031
vt 0.2050781 -0.9189453
vt 0.2753906 -0.9208984
f 193/193/193 194/194/194 195/195/195
f 194/194/194 196/196/196 195/195/195
f 195/195/195 196/196/196 197/197/197
f 196/196/196 198/198/198 197/197/197
f 197/197/197 198/198/198 199/199/199
f 198/198/198 200/200/200 199/199/199
f 199/199/199 200/200/200 201/201/201
v 0.09619141 0.6767578 -0.6010742
v 0.3527832 0.7089844 -0.5585938
v 0.09375 0.4587402 -0.5725098
v 0.3122559 0.4541016 -0.5393066
v 0.298584 0.3671875 -0.532959
v 0.2861328 0.3605957 -0.2683105
v 0.2419434 0.008789063 -0.3017578
v 0.09838867 0.008789063 -0.3017578
vn -0.5410156 -0.4023438 -0.7382813
vn 0.6328125 -0.2910156 -0.7167969
vn -0.3300781 -0.1035156 -0.9375
vn 0.9121094 -0.1621094 -0.3769531
vn 0.7519531 -0.1679688 -0.6386719
vn 0.6855469 -0.1621094 0.7089844
vn 0.7539063 -0.5253906 0.3945313
vn -0.3085938 -0.7050781 0.6386719
vt 0.6904297 -0.7460938
vt 0.6318359 -0.7236328
vt 0.6904297 -0.8203125
vt 0.6318359 -0.8125
vt 0.6308594 -0.8427734
vt 0.5634766 -0.8457031
vt 0.5664063 -0.9677734
vt 0.5185547 -0.9736328
f 202/202/202 203/203/203 204/204/204
f 203/203/203 205/205/205 204/204/204
f 204/204/204 205/205/205 206/206/206
f 205/205/205 207/207/207 206/206/206
f 206/206/206 207/207/207 208/208/208
f 207/207/207 209/209/209 208/208/208
v 0.3527832 0.7089844 -0.5585938
v 0.3261719 0.6791992 -0.237793
v 0.3122559 0.4541016 -0.5393066
v 0.2966309 0.442627 -0.260498
v 0.2861328 0.3605957 -0.2683105
v 0.09008789 0.3713379 -0.262207
v 0.09838867 0.008789063 -0.3017578
v 0.08886719 0.01000977 -0.5141602
vn 0.6328125 -0.2910156 -0.7167969
vn 0.8535156 -0.4902344 0.1777344
vn 0.9121094 -0.1621094 -0.3769531
vn 0.4511719 -0.1445313 0.8808594
vn 0.6855469 -0.1621094 0.7089844
vn -0.6933594 -0.08398438 0.7148438
vn -0.3085938 -0.7050781 0.6386719
vn -0.7929688 -0.4667969 -0.390625
vt 0.6318359 -0.7236328
vt 0.5625 -0.7353516
vt 0.6318359 -0.8125
vt 0.5634766 -0.8173828
vt 0.5634766 -0.8457031
vt 0.5136719 -0.8505859
vt 0.5185547 -0.9736328
vt 0.4414063 -0.9736328
f 210/210/210 211/211/211 212/212/212
f 211/211/211 213/213/213 212/212/212
f 212/212/212 213/213/213 214/214/214
f 213/213/213 215/215/215 214/214/214
f 214/214/214 215/215/215 216/216/216
f 215/215/215 217/217/217 216/216/216
v -0.0847168 0.5927734 -0.2380371
v -0.3261719 0.6791992 -0.237793
v -0.08813477 0.4538574 -0.253418
v -0.2966309 0.442627 -0.260498
v -0.2861328 0.3605957 -0.2683105
v -0.298584 0.3671875 -0.532959
v -0.2419434 0.009765625 -0.5061035
v -0.08886719 0.01000977 -0.5141602
vn 0.5351563 -0.8417969 0.078125
vn -0.7089844 -0.6152344 0.34375
vn 0.4277344 -0.1035156 0.8984375
vn -0.8652344 -0.1640625 0.4746094
vn -0.6953125 -0.1621094 0.6992188
vn -0.7460938 -0.1679688 -0.6425781
vn -0.7734375 -0.5175781 -0.3652344
vn 0.2675781 -0.7207031 -0.6386719
vt 0.5126953 -0.7744141
vt 0.5625 -0.7353516
vt 0.5136719 -0.8222656
vt 0.5634766 -0.8173828
vt 0.5634766 -0.8457031
vt 0.6308594 -0.8427734
vt 0.6308594 -0.9677734
vt 0.6914063 -0.9736328
f 218/218/218 219/219/219 220/220/220
f 219/219/219 221/221/221 220/220/220
f 220/220/220 221/221/221 222/222/222
f 221/221/221 223/223/223 222/222/222
f 222/222/222 223/223/223 224/224/224
f 223/223/223 225/225/225 224/224/224
v -0.08886719 0.6450195 0.6616211
v -0.3334961 0.6677246 0.6035156
v -0.08642578 0.4541016 0.6477051
v -0.3017578 0.4560547 0.6015625
v -0.2895508 0.3752441 0.6008301
v -0.2746582 0.3764648 0.3320313
v -0.2243652 0.005615234 0.3911133
v -0.0625 0.005615234 0.4135742
vn 0.2402344 -0.734375 0.6347656
vn -0.6777344 -0.2460938 0.6914063
vn 0.2734375 -0.05078125 0.9609375
vn -0.921875 -0.1386719 0.3632813
vn -0.7832031 -0.1289063 0.609375
vn -0.640625 -0.2128906 -0.7382813
vn -0.7148438 -0.5546875 -0.4238281
vn 0.375 -0.7148438 -0.5898438
vt 0.7939453 -0.7480469
vt 0.8505859 -0.7275391
vt 0.7939453 -0.8134766
vt 0.8525391 -0.8017578
vt 0.8525391 -0.8300781
vt 0.9160156 -0.8232422
vt 0.9150391 -0.9541016
vt 0.9658203 -0.9619141
f 226/226/226 227/227/227 228/228/228
f 227/227/227 229/229/229 228/228/228
f 228/228/228 229/229/229 230/230/230
f 229/229/229 231/231/231 230/230/230
f 230/230/230 231/231/231 232/232/232
f 231/231/231 233/233/233 232/232/232
v -0.07128906 0.590332 0.3066406
v -0.08886719 0.6450195 0.6616211
v -0.06933594 0.4597168 0.3303223
v -0.08642578 0.4541016 0.6477051
v -0.08569336 0.3796387 0.6420898
v -0.2895508 0.3752441 0.6008301
v -0.2338867 0.004882813 0.5976563
v -0.2243652 0.005615234 0.3911133
vn 0.03710938 -0.9453125 -0.3242188
vn 0.2402344 -0.734375 0.6347656
vn 0.9179688 -0.06445313 -0.3925781
vn 0.2734375 -0.05078125 0.9609375
vn 0.6230469 -0.03710938 0.78125
vn -0.7832031 -0.1289063 0.609375
vn -0.4003906 -0.6992188 0.5917969
vn -0.7148438 -0.5546875 -0.4238281
vt 0.7197266 -0.7578125
vt 0.7939453 -0.7480469
vt 0.7197266 -0.8037109
vt 0.7939453 -0.8134766
vt 0.7939453 -0.8388672
vt 0.8525391 -0.8300781
vt 0.8564453 -0.9589844
vt 0.9150391 -0.9541016
f 234/234/234 235/235/235 236/236/236
f 235/235/235 237/237/237 236/236/236
f 236/236/236 237/237/237 238/238/238
f 237/237/237 239/239/239 238/238/238
f 238/238/238 239/239/239 240/240/240
f 239/239/239 241/241/241 240/240/240
v -0.09619141 0.6767578 -0.6010742
v -0.0847168 0.5927734 -0.2380371
v -0.09375 0.4587402 -0.5725098
v -0.08813477 0.4538574 -0.253418
v -0.08984375 0.3713379 -0.262207
v -0.2861328 0.3605957 -0.2683105
v -0.2419434 0.008789063 -0.3017578
v -0.2419434 0.009765625 -0.5061035
vn 0.2324219 -0.3847656 -0.8925781
vn 0.5351563 -0.8417969 0.078125
vn 0.875 -0.06640625 -0.4804688
vn 0.4277344 -0.1035156 0.8984375
vn 0.7050781 -0.08203125 0.703125
vn -0.6953125 -0.1621094 0.6992188
vn -0.3164063 -0.7226563 0.6132813
vn -0.7734375 -0.5175781 -0.3652344
vt 0.4394531 -0.7460938
vt 0.5126953 -0.7744141
vt 0.4404297 -0.8203125
vt 0.5136719 -0.8222656
vt 0.5136719 -0.8505859
vt 0.5634766 -0.8457031
vt 0.5664063 -0.9677734
vt 0.6308594 -0.9677734
f 242/242/242 243/243/243 244/244/244
f 243/243/243 245/245/245 244/244/244
f 244/244/244 245/245/245 246/246/246
f 245/245/245 247/247/247 246/246/246
f 246/246/246 247/247/247 248/248/248
f 247/247/247 249/249/249 248/248/248
v 0.3151855 0.677002 0.2844238
v 0.3334961 0.6677246 0.6035156
v 0.2849121 0.4519043 0.3200684
v 0.3017578 0.4560547 0.6015625
v 0.2895508 0.3752441 0.6008301
v 0.08569336 0.3796387 0.6420898
v 0.08105469 0.004638672 0.614502
v 0.0625 0.005615234 0.4135742
vn 0.7167969 -0.6015625 -0.3496094
vn 0.8671875 -0.2617188 0.421875
vn 0.8515625 -0.1953125 -0.4882813
vn 0.59375 -0.1113281 0.796875
vn 0.7734375 -0.1289063 0.6210938
vn -0.6054688 -0.03710938 0.7949219
vn -0.2285156 -0.6953125 0.6816406
vn -0.8339844 -0.4472656 -0.3242188
vt 0.9169922 -0.7167969
vt 0.8505859 -0.7275391
vt 0.9160156 -0.7958984
vt 0.8525391 -0.8017578
vt 0.8525391 -0.8300781
vt 0.7939453 -0.8388672
vt 0.7939453 -0.9667969
vt 0.7177734 -0.9619141
f 250/250/250 251/251/251 252/252/252
f 251/251/251 253/253/253 252/252/252
f 252/252/252 253/253/253 254/254/254
f 253/253/253 255/255/255 254/254/254
f 254/254/254 255/255/255 256/256/256
f 255/255/255 257/257/257 256/256/256
v 0.0715332 0.590332 0.3066406
v 0.3151855 0.677002 0.2844238
v 0.06933594 0.4597168 0.3303223
v 0.2849121 0.4519043 0.3200684
v 0.2746582 0.3764648 0.3320313
v 0.2895508 0.3752441 0.6008301
v 0.2338867 0.004882813 0.5976563
v 0.08105469 0.004638672 0.614502
vn -0.3359375 -0.9316406 -0.1347656
vn 0.7167969 -0.6015625 -0.3496094
vn -0.4921875 -0.1367188 -0.859375
vn 0.8515625 -0.1953125 -0.4882813
vn 0.6523438 -0.2128906 -0.7285156
vn 0.7734375 -0.1289063 0.6210938
vn 0.796875 -0.5019531 0.3378906
vn -0.2285156 -0.6953125 0.6816406
vt 0.9677734 -0.7578125
vt 0.9169922 -0.7167969
vt 0.9677734 -0.8037109
vt 0.9160156 -0.7958984
vt 0.9160156 -0.8232422
vt 0.8525391 -0.8300781
vt 0.8564453 -0.9589844
vt 0.7939453 -0.9667969
f 258/258/258 259/259/259 260/260/260
f 259/259/259 261/261/261 260/260/260
f 260/260/260 261/261/261 262/262/262
f 261/261/261 263/263/263 262/262/262
f 262/262/262 263/263/263 264/264/264
f 263/263/263 265/265/265 264/264/264
v 0.3527832 0.7089844 -0.5585938
v 0.3808594 0.7770996 -0.5805664
v 0.3261719 0.6791992 -0.237793
v 0.4606934 0.8713379 -0.2216797
v 0.4384766 0.8977051 0.2773438
v 0.4858398 1.175049 -0.2138672
v 0.4726563 1.212646 0.2580566
vn 0.6328125 -0.2910156 -0.7167969
vn 0.6542969 -0.5566406 -0.5117188
vn 0.8535156 -0.4902344 0.1777344
vn 0.9589844 -0.2734375 -0.07421875
vn 0.9589844 -0.2773438 0.0625
vn 0.9511719 0.2910156 -0.109375
vn 0.9667969 0.2539063 0.04101563
vt 0.5292969 -0.703125
vt 0.5351563 -0.6845703
vt 0.4414063 -0.7050781
vt 0.4355469 -0.6523438
vt 0.3056641 -0.6455078
vt 0.4335938 -0.5478516
vt 0.3105469 -0.5380859
f 266/266/266 267/267/267 268/268/268
f 267/267/267 269/269/269 268/268/268
f 268/268/268 269/269/269 270/270/270
f 269/269/269 271/271/271 270/270/270
f 270/270/270 271/271/271 272/272/272
v 0.3334961 0.6677246 0.6035156
v 0.08886719 0.6450195 0.6616211
v 0.3017578 0.4560547 0.6015625
v 0.08642578 0.4541016 0.6477051
v 0.08569336 0.3796387 0.6420898
v 0.06835938 0.3928223 0.3425293
v 0.0625 0.005615234 0.4135742
vn 0.8671875 -0.2617188 0.421875
vn 0.01757813 -0.5429688 0.8398438
vn 0.59375 -0.1113281 0.796875
vn -0.8554688 -0.01953125 0.5175781
vn -0.6054688 -0.03710938 0.7949219
vn -0.7578125 -0.1035156 -0.6445313
vn -0.8339844 -0.4472656 -0.3242188
vt 0.8505859 -0.7275391
vt 0.7939453 -0.7480469
vt 0.8525391 -0.8017578
vt 0.7939453 -0.8134766
vt 0.7939453 -0.8388672
vt 0.7197266 -0.8271484
vt 0.7177734 -0.9619141
f 273/273/273 274/274/274 275/275/275
f 274/274/274 276/276/276 275/275/275
f 275/275/275 276/276/276 277/277/277
f 276/276/276 278/278/278 277/277/277
f 277/277/277 278/278/278 279/279/279
v 0.3261719 0.6791992 -0.237793
v 0.08496094 0.5927734 -0.2380371
v 0.2966309 0.442627 -0.260498
v 0.08813477 0.4538574 -0.253418
v 0.09008789 0.3713379 -0.262207
v 0.09277344 0.3693848 -0.560791
v 0.08886719 0.01000977 -0.5141602
vn 0.8535156 -0.4902344 0.1777344
vn -0.1425781 -0.9628906 0.2285156
vn 0.4511719 -0.1445313 0.8808594
vn -0.8984375 -0.0546875 0.4355469
vn -0.6933594 -0.08398438 0.7148438
vn -0.6640625 -0.08789063 -0.7421875
vn -0.7929688 -0.4667969 -0.390625
vt 0.5625 -0.7353516
vt 0.5126953 -0.7744141
vt 0.5634766 -0.8173828
vt 0.5136719 -0.8222656
vt 0.5136719 -0.8505859
vt 0.4404297 -0.8505859
vt 0.4414063 -0.9736328
f 280/280/280 281/281/281 282/282/282
f 281/281/281 283/283/283 282/282/282
f 282/282/282 283/283/283 284/284/284
f 283/283/283 285/285/285 284/284/284
f 284/284/284 285/285/285 286/286/286
v -0.3996582 1.106201 -0.6481934
v -0.2912598 1.47998 -0.2055664
v -0.2099609 1.369873 -0.597168
v 0 1.515625 -0.2189941
v 0 1.405762 -0.5981445
v 0.2912598 1.47998 -0.2055664
v 0.2099609 1.369873 -0.597168
vn -0.7324219 0.3300781 -0.59375
vn -0.5722656 0.796875 -0.1894531
vn -0.3105469 0.7441406 -0.5917969
vn -0.00390625 0.9765625 -0.2167969
vn 0.02734375 0.8242188 -0.5644531
vn 0.4511719 0.8613281 -0.234375
vn 0.4707031 0.6542969 -0.5917969
vt 0.9677734 -0.5048828
vt 0.8076172 -0.2861328
vt 0.8134766 -0.4892578
vt 0.6767578 -0.2929688
vt 0.6767578 -0.4892578
vt 0.5449219 -0.2861328
vt 0.5390625 -0.4892578
f 287/287/287 288/288/288 289/289/289
f 288/288/288 290/290/290 289/289/289
f 289/289/289 290/290/290 291/291/291
f 290/290/290 292/292/292 291/291/291
f 291/291/291 292/292/292 293/293/293
v -0.3334961 0.6677246 0.6035156
v -0.3151855 0.677002 0.2844238
v -0.3017578 0.4560547 0.6015625
v -0.284668 0.4519043 0.3200684
v -0.2746582 0.3764648 0.3320313
v -0.06835938 0.3928223 0.3425293
v -0.0625 0.005615234 0.4135742
vn -0.6777344 -0.2460938 0.6914063
vn -0.8632813 -0.4765625 -0.1660156
vn -0.921875 -0.1386719 0.3632813
vn -0.3925781 -0.2089844 -0.8964844
vn -0.640625 -0.2128906 -0.7382813
vn 0.7519531 -0.1035156 -0.6503906
vn 0.375 -0.7148438 -0.5898438
vt 0.8505859 -0.7275391
vt 0.9169922 -0.7167969
vt 0.8525391 -0.8017578
vt 0.9160156 -0.7958984
vt 0.9160156 -0.8232422
vt 0.9677734 -0.8271484
vt 0.9658203 -0.9619141
f 294/294/294 295/295/295 296/296/296
f 295/295/295 297/297/297 296/296/296
f 296/296/296 297/297/297 298/298/298
f 297/297/297 299/299/299 298/298/298
f 298/298/298 299/299/299 300/300/300
v -0.3261719 0.6791992 -0.237793
v -0.3527832 0.7089844 -0.5585938
v -0.2966309 0.442627 -0.260498
v -0.3122559 0.4541016 -0.5393066
v -0.298584 0.3671875 -0.532959
v -0.09277344 0.3693848 -0.560791
v -0.08886719 0.01000977 -0.5141602
vn -0.7089844 -0.6152344 0.34375
vn -0.8457031 -0.2910156 -0.4453125
vn -0.8652344 -0.1640625 0.4746094
vn -0.5507813 -0.1621094 -0.8183594
vn -0.7460938 -0.1679688 -0.6425781
vn 0.6601563 -0.08984375 -0.7460938
vn 0.2675781 -0.7207031 -0.6386719
vt 0.5625 -0.7353516
vt 0.6318359 -0.7236328
vt 0.5634766 -0.8173828
vt 0.6318359 -0.8125
vt 0.6308594 -0.8427734
vt 0.6904297 -0.8505859
vt 0.6914063 -0.9736328
f 301/301/301 302/302/302 303/303/303
f 302/302/302 304/304/304 303/303/303
f 303/303/303 304/304/304 305/305/305
f 304/304/304 306/306/306 305/305/305
f 305/305/305 306/306/306 307/307/307
v -0.3527832 0.7089844 -0.5585938
v -0.3261719 0.6791992 -0.237793
v -0.3808594 0.7770996 -0.5805664
v -0.4606934 0.8713379 -0.2216797
v -0.3833008 0.8388672 -0.6535645
v -0.4858398 1.175049 -0.2138672
v -0.3996582 1.106201 -0.6481934
vn -0.8457031 -0.2910156 -0.4453125
vn -0.7089844 -0.6152344 0.34375
vn -0.6542969 -0.5566406 -0.5117188
vn -0.9492188 -0.3125 -0.02929688
vn -0.7285156 -0.3164063 -0.609375
vn -0.9765625 0.1796875 -0.1230469
vn -0.7324219 0.3300781 -0.59375
vt 0.5292969 -0.703125
vt 0.4414063 -0.7050781
vt 0.5351563 -0.6845703
vt 0.4355469 -0.6523438
vt 0.5478516 -0.6601563
vt 0.4335938 -0.5478516
vt 0.5458984 -0.5664063
f 308/308/308 309/309/309 310/310/310
f 309/309/309 311/311/311 310/310/310
f 310/310/310 311/311/311 312/312/312
f 311/311/311 313/313/313 312/312/312
f 312/312/312 313/313/313 314/314/314
v -0.3261719 0.6791992 -0.237793
v -0.3151855 0.677002 0.2844238
v -0.4606934 0.8713379 -0.2216797
v -0.4384766 0.8977051 0.2773438
v -0.4726563 1.212646 0.2580566
v -0.4018555 0.9162598 0.6601563
vn -0.7089844 -0.6152344 0.34375
vn -0.8632813 -0.4765625 -0.1660156
vn -0.9492188 -0.3125 -0.02929688
vn -0.953125 -0.2949219 0.06054688
vn -0.9804688 0.1855469 0.05273438
vn -0.8632813 -0.1171875 0.4921875
vt 0.4414063 -0.7050781
vt 0.3017578 -0.7050781
vt 0.4355469 -0.6523438
vt 0.3056641 -0.6455078
vt 0.3105469 -0.5380859
vt 0.2060547 -0.640625
f 315/315/315 316/316/316 317/317/317
f 316/316/316 318/318/318 317/317/317
f 317/317/317 318/318/318 319/319/319
f 318/318/318 320/320/320 319/319/319
v 0.3261719 0.6791992 -0.237793
v 0.4384766 0.8977051 0.2773438
v 0.3151855 0.677002 0.2844238
v 0.3515625 0.7260742 0.6269531
v 0.3334961 0.6677246 0.6035156
v 0.08886719 0.6450195 0.6616211
vn 0.8535156 -0.4902344 0.1777344
vn 0.9589844 -0.2773438 0.0625
vn 0.7167969 -0.6015625 -0.3496094
vn 0.7070313 -0.5039063 0.4960938
vn 0.8671875 -0.2617188 0.421875
vn 0.01757813 -0.5429688 0.8398438
vt 0.4414063 -0.7050781
vt 0.3056641 -0.6455078
vt 0.3017578 -0.7050781
vt 0.2519531 -0.6923828
vt 0.1992188 -0.7207031
vt 0.09863281 -0.7275391
f 321/321/321 322/322/322 323/323/323
f 322/322/322 324/324/324 323/323/323
f 323/323/323 324/324/324 325/325/325
f 324/324/324 326/326/326 325/325/325
v 0.3527832 0.7089844 -0.5585938
v 0.09619141 0.6767578 -0.6010742
v 0.3808594 0.7770996 -0.5805664
v 0 0.8259277 -0.7099609
v 0.3833008 0.8388672 -0.6535645
vn 0.6328125 -0.2910156 -0.7167969
vn -0.5410156 -0.4023438 -0.7382813
vn 0.6542969 -0.5566406 -0.5117188
vn 0 -0.7265625 -0.6875
vn 0.6328125 -0.359375 -0.6855469
vt 0.5419922 -0.6699219
vt 0.7675781 -0.6728516
vt 0.5439453 -0.6464844
vt 0.8251953 -0.6220703
vt 0.5517578 -0.6162109
f 327/327/327 328/328/328 329/329/329
f 328/328/328 330/330/330 329/329/329
f 329/329/329 330/330/330 331/331/331
v 0 0.6467285 0.7150879
v -0.08886719 0.6450195 0.6616211
v 0 0.5849609 0.3066406
v -0.07128906 0.590332 0.3066406
v 0 0.5874023 -0.2380371
vn 0.009765625 -0.7832031 0.6210938
vn 0.2402344 -0.734375 0.6347656
vn -0.001953125 -0.9980469 0.07226563
vn 0.03710938 -0.9453125 -0.3242188
vn -0.015625 -0.9824219 -0.1875
vt 0.01855469 -0.8457031
vt 0.02929688 -0.9199219
vt 0.09863281 -0.8457031
vt 0.09863281 -0.9160156
vt 0.2050781 -0.8457031
f 332/332/332 333/333/333 334/334/334
f 333/333/333 335/335/335 334/334/334
f 334/334/334 335/335/335 336/336/336
v -0.3151855 0.677002 0.2844238
v -0.3261719 0.6791992 -0.237793
v -0.07128906 0.590332 0.3066406
v -0.0847168 0.5927734 -0.2380371
v 0 0.5874023 -0.2380371
vn -0.8632813 -0.4765625 -0.1660156
vn -0.7089844 -0.6152344 0.34375
vn 0.03710938 -0.9453125 -0.3242188
vn 0.5351563 -0.8417969 0.078125
vn -0.015625 -0.9824219 -0.1875
vt 0.1025391 -0.9707031
vt 0.2050781 -0.9726563
vt 0.09863281 -0.9160156
vt 0.2050781 -0.9189453
vt 0.2050781 -0.8457031
f 337/337/337 338/338/338 339/339/339
f 338/338/338 340/340/340 339/339/339
f 339/339/339 340/340/340 341/341/341
v 0.3833008 0.8388672 -0.6535645
v 0 0.8259277 -0.7099609
v 0 1.025879 -0.8044434
v -0.3833008 0.8388672 -0.6535645
v -0.3996582 1.106201 -0.6481934
vn 0.6328125 -0.359375 -0.6855469
vn 0 -0.7265625 -0.6875
vn 0 0.1152344 -0.9941406
vn -0.7285156 -0.3164063 -0.609375
vn -0.7324219 0.3300781 -0.59375
vt 0.2558594 -0.3789063
vt 0.1367188 -0.2685547
vt 0.2207031 -0.1865234
vt 0.02832031 -0.1464844
vt 0.1240234 -0.04296875
f 342/342/342 343/343/343 344/344/344
f 343/343/343 345/345/345 344/344/344
f 344/344/344 345/345/345 346/346/346
v 0.3808594 0.7770996 -0.5805664
v 0.3833008 0.8388672 -0.6535645
v 0.4606934 0.8713379 -0.2216797
v 0.3996582 1.106201 -0.6481934
v 0.4858398 1.175049 -0.2138672
vn 0.6542969 -0.5566406 -0.5117188
vn 0.6328125 -0.359375 -0.6855469
vn 0.9589844 -0.2734375 -0.07421875
vn 0.796875 0.1953125 -0.5722656
vn 0.9511719 0.2910156 -0.109375
vt 0.5351563 -0.6845703
vt 0.5478516 -0.6601563
vt 0.4355469 -0.6523438
vt 0.5458984 -0.5664063
vt 0.4335938 -0.5478516
f 347/347/347 348/348/348 349/349/349
f 348/348/348 350/350/350 349/349/349
f 349/349/349 350/350/350 351/351/351
v 0.3210449 1.499268 0.5424805
v 0.2148438 1.257813 0.7866211
v 0.4194336 1.238525 0.6447754
v 0.2280273 0.921875 0.7993164
v 0.4018555 0.9162598 0.6601563
vn 0.9511719 0.2636719 0.1621094
vn 0.6132813 0.04296875 0.7890625
vn 0.859375 0.1425781 0.4902344
vn 0.3828125 -0.1621094 0.9101563
vn 0.8652344 -0.1660156 0.4726563
vt 0.2324219 -0.4599609
vt 0.1494141 -0.5244141
vt 0.2099609 -0.53125
vt 0.1464844 -0.6396484
vt 0.2060547 -0.640625
f 352/352/352 353/353/353 354/354/354
f 353/353/353 355/355/355 354/354/354
f 354/354/354 355/355/355 356/356/356
v -0.08886719 0.01000977 -0.5141602
v -0.09277344 0.3693848 -0.560791
v -0.09838867 0.008789063 -0.3017578
v -0.08984375 0.3713379 -0.262207
v -0.2419434 0.008789063 -0.3017578
vn 0.2675781 -0.7207031 -0.6386719
vn 0.6601563 -0.08984375 -0.7460938
vn 0.796875 -0.4433594 0.4082031
vn 0.7050781 -0.08203125 0.703125
vn -0.3164063 -0.7226563 0.6132813
vt 0.4414063 -0.9736328
vt 0.4404297 -0.8505859
vt 0.5185547 -0.9736328
vt 0.5136719 -0.8505859
vt 0.5664063 -0.9677734
f 357/357/357 358/358/358 359/359/359
f 358/358/358 360/360/360 359/359/359
f 359/359/359 360/360/360 361/361/361
v 0 1.405762 -0.5981445
v 0.2099609 1.369873 -0.597168
v 0 1.025879 -0.8044434
v 0.3996582 1.106201 -0.6481934
v 0.3833008 0.8388672 -0.6535645
vn 0.02734375 0.8242188 -0.5644531
vn 0.4707031 0.6542969 -0.5917969
vn 0 0.1152344 -0.9941406
vn 0.796875 0.1953125 -0.5722656
vn 0.6328125 -0.359375 -0.6855469
vt 0.3291016 -0.08007813
vt 0.3779297 -0.1494141
vt 0.2207031 -0.1865234
vt 0.3613281 -0.2851563
vt 0.2558594 -0.3789063
f 362/362/362 363/363/363 364/364/364
f 363/363/363 365/365/365 364/364/364
f 364/364/364 365/365/365 366/366/366
v -0.0625 0.005615234 0.4135742
v -0.06835938 0.3928223 0.3425293
v -0.08105469 0.004638672 0.614502
v -0.08569336 0.3796387 0.6420898
v -0.2338867 0.004882813 0.5976563
vn 0.375 -0.7148438 -0.5898438
vn 0.7519531 -0.1035156 -0.6503906
vn 0.7753906 -0.4257813 0.4667969
vn 0.6230469 -0.03710938 0.78125
vn -0.4003906 -0.6992188 0.5917969
vt 0.7177734 -0.9619141
vt 0.7197266 -0.8271484
vt 0.7939453 -0.9667969
vt 0.7939453 -0.8388672
vt 0.8564453 -0.9589844
f 367/367/367 368/368/368 369/369/369
f 368/368/368 370/370/370 369/369/369
f 369/369/369 370/370/370 371/371/371
v 0.08496094 0.5927734 -0.2380371
v 0.09619141 0.6767578 -0.6010742
v 0.08813477 0.4538574 -0.253418
v 0.09375 0.4587402 -0.5725098
v 0.09277344 0.3693848 -0.560791
vn -0.1425781 -0.9628906 0.2285156
vn -0.5410156 -0.4023438 -0.7382813
vn -0.8984375 -0.0546875 0.4355469
vn -0.3300781 -0.1035156 -0.9375
vn -0.6640625 -0.08789063 -0.7421875
vt 0.5126953 -0.7744141
vt 0.4394531 -0.7460938
vt 0.5136719 -0.8222656
vt 0.4404297 -0.8203125
vt 0.4404297 -0.8505859
f 372/372/372 373/373/373 374/374/374
f 373/373/373 375/375/375 374/374/374
f 374/374/374 375/375/375 376/376/376
v -0.3527832 0.7089844 -0.5585938
v -0.09619141 0.6767578 -0.6010742
v -0.3122559 0.4541016 -0.5393066
v -0.09375 0.4587402 -0.5725098
v -0.09277344 0.3693848 -0.560791
vn -0.8457031 -0.2910156 -0.4453125
vn 0.2324219 -0.3847656 -0.8925781
vn -0.5507813 -0.1621094 -0.8183594
vn 0.875 -0.06640625 -0.4804688
vn 0.6601563 -0.08984375 -0.7460938
vt 0.6318359 -0.7236328
vt 0.6904297 -0.7460938
vt 0.6318359 -0.8125
vt 0.6904297 -0.8203125
vt 0.6904297 -0.8505859
f 377/377/377 378/378/378 379/379/379
f 378/378/378 380/380/380 379/379/379
f 379/379/379 380/380/380 381/381/381
v -0.3151855 0.677002 0.2844238
v -0.07128906 0.590332 0.3066406
v -0.284668 0.4519043 0.3200684
v -0.06933594 0.4597168 0.3303223
v -0.06835938 0.3928223 0.3425293
vn -0.8632813 -0.4765625 -0.1660156
vn 0.03710938 -0.9453125 -0.3242188
vn -0.3925781 -0.2089844 -0.8964844
vn 0.9179688 -0.06445313 -0.3925781
vn 0.7519531 -0.1035156 -0.6503906
vt 0.9169922 -0.7167969
vt 0.9677734 -0.7578125
vt 0.9160156 -0.7958984
vt 0.9677734 -0.8037109
vt 0.9677734 -0.8271484
f 382/382/382 383/383/383 384/384/384
f 383/383/383 385/385/385 384/384/384
f 384/384/384 385/385/385 386/386/386
v -0.08886719 0.6450195 0.6616211
v 0 0.6467285 0.7150879
v -0.3515625 0.7260742 0.6269531
v -0.2280273 0.921875 0.7993164
v -0.4018555 0.9162598 0.6601563
vn 0.2402344 -0.734375 0.6347656
vn 0.009765625 -0.7832031 0.6210938
vn -0.7070313 -0.5039063 0.4960938
vn -0.375 -0.2285156 0.8984375
vn -0.8632813 -0.1171875 0.4921875
vt 0.09863281 -0.7275391
vt 0.04296875 -0.7138672
vt 0.2519531 -0.6923828
vt 0.1464844 -0.6396484
vt 0.2060547 -0.640625
f 387/387/387 388/388/388 389/389/389
f 388/388/388 390/390/390 389/389/389
f 389/389/389 390/390/390 391/391/391
v 0.08886719 0.6450195 0.6616211
v 0.0715332 0.590332 0.3066406
v 0.08642578 0.4541016 0.6477051
v 0.06933594 0.4597168 0.3303223
v 0.06835938 0.3928223 0.3425293
vn 0.01757813 -0.5429688 0.8398438
vn -0.3359375 -0.9316406 -0.1347656
vn -0.8554688 -0.01953125 0.5175781
vn -0.4921875 -0.1367188 -0.859375
vn -0.7578125 -0.1035156 -0.6445313
vt 0.7939453 -0.7480469
vt 0.7197266 -0.7578125
vt 0.7939453 -0.8134766
vt 0.7197266 -0.8037109
vt 0.7197266 -0.8271484
f 392/392/392 393/393/393 394/394/394
f 393/393/393 395/395/395 394/394/394
f 394/394/394 395/395/395 396/396/396
v 0.0625 0.005615234 0.4135742
v 0.06835938 0.3928223 0.3425293
v 0.2243652 0.005615234 0.3911133
v 0.2746582 0.3764648 0.3320313
v 0.2338867 0.004882813 0.5976563
vn -0.8339844 -0.4472656 -0.3242188
vn -0.7578125 -0.1035156 -0.6445313
vn 0.2402344 -0.7519531 -0.6152344
vn 0.6523438 -0.2128906 -0.7285156
vn 0.796875 -0.5019531 0.3378906
vt 0.9658203 -0.9619141
vt 0.9677734 -0.8271484
vt 0.9150391 -0.9541016
vt 0.9160156 -0.8232422
vt 0.8564453 -0.9589844
f 397/397/397 398/398/398 399/399/399
f 398/398/398 400/400/400 399/399/399
f 399/399/399 400/400/400 401/401/401
v 0.08886719 0.01000977 -0.5141602
v 0.09277344 0.3693848 -0.560791
v 0.2419434 0.009765625 -0.5061035
v 0.298584 0.3671875 -0.532959
v 0.2419434 0.008789063 -0.3017578
vn -0.7929688 -0.4667969 -0.390625
vn -0.6640625 -0.08789063 -0.7421875
vn 0.3535156 -0.71875 -0.5996094
vn 0.7519531 -0.1679688 -0.6386719
vn 0.7539063 -0.5253906 0.3945313
vt 0.6914063 -0.9736328
vt 0.6904297 -0.8505859
vt 0.6308594 -0.9677734
vt 0.6308594 -0.8427734
vt 0.5664063 -0.9677734
f 402/402/402 403/403/403 404/404/404
f 403/403/403 405/405/405 404/404/404
f 404/404/404 405/405/405 406/406/406
v 0.3261719 0.6791992 -0.237793
v 0.3151855 0.677002 0.2844238
v 0.08496094 0.5927734 -0.2380371
v 0.0715332 0.590332 0.3066406
vn 0.8535156 -0.4902344 0.1777344
vn 0.7167969 -0.6015625 -0.3496094
vn -0.1425781 -0.9628906 0.2285156
vn -0.3359375 -0.9316406 -0.1347656
vt 0.2050781 -0.9726563
vt 0.1025391 -0.9707031
vt 0.2050781 -0.9189453
vt 0.09863281 -0.9160156
f 407/407/407 408/408/408 409/409/409
f 408/408/408 410/410/410 409/409/409
v 0 1.405762 -0.5981445
v 0 1.025879 -0.8044434
v -0.2099609 1.369873 -0.597168
v -0.3996582 1.106201 -0.6481934
vn 0.02734375 0.8242188 -0.5644531
vn 0 0.1152344 -0.9941406
vn -0.3105469 0.7441406 -0.5917969
vn -0.7324219 0.3300781 -0.59375
vt 0.3291016 -0.08007813
vt 0.2207031 -0.1865234
vt 0.2597656 -0.03027344
vt 0.1240234 -0.04296875
f 411/411/411 412/412/412 413/413/413
f 412/412/412 414/414/414 413/413/413
v -0.2148438 1.257813 0.7866211
v -0.3210449 1.499268 0.5424805
v -0.4194336 1.238525 0.6447754
v -0.2695313 1.548096 0.2392578
vn -0.453125 0.02539063 0.890625
vn -0.9628906 0.1328125 0.234375
vn -0.8828125 0.2871094 0.3710938
vn -0.8183594 0.5078125 -0.2714844
vt 0.1494141 -0.5244141
vt 0.2324219 -0.4599609
vt 0.2099609 -0.53125
vt 0.3134766 -0.4570313
f 415/415/415 416/416/416 417/417/417
f 416/416/416 418/418/418 417/417/417
v 0 1.376221 -1.066895
v -0.07641602 1.053467 -0.9904785
v 0 1.163818 -0.9013672
v 0 1.058594 -0.7351074
vn -0.875 0.296875 0.3828125
vn -0.9707031 -0.2089844 -0.1171875
vn -0.8789063 0.3515625 0.3203125
vn -0.9453125 0.1601563 0.28125
vt 0.9609375 -0.578125
vt 0.9267578 -0.6621094
vt 0.9072266 -0.6279297
vt 0.8583984 -0.6494141
f 419/419/419 420/420/420 421/421/421
f 420/420/420 422/422/422 421/421/421
v 0.2148438 1.257813 0.7866211
v 0 1.251709 0.8293457
v 0.2280273 0.921875 0.7993164
v 0 0.921875 0.8278809
vn 0.6132813 0.04296875 0.7890625
vn 0.05078125 -0.08398438 0.9960938
vn 0.3828125 -0.1621094 0.9101563
vn -0.04101563 -0.1484375 0.9882813
vt 0.1494141 -0.5244141
vt 0.04199219 -0.5263672
vt 0.1464844 -0.6396484
vt 0.04199219 -0.6396484
f 423/423/423 424/424/424 425/425/425
f 424/424/424 426/426/426 425/425/425
v -0.3527832 0.7089844 -0.5585938
v -0.3808594 0.7770996 -0.5805664
v -0.09619141 0.6767578 -0.6010742
v 0 0.8259277 -0.7099609
vn -0.8457031 -0.2910156 -0.4453125
vn -0.6542969 -0.5566406 -0.5117188
vn 0.2324219 -0.3847656 -0.8925781
vn 0 -0.7265625 -0.6875
vt 0.5419922 -0.6699219
vt 0.5439453 -0.6464844
vt 0.7675781 -0.6728516
vt 0.8251953 -0.6220703
f 427/427/427 428/428/428 429/429/429
f 428/428/428 430/430/430 429/429/429
v -0.4726563 1.212646 0.2580566
v -0.2912598 1.47998 -0.2055664
v -0.4858398 1.175049 -0.2138672
v -0.3996582 1.106201 -0.6481934
vn -0.9804688 0.1855469 0.05273438
vn -0.5722656 0.796875 -0.1894531
vn -0.9765625 0.1796875 -0.1230469
vn -0.7324219 0.3300781 -0.59375
vt 0.9238281 -0.04980469
vt 0.8076172 -0.2861328
vt 0.9394531 -0.2871094
vt 0.9677734 -0.5048828
f 431/431/431 432/432/432 433/433/433
f 432/432/432 434/434/434 433/433/433
v 0 1.376221 -1.066895
v 0 1.163818 -0.9013672
v 0.07641602 1.053467 -0.9904785
v 0 0.9855957 -0.7585449
vn 0.875 0.296875 0.3828125
vn 0.9433594 0.2050781 0.2597656
vn 0.875 0.3007813 0.3789063
vn 0.96875 0.15625 0.1953125
vt 0.9609375 -0.578125
vt 0.9072266 -0.6279297
vt 0.9267578 -0.6621094
vt 0.8613281 -0.6699219
f 435/435/435 436/436/436 437/437/437
f 436/436/436 438/438/438 437/437/437
v 0 1.376221 -1.066895
v 0.07641602 1.053467 -0.9904785
v -0.07641602 1.053467 -0.9904785
v 0 0.9855957 -0.7585449
vn 0 -0.2304688 -0.9726563
vn 0 -0.6894531 -0.7246094
vn -0.9707031 -0.2089844 -0.1171875
vn -0.671875 -0.7402344 0.005859375
vt 0.2529297 -0.7929688
vt 0.1503906 -0.828125
vt 0.1503906 -0.7578125
vt 0.07421875 -0.7929688
f 439/439/439 440/440/440 441/441/441
f 440/440/440 442/442/442 441/441/441
v -0.3151855 0.677002 0.2844238
v -0.3515625 0.7260742 0.6269531
v -0.4384766 0.8977051 0.2773438
v -0.4018555 0.9162598 0.6601563
vn -0.8632813 -0.4765625 -0.1660156
vn -0.7070313 -0.5039063 0.4960938
vn -0.953125 -0.2949219 0.06054688
vn -0.8632813 -0.1171875 0.4921875
vt 0.3017578 -0.7050781
vt 0.2519531 -0.6923828
vt 0.3056641 -0.6455078
vt 0.2060547 -0.640625
f 443/443/443 444/444/444 445/445/445
f 444/444/444 446/446/446 445/445/445
v -0.3151855 0.677002 0.2844238
v -0.3334961 0.6677246 0.6035156
v -0.3515625 0.7260742 0.6269531
v -0.08886719 0.6450195 0.6616211
vn -0.8632813 -0.4765625 -0.1660156
vn -0.6777344 -0.2460938 0.6914063
vn -0.7070313 -0.5039063 0.4960938
vn 0.2402344 -0.734375 0.6347656
vt 0.3017578 -0.7050781
vt 0.1992188 -0.7207031
vt 0.2519531 -0.6923828
vt 0.09863281 -0.7275391
f 447/447/447 448/448/448 449/449/449
f 448/448/448 450/450/450 449/449/449
v 0.2338867 0.004882813 0.5976563
v 0.08105469 0.004638672 0.614502
v 0.2243652 0.005615234 0.3911133
v 0.0625 0.005615234 0.4135742
vn 0.796875 -0.5019531 0.3378906
vn -0.2285156 -0.6953125 0.6816406
vn 0.2402344 -0.7519531 -0.6152344
vn -0.8339844 -0.4472656 -0.3242188
vt 0.4150391 -0.7529297
vt 0.3505859 -0.7470703
vt 0.4111328 -0.8271484
vt 0.3427734 -0.8193359
f 451/451/451 452/452/452 453/453/453
f 452/452/452 454/454/454 453/453/453
v -0.2419434 0.009765625 -0.5061035
v -0.08886719 0.01000977 -0.5141602
v -0.2419434 0.008789063 -0.3017578
v -0.09838867 0.008789063 -0.3017578
vn -0.7734375 -0.5175781 -0.3652344
vn 0.2675781 -0.7207031 -0.6386719
vn -0.3164063 -0.7226563 0.6132813
vn 0.796875 -0.4433594 0.4082031
vt 0.3964844 -0.9755859
vt 0.3320313 -0.9785156
vt 0.3964844 -0.9023438
vt 0.3359375 -0.9023438
f 455/455/455 456/456/456 457/457/457
f 456/456/456 458/458/458 457/457/457
v 0.08886719 0.01000977 -0.5141602
v 0.2419434 0.009765625 -0.5061035
v 0.09838867 0.008789063 -0.3017578
v 0.2419434 0.008789063 -0.3017578
vn -0.7929688 -0.4667969 -0.390625
vn 0.3535156 -0.71875 -0.5996094
vn -0.3085938 -0.7050781 0.6386719
vn 0.7539063 -0.5253906 0.3945313
vt 0.3320313 -0.9785156
vt 0.3964844 -0.9755859
vt 0.3359375 -0.9023438
vt 0.3964844 -0.9023438
f 459/459/459 460/460/460 461/461/461
f 460/460/460 462/462/462 461/461/461
v -0.08105469 0.004638672 0.614502
v -0.2338867 0.004882813 0.5976563
v -0.0625 0.005615234 0.4135742
v -0.2243652 0.005615234 0.3911133
vn 0.7753906 -0.4257813 0.4667969
vn -0.4003906 -0.6992188 0.5917969
vn 0.375 -0.7148438 -0.5898438
vn -0.7148438 -0.5546875 -0.4238281
vt 0.3505859 -0.7470703
vt 0.4150391 -0.7529297
vt 0.3427734 -0.8193359
vt 0.4111328 -0.8271484
f 463/463/463 464/464/464 465/465/465
f 464/464/464 466/466/466 465/465/465
v -0.09277344 0.3693848 -0.560791
v -0.09375 0.4587402 -0.5725098
v -0.08984375 0.3713379 -0.262207
v 0.06835938 0.3928223 0.3425293
v 0.06933594 0.4597168 0.3303223
v 0.2746582 0.3764648 0.3320313
v -0.06933594 0.4597168 0.3303223
v -0.08569336 0.3796387 0.6420898
v -0.06835938 0.3928223 0.3425293
v 0.09375 0.4587402 -0.5725098
v 0.298584 0.3671875 -0.532959
v 0.09277344 0.3693848 -0.560791
v 0.08886719 0.6450195 0.6616211
v 0.3515625 0.7260742 0.6269531
v 0 0.6467285 0.7150879
v -0.3833008 0.8388672 -0.6535645
v 0 0.8259277 -0.7099609
v -0.3808594 0.7770996 -0.5805664
v 0 1.058594 -0.7351074
v 0 0.9855957 -0.7585449
v 0 1.163818 -0.9013672
v -0.4606934 0.8713379 -0.2216797
v -0.4726563 1.212646 0.2580566
v -0.4858398 1.175049 -0.2138672
v 0 1.251709 0.8293457
v -0.2148438 1.257813 0.7866211
v 0 0.921875 0.8278809
v 0.4726563 1.212646 0.2580566
v 0.4858398 1.175049 -0.2138672
v 0.2695313 1.548096 0.2392578
v 0 0.9855957 -0.7585449
v 0 1.058594 -0.7351074
v -0.07641602 1.053467 -0.9904785
v 0.09619141 0.6767578 -0.6010742
v 0.08496094 0.5927734 -0.2380371
v 0 0.8259277 -0.7099609
vn 0.6601563 -0.08984375 -0.7460938
vn 0.875 -0.06640625 -0.4804688
vn 0.7050781 -0.08203125 0.703125
vn -0.7578125 -0.1035156 -0.6445313
vn -0.4921875 -0.1367188 -0.859375
vn 0.6523438 -0.2128906 -0.7285156
vn 0.9179688 -0.06445313 -0.3925781
vn 0.6230469 -0.03710938 0.78125
vn 0.7519531 -0.1035156 -0.6503906
vn -0.3300781 -0.1035156 -0.9375
vn 0.7519531 -0.1679688 -0.6386719
vn -0.6640625 -0.08789063 -0.7421875
vn 0.01757813 -0.5429688 0.8398438
vn 0.7070313 -0.5039063 0.4960938
vn 0.009765625 -0.7832031 0.6210938
vn -0.7285156 -0.3164063 -0.609375
vn 0 -0.7265625 -0.6875
vn -0.6542969 -0.5566406 -0.5117188
vn 0.9980469 0 0
vn 0.96875 0.15625 0.1953125
vn 0.9433594 0.2050781 0.2597656
vn -0.9492188 -0.3125 -0.02929688
vn -0.9804688 0.1855469 0.05273438
vn -0.9765625 0.1796875 -0.1230469
vn 0.05078125 -0.08398438 0.9960938
vn -0.453125 0.02539063 0.890625
vn -0.04101563 -0.1484375 0.9882813
vn 0.9667969 0.2539063 0.04101563
vn 0.9511719 0.2910156 -0.109375
vn 0.6894531 0.6210938 -0.3730469
vn -0.671875 -0.7402344 0.005859375
vn -0.9453125 0.1601563 0.28125
vn -0.9707031 -0.2089844 -0.1171875
vn -0.5410156 -0.4023438 -0.7382813
vn -0.1425781 -0.9628906 0.2285156
vn 0 -0.7265625 -0.6875
vt 0.4404297 -0.8505859
vt 0.4404297 -0.8203125
vt 0.5136719 -0.8505859
vt 0.9677734 -0.8271484
vt 0.9677734 -0.8037109
vt 0.9160156 -0.8232422
vt 0.7197266 -0.8037109
vt 0.7939453 -0.8388672
vt 0.7197266 -0.8271484
vt 0.6904297 -0.8203125
vt 0.6308594 -0.8427734
vt 0.6904297 -0.8505859
vt 0.09863281 -0.7275391
vt 0.2519531 -0.6923828
vt 0.04296875 -0.7138672
vt 0.5517578 -0.6162109
vt 0.8251953 -0.6220703
vt 0.5439453 -0.6464844
vt 0.8583984 -0.6494141
vt 0.8613281 -0.6699219
vt 0.9072266 -0.6279297
vt 0.4355469 -0.6523438
vt 0.3105469 -0.5380859
vt 0.4335938 -0.5478516
vt 0.04199219 -0.5263672
vt 0.1494141 -0.5244141
vt 0.04199219 -0.6396484
vt 0.3994141 -0.04980469
vt 0.3798828 -0.2871094
vt 0.5625 -0.05566406
vt 0.8613281 -0.6699219
vt 0.8583984 -0.6494141
vt 0.9267578 -0.6621094
vt 0.2753906 -0.9208984
vt 0.2050781 -0.9189453
vt 0.296875 -0.8457031
f 467/467/467 468/468/468 469/469/469
f 470/470/470 471/471/471 472/472/472
f 473/473/473 474/474/474 475/475/475
f 476/476/476 477/477/477 478/478/478
f 479/479/479 480/480/480 481/481/481
f 482/482/482 483/483/483 484/484/484
f 485/485/485 486/486/486 487/487/487
f 488/488/488 489/489/489 490/490/490
f 491/491/491 492/492/492 493/493/493
f 494/494/494 495/495/495 496/496/496
f 497/497/497 498/498/498 499/499/499
f 500/500/500 501/501/501 502/502/502
