# Created by MKDS Course Modifier
mtllib Alligator.mtl
g polygon0
usemtl Material
v -0.6586914 1.102539 0.5515137
v -0.652832 1.422119 0.6955566
v -0.4580078 1.443848 0.5615234
v -0.4169922 1.548096 0.8222656
v 0 1.311768 0.4926758
v 0 1.304443 1.082764
v 0.4169922 1.548096 0.8222656
v 0.411377 1.426025 1.082764
v 0.652832 1.422119 0.6955566
vn -0.9042969 0.3515625 -0.2441406
vn -0.7890625 0.609375 -0.06640625
vn -0.3007813 0.6367188 -0.7089844
vn 0.015625 0.9980469 0.015625
vn 0 0.7109375 -0.703125
vn 0 0.7226563 0.6914063
vn -0.015625 0.9980469 0.015625
vn 0.5351563 0.4902344 0.6894531
vn 0.7890625 0.6113281 -0.06640625
vt 0.9736328 -0.4042969
vt 0.9677734 -0.3876953
vt 0.9736328 -0.3867188
vt 0.9619141 -0.3808594
vt 0.9765625 -0.3935547
vt 0.9501953 -0.3935547
vt 0.9619141 -0.3808594
vt 0.9501953 -0.3876953
vt 0.9677734 -0.3876953
f 1/1/1 2/2/2 3/3/3
f 2/2/2 4/4/4 3/3/3
f 3/3/3 4/4/4 5/5/5
f 4/4/4 6/6/6 5/5/5
f 5/5/5 6/6/6 7/7/7
f 6/6/6 8/8/8 7/7/7
f 7/7/7 8/8/8 9/9/9
v -0.7053223 -0.0002441406 1.223145
v -0.7243652 0.2729492 1.223145
v -0.8981934 -0.0002441406 1.04541
v -0.7436523 0.5461426 1.223145
v -0.9804688 0.5461426 0.5966797
v -0.6586914 1.102539 0.5515137
v -0.8115234 0.5461426 0.4926758
v -0.5529785 1.102539 0.4638672
vn -0.3710938 -0.9160156 0.15625
vn -0.8964844 0.2246094 0.3808594
vn -0.7949219 -0.4335938 0.421875
vn -0.8984375 0.3027344 0.3183594
vn -0.9511719 0.2246094 -0.2089844
vn -0.9042969 0.3515625 -0.2441406
vn -0.8105469 -0.0703125 -0.5820313
vn -0.5625 0.7167969 -0.4121094
vt 0.9433594 -0.4609375
vt 0.9433594 -0.4472656
vt 0.9511719 -0.4609375
vt 0.9433594 -0.4326172
vt 0.9716797 -0.4326172
vt 0.9736328 -0.4042969
vt 0.9765625 -0.4326172
vt 0.9775391 -0.4042969
f 10/10/10 11/11/11 12/12/12
f 11/11/11 13/13/13 12/12/12
f 12/12/12 13/13/13 14/14/14
f 13/13/13 15/15/15 14/14/14
f 14/14/14 15/15/15 16/16/16
f 15/15/15 17/17/17 16/16/16
v -0.4394531 0.8278809 2.304932
v 0 0.8278809 2.304932
v 0 0.9570313 1.223145
v 0.4394531 0.8278809 2.304932
v 0.4394531 0.9570313 1.223145
v 0.7436523 0.5488281 2.51416
v 0.7436523 0.5461426 1.223145
vn -0.3007813 0.953125 -0.04101563
vn 0 0.9941406 -0.09960938
vn 0 0.8964844 0.4414063
vn 0.3007813 0.953125 -0.04101563
vn 0.546875 0.6699219 0.5019531
vn 0.9140625 0.3945313 0.09765625
vn 0.8984375 0.3027344 0.3183594
vt 0.9267578 -0.4179688
vt 0.9267578 -0.4179688
vt 0.9433594 -0.4121094
vt 0.9267578 -0.4179688
vt 0.9433594 -0.4121094
vt 0.9169922 -0.4326172
vt 0.9433594 -0.4326172
f 18/18/18 19/19/19 20/20/20
f 19/19/19 21/21/21 20/20/20
f 20/20/20 21/21/21 22/22/22
f 21/21/21 23/23/23 22/22/22
f 22/22/22 23/23/23 24/24/24
v -0.4394531 0.8278809 2.304932
v -0.4394531 0.8947754 2.51416
v 0 0.8278809 2.304932
v 0 0.8500977 2.51123
v 0.4394531 0.8947754 2.51416
v 0 0.7429199 2.83374
v 0.6362305 0.4499512 2.818359
vn -0.3007813 0.953125 -0.04101563
vn -0.3007813 0.9394531 0.1679688
vn 0 0.9941406 -0.09960938
vn 0 0.9941406 0.1074219
vn 0.3007813 0.9394531 0.1679688
vn 0 0.6855469 0.7285156
vn 0.6289063 0.2265625 0.7441406
vt 0.8242188 -0.3935547
vt 0.8242188 -0.4980469
vt 0.6044922 -0.3935547
vt 0.6044922 -0.4970703
vt 0.8242188 -0.4980469
vt 0.6044922 -0.6582031
vt 0.9228516 -0.6904297
f 25/25/25 26/26/26 27/27/27
f 26/26/26 28/28/28 27/27/27
f 27/27/27 28/28/28 29/29/29
f 28/28/28 30/30/30 29/29/29
f 29/29/29 30/30/30 31/31/31
v 0.5529785 1.102539 0.4638672
v 0 1.116943 0.4377441
v 0 1.311768 0.4926758
v -0.5529785 1.102539 0.4638672
v -0.4580078 1.443848 0.5615234
v -0.6586914 1.102539 0.5515137
vn 0.5625 0.7167969 -0.4121094
vn 0 0.9960938 -0.078125
vn 0 0.7109375 -0.703125
vn -0.5625 0.7167969 -0.4121094
vn -0.3007813 0.6367188 -0.7089844
vn -0.9042969 0.3515625 -0.2441406
vt 0.9775391 -0.4042969
vt 0.9794922 -0.4033203
vt 0.9765625 -0.3935547
vt 0.9775391 -0.4042969
vt 0.9736328 -0.3867188
vt 0.9736328 -0.4042969
f 32/32/32 33/33/33 34/34/34
f 33/33/33 35/35/35 34/34/34
f 34/34/34 35/35/35 36/36/36
f 35/35/35 37/37/37 36/36/36
v 0.6325684 0.2446289 2.768799
v 0 0.2446289 2.866943
v 0.7436523 0.2741699 2.494873
v -0.7436523 0.2741699 2.494873
v 0.7243652 0.2729492 1.223145
v -0.7243652 0.2729492 1.223145
vn 0.4121094 -0.5410156 0.734375
vn 0 -0.9101563 0.4160156
vn 0.6699219 -0.7324219 0.1132813
vn -0.4296875 -0.9023438 0.03710938
vn 0.6953125 -0.71875 -0.00390625
vn -0.8808594 -0.4726563 -0.005859375
vt 0.5214844 -0.9453125
vt 0.2919922 -0.9814453
vt 0.5615234 -0.8457031
vt 0.02148438 -0.8457031
vt 0.5546875 -0.3837891
vt 0.02832031 -0.3837891
f 38/38/38 39/39/39 40/40/40
f 39/39/39 41/41/41 40/40/40
f 40/40/40 41/41/41 42/42/42
f 41/41/41 43/43/43 42/42/42
v 0.4853516 -0.0002441406 0.4926758
v 0.8115234 0.5461426 0.4926758
v 0.9865723 0.09960938 0.6030273
v 0.9804688 0.5461426 0.5966797
v 0.8981934 -0.0002441406 1.04541
v 0.7436523 0.5461426 1.223145
vn 0.2910156 -0.9414063 -0.1699219
vn 0.8066406 -0.05859375 -0.5878906
vn 0.6855469 -0.3789063 -0.6210938
vn 0.9511719 0.2246094 -0.2089844
vn 0.796875 -0.4316406 0.421875
vn 0.8984375 0.3027344 0.3183594
vt 0.9765625 -0.4609375
vt 0.9765625 -0.4326172
vt 0.9716797 -0.4560547
vt 0.9716797 -0.4326172
vt 0.9511719 -0.4609375
vt 0.9433594 -0.4326172
f 44/44/44 45/45/45 46/46/46
f 45/45/45 47/47/47 46/46/46
f 46/46/46 47/47/47 48/48/48
f 47/47/47 49/49/49 48/48/48
v 0.8115234 0.5461426 0.4926758
v 0.5529785 1.102539 0.4638672
v 0.6586914 1.102539 0.5515137
v 0.4580078 1.443848 0.5615234
v 0.652832 1.422119 0.6955566
v 0.4169922 1.548096 0.8222656
vn 0.8066406 -0.05859375 -0.5878906
vn 0.5625 0.7167969 -0.4121094
vn 0.9042969 0.3515625 -0.2441406
vn 0.3007813 0.6367188 -0.7089844
vn 0.7890625 0.6113281 -0.06640625
vn -0.015625 0.9980469 0.015625
vt 0.9765625 -0.4326172
vt 0.9775391 -0.4042969
vt 0.9736328 -0.4042969
vt 0.9736328 -0.3867188
vt 0.9677734 -0.3876953
vt 0.9619141 -0.3808594
f 50/50/50 51/51/51 52/52/52
f 51/51/51 53/53/53 52/52/52
f 52/52/52 53/53/53 54/54/54
f 53/53/53 55/55/55 54/54/54
v 0.7053223 -0.0002441406 1.223145
v 0.8981934 -0.0002441406 1.04541
v 0.7243652 0.2729492 1.223145
v 0.7436523 0.5461426 1.223145
v 0.7243652 0.2729492 1.223145
vn 0.3710938 -0.9160156 0.15625
vn 0.796875 -0.4316406 0.421875
vn 0.8222656 0.4511719 0.3476563
vn 0.8984375 0.3027344 0.3183594
vn 0.6953125 -0.71875 -0.00390625
vt 0.9433594 -0.4609375
vt 0.9511719 -0.4609375
vt 0.9433594 -0.4472656
vt 0.9433594 -0.4326172
vt 0.9433594 -0.4472656
f 56/56/56 57/57/57 58/58/58
f 57/57/57 59/59/59 58/58/58
f 58/58/58 59/59/59 60/60/60
v -0.6362305 0.4499512 2.818359
v -0.6325684 0.2446289 2.768799
v 0 0.4499512 2.922607
v 0 0.2446289 2.866943
v 0.6325684 0.2446289 2.768799
vn -0.5332031 0.28125 0.7988281
vn -0.5917969 -0.4394531 0.6777344
vn 0 -0.07226563 0.9980469
vn 0 -0.9101563 0.4160156
vn 0.4121094 -0.5410156 0.734375
vt 0.5517578 -0.05761719
vt 0.5517578 -0.1855469
vt 0.1992188 -0.05761719
vt 0.1992188 -0.1855469
vt 0.5517578 -0.1855469
f 61/61/61 62/62/62 63/63/63
f 62/62/62 64/64/64 63/63/63
f 63/63/63 64/64/64 65/65/65
v -0.6325684 0.2446289 2.768799
v 0 0.2446289 2.866943
v -0.7436523 0.2741699 2.494873
v 0.7436523 0.2741699 2.494873
v 0.7243652 0.2729492 1.223145
vn -0.5957031 0.09765625 0.796875
vn 0 0.7441406 0.6679688
vn -0.4375 0.890625 0.1230469
vn 0.5410156 0.8261719 0.1542969
vn 0.8222656 0.4511719 0.3476563
vt 0.06152344 -0.9453125
vt 0.2919922 -0.9814453
vt 0.02148438 -0.8457031
vt 0.5615234 -0.8457031
vt 0.5546875 -0.3837891
f 66/66/66 67/67/67 68/68/68
f 67/67/67 69/69/69 68/68/68
f 68/68/68 69/69/69 70/70/70
v 0.4394531 0.9570313 1.223145
v 0.7436523 0.5461426 1.223145
v 0.6586914 1.102539 0.5515137
v 0.9804688 0.5461426 0.5966797
v 0.8115234 0.5461426 0.4926758
vn 0.546875 0.6699219 0.5019531
vn 0.8984375 0.3027344 0.3183594
vn 0.9042969 0.3515625 -0.2441406
vn 0.9511719 0.2246094 -0.2089844
vn 0.8066406 -0.05859375 -0.5878906
vt 0.9433594 -0.4121094
vt 0.9433594 -0.4326172
vt 0.9736328 -0.4042969
vt 0.9716797 -0.4326172
vt 0.9765625 -0.4326172
f 71/71/71 72/72/72 73/73/73
f 72/72/72 74/74/74 73/73/73
f 73/73/73 74/74/74 75/75/75
v -0.7436523 0.5461426 1.223145
v -0.7243652 0.2729492 1.223145
v -0.7436523 0.5488281 2.51416
v -0.7436523 0.2741699 2.494873
v -0.6325684 0.2446289 2.768799
vn -0.8984375 0.3027344 0.3183594
vn -0.8808594 -0.4726563 -0.005859375
vn -0.9335938 0.3339844 0.1347656
vn -0.4296875 -0.9023438 0.03710938
vn -0.5917969 -0.4394531 0.6777344
vt 0.9726563 -0.015625
vt 0.9726563 -0.1855469
vt 0.2246094 -0.01464844
vt 0.2246094 -0.1855469
vt 0.03320313 -0.1855469
f 76/76/76 77/77/77 78/78/78
f 77/77/77 79/79/79 78/78/78
f 78/78/78 79/79/79 80/80/80
v -0.7436523 0.5461426 1.223145
v -0.7436523 0.5488281 2.51416
v -0.4394531 0.9570313 1.223145
v -0.4394531 0.8278809 2.304932
v 0 0.9570313 1.223145
vn -0.8984375 0.3027344 0.3183594
vn -0.9335938 0.3339844 0.1347656
vn -0.546875 0.6699219 0.5019531
vn -0.3007813 0.953125 -0.04101563
vn 0 0.8964844 0.4414063
vt 0.9433594 -0.4326172
vt 0.9169922 -0.4326172
vt 0.9433594 -0.4121094
vt 0.9267578 -0.4179688
vt 0.9433594 -0.4121094
f 81/81/81 82/82/82 83/83/83
f 82/82/82 84/84/84 83/83/83
f 83/83/83 84/84/84 85/85/85
v -0.411377 1.426025 1.082764
v -0.4394531 0.9570313 1.223145
v 0 1.304443 1.082764
v 0 0.9570313 1.223145
v 0.4394531 0.9570313 1.223145
vn -0.5351563 0.4902344 0.6894531
vn -0.546875 0.6699219 0.5019531
vn 0 0.7226563 0.6914063
vn 0 0.8964844 0.4414063
vn 0.546875 0.6699219 0.5019531
vt 0.9501953 -0.3876953
vt 0.9433594 -0.4121094
vt 0.9501953 -0.3935547
vt 0.9433594 -0.4121094
vt 0.9433594 -0.4121094
f 86/86/86 87/87/87 88/88/88
f 87/87/87 89/89/89 88/88/88
f 88/88/88 89/89/89 90/90/90
v 0.6286621 0.03930664 2.718994
v 0.6325684 0.2446289 2.768799
v 0 0.03930664 2.811035
v 0 0.2446289 2.866943
vn 0.4550781 -0.578125 0.6777344
vn 0.5957031 0.09765625 0.796875
vn 0 -0.7460938 0.6660156
vn 0 0.7441406 0.6679688
vt 0.5517578 -0.3144531
vt 0.5517578 -0.1855469
vt 0.1992188 -0.3144531
vt 0.1992188 -0.1855469
f 91/91/91 92/92/92 93/93/93
f 92/92/92 94/94/94 93/93/93
v 0.7436523 0.5461426 1.223145
v 0.7436523 0.5488281 2.51416
v 0.7243652 0.2729492 1.223145
v 0.7436523 0.2741699 2.494873
vn 0.8984375 0.3027344 0.3183594
vn 0.9140625 0.3945313 0.09765625
vn 0.6953125 -0.71875 -0.00390625
vn 0.6699219 -0.7324219 0.1132813
vt 0.9726563 -0.015625
vt 0.2246094 -0.01464844
vt 0.9726563 -0.1855469
vt 0.2246094 -0.1855469
f 95/95/95 96/96/96 97/97/97
f 96/96/96 98/98/98 97/97/97
v 0.6286621 0.03930664 2.718994
v 0.7436523 -0.0002441406 2.47583
v 0.6325684 0.2446289 2.768799
v 0.7436523 0.2741699 2.494873
vn 0.4550781 -0.578125 0.6777344
vn 0.7519531 -0.6269531 0.2070313
vn 0.5957031 0.09765625 0.796875
vn 0.5410156 0.8261719 0.1542969
vt 0.03320313 -0.3144531
vt 0.2246094 -0.3369141
vt 0.03320313 -0.1855469
vt 0.2246094 -0.1855469
f 99/99/99 100/100/100 101/101/101
f 100/100/100 102/102/102 101/101/101
v 0.4169922 1.548096 0.8222656
v 0.4580078 1.443848 0.5615234
v 0 1.311768 0.4926758
v 0.5529785 1.102539 0.4638672
vn -0.015625 0.9980469 0.015625
vn 0.3007813 0.6367188 -0.7089844
vn 0 0.7109375 -0.703125
vn 0.5625 0.7167969 -0.4121094
vt 0.9619141 -0.3808594
vt 0.9736328 -0.3867188
vt 0.9765625 -0.3935547
vt 0.9775391 -0.4042969
f 103/103/103 104/104/104 105/105/105
f 104/104/104 106/106/106 105/105/105
v -0.7243652 0.2729492 1.223145
v -0.7243652 0.2729492 1.223145
v 0.7243652 0.2729492 1.223145
v 0.7243652 0.2729492 1.223145
vn -0.8808594 -0.4726563 -0.005859375
vn -0.8964844 0.2246094 0.3808594
vn 0.6953125 -0.71875 -0.00390625
vn 0.8222656 0.4511719 0.3476563
vt 0.02832031 -0.3642578
vt 0.02832031 -0.3837891
vt 0.5546875 -0.3642578
vt 0.5546875 -0.3837891
f 107/107/107 108/108/108 109/109/109
f 108/108/108 110/110/110 109/109/109
v -0.652832 1.422119 0.6955566
v -0.6586914 1.102539 0.5515137
v -0.411377 1.426025 1.082764
v -0.4394531 0.9570313 1.223145
vn -0.7890625 0.609375 -0.06640625
vn -0.9042969 0.3515625 -0.2441406
vn -0.5351563 0.4902344 0.6894531
vn -0.546875 0.6699219 0.5019531
vt 0.9296875 -0.7646484
vt 0.9755859 -0.9707031
vt 0.7021484 -0.7138672
vt 0.5605469 -0.9736328
f 111/111/111 112/112/112 113/113/113
f 112/112/112 114/114/114 113/113/113
v 0.652832 1.422119 0.6955566
v 0.411377 1.426025 1.082764
v 0.6586914 1.102539 0.5515137
v 0.4394531 0.9570313 1.223145
vn 0.7890625 0.6113281 -0.06640625
vn 0.5351563 0.4902344 0.6894531
vn 0.9042969 0.3515625 -0.2441406
vn 0.546875 0.6699219 0.5019531
vt 0.9296875 -0.7646484
vt 0.7021484 -0.7138672
vt 0.9755859 -0.9707031
vt 0.5605469 -0.9736328
f 115/115/115 116/116/116 117/117/117
f 116/116/116 118/118/118 117/117/117
v -0.6362305 0.4499512 2.818359
v 0 0.4499512 2.922607
v 0 0.7429199 2.83374
v 0.6362305 0.4499512 2.818359
vn -0.5332031 0.28125 0.7988281
vn 0 -0.07226563 0.9980469
vn 0 0.6855469 0.7285156
vn 0.6289063 0.2265625 0.7441406
vt 0.9111328 -0.4375
vt 0.90625 -0.4375
vt 0.9101563 -0.4228516
vt 0.9111328 -0.4375
f 119/119/119 120/120/120 121/121/121
f 120/120/120 122/122/122 121/121/121
v 0.6325684 0.2446289 2.768799
v 0.7436523 0.2741699 2.494873
v 0.6362305 0.4499512 2.818359
v 0.7436523 0.5488281 2.51416
vn 0.4121094 -0.5410156 0.734375
vn 0.6699219 -0.7324219 0.1132813
vn 0.6289063 0.2265625 0.7441406
vn 0.9140625 0.3945313 0.09765625
vt 0.03320313 -0.1855469
vt 0.2246094 -0.1855469
vt 0.03320313 -0.05761719
vt 0.2246094 -0.01464844
f 123/123/123 124/124/124 125/125/125
f 124/124/124 126/126/126 125/125/125
v -0.6286621 0.03930664 2.718994
v 0 0.03930664 2.811035
v -0.6325684 0.2446289 2.768799
v 0 0.2446289 2.866943
vn -0.4550781 -0.578125 0.6777344
vn 0 -0.7460938 0.6660156
vn -0.5957031 0.09765625 0.796875
vn 0 0.7441406 0.6679688
vt 0.5517578 -0.3144531
vt 0.1992188 -0.3144531
vt 0.5517578 -0.1855469
vt 0.1992188 -0.1855469
f 127/127/127 128/128/128 129/129/129
f 128/128/128 130/130/130 129/129/129
v -0.7053223 -0.0002441406 1.223145
v -0.7436523 -0.0002441406 2.47583
v -0.7243652 0.2729492 1.223145
v -0.7436523 0.2741699 2.494873
vn -0.3710938 -0.9160156 0.15625
vn -0.7519531 -0.6269531 0.2070313
vn -0.8964844 0.2246094 0.3808594
vn -0.4375 0.890625 0.1230469
vt 0.9726563 -0.3369141
vt 0.2246094 -0.3369141
vt 0.9726563 -0.1855469
vt 0.2246094 -0.1855469
f 131/131/131 132/132/132 133/133/133
f 132/132/132 134/134/134 133/133/133
v -0.6362305 0.4499512 2.818359
v 0 0.7429199 2.83374
v -0.4394531 0.8947754 2.51416
v 0 0.8500977 2.51123
vn -0.5332031 0.28125 0.7988281
vn 0 0.6855469 0.7285156
vn -0.3007813 0.9394531 0.1679688
vn 0 0.9941406 0.1074219
vt 0.9228516 -0.6904297
vt 0.6044922 -0.6582031
vt 0.8242188 -0.4980469
vt 0.6044922 -0.4970703
f 135/135/135 136/136/136 137/137/137
f 136/136/136 138/138/138 137/137/137
v -0.6362305 0.4499512 2.818359
v -0.4394531 0.8947754 2.51416
v -0.7436523 0.5488281 2.51416
v -0.4394531 0.8278809 2.304932
vn -0.5332031 0.28125 0.7988281
vn -0.3007813 0.9394531 0.1679688
vn -0.9335938 0.3339844 0.1347656
vn -0.3007813 0.953125 -0.04101563
vt 0.9228516 -0.6904297
vt 0.8242188 -0.4980469
vt 0.9765625 -0.5380859
vt 0.8242188 -0.3935547
f 139/139/139 140/140/140 141/141/141
f 140/140/140 142/142/142 141/141/141
v -0.4416504 -0.0002441406 0.4926758
v -0.9865723 0.09960938 0.6030273
v -0.8115234 0.5461426 0.4926758
v -0.9804688 0.5461426 0.5966797
vn -0.2773438 -0.9492188 -0.1464844
vn -0.6777344 -0.3847656 -0.6269531
vn -0.8105469 -0.0703125 -0.5820313
vn -0.9511719 0.2246094 -0.2089844
vt 0.9765625 -0.4609375
vt 0.9716797 -0.4560547
vt 0.9765625 -0.4326172
vt 0.9716797 -0.4326172
f 143/143/143 144/144/144 145/145/145
f 144/144/144 146/146/146 145/145/145
v 0.7053223 -0.0002441406 1.223145
v 0.7243652 0.2729492 1.223145
v 0.7436523 -0.0002441406 2.47583
v 0.7436523 0.2741699 2.494873
vn 0.3710938 -0.9160156 0.15625
vn 0.8222656 0.4511719 0.3476563
vn 0.7519531 -0.6269531 0.2070313
vn 0.5410156 0.8261719 0.1542969
vt 0.9726563 -0.3369141
vt 0.9726563 -0.1855469
vt 0.2246094 -0.3369141
vt 0.2246094 -0.1855469
f 147/147/147 148/148/148 149/149/149
f 148/148/148 150/150/150 149/149/149
v -0.6286621 0.03930664 2.718994
v -0.6325684 0.2446289 2.768799
v -0.7436523 -0.0002441406 2.47583
v -0.7436523 0.2741699 2.494873
vn -0.4550781 -0.578125 0.6777344
vn -0.5957031 0.09765625 0.796875
vn -0.7519531 -0.6269531 0.2070313
vn -0.4375 0.890625 0.1230469
vt 0.03320313 -0.3144531
vt 0.03320313 -0.1855469
vt 0.2246094 -0.3369141
vt 0.2246094 -0.1855469
f 151/151/151 152/152/152 153/153/153
f 152/152/152 154/154/154 153/153/153
v 0 0.8278809 2.304932
v 0.4394531 0.8947754 2.51416
v 0.4394531 0.8278809 2.304932
v 0.7436523 0.5488281 2.51416
vn 0 0.9941406 -0.09960938
vn 0.3007813 0.9394531 0.1679688
vn 0.3007813 0.953125 -0.04101563
vn 0.9140625 0.3945313 0.09765625
vt 0.6044922 -0.3935547
vt 0.8242188 -0.4980469
vt 0.8242188 -0.3935547
vt 0.9765625 -0.5380859
f 155/155/155 156/156/156 157/157/157
f 156/156/156 158/158/158 157/157/157
v -0.652832 1.422119 0.6955566
v -0.411377 1.426025 1.082764
v -0.4169922 1.548096 0.8222656
v 0 1.304443 1.082764
vn -0.7890625 0.609375 -0.06640625
vn -0.5351563 0.4902344 0.6894531
vn 0.015625 0.9980469 0.015625
vn 0 0.7226563 0.6914063
vt 0.9677734 -0.3876953
vt 0.9501953 -0.3876953
vt 0.9619141 -0.3808594
vt 0.9501953 -0.3935547
f 159/159/159 160/160/160 161/161/161
f 160/160/160 162/162/162 161/161/161
v -0.9865723 0.09960938 0.6030273
v -0.8981934 -0.0002441406 1.04541
v -0.9804688 0.5461426 0.5966797
v -0.7436523 0.2741699 2.494873
v 0.7243652 0.2729492 1.223145
v -0.7243652 0.2729492 1.223145
v -0.7243652 0.2729492 1.223145
v -0.7436523 0.5461426 1.223145
v -0.7243652 0.2729492 1.223145
v 0.6325684 0.2446289 2.768799
v 0.7436523 0.2741699 2.494873
v 0 0.2446289 2.866943
v -0.6362305 0.4499512 2.818359
v -0.7436523 0.5488281 2.51416
v -0.6325684 0.2446289 2.768799
v -0.6325684 0.2446289 2.768799
v -0.7436523 0.2741699 2.494873
v 0 0.2446289 2.866943
v -0.7436523 0.5461426 1.223145
v -0.4394531 0.9570313 1.223145
v -0.6586914 1.102539 0.5515137
v 0.6362305 0.4499512 2.818359
v 0.7436523 0.5488281 2.51416
v 0.4394531 0.8947754 2.51416
v 0.411377 1.426025 1.082764
v 0 1.304443 1.082764
v 0.4394531 0.9570313 1.223145
v 0 0.4499512 2.922607
v 0.6325684 0.2446289 2.768799
v 0.6362305 0.4499512 2.818359
vn -0.6777344 -0.3847656 -0.6269531
vn -0.7949219 -0.4335938 0.421875
vn -0.9511719 0.2246094 -0.2089844
vn -0.4375 0.890625 0.1230469
vn 0.8222656 0.4511719 0.3476563
vn -0.8964844 0.2246094 0.3808594
vn -0.8808594 -0.4726563 -0.005859375
vn -0.8984375 0.3027344 0.3183594
vn -0.8964844 0.2246094 0.3808594
vn 0.5957031 0.09765625 0.796875
vn 0.5410156 0.8261719 0.1542969
vn 0 0.7441406 0.6679688
vn -0.5332031 0.28125 0.7988281
vn -0.9335938 0.3339844 0.1347656
vn -0.5917969 -0.4394531 0.6777344
vn -0.5917969 -0.4394531 0.6777344
vn -0.4296875 -0.9023438 0.03710938
vn 0 -0.9101563 0.4160156
vn -0.8984375 0.3027344 0.3183594
vn -0.546875 0.6699219 0.5019531
vn -0.9042969 0.3515625 -0.2441406
vn 0.6289063 0.2265625 0.7441406
vn 0.9140625 0.3945313 0.09765625
vn 0.3007813 0.9394531 0.1679688
vn 0.5351563 0.4902344 0.6894531
vn 0 0.7226563 0.6914063
vn 0.546875 0.6699219 0.5019531
vn 0 -0.07226563 0.9980469
vn 0.4121094 -0.5410156 0.734375
vn 0.6289063 0.2265625 0.7441406
vt 0.9716797 -0.4560547
vt 0.9511719 -0.4609375
vt 0.9716797 -0.4326172
vt 0.02148438 -0.8457031
vt 0.5546875 -0.3837891
vt 0.02832031 -0.3837891
vt 0.9433594 -0.4472656
vt 0.9433594 -0.4326172
vt 0.9433594 -0.4472656
vt 0.5214844 -0.9453125
vt 0.5615234 -0.8457031
vt 0.2919922 -0.9814453
vt 0.03320313 -0.05761719
vt 0.2246094 -0.01464844
vt 0.03320313 -0.1855469
vt 0.06152344 -0.9453125
vt 0.02148438 -0.8457031
vt 0.2919922 -0.9814453
vt 0.9433594 -0.4326172
vt 0.9433594 -0.4121094
vt 0.9736328 -0.4042969
vt 0.9228516 -0.6904297
vt 0.9765625 -0.5380859
vt 0.8242188 -0.4980469
vt 0.9501953 -0.3876953
vt 0.9501953 -0.3935547
vt 0.9433594 -0.4121094
vt 0.1992188 -0.05761719
vt 0.5517578 -0.1855469
vt 0.5517578 -0.05761719
f 163/163/163 164/164/164 165/165/165
f 166/166/166 167/167/167 168/168/168
f 169/169/169 170/170/170 171/171/171
f 172/172/172 173/173/173 174/174/174
f 175/175/175 176/176/176 177/177/177
f 178/178/178 179/179/179 180/180/180
f 181/181/181 182/182/182 183/183/183
f 184/184/184 185/185/185 186/186/186
f 187/187/187 188/188/188 189/189/189
f 190/190/190 191/191/191 192/192/192
g polygon1
usemtl Material1
v 0.7194824 0.5185547 -1.546387
v 0.5593262 0.01855469 -1.458984
v 0.7578125 0.5185547 -1.112305
v 0.6279297 0.01855469 -1.134766
v 0.9155273 0.5185547 -1.072021
v 0.8496094 0.01855469 -1.085205
v 0.9985352 0.5185547 -1.303223
v 0.8273926 0.01855469 -1.524414
v 0.7175293 1.052246 -1.526367
v 0.7194824 0.5185547 -1.546387
v 0.4047852 0.2563477 -2.135498
v 0.4228516 -0.0002441406 -1.272949
v 0 -0.0002441406 -2.135498
v 0 -0.0002441406 -1.272949
v -0.4228516 -0.0002441406 -1.272949
v 0 -0.0002441406 -0.451416
v -0.4882813 -0.0002441406 -0.451416
v -0.4853516 -0.0002441406 0.1037598
v -0.7426758 0.4191895 0.05883789
v -0.715332 0.4191895 0.3771973
vn 0.5390625 -0.2519531 -0.8027344
vn -0.9257813 -0.234375 -0.296875
vn -0.71875 0.1875 0.6679688
vn -0.4570313 -0.5605469 0.6914063
vn 0.3046875 -0.06054688 0.9511719
vn 0.6582031 -0.5664063 0.4980469
vn 0.9902344 -0.05859375 -0.1191406
vn 0.4511719 -0.5820313 -0.6757813
vn 0.7753906 0.234375 -0.5859375
vn 0.5390625 -0.2519531 -0.8027344
vn 0.8476563 -0.3730469 -0.3789063
vn 0.484375 -0.8691406 -0.09375
vn 0 -0.9960938 -0.09570313
vn 0 -1 0
vn -0.484375 -0.8691406 -0.09375
vn 0 -1 0
vn -0.5820313 -0.8125 -0.01953125
vn -0.4882813 -0.8730469 0.03320313
vn -0.8164063 -0.5605469 0.1308594
vn -0.7695313 -0.3574219 0.5273438
vt 0.9023438 -0.1171875
vt 0.9013672 -0.1435547
vt 0.8955078 -0.1171875
vt 0.8964844 -0.1435547
vt 0.8955078 -0.1171875
vt 0.8955078 -0.1435547
vt 0.8994141 -0.1171875
vt 0.9023438 -0.1435547
vt 0.9023438 -0.08886719
vt 0.9023438 -0.1171875
vt 0.9121094 -0.1308594
vt 0.8984375 -0.1445313
vt 0.9121094 -0.1445313
vt 0.8984375 -0.1445313
vt 0.8984375 -0.1445313
vt 0.8857422 -0.1445313
vt 0.8857422 -0.1445313
vt 0.8769531 -0.1445313
vt 0.8779297 -0.1220703
vt 0.8730469 -0.1220703
f 193/193/193 194/194/194 195/195/195
f 194/194/194 196/196/196 195/195/195
f 195/195/195 196/196/196 197/197/197
f 196/196/196 198/198/198 197/197/197
f 197/197/197 198/198/198 199/199/199
f 198/198/198 200/200/200 199/199/199
f 199/199/199 200/200/200 201/201/201
f 200/200/200 202/202/202 201/201/201
f 201/201/201 202/202/202 203/203/203
f 202/202/202 204/204/204 203/203/203
f 203/203/203 204/204/204 205/205/205
f 204/204/204 206/206/206 205/205/205
f 205/205/205 206/206/206 207/207/207
f 206/206/206 208/208/208 207/207/207
f 207/207/207 208/208/208 209/209/209
f 208/208/208 210/210/210 209/209/209
f 209/209/209 210/210/210 211/211/211
f 210/210/210 212/212/212 211/211/211
v -0.5529785 1.102539 0.4638672
v -0.9108887 0.8942871 0.3120117
v -0.8115234 0.5461426 0.4926758
v -0.715332 0.4191895 0.3771973
v -0.4416504 -0.0002441406 0.4926758
v -0.4853516 -0.0002441406 0.1037598
v 0 -0.0002441406 0.1037598
v 0 -0.0002441406 -0.451416
v 0.4853516 -0.0002441406 0.1037598
v 0.4882813 -0.0002441406 -0.451416
v 0.7426758 0.4191895 0.05883789
v 0.9719238 0.5246582 -0.451416
v 0.9790039 0.7641602 0.009277344
v 0.9179688 1.132813 -0.451416
v 0.8771973 1.052979 0.005859375
vn -0.5625 0.7167969 -0.4121094
vn -0.8476563 0.3203125 0.421875
vn -0.8105469 -0.0703125 -0.5820313
vn -0.7695313 -0.3574219 0.5273438
vn -0.2773438 -0.9492188 -0.1464844
vn -0.4882813 -0.8730469 0.03320313
vn 0 -1 0
vn 0 -1 0
vn 0.4960938 -0.8671875 0.015625
vn 0.5820313 -0.8125 -0.01953125
vn 0.8164063 -0.5605469 0.1308594
vn 0.9238281 -0.3847656 -0.005859375
vn 0.9628906 0.02148438 -0.2714844
vn 0.9179688 0.3945313 0.0546875
vn 0.8164063 0.5488281 0.1777344
vt 0.8710938 -0.0859375
vt 0.8740234 -0.09765625
vt 0.8710938 -0.1152344
vt 0.8730469 -0.1220703
vt 0.8710938 -0.1445313
vt 0.8769531 -0.1445313
vt 0.8769531 -0.1445313
vt 0.8857422 -0.1445313
vt 0.8769531 -0.1445313
vt 0.8857422 -0.1445313
vt 0.8779297 -0.1220703
vt 0.8857422 -0.1171875
vt 0.8789063 -0.1044922
vt 0.8857422 -0.08496094
vt 0.8789063 -0.08886719
f 213/213/213 214/214/214 215/215/215
f 214/214/214 216/216/216 215/215/215
f 215/215/215 216/216/216 217/217/217
f 216/216/216 218/218/218 217/217/217
f 217/217/217 218/218/218 219/219/219
f 218/218/218 220/220/220 219/219/219
f 219/219/219 220/220/220 221/221/221
f 220/220/220 222/222/222 221/221/221
f 221/221/221 222/222/222 223/223/223
f 222/222/222 224/224/224 223/223/223
f 223/223/223 224/224/224 225/225/225
f 224/224/224 226/226/226 225/225/225
f 225/225/225 226/226/226 227/227/227
v 0.5529785 1.102539 0.4638672
v 0.8115234 0.5461426 0.4926758
v 0.9108887 0.8942871 0.3120117
v 0.715332 0.4191895 0.3771973
v 1.018066 0.4191895 0.302002
v 0.9821777 0.01879883 0.3513184
v 0.9831543 0.01879883 0.128418
v 0.7177734 0.01879883 0.3813477
v 0.7250977 0.01879883 0.1169434
v 0.7426758 0.4191895 0.05883789
v 0.9790039 0.7641602 0.009277344
vn 0.5625 0.7167969 -0.4121094
vn 0.8066406 -0.05859375 -0.5878906
vn 0.8476563 0.3203125 0.421875
vn 0.7929688 -0.3457031 0.5039063
vn 0.8710938 0.06054688 0.4863281
vn 0.5234375 -0.3808594 0.7617188
vn 0.625 -0.6972656 -0.3496094
vn -0.6601563 -0.6855469 0.3085938
vn -0.3730469 -0.4941406 -0.7851563
vn -0.8730469 -0.04882813 -0.484375
vn 0.9628906 0.02148438 -0.2714844
vt 0.8710938 -0.0859375
vt 0.8710938 -0.1152344
vt 0.8740234 -0.09765625
vt 0.8730469 -0.1220703
vt 0.8740234 -0.1220703
vt 0.8730469 -0.1435547
vt 0.8769531 -0.1435547
vt 0.8730469 -0.1435547
vt 0.8769531 -0.1435547
vt 0.8779297 -0.1220703
vt 0.8789063 -0.1044922
f 228/228/228 229/229/229 230/230/230
f 229/229/229 231/231/231 230/230/230
f 230/230/230 231/231/231 232/232/232
f 231/231/231 233/233/233 232/232/232
f 232/232/232 233/233/233 234/234/234
f 233/233/233 235/235/235 234/234/234
f 234/234/234 235/235/235 236/236/236
f 235/235/235 237/237/237 236/236/236
f 236/236/236 237/237/237 238/238/238
v 0.9179688 1.132813 -0.451416
v 0.8657227 1.192627 -1.072021
v 0.6638184 1.408691 -0.451416
v 0.6311035 1.496094 -1.072021
v 0 1.498291 -0.451416
v 0 1.547119 -1.072021
v -0.6311035 1.496094 -1.072021
v 0 1.382813 -1.526611
v -0.5393066 1.352539 -1.526611
v 0 0.9487305 -2.135498
v -0.296875 0.9487305 -2.135498
vn 0.9179688 0.3945313 0.0546875
vn 0.8222656 0.5371094 -0.1914063
vn 0.5664063 0.8105469 0.1542969
vn 0.3457031 0.9296875 -0.1347656
vn 0 0.9765625 0.2167969
vn 0 0.9902344 -0.1347656
vn -0.3457031 0.9296875 -0.1347656
vn 0 0.9101563 -0.4140625
vn -0.4316406 0.7480469 -0.5039063
vn 0 0.7714844 -0.6347656
vn -0.5488281 0.4980469 -0.671875
vt 0.9824219 -0.6484375
vt 0.9609375 -0.421875
vt 0.8359375 -0.6484375
vt 0.8242188 -0.421875
vt 0.59375 -0.6484375
vt 0.59375 -0.421875
vt 0.3632813 -0.421875
vt 0.59375 -0.2558594
vt 0.3964844 -0.2558594
vt 0.59375 -0.03320313
vt 0.4853516 -0.03320313
f 239/239/239 240/240/240 241/241/241
f 240/240/240 242/242/242 241/241/241
f 241/241/241 242/242/242 243/243/243
f 242/242/242 244/244/244 243/243/243
f 243/243/243 244/244/244 245/245/245
f 244/244/244 246/246/246 245/245/245
f 245/245/245 246/246/246 247/247/247
f 246/246/246 248/248/248 247/247/247
f 247/247/247 248/248/248 249/249/249
v -0.987793 0.9262695 -1.072021
v -0.9155273 0.5185547 -1.072021
v -0.7578125 0.5185547 -1.112305
v -0.6279297 0.01855469 -1.134766
v -0.5593262 0.01855469 -1.458984
v -0.8273926 0.01855469 -1.524414
v -0.7194824 0.5185547 -1.546387
v -0.7175293 1.052246 -1.526367
v -0.4047852 0.2563477 -2.135498
v -0.296875 0.9487305 -2.135498
v 0 -0.0002441406 -2.948975
vn -0.9921875 0.1132813 0.04882813
vn -0.3046875 -0.06054688 0.9511719
vn 0.71875 0.1875 0.6679688
vn 0.4570313 -0.5605469 0.6914063
vn 0.9257813 -0.234375 -0.296875
vn -0.4511719 -0.5820313 -0.6757813
vn -0.5390625 -0.2519531 -0.8027344
vn -0.7753906 0.234375 -0.5859375
vn -0.8476563 -0.3730469 -0.3789063
vn -0.5488281 0.4980469 -0.671875
vn 0 -0.046875 -0.9980469
vt 0.8955078 -0.09570313
vt 0.8955078 -0.1171875
vt 0.8955078 -0.1171875
vt 0.8964844 -0.1435547
vt 0.9013672 -0.1435547
vt 0.9023438 -0.1435547
vt 0.9023438 -0.1171875
vt 0.9023438 -0.08886719
vt 0.9121094 -0.1308594
vt 0.9121094 -0.09472656
vt 0.9248047 -0.1445313
f 250/250/250 251/251/251 252/252/252
f 251/251/251 253/253/253 252/252/252
f 252/252/252 253/253/253 254/254/254
f 253/253/253 255/255/255 254/254/254
f 254/254/254 255/255/255 256/256/256
f 255/255/255 257/257/257 256/256/256
f 256/256/256 257/257/257 258/258/258
f 257/257/257 259/259/259 258/258/258
f 258/258/258 259/259/259 260/260/260
v -0.715332 0.4191895 0.3771973
v -0.7177734 0.01879883 0.3813477
v -0.7426758 0.4191895 0.05883789
v -0.7250977 0.01879883 0.1169434
v -0.9790039 0.7641602 0.009277344
v -0.9831543 0.01879883 0.128418
v -1.018066 0.4191895 0.302002
v -0.9821777 0.01879883 0.3513184
v -0.715332 0.4191895 0.3771973
v -0.7177734 0.01879883 0.3813477
vn 0.9960938 -0.0078125 -0.0859375
vn 0.6601563 -0.6855469 0.3085938
vn 0.8730469 -0.04882813 -0.484375
vn 0.3730469 -0.4941406 -0.7851563
vn -0.9628906 0.02148438 -0.2714844
vn -0.625 -0.6972656 -0.3496094
vn -0.8710938 0.06054688 0.4863281
vn -0.5234375 -0.3808594 0.7617188
vn -0.7695313 -0.3574219 0.5273438
vn 0.6601563 -0.6855469 0.3085938
vt 0.8730469 -0.1220703
vt 0.8730469 -0.1435547
vt 0.8779297 -0.1220703
vt 0.8769531 -0.1435547
vt 0.8789063 -0.1044922
vt 0.8769531 -0.1435547
vt 0.8740234 -0.1220703
vt 0.8730469 -0.1435547
vt 0.8730469 -0.1220703
vt 0.8730469 -0.1435547
f 261/261/261 262/262/262 263/263/263
f 262/262/262 264/264/264 263/263/263
f 263/263/263 264/264/264 265/265/265
f 264/264/264 266/266/266 265/265/265
f 265/265/265 266/266/266 267/267/267
f 266/266/266 268/268/268 267/267/267
f 267/267/267 268/268/268 269/269/269
f 268/268/268 270/270/270 269/269/269
v 0.9865723 0.09960938 0.6030273
v 0.8981934 -0.0002441406 1.04541
v 0.4853516 -0.0002441406 0.4926758
v 0.7053223 -0.0002441406 1.223145
v 0 -0.0002441406 1.223145
v 0 -0.0002441406 2.47583
v -0.7053223 -0.0002441406 1.223145
v -0.7436523 -0.0002441406 2.47583
vn 0.6855469 -0.3789063 -0.6210938
vn 0.796875 -0.4316406 0.421875
vn 0.2910156 -0.9414063 -0.1699219
vn 0.3710938 -0.9160156 0.15625
vn 0 -1 0
vn 0 -1 0.0390625
vn -0.3710938 -0.9160156 0.15625
vn -0.7519531 -0.6269531 0.2070313
vt 0.1875 -0.4150391
vt 0.1806641 -0.4521484
vt 0.1455078 -0.40625
vt 0.1640625 -0.4667969
vt 0.1044922 -0.4667969
vt 0.1044922 -0.5722656
vt 0.04589844 -0.4667969
vt 0.04296875 -0.5722656
f 271/271/271 272/272/272 273/273/273
f 272/272/272 274/274/274 273/273/273
f 273/273/273 274/274/274 275/275/275
f 274/274/274 276/276/276 275/275/275
f 275/275/275 276/276/276 277/277/277
f 276/276/276 278/278/278 277/277/277
v -0.8657227 1.192627 -1.072021
v -0.7175293 1.052246 -1.526367
v -0.987793 0.9262695 -1.072021
v -0.9985352 0.5185547 -1.303223
v -0.9155273 0.5185547 -1.072021
v -0.8496094 0.01855469 -1.085205
v -0.6279297 0.01855469 -1.134766
v -0.8273926 0.01855469 -1.524414
vn -0.8222656 0.5371094 -0.1914063
vn -0.7753906 0.234375 -0.5859375
vn -0.9921875 0.1132813 0.04882813
vn -0.9902344 -0.05859375 -0.1191406
vn -0.3046875 -0.06054688 0.9511719
vn -0.6582031 -0.5664063 0.4980469
vn 0.4570313 -0.5605469 0.6914063
vn -0.4511719 -0.5820313 -0.6757813
vt 0.8955078 -0.08105469
vt 0.9023438 -0.08886719
vt 0.8955078 -0.09570313
vt 0.8994141 -0.1171875
vt 0.8955078 -0.1171875
vt 0.8955078 -0.1435547
vt 0.8964844 -0.1435547
vt 0.9023438 -0.1435547
f 279/279/279 280/280/280 281/281/281
f 280/280/280 282/282/282 281/281/281
f 281/281/281 282/282/282 283/283/283
f 282/282/282 284/284/284 283/283/283
f 283/283/283 284/284/284 285/285/285
f 284/284/284 286/286/286 285/285/285
v -0.7578125 0.5185547 -1.112305
v -0.7194824 0.5185547 -1.546387
v -0.4228516 -0.0002441406 -1.272949
v -0.4047852 0.2563477 -2.135498
v 0 -0.0002441406 -2.135498
v 0 -0.0002441406 -2.948975
v 0.4047852 0.2563477 -2.135498
vn -0.8222656 -0.5449219 -0.1621094
vn -0.5390625 -0.2519531 -0.8027344
vn -0.484375 -0.8691406 -0.09375
vn -0.8476563 -0.3730469 -0.3789063
vn 0 -0.9960938 -0.09570313
vn 0 -0.046875 -0.9980469
vn 0.8476563 -0.3730469 -0.3789063
vt 0.8955078 -0.1171875
vt 0.9023438 -0.1171875
vt 0.8984375 -0.1445313
vt 0.9121094 -0.1308594
vt 0.9121094 -0.1445313
vt 0.9248047 -0.1445313
vt 0.9121094 -0.1308594
f 287/287/287 288/288/288 289/289/289
f 288/288/288 290/290/290 289/289/289
f 289/289/289 290/290/290 291/291/291
f 290/290/290 292/292/292 291/291/291
f 291/291/291 292/292/292 293/293/293
v -0.5529785 1.102539 0.4638672
v 0 1.116943 0.4377441
v -0.6638184 1.236572 0.1037598
v 0 1.306152 0.05883789
v 0 1.498291 -0.451416
v 0.6638184 1.236572 0.1037598
v 0.6638184 1.408691 -0.451416
vn -0.5625 0.7167969 -0.4121094
vn 0 0.9960938 -0.078125
vn -0.3398438 0.8710938 0.3574219
vn 0 0.9160156 0.4003906
vn 0 0.9765625 0.2167969
vn 0.3398438 0.8710938 0.3574219
vn 0.5664063 0.8105469 0.1542969
vt 0.3916016 -0.9833984
vt 0.59375 -0.9736328
vt 0.3515625 -0.8515625
vt 0.59375 -0.8349609
vt 0.59375 -0.6484375
vt 0.8359375 -0.8515625
vt 0.8359375 -0.6484375
f 294/294/294 295/295/295 296/296/296
f 295/295/295 297/297/297 296/296/296
f 296/296/296 297/297/297 298/298/298
f 297/297/297 299/299/299 298/298/298
f 298/298/298 299/299/299 300/300/300
v 0.296875 0.9487305 -2.135498
v 0 0.9487305 -2.135498
v 0.5393066 1.352539 -1.526611
v 0 1.382813 -1.526611
v 0.6311035 1.496094 -1.072021
v 0 1.547119 -1.072021
vn 0.5488281 0.4980469 -0.671875
vn 0 0.7714844 -0.6347656
vn 0.4316406 0.7480469 -0.5039063
vn 0 0.9101563 -0.4140625
vn 0.3457031 0.9296875 -0.1347656
vn 0 0.9902344 -0.1347656
vt 0.7021484 -0.03320313
vt 0.59375 -0.03320313
vt 0.7910156 -0.2558594
vt 0.59375 -0.2558594
vt 0.8242188 -0.421875
vt 0.59375 -0.421875
f 301/301/301 302/302/302 303/303/303
f 302/302/302 304/304/304 303/303/303
f 303/303/303 304/304/304 305/305/305
f 304/304/304 306/306/306 305/305/305
v -0.6286621 0.03930664 2.718994
v -0.7436523 -0.0002441406 2.47583
v 0 0.03930664 2.811035
v 0 -0.0002441406 2.47583
v 0.7436523 -0.0002441406 2.47583
v 0.7053223 -0.0002441406 1.223145
vn -0.4550781 -0.578125 0.6777344
vn -0.7519531 -0.6269531 0.2070313
vn 0 -0.7460938 0.6660156
vn 0 -1 0.0390625
vn 0.7519531 -0.6269531 0.2070313
vn 0.3710938 -0.9160156 0.15625
vt 0.05175781 -0.5927734
vt 0.04296875 -0.5722656
vt 0.1044922 -0.6005859
vt 0.1044922 -0.5722656
vt 0.1669922 -0.5722656
vt 0.1640625 -0.4667969
f 307/307/307 308/308/308 309/309/309
f 308/308/308 310/310/310 309/309/309
f 309/309/309 310/310/310 311/311/311
f 310/310/310 312/312/312 311/311/311
v -0.8771973 1.052979 0.005859375
v -0.9179688 1.132813 -0.451416
v -0.9790039 0.7641602 0.009277344
v -0.9719238 0.5246582 -0.451416
v -0.7426758 0.4191895 0.05883789
v -0.4882813 -0.0002441406 -0.451416
vn -0.8164063 0.5488281 0.1777344
vn -0.9179688 0.3945313 0.0546875
vn -0.9628906 0.02148438 -0.2714844
vn -0.9238281 -0.3847656 -0.005859375
vn -0.8164063 -0.5605469 0.1308594
vn -0.5820313 -0.8125 -0.01953125
vt 0.8789063 -0.08886719
vt 0.8857422 -0.08496094
vt 0.8789063 -0.1044922
vt 0.8857422 -0.1171875
vt 0.8779297 -0.1220703
vt 0.8857422 -0.1445313
f 313/313/313 314/314/314 315/315/315
f 314/314/314 316/316/316 315/315/315
f 315/315/315 316/316/316 317/317/317
f 316/316/316 318/318/318 317/317/317
v 0.9179688 1.132813 -0.451416
v 0.6638184 1.408691 -0.451416
v 0.8771973 1.052979 0.005859375
v 0.6638184 1.236572 0.1037598
v 0.9108887 0.8942871 0.3120117
v 0.5529785 1.102539 0.4638672
vn 0.9179688 0.3945313 0.0546875
vn 0.5664063 0.8105469 0.1542969
vn 0.8164063 0.5488281 0.1777344
vn 0.3398438 0.8710938 0.3574219
vn 0.8476563 0.3203125 0.421875
vn 0.5625 0.7167969 -0.4121094
vt 0.9824219 -0.6484375
vt 0.8359375 -0.6484375
vt 0.9658203 -0.8164063
vt 0.8359375 -0.8515625
vt 0.9794922 -0.9277344
vt 0.7958984 -0.9833984
f 319/319/319 320/320/320 321/321/321
f 320/320/320 322/322/322 321/321/321
f 321/321/321 322/322/322 323/323/323
f 322/322/322 324/324/324 323/323/323
v 0.7175293 1.052246 -1.526367
v 0.4047852 0.2563477 -2.135498
v 0.296875 0.9487305 -2.135498
v 0 -0.0002441406 -2.948975
v 0 0.9487305 -2.135498
v -0.296875 0.9487305 -2.135498
vn 0.7753906 0.234375 -0.5859375
vn 0.8476563 -0.3730469 -0.3789063
vn 0.5488281 0.4980469 -0.671875
vn 0 -0.046875 -0.9980469
vn 0 0.7714844 -0.6347656
vn -0.5488281 0.4980469 -0.671875
vt 0.9023438 -0.08886719
vt 0.9121094 -0.1308594
vt 0.9121094 -0.09472656
vt 0.9248047 -0.1445313
vt 0.9121094 -0.09472656
vt 0.9121094 -0.09472656
f 325/325/325 326/326/326 327/327/327
f 326/326/326 328/328/328 327/327/327
f 327/327/327 328/328/328 329/329/329
f 328/328/328 330/330/330 329/329/329
v 0.7426758 0.4191895 0.05883789
v 0.715332 0.4191895 0.3771973
v 0.4853516 -0.0002441406 0.1037598
v 0.4853516 -0.0002441406 0.4926758
v 0 -0.0002441406 0.1037598
vn 0.8164063 -0.5605469 0.1308594
vn 0.7929688 -0.3457031 0.5039063
vn 0.4960938 -0.8671875 0.015625
vn 0.2910156 -0.9414063 -0.1699219
vn 0 -1 0
vt 0.8779297 -0.1220703
vt 0.8730469 -0.1220703
vt 0.8769531 -0.1445313
vt 0.8710938 -0.1445313
vt 0.8769531 -0.1445313
f 331/331/331 332/332/332 333/333/333
f 332/332/332 334/334/334 333/333/333
f 333/333/333 334/334/334 335/335/335
v 0.2519531 1.299561 0.002197266
v -0.2519531 1.299561 0.002197266
v 0 1.409668 0.2814941
v -0.2519531 1.123291 0.3979492
v 0.2519531 1.123291 0.3979492
vn 0.3691406 0.9277344 -0.03320313
vn -0.3691406 0.9277344 -0.03320313
vn 0 0.9160156 0.4003906
vn -0.3671875 0.609375 0.703125
vn 0.3671875 0.609375 0.703125
vt 0.2617188 -0.01757813
vt 0.01953125 -0.01757813
vt 0.1376953 -0.1357422
vt 0.01953125 -0.2587891
vt 0.2617188 -0.2587891
f 336/336/336 337/337/337 338/338/338
f 337/337/337 339/339/339 338/338/338
f 338/338/338 339/339/339 340/340/340
v 0.8771973 1.052979 0.005859375
v 0.9108887 0.8942871 0.3120117
v 0.9790039 0.7641602 0.009277344
v 1.018066 0.4191895 0.302002
v 0.9831543 0.01879883 0.128418
vn 0.8164063 0.5488281 0.1777344
vn 0.8476563 0.3203125 0.421875
vn 0.9628906 0.02148438 -0.2714844
vn 0.8710938 0.06054688 0.4863281
vn 0.625 -0.6972656 -0.3496094
vt 0.8789063 -0.08886719
vt 0.8740234 -0.09765625
vt 0.8789063 -0.1044922
vt 0.8740234 -0.1220703
vt 0.8769531 -0.1435547
f 341/341/341 342/342/342 343/343/343
f 342/342/342 344/344/344 343/343/343
f 343/343/343 344/344/344 345/345/345
v -0.8771973 1.052979 0.005859375
v -0.9790039 0.7641602 0.009277344
v -0.9108887 0.8942871 0.3120117
v -1.018066 0.4191895 0.302002
v -0.715332 0.4191895 0.3771973
vn -0.8164063 0.5488281 0.1777344
vn -0.9628906 0.02148438 -0.2714844
vn -0.8476563 0.3203125 0.421875
vn -0.8710938 0.06054688 0.4863281
vn -0.7695313 -0.3574219 0.5273438
vt 0.8789063 -0.08886719
vt 0.8789063 -0.1044922
vt 0.8740234 -0.09765625
vt 0.8740234 -0.1220703
vt 0.8730469 -0.1220703
f 346/346/346 347/347/347 348/348/348
f 347/347/347 349/349/349 348/348/348
f 348/348/348 349/349/349 350/350/350
v -0.9179688 1.132813 -0.451416
v -0.8771973 1.052979 0.005859375
v -0.6638184 1.408691 -0.451416
v -0.6638184 1.236572 0.1037598
v 0 1.498291 -0.451416
vn -0.9179688 0.3945313 0.0546875
vn -0.8164063 0.5488281 0.1777344
vn -0.5664063 0.8105469 0.1542969
vn -0.3398438 0.8710938 0.3574219
vn 0 0.9765625 0.2167969
vt 0.2050781 -0.6484375
vt 0.2226563 -0.8164063
vt 0.3515625 -0.6484375
vt 0.3515625 -0.8515625
vt 0.59375 -0.6484375
f 351/351/351 352/352/352 353/353/353
f 352/352/352 354/354/354 353/353/353
f 353/353/353 354/354/354 355/355/355
v 0.2519531 1.47168 -0.5383301
v -0.2519531 1.47168 -0.5383301
v 0 1.608887 -0.2753906
v -0.2519531 1.346191 -0.1381836
v 0.2519531 1.346191 -0.1381836
vn 0.3632813 0.921875 -0.1328125
vn -0.3632813 0.921875 -0.1328125
vn 0 0.9550781 0.2988281
vn -0.3632813 0.6816406 0.6347656
vn 0.3632813 0.6816406 0.6347656
vt 0.2617188 -0.01757813
vt 0.01953125 -0.01757813
vt 0.1376953 -0.1357422
vt 0.01953125 -0.2587891
vt 0.2617188 -0.2587891
f 356/356/356 357/357/357 358/358/358
f 357/357/357 359/359/359 358/358/358
f 358/358/358 359/359/359 360/360/360
v 0.7175293 1.052246 -1.526367
v 0.8657227 1.192627 -1.072021
v 0.987793 0.9262695 -1.072021
v 0.9179688 1.132813 -0.451416
v 0.9719238 0.5246582 -0.451416
vn 0.7753906 0.234375 -0.5859375
vn 0.8222656 0.5371094 -0.1914063
vn 0.9921875 0.1132813 0.04882813
vn 0.9179688 0.3945313 0.0546875
vn 0.9238281 -0.3847656 -0.005859375
vt 0.9023438 -0.08886719
vt 0.8955078 -0.08105469
vt 0.8955078 -0.09570313
vt 0.8857422 -0.08496094
vt 0.8857422 -0.1171875
f 361/361/361 362/362/362 363/363/363
f 362/362/362 364/364/364 363/363/363
f 363/363/363 364/364/364 365/365/365
v 0.7194824 0.5185547 -1.546387
v 0.7578125 0.5185547 -1.112305
v 0.4228516 -0.0002441406 -1.272949
v 0.4882813 -0.0002441406 -0.451416
v 0 -0.0002441406 -0.451416
vn 0.5390625 -0.2519531 -0.8027344
vn 0.8222656 -0.5449219 -0.1621094
vn 0.484375 -0.8691406 -0.09375
vn 0.5820313 -0.8125 -0.01953125
vn 0 -1 0
vt 0.9023438 -0.1171875
vt 0.8955078 -0.1171875
vt 0.8984375 -0.1445313
vt 0.8857422 -0.1445313
vt 0.8857422 -0.1445313
f 366/366/366 367/367/367 368/368/368
f 367/367/367 369/369/369 368/368/368
f 368/368/368 369/369/369 370/370/370
v 0.7578125 0.5185547 -1.112305
v 0.9155273 0.5185547 -1.072021
v 0.987793 0.9262695 -1.072021
v 0.9985352 0.5185547 -1.303223
v 0.7175293 1.052246 -1.526367
vn -0.71875 0.1875 0.6679688
vn 0.3046875 -0.06054688 0.9511719
vn 0.9921875 0.1132813 0.04882813
vn 0.9902344 -0.05859375 -0.1191406
vn 0.7753906 0.234375 -0.5859375
vt 0.8955078 -0.1171875
vt 0.8955078 -0.1171875
vt 0.8955078 -0.09570313
vt 0.8994141 -0.1171875
vt 0.9023438 -0.08886719
f 371/371/371 372/372/372 373/373/373
f 372/372/372 374/374/374 373/373/373
f 373/373/373 374/374/374 375/375/375
v 0.2050781 1.018799 -2.019531
v -0.2050781 1.018799 -2.019531
v 0 1.256592 -1.977783
v -0.2050781 1.214844 -1.73999
v 0.2050781 1.214844 -1.73999
vn 0.3632813 0.4570313 -0.8125
vn -0.3632813 0.4570313 -0.8125
vn 0 0.8183594 -0.5742188
vn -0.3632813 0.9199219 -0.1523438
vn 0.3632813 0.9199219 -0.1523438
vt 0.2617188 -0.01757813
vt 0.01953125 -0.01757813
vt 0.1376953 -0.1357422
vt 0.01953125 -0.2587891
vt 0.2617188 -0.2587891
f 376/376/376 377/377/377 378/378/378
f 377/377/377 379/379/379 378/378/378
f 378/378/378 379/379/379 380/380/380
v -0.7578125 0.5185547 -1.112305
v -0.9719238 0.5246582 -0.451416
v -0.987793 0.9262695 -1.072021
v -0.9179688 1.132813 -0.451416
v -0.8657227 1.192627 -1.072021
vn -0.8222656 -0.5449219 -0.1621094
vn -0.9238281 -0.3847656 -0.005859375
vn -0.9921875 0.1132813 0.04882813
vn -0.9179688 0.3945313 0.0546875
vn -0.8222656 0.5371094 -0.1914063
vt 0.8955078 -0.1171875
vt 0.8857422 -0.1171875
vt 0.8955078 -0.09570313
vt 0.8857422 -0.08496094
vt 0.8955078 -0.08105469
f 381/381/381 382/382/382 383/383/383
f 382/382/382 384/384/384 383/383/383
f 383/383/383 384/384/384 385/385/385
v 0.2297363 1.315186 -1.605713
v -0.2297363 1.315186 -1.605713
v 0 1.566406 -1.505859
v -0.2297363 1.466553 -1.254639
v 0.2297363 1.466553 -1.254639
vn 0.3632813 0.6113281 -0.703125
vn -0.3632813 0.6113281 -0.703125
vn 0 0.9179688 -0.3964844
vn -0.3632813 0.9316406 0.03710938
vn 0.3632813 0.9316406 0.03710938
vt 0.2617188 -0.01757813
vt 0.01953125 -0.01757813
vt 0.1376953 -0.1357422
vt 0.01953125 -0.2587891
vt 0.2617188 -0.2587891
f 386/386/386 387/387/387 388/388/388
f 387/387/387 389/389/389 388/388/388
f 388/388/388 389/389/389 390/390/390
v 0.2519531 1.526855 -1.067383
v -0.2519531 1.526855 -1.067383
v 0 1.710938 -0.8349609
v -0.2519531 1.478271 -0.651123
v 0.2519531 1.478271 -0.651123
vn 0.3632813 0.8808594 -0.3027344
vn -0.3632813 0.8808594 -0.3027344
vn 0 0.9941406 0.1152344
vn -0.3632813 0.7871094 0.4960938
vn 0.3632813 0.7871094 0.4960938
vt 0.2617188 -0.01757813
vt 0.01953125 -0.01757813
vt 0.1376953 -0.1357422
vt 0.01953125 -0.2587891
vt 0.2617188 -0.2587891
f 391/391/391 392/392/392 393/393/393
f 392/392/392 394/394/394 393/393/393
f 393/393/393 394/394/394 395/395/395
v -0.5529785 1.102539 0.4638672
v -0.6638184 1.236572 0.1037598
v -0.9108887 0.8942871 0.3120117
v -0.8771973 1.052979 0.005859375
vn -0.5625 0.7167969 -0.4121094
vn -0.3398438 0.8710938 0.3574219
vn -0.8476563 0.3203125 0.421875
vn -0.8164063 0.5488281 0.1777344
vt 0.3916016 -0.9833984
vt 0.3515625 -0.8515625
vt 0.2080078 -0.9277344
vt 0.2226563 -0.8164063
f 396/396/396 397/397/397 398/398/398
f 397/397/397 399/399/399 398/398/398
v 0.5529785 1.102539 0.4638672
v 0.6638184 1.236572 0.1037598
v 0 1.116943 0.4377441
v 0 1.306152 0.05883789
vn 0.5625 0.7167969 -0.4121094
vn 0.3398438 0.8710938 0.3574219
vn 0 0.9960938 -0.078125
vn 0 0.9160156 0.4003906
vt 0.7958984 -0.9833984
vt 0.8359375 -0.8515625
vt 0.59375 -0.9736328
vt 0.59375 -0.8349609
f 400/400/400 401/401/401 402/402/402
f 401/401/401 403/403/403 402/402/402
v -0.4416504 -0.0002441406 0.4926758
v 0 -0.0002441406 0.1037598
v 0 -0.0002441406 0.4926758
v 0.4853516 -0.0002441406 0.4926758
vn -0.2773438 -0.9492188 -0.1464844
vn 0 -1 0
vn 0 -1 0
vn 0.2910156 -0.9414063 -0.1699219
vt 0.8710938 -0.1445313
vt 0.8769531 -0.1445313
vt 0.8710938 -0.1445313
vt 0.8710938 -0.1445313
f 404/404/404 405/405/405 406/406/406
f 405/405/405 407/407/407 406/406/406
v -0.9179688 1.132813 -0.451416
v -0.6638184 1.408691 -0.451416
v -0.8657227 1.192627 -1.072021
v -0.6311035 1.496094 -1.072021
vn -0.9179688 0.3945313 0.0546875
vn -0.5664063 0.8105469 0.1542969
vn -0.8222656 0.5371094 -0.1914063
vn -0.3457031 0.9296875 -0.1347656
vt 0.2050781 -0.6484375
vt 0.3515625 -0.6484375
vt 0.2265625 -0.421875
vt 0.3632813 -0.421875
f 408/408/408 409/409/409 410/410/410
f 409/409/409 411/411/411 410/410/410
v 0.987793 0.9262695 -1.072021
v 0.9719238 0.5246582 -0.451416
v 0.7578125 0.5185547 -1.112305
v 0.4882813 -0.0002441406 -0.451416
vn 0.9921875 0.1132813 0.04882813
vn 0.9238281 -0.3847656 -0.005859375
vn 0.8222656 -0.5449219 -0.1621094
vn 0.5820313 -0.8125 -0.01953125
vt 0.8955078 -0.09570313
vt 0.8857422 -0.1171875
vt 0.8955078 -0.1171875
vt 0.8857422 -0.1445313
f 412/412/412 413/413/413 414/414/414
f 413/413/413 415/415/415 414/414/414
v -0.9719238 0.5246582 -0.451416
v -0.7578125 0.5185547 -1.112305
v -0.4882813 -0.0002441406 -0.451416
v -0.4228516 -0.0002441406 -1.272949
vn -0.9238281 -0.3847656 -0.005859375
vn -0.8222656 -0.5449219 -0.1621094
vn -0.5820313 -0.8125 -0.01953125
vn -0.484375 -0.8691406 -0.09375
vt 0.8857422 -0.1171875
vt 0.8955078 -0.1171875
vt 0.8857422 -0.1445313
vt 0.8984375 -0.1445313
f 416/416/416 417/417/417 418/418/418
f 417/417/417 419/419/419 418/418/418
v -0.4416504 -0.0002441406 0.4926758
v 0 -0.0002441406 0.4926758
v 0 -0.0002441406 1.223145
v 0.4853516 -0.0002441406 0.4926758
vn -0.2773438 -0.9492188 -0.1464844
vn 0 -1 0
vn 0 -1 0
vn 0.2910156 -0.9414063 -0.1699219
vt 0.06835938 -0.40625
vt 0.1044922 -0.40625
vt 0.1044922 -0.4667969
vt 0.1455078 -0.40625
f 420/420/420 421/421/421 422/422/422
f 421/421/421 423/423/423 422/422/422
v -0.9865723 0.09960938 0.6030273
v -0.4416504 -0.0002441406 0.4926758
v -0.8981934 -0.0002441406 1.04541
v -0.7053223 -0.0002441406 1.223145
vn -0.6777344 -0.3847656 -0.6269531
vn -0.2773438 -0.9492188 -0.1464844
vn -0.7949219 -0.4335938 0.421875
vn -0.3710938 -0.9160156 0.15625
vt 0.02246094 -0.4150391
vt 0.06835938 -0.40625
vt 0.02929688 -0.4521484
vt 0.04589844 -0.4667969
f 424/424/424 425/425/425 426/426/426
f 425/425/425 427/427/427 426/426/426
v -0.8496094 0.01855469 -1.085205
v -0.9985352 0.5185547 -1.303223
v -0.8273926 0.01855469 -1.524414
v -0.7175293 1.052246 -1.526367
vn -0.6582031 -0.5664063 0.4980469
vn -0.9902344 -0.05859375 -0.1191406
vn -0.4511719 -0.5820313 -0.6757813
vn -0.7753906 0.234375 -0.5859375
vt 0.8955078 -0.1435547
vt 0.8994141 -0.1171875
vt 0.9023438 -0.1435547
vt 0.9023438 -0.08886719
f 428/428/428 429/429/429 430/430/430
f 429/429/429 431/431/431 430/430/430
v -0.7175293 1.052246 -1.526367
v -0.8657227 1.192627 -1.072021
v -0.5393066 1.352539 -1.526611
v -0.6311035 1.496094 -1.072021
vn -0.7753906 0.234375 -0.5859375
vn -0.8222656 0.5371094 -0.1914063
vn -0.4316406 0.7480469 -0.5039063
vn -0.3457031 0.9296875 -0.1347656
vt 0.2900391 -0.2558594
vt 0.2265625 -0.421875
vt 0.3964844 -0.2558594
vt 0.3632813 -0.421875
f 432/432/432 433/433/433 434/434/434
f 433/433/433 435/435/435 434/434/434
v 0.7194824 0.5185547 -1.546387
v 0.8273926 0.01855469 -1.524414
v 0.5593262 0.01855469 -1.458984
v 0.6279297 0.01855469 -1.134766
vn 0.5390625 -0.2519531 -0.8027344
vn 0.4511719 -0.5820313 -0.6757813
vn -0.9257813 -0.234375 -0.296875
vn -0.4570313 -0.5605469 0.6914063
vt 0.9023438 -0.1171875
vt 0.9023438 -0.1435547
vt 0.9013672 -0.1435547
vt 0.8964844 -0.1435547
f 436/436/436 437/437/437 438/438/438
f 437/437/437 439/439/439 438/438/438
v -0.7250977 0.01879883 0.1169434
v -0.7177734 0.01879883 0.3813477
v -0.9831543 0.01879883 0.128418
v -0.9821777 0.01879883 0.3513184
vn 0.3730469 -0.4941406 -0.7851563
vn 0.6601563 -0.6855469 0.3085938
vn -0.625 -0.6972656 -0.3496094
vn -0.5234375 -0.3808594 0.7617188
vt 0.8769531 -0.1435547
vt 0.8730469 -0.1435547
vt 0.8769531 -0.1435547
vt 0.8730469 -0.1435547
f 440/440/440 441/441/441 442/442/442
f 441/441/441 443/443/443 442/442/442
v 0.8657227 1.192627 -1.072021
v 0.7175293 1.052246 -1.526367
v 0.5393066 1.352539 -1.526611
v 0.296875 0.9487305 -2.135498
vn 0.8222656 0.5371094 -0.1914063
vn 0.7753906 0.234375 -0.5859375
vn 0.4316406 0.7480469 -0.5039063
vn 0.5488281 0.4980469 -0.671875
vt 0.9609375 -0.421875
vt 0.8974609 -0.2558594
vt 0.7910156 -0.2558594
vt 0.7021484 -0.03320313
f 444/444/444 445/445/445 446/446/446
f 445/445/445 447/447/447 446/446/446
v 0.9790039 0.7641602 0.009277344
v 0.9831543 0.01879883 0.128418
v 0.7250977 0.01879883 0.1169434
v 0.6311035 1.496094 -1.072021
v 0.8657227 1.192627 -1.072021
v 0.5393066 1.352539 -1.526611
v 0.6279297 0.01855469 -1.134766
v 0.8273926 0.01855469 -1.524414
v 0.8496094 0.01855469 -1.085205
v -0.6638184 1.408691 -0.451416
v 0 1.498291 -0.451416
v -0.6311035 1.496094 -1.072021
v 0 -0.0002441406 -0.451416
v 0 -0.0002441406 -1.272949
v 0.4228516 -0.0002441406 -1.272949
v 0 -0.0002441406 1.223145
v -0.7053223 -0.0002441406 1.223145
v -0.4416504 -0.0002441406 0.4926758
v 0.715332 0.4191895 0.3771973
v 0.7177734 0.01879883 0.3813477
v 0.9821777 0.01879883 0.3513184
v 0.715332 0.4191895 0.3771973
v 0.8115234 0.5461426 0.4926758
v 0.4853516 -0.0002441406 0.4926758
v 0.2050781 1.018799 -2.019531
v 0 1.256592 -1.977783
v 0.2050781 1.214844 -1.73999
v 0.2297363 1.315186 -1.605713
v 0 1.566406 -1.505859
v 0.2297363 1.466553 -1.254639
v 0.2519531 1.526855 -1.067383
v 0 1.710938 -0.8349609
v 0.2519531 1.478271 -0.651123
v 0.2519531 1.47168 -0.5383301
v 0 1.608887 -0.2753906
v 0.2519531 1.346191 -0.1381836
v 0.2519531 1.299561 0.002197266
v 0 1.409668 0.2814941
v 0.2519531 1.123291 0.3979492
v -0.7194824 0.5185547 -1.546387
v -0.7578125 0.5185547 -1.112305
v -0.5593262 0.01855469 -1.458984
v -0.296875 0.9487305 -2.135498
v -0.7175293 1.052246 -1.526367
v -0.5393066 1.352539 -1.526611
v 0.715332 0.4191895 0.3771973
v 0.7426758 0.4191895 0.05883789
v 0.7177734 0.01879883 0.3813477
v 0 0.03930664 2.811035
v 0.7436523 -0.0002441406 2.47583
v 0.6286621 0.03930664 2.718994
vn 0.9628906 0.02148438 -0.2714844
vn 0.625 -0.6972656 -0.3496094
vn -0.3730469 -0.4941406 -0.7851563
vn 0.3457031 0.9296875 -0.1347656
vn 0.8222656 0.5371094 -0.1914063
vn 0.4316406 0.7480469 -0.5039063
vn -0.4570313 -0.5605469 0.6914063
vn 0.4511719 -0.5820313 -0.6757813
vn 0.6582031 -0.5664063 0.4980469
vn -0.5664063 0.8105469 0.1542969
vn 0 0.9765625 0.2167969
vn -0.3457031 0.9296875 -0.1347656
vn 0 -1 0
vn 0 -1 0
vn 0.484375 -0.8691406 -0.09375
vn 0 -1 0
vn -0.3710938 -0.9160156 0.15625
vn -0.2773438 -0.9492188 -0.1464844
vn 0.7929688 -0.3457031 0.5039063
vn -0.6601563 -0.6855469 0.3085938
vn 0.5234375 -0.3808594 0.7617188
vn 0.7929688 -0.3457031 0.5039063
vn 0.8066406 -0.05859375 -0.5878906
vn 0.2910156 -0.9414063 -0.1699219
vn 0.3632813 0.4570313 -0.8125
vn 0 0.8183594 -0.5742188
vn 0.3632813 0.9199219 -0.1523438
vn 0.3632813 0.6113281 -0.703125
vn 0 0.9179688 -0.3964844
vn 0.3632813 0.9316406 0.03710938
vn 0.3632813 0.8808594 -0.3027344
vn 0 0.9941406 0.1152344
vn 0.3632813 0.7871094 0.4960938
vn 0.3632813 0.921875 -0.1328125
vn 0 0.9550781 0.2988281
vn 0.3632813 0.6816406 0.6347656
vn 0.3691406 0.9277344 -0.03320313
vn 0 0.9160156 0.4003906
vn 0.3671875 0.609375 0.703125
vn -0.5390625 -0.2519531 -0.8027344
vn 0.71875 0.1875 0.6679688
vn 0.9257813 -0.234375 -0.296875
vn -0.5488281 0.4980469 -0.671875
vn -0.7753906 0.234375 -0.5859375
vn -0.4316406 0.7480469 -0.5039063
vn -0.9960938 -0.0078125 -0.0859375
vn -0.8730469 -0.04882813 -0.484375
vn -0.6601563 -0.6855469 0.3085938
vn 0 -0.7460938 0.6660156
vn 0.7519531 -0.6269531 0.2070313
vn 0.4550781 -0.578125 0.6777344
vt 0.8789063 -0.1044922
vt 0.8769531 -0.1435547
vt 0.8769531 -0.1435547
vt 0.8242188 -0.421875
vt 0.9609375 -0.421875
vt 0.7910156 -0.2558594
vt 0.8964844 -0.1435547
vt 0.9023438 -0.1435547
vt 0.8955078 -0.1435547
vt 0.3515625 -0.6484375
vt 0.59375 -0.6484375
vt 0.3632813 -0.421875
vt 0.8857422 -0.1445313
vt 0.8984375 -0.1445313
vt 0.8984375 -0.1445313
vt 0.1044922 -0.4667969
vt 0.04589844 -0.4667969
vt 0.06835938 -0.40625
vt 0.8730469 -0.1220703
vt 0.8730469 -0.1435547
vt 0.8730469 -0.1435547
vt 0.8730469 -0.1220703
vt 0.8710938 -0.1152344
vt 0.8710938 -0.1445313
vt 0.2617188 -0.01757813
vt 0.1376953 -0.1357422
vt 0.2617188 -0.2587891
vt 0.2617188 -0.01757813
vt 0.1376953 -0.1357422
vt 0.2617188 -0.2587891
vt 0.2617188 -0.01757813
vt 0.1376953 -0.1357422
vt 0.2617188 -0.2587891
vt 0.2617188 -0.01757813
vt 0.1376953 -0.1357422
vt 0.2617188 -0.2587891
vt 0.2617188 -0.01757813
vt 0.1376953 -0.1357422
vt 0.2617188 -0.2587891
vt 0.9023438 -0.1171875
vt 0.8955078 -0.1171875
vt 0.9013672 -0.1435547
vt 0.4853516 -0.03320313
vt 0.2900391 -0.2558594
vt 0.3964844 -0.2558594
vt 0.8730469 -0.1220703
vt 0.8779297 -0.1220703
vt 0.8730469 -0.1435547
vt 0.1044922 -0.6005859
vt 0.1669922 -0.5722656
vt 0.1572266 -0.5927734
f 448/448/448 449/449/449 450/450/450
f 451/451/451 452/452/452 453/453/453
f 454/454/454 455/455/455 456/456/456
f 457/457/457 458/458/458 459/459/459
f 460/460/460 461/461/461 462/462/462
f 463/463/463 464/464/464 465/465/465
f 466/466/466 467/467/467 468/468/468
f 469/469/469 470/470/470 471/471/471
f 472/472/472 473/473/473 474/474/474
f 475/475/475 476/476/476 477/477/477
f 478/478/478 479/479/479 480/480/480
f 481/481/481 482/482/482 483/483/483
f 484/484/484 485/485/485 486/486/486
f 487/487/487 488/488/488 489/489/489
f 490/490/490 491/491/491 492/492/492
f 493/493/493 494/494/494 495/495/495
f 496/496/496 497/497/497 498/498/498
