# Created by MKDS Course Modifier
mtllib Hippo 1.mtl
g polygon0
usemtl Material66
v -0.9631348 0.5888672 1.460205
v -0.3449707 0.5336914 1.604248
v -1.009766 0.7329102 1.517578
v 0 0.5517578 1.735596
v -0.2832031 0.489502 1.959473
v 0.2832031 0.489502 1.959473
v -0.4411621 0.7287598 2.561523
v 0.4401855 0.7275391 2.560791
v -0.4143066 1.164795 2.60498
v 0.4143066 1.164795 2.60498
v -0.2683105 1.513184 2.167236
v 0.2626953 1.513184 2.167236
v 0.3146973 2.578369 1.882568
v 1.085205 2.209961 1.59082
v 0.4577637 2.851318 1.478271
vn -0.8417969 -0.3300781 0.4277344
vn 0.01953125 -0.6132813 0.7890625
vn -0.7382813 -0.6542969 0.1601563
vn 0 -0.9882813 0.1484375
vn -0.171875 -0.984375 0.0390625
vn 0.1464844 -0.984375 0.08789063
vn -0.2226563 -0.6660156 0.7109375
vn 0.2207031 -0.5058594 0.8339844
vn -0.1972656 0.3945313 0.8984375
vn 0.1914063 0.5546875 0.8105469
vn -0.1601563 0.5234375 0.8378906
vn 0.2226563 0.5097656 0.8320313
vn 0.2070313 0.4707031 0.8574219
vn 0.7011719 0.3964844 0.5917969
vn 0.2539063 0.8457031 0.46875
vt 0.06054688 -0.9658203
vt 0.2636719 -0.9804688
vt 0.04492188 -0.9208984
vt 0.3681641 -0.9726563
vt 0.2822266 -0.8779297
vt 0.4550781 -0.8779297
vt 0.2744141 -0.8613281
vt 0.4619141 -0.8613281
vt 0.2421875 -0.7324219
vt 0.4941406 -0.7324219
vt 0.2880859 -0.5830078
vt 0.4492188 -0.5830078
vt 0.4638672 -0.265625
vt 0.703125 -0.3867188
vt 0.5019531 -0.1835938
f 1/1/1 2/2/2 3/3/3
f 2/2/2 4/4/4 3/3/3
f 3/3/3 4/4/4 5/5/5
f 4/4/4 6/6/6 5/5/5
f 5/5/5 6/6/6 7/7/7
f 6/6/6 8/8/8 7/7/7
f 7/7/7 8/8/8 9/9/9
f 8/8/8 10/10/10 9/9/9
f 9/9/9 10/10/10 11/11/11
f 10/10/10 12/12/12 11/11/11
f 11/11/11 12/12/12 13/13/13
f 12/12/12 14/14/14 13/13/13
f 13/13/13 14/14/14 15/15/15
v 1.091064 1.045654 1.576416
v 1.085938 0.8742676 1.868408
v 1.009766 0.7329102 1.517578
v 1.007324 0.720459 1.919922
v 0.2832031 0.489502 1.959473
v 0.9919434 0.7822266 2.210693
v 0.4401855 0.7275391 2.560791
v 1.039795 1.036621 2.349854
v 0.4143066 1.164795 2.60498
v 0.7075195 1.465576 2.015381
v 0.2626953 1.513184 2.167236
v 1.085205 2.209961 1.59082
vn 0.9882813 -0.09375 0.1152344
vn 0.984375 -0.1582031 0.0703125
vn 0.7402344 -0.6484375 0.1757813
vn 0.6542969 -0.75 0.0859375
vn 0.1464844 -0.984375 0.08789063
vn 0.6542969 -0.6738281 0.34375
vn 0.2207031 -0.5058594 0.8339844
vn 0.828125 0.1621094 0.5371094
vn 0.1914063 0.5546875 0.8105469
vn 0.5859375 0.4921875 0.6425781
vn 0.2226563 0.5097656 0.8320313
vn 0.7011719 0.3964844 0.5917969
vt 0.7236328 -0.7373047
vt 0.7119141 -0.7626953
vt 0.6914063 -0.9208984
vt 0.6757813 -0.8378906
vt 0.4550781 -0.8779297
vt 0.6611328 -0.8232422
vt 0.4619141 -0.8613281
vt 0.7089844 -0.7675781
vt 0.4941406 -0.7324219
vt 0.5839844 -0.6025391
vt 0.4492188 -0.5830078
vt 0.703125 -0.3867188
f 16/16/16 17/17/17 18/18/18
f 17/17/17 19/19/19 18/18/18
f 18/18/18 19/19/19 20/20/20
f 19/19/19 21/21/21 20/20/20
f 20/20/20 21/21/21 22/22/22
f 21/21/21 23/23/23 22/22/22
f 22/22/22 23/23/23 24/24/24
f 23/23/23 25/25/25 24/24/24
f 24/24/24 25/25/25 26/26/26
f 25/25/25 27/27/27 26/26/26
v -1.009766 0.7329102 1.517578
v -1.125732 0.8742676 1.868408
v -1.091064 1.045654 1.576416
v -1.031982 1.15332 1.716064
v -1.034912 1.37207 1.681396
v -0.7060547 1.465576 2.015381
v -1.085205 2.209961 1.59082
v -0.2683105 1.513184 2.167236
v -0.3132324 2.578369 1.882568
v 0.3146973 2.578369 1.882568
v 0.4577637 2.851318 1.478271
vn -0.7382813 -0.6542969 0.1601563
vn -0.9804688 -0.1855469 0.06835938
vn -0.9941406 0.01367188 0.1054688
vn -0.9042969 0.3222656 0.2792969
vn -0.9179688 0.03515625 0.3945313
vn -0.5878906 0.4902344 0.6445313
vn -0.7011719 0.3964844 0.5917969
vn -0.1601563 0.5234375 0.8378906
vn -0.2070313 0.5976563 0.7753906
vn 0.2070313 0.4707031 0.8574219
vn 0.2539063 0.8457031 0.46875
vt 0.04492188 -0.9208984
vt 0.02441406 -0.7617188
vt 0.01367188 -0.7373047
vt 0.05371094 -0.7021484
vt 0.03320313 -0.6376953
vt 0.1533203 -0.6025391
vt 0.03515625 -0.3857422
vt 0.2880859 -0.5830078
vt 0.2724609 -0.265625
vt 0.4638672 -0.265625
vt 0.5019531 -0.1835938
f 28/28/28 29/29/29 30/30/30
f 29/29/29 31/31/31 30/30/30
f 30/30/30 31/31/31 32/32/32
f 31/31/31 33/33/33 32/32/32
f 32/32/32 33/33/33 34/34/34
f 33/33/33 35/35/35 34/34/34
f 34/34/34 35/35/35 36/36/36
f 35/35/35 37/37/37 36/36/36
f 36/36/36 37/37/37 38/38/38
v 0.4577637 2.851318 1.478271
v 1.085205 2.209961 1.59082
v 0.6274414 3.008301 0.6708984
v 1.305176 2.233643 0.5776367
v 1.362061 2.25708 0.001953125
v 1.237793 1.04248 0.5268555
v 1.381836 1.039063 -0.003417969
v 0.9609375 0.6081543 0.6745605
vn 0.2539063 0.8457031 0.46875
vn 0.7011719 0.3964844 0.5917969
vn 0.3964844 0.9042969 0.1601563
vn 0.9550781 0.2421875 0.1660156
vn 0.9335938 0.3554688 0.02539063
vn 0.9707031 -0.1640625 0.1796875
vn 0.9589844 -0.2851563 -0.01367188
vn 0.8261719 -0.5585938 -0.08007813
vt 0.8017578 -0.625
vt 0.7890625 -0.7207031
vt 0.8945313 -0.6015625
vt 0.90625 -0.7167969
vt 0.9697266 -0.7138672
vt 0.9111328 -0.8925781
vt 0.9697266 -0.8935547
vt 0.8945313 -0.9589844
f 39/39/39 40/40/40 41/41/41
f 40/40/40 42/42/42 41/41/41
f 41/41/41 42/42/42 43/43/43
f 42/42/42 44/44/44 43/43/43
f 43/43/43 44/44/44 45/45/45
f 44/44/44 46/46/46 45/45/45
v -0.4577637 2.851318 1.478271
v -0.6274414 3.008301 0.6708984
v -1.085205 2.209961 1.59082
v -1.305176 2.233643 0.5776367
v -1.034912 1.37207 1.681396
v -1.237793 1.04248 0.5268555
v -1.091064 1.045654 1.576416
v -1.009766 0.7329102 1.517578
vn -0.2539063 0.8847656 0.390625
vn -0.4726563 0.8652344 0.1699219
vn -0.7011719 0.3964844 0.5917969
vn -0.9453125 0.2792969 0.1679688
vn -0.9179688 0.03515625 0.3945313
vn -0.9609375 -0.21875 0.1699219
vn -0.9941406 0.01367188 0.1054688
vn -0.7382813 -0.6542969 0.1601563
vt 0.8017578 -0.625
vt 0.8945313 -0.6015625
vt 0.7890625 -0.7207031
vt 0.90625 -0.7167969
vt 0.7890625 -0.8066406
vt 0.9111328 -0.8925781
vt 0.7900391 -0.8925781
vt 0.7978516 -0.9404297
f 47/47/47 48/48/48 49/49/49
f 48/48/48 50/50/50 49/49/49
f 49/49/49 50/50/50 51/51/51
f 50/50/50 52/52/52 51/51/51
f 51/51/51 52/52/52 53/53/53
f 52/52/52 54/54/54 53/53/53
v -0.4143066 1.164795 2.60498
v -1.039795 1.036621 2.349854
v -0.4411621 0.7287598 2.561523
v -0.9846191 0.7854004 2.215332
v -0.2832031 0.489502 1.959473
v -1.007324 0.720459 1.919922
v -1.009766 0.7329102 1.517578
v -1.125732 0.8742676 1.868408
vn -0.1972656 0.3945313 0.8984375
vn -0.8085938 0.1777344 0.5605469
vn -0.2226563 -0.6660156 0.7109375
vn -0.6074219 -0.703125 0.3671875
vn -0.171875 -0.984375 0.0390625
vn -0.5839844 -0.8066406 0.09765625
vn -0.7382813 -0.6542969 0.1601563
vn -0.9804688 -0.1855469 0.06835938
vt 0.2421875 -0.7324219
vt 0.02734375 -0.7675781
vt 0.2744141 -0.8613281
vt 0.078125 -0.8222656
vt 0.2822266 -0.8779297
vt 0.06152344 -0.8378906
vt 0.04492188 -0.9208984
vt 0.02441406 -0.7617188
f 55/55/55 56/56/56 57/57/57
f 56/56/56 58/58/58 57/57/57
f 57/57/57 58/58/58 59/59/59
f 58/58/58 60/60/60 59/59/59
f 59/59/59 60/60/60 61/61/61
f 60/60/60 62/62/62 61/61/61
v -0.9631348 0.5888672 1.460205
v -1.009766 0.7329102 1.517578
v -0.9609375 0.6081543 0.6745605
v -1.237793 1.04248 0.5268555
v -1.381836 1.039063 -0.003417969
v -1.305176 2.233643 0.5776367
v -1.362061 2.25708 0.001953125
v -0.6171875 3.069336 0.001953125
vn -0.8417969 -0.3300781 0.4277344
vn -0.7382813 -0.6542969 0.1601563
vn -0.7070313 -0.6679688 -0.2363281
vn -0.9609375 -0.21875 0.1699219
vn -0.9667969 -0.2558594 0.001953125
vn -0.9453125 0.2792969 0.1679688
vn -0.9277344 0.3691406 -0.04492188
vn -0.4003906 0.9140625 -0.0703125
vt 0.8046875 -0.9619141
vt 0.7978516 -0.9404297
vt 0.8945313 -0.9589844
vt 0.9111328 -0.8925781
vt 0.9697266 -0.8935547
vt 0.90625 -0.7167969
vt 0.9697266 -0.7138672
vt 0.9697266 -0.5898438
f 63/63/63 64/64/64 65/65/65
f 64/64/64 66/66/66 65/65/65
f 65/65/65 66/66/66 67/67/67
f 66/66/66 68/68/68 67/67/67
f 67/67/67 68/68/68 69/69/69
f 68/68/68 70/70/70 69/69/69
v 0.6171875 3.069336 0.001953125
v -0.6171875 3.069336 0.001953125
v 0.6274414 3.008301 0.6708984
v -0.6274414 3.008301 0.6708984
v -0.4577637 2.851318 1.478271
vn 0.46875 0.8769531 -0.1074219
vn -0.4003906 0.9140625 -0.0703125
vn 0.3964844 0.9042969 0.1601563
vn -0.4726563 0.8652344 0.1699219
vn -0.2539063 0.8847656 0.390625
vt 0.9697266 -0.5898438
vt 0.9697266 -0.421875
vt 0.8955078 -0.5917969
vt 0.8955078 -0.4199219
vt 0.8017578 -0.4433594
f 71/71/71 72/72/72 73/73/73
f 72/72/72 74/74/74 73/73/73
f 73/73/73 74/74/74 75/75/75
v 1.091064 1.045654 1.576416
v 1.034912 1.37207 1.681396
v 1.032715 1.15332 1.716064
v 0.7075195 1.465576 2.015381
v 1.039795 1.036621 2.349854
vn 0.9882813 -0.09375 0.1152344
vn 0.9199219 0.03515625 0.3925781
vn 0.9179688 0.2734375 0.2871094
vn 0.5859375 0.4921875 0.6425781
vn 0.828125 0.1621094 0.5371094
vt 0.7236328 -0.7373047
vt 0.7041016 -0.6376953
vt 0.6835938 -0.7021484
vt 0.5839844 -0.6025391
vt 0.7089844 -0.7675781
f 76/76/76 77/77/77 78/78/78
f 77/77/77 79/79/79 78/78/78
f 78/78/78 79/79/79 80/80/80
v -0.4143066 1.164795 2.60498
v -0.7060547 1.465576 2.015381
v -1.039795 1.036621 2.349854
v -1.031982 1.15332 1.716064
v -1.125732 0.8742676 1.868408
vn -0.1972656 0.3945313 0.8984375
vn -0.5878906 0.4902344 0.6445313
vn -0.8085938 0.1777344 0.5605469
vn -0.9042969 0.3222656 0.2792969
vn -0.9804688 -0.1855469 0.06835938
vt 0.2421875 -0.7324219
vt 0.1533203 -0.6025391
vt 0.02734375 -0.7675781
vt 0.05371094 -0.7021484
vt 0.02441406 -0.7617188
f 81/81/81 82/82/82 83/83/83
f 82/82/82 84/84/84 83/83/83
f 83/83/83 84/84/84 85/85/85
v 1.091064 1.045654 1.576416
v 1.032715 1.15332 1.716064
v 1.085938 0.8742676 1.868408
v 1.039795 1.036621 2.349854
v 0.9919434 0.7822266 2.210693
vn 0.9882813 -0.09375 0.1152344
vn 0.9179688 0.2734375 0.2871094
vn 0.984375 -0.1582031 0.0703125
vn 0.828125 0.1621094 0.5371094
vn 0.6542969 -0.6738281 0.34375
vt 0.7236328 -0.7373047
vt 0.6835938 -0.7021484
vt 0.7119141 -0.7626953
vt 0.7089844 -0.7675781
vt 0.6611328 -0.8232422
f 86/86/86 87/87/87 88/88/88
f 87/87/87 89/89/89 88/88/88
f 88/88/88 89/89/89 90/90/90
v 0.642334 2.521729 1.24292
v 0.9841309 2.929199 1.044922
v 0.7871094 2.412354 0.8955078
v 1.344482 2.550049 1.064697
v 0.8830566 2.301514 1.292969
vn -0.6113281 0.5722656 0.546875
vn -0.2070313 0.7128906 -0.6699219
vn -0.1210938 -0.1582031 -0.9804688
vn 0.7363281 -0.3007813 -0.6074219
vn 0.3984375 -0.5644531 0.7226563
vt 0.5771484 -0.1621094
vt 0.5683594 -0.07617188
vt 0.6064453 -0.1572266
vt 0.6533203 -0.07714844
vt 0.6298828 -0.1591797
f 91/91/91 92/92/92 93/93/93
f 92/92/92 94/94/94 93/93/93
f 93/93/93 94/94/94 95/95/95
v 0.9841309 2.929199 1.044922
v 0.642334 2.521729 1.24292
v 1.326416 2.945801 1.256104
v 0.8830566 2.301514 1.292969
v 1.344482 2.550049 1.064697
vn -0.2070313 0.7128906 -0.6699219
vn -0.6113281 0.5722656 0.546875
vn 0.01757813 0.1816406 0.9824219
vn 0.3984375 -0.5644531 0.7226563
vn 0.7363281 -0.3007813 -0.6074219
vt 0.7265625 -0.1357422
vt 0.7519531 -0.3818359
vt 0.8320313 -0.015625
vt 0.9033203 -0.3730469
vt 0.9697266 -0.1376953
f 96/96/96 97/97/97 98/98/98
f 97/97/97 99/99/99 98/98/98
f 98/98/98 99/99/99 100/100/100
v -1.344482 2.550049 1.064697
v -0.8830566 2.301514 1.292969
v -1.326416 2.945801 1.256104
v -0.642334 2.521729 1.24292
v -0.9841309 2.929199 1.044922
vn -0.7363281 -0.3007813 -0.6074219
vn -0.3984375 -0.5644531 0.7226563
vn -0.01757813 0.1816406 0.9824219
vn 0.6113281 0.5722656 0.546875
vn 0.2070313 0.7128906 -0.6699219
vt 0.9697266 -0.1376953
vt 0.9033203 -0.3730469
vt 0.8320313 -0.015625
vt 0.7519531 -0.3818359
vt 0.7265625 -0.1357422
f 101/101/101 102/102/102 103/103/103
f 102/102/102 104/104/104 103/103/103
f 103/103/103 104/104/104 105/105/105
v -0.642334 2.521729 1.24292
v -0.7871094 2.412354 0.8955078
v -0.9841309 2.929199 1.044922
v -1.344482 2.550049 1.064697
v -1.326416 2.945801 1.256104
vn 0.6113281 0.5722656 0.546875
vn 0.1210938 -0.1582031 -0.9804688
vn 0.2070313 0.7128906 -0.6699219
vn -0.7363281 -0.3007813 -0.6074219
vn -0.4667969 0.4023438 -0.7871094
vt 0.5771484 -0.1621094
vt 0.6064453 -0.1572266
vt 0.5683594 -0.07617188
vt 0.6533203 -0.07714844
vt 0.6054688 -0.03417969
f 106/106/106 107/107/107 108/108/108
f 107/107/107 109/109/109 108/108/108
f 108/108/108 109/109/109 110/110/110
v 0.9631348 0.5888672 1.460205
v 0.9609375 0.6081543 0.6745605
v 1.009766 0.7329102 1.517578
v 1.091064 1.045654 1.576416
vn 0.6289063 -0.3808594 0.6777344
vn 0.8261719 -0.5585938 -0.08007813
vn 0.7402344 -0.6484375 0.1757813
vn 0.9882813 -0.09375 0.1152344
vt 0.8046875 -0.9619141
vt 0.8945313 -0.9589844
vt 0.7978516 -0.9404297
vt 0.7900391 -0.8925781
f 111/111/111 112/112/112 113/113/113
f 112/112/112 114/114/114 113/113/113
v 0.9631348 0.5888672 1.460205
v 1.009766 0.7329102 1.517578
v 0.3449707 0.5336914 1.604248
v 0 0.5517578 1.735596
vn 0.6289063 -0.3808594 0.6777344
vn 0.7402344 -0.6484375 0.1757813
vn -0.2617188 -0.6660156 0.6992188
vn 0 -0.9882813 0.1484375
vt 0.6767578 -0.9658203
vt 0.6914063 -0.9208984
vt 0.4736328 -0.9804688
vt 0.3681641 -0.9726563
f 115/115/115 116/116/116 117/117/117
f 116/116/116 118/118/118 117/117/117
v 1.034912 1.37207 1.681396
v 1.091064 1.045654 1.576416
v 1.237793 1.04248 0.5268555
v 0.9609375 0.6081543 0.6745605
vn 0.9199219 0.03515625 0.3925781
vn 0.9882813 -0.09375 0.1152344
vn 0.9707031 -0.1640625 0.1796875
vn 0.8261719 -0.5585938 -0.08007813
vt 0.7890625 -0.8066406
vt 0.7900391 -0.8925781
vt 0.9111328 -0.8925781
vt 0.8945313 -0.9589844
f 119/119/119 120/120/120 121/121/121
f 120/120/120 122/122/122 121/121/121
v 1.085205 2.209961 1.59082
v 1.034912 1.37207 1.681396
v 1.305176 2.233643 0.5776367
v 1.237793 1.04248 0.5268555
vn 0.7011719 0.3964844 0.5917969
vn 0.9199219 0.03515625 0.3925781
vn 0.9550781 0.2421875 0.1660156
vn 0.9707031 -0.1640625 0.1796875
vt 0.7890625 -0.7207031
vt 0.7890625 -0.8066406
vt 0.90625 -0.7167969
vt 0.9111328 -0.8925781
f 123/123/123 124/124/124 125/125/125
f 124/124/124 126/126/126 125/125/125
v -1.085205 2.209961 1.59082
v -0.3132324 2.578369 1.882568
v -0.4577637 2.851318 1.478271
v 0.4577637 2.851318 1.478271
vn -0.7011719 0.3964844 0.5917969
vn -0.2070313 0.5976563 0.7753906
vn -0.2539063 0.8847656 0.390625
vn 0.2539063 0.8457031 0.46875
vt 0.03515625 -0.3857422
vt 0.2724609 -0.265625
vt 0.2373047 -0.1806641
vt 0.5019531 -0.1835938
f 127/127/127 128/128/128 129/129/129
f 128/128/128 130/130/130 129/129/129
v -1.007324 0.720459 1.919922
v -0.9846191 0.7854004 2.215332
v -1.125732 0.8742676 1.868408
v -1.039795 1.036621 2.349854
vn -0.5839844 -0.8066406 0.09765625
vn -0.6074219 -0.703125 0.3671875
vn -0.9804688 -0.1855469 0.06835938
vn -0.8085938 0.1777344 0.5605469
vt 0.06152344 -0.8378906
vt 0.078125 -0.8222656
vt 0.02441406 -0.7617188
vt 0.02734375 -0.7675781
f 131/131/131 132/132/132 133/133/133
f 132/132/132 134/134/134 133/133/133
v 1.009766 0.7329102 1.517578
v 0.2832031 0.489502 1.959473
v 0 0.5517578 1.735596
v 1.326416 2.945801 1.256104
v 1.344482 2.550049 1.064697
v 0.9841309 2.929199 1.044922
v 0.6171875 3.069336 0.001953125
v 0.6274414 3.008301 0.6708984
v 1.362061 2.25708 0.001953125
v -0.8830566 2.301514 1.292969
v -1.344482 2.550049 1.064697
v -0.7871094 2.412354 0.8955078
v -0.6274414 3.008301 0.6708984
v -0.6171875 3.069336 0.001953125
v -1.305176 2.233643 0.5776367
v -0.2683105 1.513184 2.167236
v -0.7060547 1.465576 2.015381
v -0.4143066 1.164795 2.60498
v 1.085205 2.209961 1.59082
v 0.7075195 1.465576 2.015381
v 1.034912 1.37207 1.681396
v 1.007324 0.720459 1.919922
v 1.085938 0.8742676 1.868408
v 0.9919434 0.7822266 2.210693
v 0.4577637 2.851318 1.478271
v 0.6274414 3.008301 0.6708984
v -0.4577637 2.851318 1.478271
vn 0.7402344 -0.6484375 0.1757813
vn 0.1464844 -0.984375 0.08789063
vn 0 -0.9882813 0.1484375
vn 0.4667969 0.4023438 -0.7871094
vn 0.7363281 -0.3007813 -0.6074219
vn -0.2070313 0.7128906 -0.6699219
vn 0.46875 0.8769531 -0.1074219
vn 0.3964844 0.9042969 0.1601563
vn 0.9335938 0.3554688 0.02539063
vn -0.3984375 -0.5644531 0.7226563
vn -0.7363281 -0.3007813 -0.6074219
vn 0.1210938 -0.1582031 -0.9804688
vn -0.4726563 0.8652344 0.1699219
vn -0.4003906 0.9140625 -0.0703125
vn -0.9453125 0.2792969 0.1679688
vn -0.1601563 0.5234375 0.8378906
vn -0.5878906 0.4902344 0.6445313
vn -0.1972656 0.3945313 0.8984375
vn 0.7011719 0.3964844 0.5917969
vn 0.5859375 0.4921875 0.6425781
vn 0.9199219 0.03515625 0.3925781
vn 0.6542969 -0.75 0.0859375
vn 0.984375 -0.1582031 0.0703125
vn 0.6542969 -0.6738281 0.34375
vn 0.2539063 0.8457031 0.46875
vn 0.3964844 0.9042969 0.1601563
vn -0.2539063 0.8847656 0.390625
vt 0.6914063 -0.9208984
vt 0.4550781 -0.8779297
vt 0.3681641 -0.9726563
vt 0.6054688 -0.03417969
vt 0.6533203 -0.07714844
vt 0.5683594 -0.07617188
vt 0.9697266 -0.5898438
vt 0.8945313 -0.6015625
vt 0.9697266 -0.7138672
vt 0.6298828 -0.1591797
vt 0.6533203 -0.07714844
vt 0.6064453 -0.1572266
vt 0.8945313 -0.6015625
vt 0.9697266 -0.5898438
vt 0.90625 -0.7167969
vt 0.2880859 -0.5830078
vt 0.1533203 -0.6025391
vt 0.2421875 -0.7324219
vt 0.703125 -0.3867188
vt 0.5839844 -0.6025391
vt 0.7041016 -0.6376953
vt 0.6757813 -0.8378906
vt 0.7119141 -0.7626953
vt 0.6611328 -0.8232422
vt 0.8037109 -0.5693359
vt 0.8955078 -0.5917969
vt 0.8017578 -0.4433594
f 135/135/135 136/136/136 137/137/137
f 138/138/138 139/139/139 140/140/140
f 141/141/141 142/142/142 143/143/143
f 144/144/144 145/145/145 146/146/146
f 147/147/147 148/148/148 149/149/149
f 150/150/150 151/151/151 152/152/152
f 153/153/153 154/154/154 155/155/155
f 156/156/156 157/157/157 158/158/158
f 159/159/159 160/160/160 161/161/161
g polygon1
usemtl Material56
v 1.362061 2.25708 0.001953125
v 1.085205 2.091797 -1.588623
v 0.6171875 3.069336 0.001953125
v 0.4577637 2.747314 -1.483887
v -0.6171875 3.069336 0.001953125
v -0.4577637 2.747314 -1.483887
v -1.085205 2.091797 -1.588623
vn 0.9335938 0.3554688 0.02539063
vn 0.7890625 0.3515625 -0.5039063
vn 0.46875 0.8769531 -0.1074219
vn 0.21875 0.8144531 -0.5371094
vn -0.4003906 0.9140625 -0.0703125
vn -0.2734375 0.7421875 -0.6132813
vn -0.7890625 0.3515625 -0.5039063
vt 0.8515625 -0.08691406
vt 0.9472656 -0.09765625
vt 0.8515625 -0.03222656
vt 0.9404297 -0.05859375
vt 0.8515625 -0.03222656
vt 0.9404297 -0.05859375
vt 0.9472656 -0.09765625
f 162/162/162 163/163/163 164/164/164
f 163/163/163 165/165/165 164/164/164
f 164/164/164 165/165/165 166/166/166
f 165/165/165 167/167/167 166/166/166
f 166/166/166 167/167/167 168/168/168
v -0.3652344 0.5979004 -1.506104
v 0 0.7963867 -1.775146
v -0.3342285 0.3950195 -0.6115723
v 0.3342285 0.3950195 -0.6115723
v -0.2468262 0.3950195 0.7299805
v 0.2468262 0.3950195 0.7299805
vn 0.390625 -0.609375 -0.6894531
vn 0 -0.6835938 -0.7304688
vn 0.09570313 -0.9726563 0.2148438
vn -0.21875 -0.9726563 0.06640625
vn 0.265625 -0.9628906 -0.04492188
vn -0.15625 -0.9453125 -0.2851563
vt 0.8701172 -0.2773438
vt 0.9677734 -0.4101563
vt 0.546875 -0.2890625
vt 0.546875 -0.53125
vt 0.06152344 -0.3203125
vt 0.06152344 -0.4990234
f 169/169/169 170/170/170 171/171/171
f 170/170/170 172/172/172 171/171/171
f 171/171/171 172/172/172 173/173/173
f 172/172/172 174/174/174 173/173/173
v 0.9909668 0.6081543 -0.6115723
v 1.062988 0.6777344 -1.401855
v 1.09082 0.8449707 -1.457031
v 0.3652344 0.5979004 -1.506104
v 0 0.7963867 -1.775146
v 0.3342285 0.3950195 -0.6115723
vn 0.7792969 -0.5371094 0.3222656
vn 0.7578125 -0.3066406 -0.578125
vn 0.6933594 -0.4765625 -0.5390625
vn -0.125 -0.515625 -0.8476563
vn 0 -0.6835938 -0.7304688
vn -0.21875 -0.9726563 0.06640625
vt 0.546875 -0.7685547
vt 0.8330078 -0.7949219
vt 0.8701172 -0.8525391
vt 0.8701172 -0.5419922
vt 0.9677734 -0.4101563
vt 0.546875 -0.53125
f 175/175/175 176/176/176 177/177/177
f 176/176/176 178/178/178 177/177/177
f 177/177/177 178/178/178 179/179/179
f 178/178/178 180/180/180 179/179/179
v 0 0.7963867 -1.775146
v 1.099609 1.045654 -1.588623
v 1.09082 0.8449707 -1.457031
v 1.381836 1.039063 -0.003417969
v 0.9909668 0.6081543 -0.6115723
vn 0 -0.6835938 -0.7304688
vn 0.6621094 -0.2109375 -0.71875
vn 0.6933594 -0.4765625 -0.5390625
vn 0.9589844 -0.2851563 -0.01367188
vn 0.7792969 -0.5371094 0.3222656
vt 0.9677734 -0.4101563
vt 0.9375 -0.9238281
vt 0.8701172 -0.8525391
vt 0.3261719 -0.9101563
vt 0.546875 -0.7685547
f 181/181/181 182/182/182 183/183/183
f 182/182/182 184/184/184 183/183/183
f 183/183/183 184/184/184 185/185/185
v -1.062744 0.6777344 -1.401855
v -0.9909668 0.6081543 -0.6115723
v -1.09082 0.8449707 -1.457031
v -1.381836 1.039063 -0.003417969
v -1.099609 1.045654 -1.588623
vn -0.640625 -0.2949219 -0.7089844
vn -0.8300781 -0.5273438 0.1816406
vn -0.6933594 -0.4765625 -0.5390625
vn -0.9667969 -0.2558594 0.001953125
vn -0.6621094 -0.2109375 -0.71875
vt 0.8330078 -0.7949219
vt 0.546875 -0.7685547
vt 0.8701172 -0.8525391
vt 0.3261719 -0.9101563
vt 0.9375 -0.9238281
f 186/186/186 187/187/187 188/188/188
f 187/187/187 189/189/189 188/188/188
f 188/188/188 189/189/189 190/190/190
v -1.099609 1.045654 -1.588623
v -1.381836 1.039063 -0.003417969
v -1.085205 2.091797 -1.588623
v -1.362061 2.25708 0.001953125
v -0.6171875 3.069336 0.001953125
vn -0.6621094 -0.2109375 -0.71875
vn -0.9667969 -0.2558594 0.001953125
vn -0.7890625 0.3515625 -0.5039063
vn -0.9277344 0.3691406 -0.04492188
vn -0.4003906 0.9140625 -0.0703125
vt 0.9472656 -0.1591797
vt 0.8525391 -0.1601563
vt 0.9472656 -0.09765625
vt 0.8515625 -0.08691406
vt 0.8515625 -0.03222656
f 191/191/191 192/192/192 193/193/193
f 192/192/192 194/194/194 193/193/193
f 193/193/193 194/194/194 195/195/195
v -0.4577637 2.747314 -1.483887
v 0.4577637 2.747314 -1.483887
v 0 1.897461 -2.021729
v 1.085205 2.091797 -1.588623
v 1.099609 1.045654 -1.588623
vn -0.2734375 0.7421875 -0.6132813
vn 0.21875 0.8144531 -0.5371094
vn 0 0.1445313 -0.9902344
vn 0.7890625 0.3515625 -0.5039063
vn 0.6621094 -0.2109375 -0.71875
vt 0.7177734 -0.06835938
vt 0.7509766 -0.03808594
vt 0.7607422 -0.08300781
vt 0.7939453 -0.04101563
vt 0.8330078 -0.08398438
f 196/196/196 197/197/197 198/198/198
f 197/197/197 199/199/199 198/198/198
f 198/198/198 199/199/199 200/200/200
v 0 0.7963867 -1.775146
v -1.099609 1.045654 -1.588623
v 0 1.897461 -2.021729
v -1.085205 2.091797 -1.588623
v -0.4577637 2.747314 -1.483887
vn 0 -0.6835938 -0.7304688
vn -0.6621094 -0.2109375 -0.71875
vn 0 0.1445313 -0.9902344
vn -0.7890625 0.3515625 -0.5039063
vn -0.2734375 0.7421875 -0.6132813
vt 0.8007813 -0.1279297
vt 0.7539063 -0.1552734
vt 0.7607422 -0.08300781
vt 0.7148438 -0.1113281
vt 0.7177734 -0.06835938
f 201/201/201 202/202/202 203/203/203
f 202/202/202 204/204/204 203/203/203
f 203/203/203 204/204/204 205/205/205
v -0.8757324 0.02246094 1.313477
v -0.8493652 0.02246094 0.8044434
v -0.4599609 0.02246094 1.354736
v -0.3583984 0.02246094 0.8598633
vn -0.4589844 -0.6386719 0.6191406
vn -0.5644531 -0.7636719 -0.3125
vn 0.4941406 -0.7988281 0.3417969
vn 0.3925781 -0.6523438 -0.6484375
vt 0.3408203 -0.04101563
vt 0.2636719 -0.04101563
vt 0.3408203 -0.1035156
vt 0.2636719 -0.1035156
f 206/206/206 207/207/207 208/208/208
f 207/207/207 209/209/209 208/208/208
v 0.9631348 0.5888672 1.460205
v 0.8757324 0.02246094 1.313477
v 0.9609375 0.6081543 0.6745605
v 0.8493652 0.02246094 0.8044434
vn 0.6289063 -0.3808594 0.6777344
vn 0.5976563 -0.7578125 0.2617188
vn 0.8261719 -0.5585938 -0.08007813
vn 0.3105469 -0.6367188 -0.7050781
vt 0.1347656 -0.03808594
vt 0.08886719 -0.03808594
vt 0.1347656 -0.1044922
vt 0.08886719 -0.1044922
f 210/210/210 211/211/211 212/212/212
f 211/211/211 213/213/213 212/212/212
v 0.3583984 0.02246094 0.8598633
v 0.2468262 0.3950195 0.7299805
v 0.8493652 0.02246094 0.8044434
v 0.9609375 0.6081543 0.6745605
vn -0.5605469 -0.8105469 -0.1660156
vn -0.15625 -0.9453125 -0.2851563
vn 0.3105469 -0.6367188 -0.7050781
vn 0.8261719 -0.5585938 -0.08007813
vt 0.1425781 -0.1044922
vt 0.1953125 -0.1044922
vt 0.1425781 -0.03808594
vt 0.1953125 -0.03808594
f 214/214/214 215/215/215 216/216/216
f 215/215/215 217/217/217 216/216/216
v 0.8757324 0.02246094 1.313477
v 0.9631348 0.5888672 1.460205
v 0.4599609 0.02246094 1.354736
v 0.3449707 0.5336914 1.604248
vn 0.5976563 -0.7578125 0.2617188
vn 0.6289063 -0.3808594 0.6777344
vn -0.2070313 -0.6757813 0.7089844
vn -0.2617188 -0.6660156 0.6992188
vt 0.2041016 -0.03808594
vt 0.2568359 -0.03808594
vt 0.2041016 -0.1044922
vt 0.2568359 -0.1044922
f 218/218/218 219/219/219 220/220/220
f 219/219/219 221/221/221 220/220/220
v 0.4599609 0.02246094 1.354736
v 0.3449707 0.5336914 1.604248
v 0.3583984 0.02246094 0.8598633
v 0.2468262 0.3950195 0.7299805
vn -0.2070313 -0.6757813 0.7089844
vn -0.2617188 -0.6660156 0.6992188
vn -0.5605469 -0.8105469 -0.1660156
vn -0.15625 -0.9453125 -0.2851563
vt 0.03710938 -0.03808594
vt 0.08203125 -0.03808594
vt 0.03710938 -0.1044922
vt 0.08203125 -0.1044922
f 222/222/222 223/223/223 224/224/224
f 223/223/223 225/225/225 224/224/224
v 0.3449707 0.5336914 1.604248
v 0 0.5517578 1.735596
v 0.2468262 0.3950195 0.7299805
v -0.2468262 0.3950195 0.7299805
vn -0.2617188 -0.6660156 0.6992188
vn 0 -0.9882813 0.1484375
vn -0.15625 -0.9453125 -0.2851563
vn 0.265625 -0.9628906 -0.04492188
vt 0.3583984 -0.09179688
vt 0.3525391 -0.07421875
vt 0.4003906 -0.08691406
vt 0.4003906 -0.0625
f 226/226/226 227/227/227 228/228/228
f 227/227/227 229/229/229 228/228/228
v -0.9609375 0.6081543 0.6745605
v -0.8493652 0.02246094 0.8044434
v -0.9631348 0.5888672 1.460205
v -0.8757324 0.02246094 1.313477
vn -0.7070313 -0.6679688 -0.2363281
vn -0.5644531 -0.7636719 -0.3125
vn -0.8417969 -0.3300781 0.4277344
vn -0.4589844 -0.6386719 0.6191406
vt 0.1347656 -0.1044922
vt 0.08886719 -0.1044922
vt 0.1347656 -0.03808594
vt 0.08886719 -0.03808594
f 230/230/230 231/231/231 232/232/232
f 231/231/231 233/233/233 232/232/232
v -0.2468262 0.3950195 0.7299805
v -0.3583984 0.02246094 0.8598633
v -0.9609375 0.6081543 0.6745605
v -0.8493652 0.02246094 0.8044434
vn 0.265625 -0.9628906 -0.04492188
vn 0.3925781 -0.6523438 -0.6484375
vn -0.7070313 -0.6679688 -0.2363281
vn -0.5644531 -0.7636719 -0.3125
vt 0.1953125 -0.1044922
vt 0.1425781 -0.1044922
vt 0.1953125 -0.03808594
vt 0.1425781 -0.03808594
f 234/234/234 235/235/235 236/236/236
f 235/235/235 237/237/237 236/236/236
v -0.9631348 0.5888672 1.460205
v -0.8757324 0.02246094 1.313477
v -0.3449707 0.5336914 1.604248
v -0.4599609 0.02246094 1.354736
vn -0.8417969 -0.3300781 0.4277344
vn -0.4589844 -0.6386719 0.6191406
vn 0.01953125 -0.6132813 0.7890625
vn 0.4941406 -0.7988281 0.3417969
vt 0.2568359 -0.03808594
vt 0.2041016 -0.03808594
vt 0.2568359 -0.1044922
vt 0.2041016 -0.1044922
f 238/238/238 239/239/239 240/240/240
f 239/239/239 241/241/241 240/240/240
v -0.3449707 0.5336914 1.604248
v -0.4599609 0.02246094 1.354736
v -0.2468262 0.3950195 0.7299805
v -0.3583984 0.02246094 0.8598633
vn 0.01953125 -0.6132813 0.7890625
vn 0.4941406 -0.7988281 0.3417969
vn 0.265625 -0.9628906 -0.04492188
vn 0.3925781 -0.6523438 -0.6484375
vt 0.08203125 -0.03808594
vt 0.03710938 -0.03808594
vt 0.08203125 -0.1044922
vt 0.03710938 -0.1044922
f 242/242/242 243/243/243 244/244/244
f 243/243/243 245/245/245 244/244/244
v -0.2468262 0.3950195 0.7299805
v -0.9609375 0.6081543 0.6745605
v -0.3342285 0.3950195 -0.6115723
v -0.9909668 0.6081543 -0.6115723
vn 0.265625 -0.9628906 -0.04492188
vn -0.7070313 -0.6679688 -0.2363281
vn 0.09570313 -0.9726563 0.2148438
vn -0.8300781 -0.5273438 0.1816406
vt 0.06152344 -0.4990234
vt 0.08105469 -0.7578125
vt 0.546875 -0.53125
vt 0.546875 -0.7685547
f 246/246/246 247/247/247 248/248/248
f 247/247/247 249/249/249 248/248/248
v -1.062744 0.6777344 -1.401855
v -1.09082 0.8449707 -1.457031
v -0.3652344 0.5979004 -1.506104
v 0 0.7963867 -1.775146
vn -0.640625 -0.2949219 -0.7089844
vn -0.6933594 -0.4765625 -0.5390625
vn 0.390625 -0.609375 -0.6894531
vn 0 -0.6835938 -0.7304688
vt 0.8330078 -0.7949219
vt 0.8701172 -0.8525391
vt 0.8701172 -0.5419922
vt 0.9677734 -0.4101563
f 250/250/250 251/251/251 252/252/252
f 251/251/251 253/253/253 252/252/252
v -0.9909668 0.6081543 -0.6115723
v -0.8791504 0.0222168 -0.7460938
v -0.3342285 0.3950195 -0.6115723
v -0.5178223 0.0222168 -0.7460938
vn -0.8300781 -0.5273438 0.1816406
vn -0.3007813 -0.7851563 0.5410156
vn 0.09570313 -0.9726563 0.2148438
vn 0.6738281 -0.6601563 0.3320313
vt 0.2568359 -0.03808594
vt 0.2041016 -0.03808594
vt 0.2568359 -0.1044922
vt 0.2041016 -0.1044922
f 254/254/254 255/255/255 256/256/256
f 255/255/255 257/257/257 256/256/256
v -0.3342285 0.3950195 -0.6115723
v -0.5178223 0.0222168 -0.7460938
v -0.3652344 0.5979004 -1.506104
v -0.4458008 0.0222168 -1.371826
vn 0.09570313 -0.9726563 0.2148438
vn 0.6738281 -0.6601563 0.3320313
vn 0.390625 -0.609375 -0.6894531
vn 0.2109375 -0.7910156 -0.5761719
vt 0.08203125 -0.1044922
vt 0.03710938 -0.1044922
vt 0.08203125 -0.03808594
vt 0.03710938 -0.03808594
f 258/258/258 259/259/259 260/260/260
f 259/259/259 261/261/261 260/260/260
v -0.8791504 0.0222168 -1.302979
v -0.4458008 0.0222168 -1.371826
v -0.8791504 0.0222168 -0.7460938
v -0.5178223 0.0222168 -0.7460938
vn -0.7460938 -0.5820313 -0.3222656
vn 0.2109375 -0.7910156 -0.5761719
vn -0.3007813 -0.7851563 0.5410156
vn 0.6738281 -0.6601563 0.3320313
vt 0.2636719 -0.04101563
vt 0.2636719 -0.1035156
vt 0.3408203 -0.04101563
vt 0.3408203 -0.1035156
f 262/262/262 263/263/263 264/264/264
f 263/263/263 265/265/265 264/264/264
v -0.3652344 0.5979004 -1.506104
v -0.4458008 0.0222168 -1.371826
v -1.062744 0.6777344 -1.401855
v -0.8791504 0.0222168 -1.302979
vn 0.390625 -0.609375 -0.6894531
vn 0.2109375 -0.7910156 -0.5761719
vn -0.640625 -0.2949219 -0.7089844
vn -0.7460938 -0.5820313 -0.3222656
vt 0.1953125 -0.1044922
vt 0.1425781 -0.1044922
vt 0.1953125 -0.03808594
vt 0.1425781 -0.03808594
f 266/266/266 267/267/267 268/268/268
f 267/267/267 269/269/269 268/268/268
v -1.062744 0.6777344 -1.401855
v -0.8791504 0.0222168 -1.302979
v -0.9909668 0.6081543 -0.6115723
v -0.8791504 0.0222168 -0.7460938
vn -0.640625 -0.2949219 -0.7089844
vn -0.7460938 -0.5820313 -0.3222656
vn -0.8300781 -0.5273438 0.1816406
vn -0.3007813 -0.7851563 0.5410156
vt 0.1347656 -0.03808594
vt 0.08886719 -0.03808594
vt 0.1347656 -0.1044922
vt 0.08886719 -0.1044922
f 270/270/270 271/271/271 272/272/272
f 271/271/271 273/273/273 272/272/272
v 0 1.900146 -2.297363
v 0 2.114014 -1.788818
v 0.2148438 1.602539 -2.143799
v 0.173584 1.799072 -1.825195
vn 0.8261719 0.3847656 -0.4121094
vn 0.8457031 0.4941406 -0.2011719
vn 0.8398438 0.4238281 -0.3398438
vn 0.8496094 0.4902344 -0.1914063
vt 0.6015625 -0.04101563
vt 0.6621094 -0.04101563
vt 0.5927734 -0.07714844
vt 0.6660156 -0.07714844
f 274/274/274 275/275/275 276/276/276
f 275/275/275 277/277/277 276/276/276
v 0 2.114014 -1.788818
v 0 1.900146 -2.297363
v -0.173584 1.799072 -1.825195
v -0.2148438 1.602539 -2.143799
vn -0.8476563 0.4902344 -0.2070313
vn -0.8378906 0.4238281 -0.3417969
vn -0.84375 0.4960938 -0.203125
vn -0.8261719 0.3867188 -0.4082031
vt 0.6621094 -0.04101563
vt 0.6015625 -0.04101563
vt 0.6660156 -0.07714844
vt 0.5927734 -0.07714844
f 278/278/278 279/279/279 280/280/280
f 279/279/279 281/281/281 280/280/280
v -0.173584 1.799072 -1.825195
v -0.2148438 1.602539 -2.143799
v 0.173584 1.799072 -1.825195
v 0.2148438 1.602539 -2.143799
vn 0 -0.8515625 0.5253906
vn 0 -0.8144531 0.5800781
vn 0 -0.8515625 0.5253906
vn 0 -0.7949219 0.6074219
vt 0.6630859 -0.1064453
vt 0.5996094 -0.09667969
vt 0.6640625 -0.1269531
vt 0.6005859 -0.1386719
f 282/282/282 283/283/283 284/284/284
f 283/283/283 285/285/285 284/284/284
v 0.4460449 0.0222168 -1.371826
v 0.8793945 0.0222168 -1.302979
v 0.5180664 0.0222168 -0.7460938
v 0.8793945 0.0222168 -0.7460938
vn -0.640625 -0.6835938 -0.3496094
vn 0.5546875 -0.6953125 -0.4570313
vn -0.2109375 -0.8085938 0.5488281
vn 0.4960938 -0.7148438 0.4921875
vt 0.2636719 -0.1035156
vt 0.2636719 -0.04101563
vt 0.3408203 -0.1035156
vt 0.3408203 -0.04101563
f 286/286/286 287/287/287 288/288/288
f 287/287/287 289/289/289 288/288/288
v 0.4460449 0.0222168 -1.371826
v 0.3652344 0.5979004 -1.506104
v 0.8793945 0.0222168 -1.302979
v 1.062988 0.6777344 -1.401855
vn -0.640625 -0.6835938 -0.3496094
vn -0.125 -0.515625 -0.8476563
vn 0.5546875 -0.6953125 -0.4570313
vn 0.7578125 -0.3066406 -0.578125
vt 0.1425781 -0.1044922
vt 0.1953125 -0.1044922
vt 0.1425781 -0.03808594
vt 0.1953125 -0.03808594
f 290/290/290 291/291/291 292/292/292
f 291/291/291 293/293/293 292/292/292
v 0.5180664 0.0222168 -0.7460938
v 0.3342285 0.3950195 -0.6115723
v 0.4460449 0.0222168 -1.371826
v 0.3652344 0.5979004 -1.506104
vn -0.2109375 -0.8085938 0.5488281
vn -0.21875 -0.9726563 0.06640625
vn -0.640625 -0.6835938 -0.3496094
vn -0.125 -0.515625 -0.8476563
vt 0.03710938 -0.1044922
vt 0.08203125 -0.1044922
vt 0.03710938 -0.03808594
vt 0.08203125 -0.03808594
f 294/294/294 295/295/295 296/296/296
f 295/295/295 297/297/297 296/296/296
v 1.099609 1.045654 -1.588623
v 1.085205 2.091797 -1.588623
v 1.381836 1.039063 -0.003417969
v 1.362061 2.25708 0.001953125
vn 0.6621094 -0.2109375 -0.71875
vn 0.7890625 0.3515625 -0.5039063
vn 0.9589844 -0.2851563 -0.01367188
vn 0.9335938 0.3554688 0.02539063
vt 0.9472656 -0.1591797
vt 0.9472656 -0.09765625
vt 0.8525391 -0.1601563
vt 0.8515625 -0.08691406
f 298/298/298 299/299/299 300/300/300
f 299/299/299 301/301/301 300/300/300
v 0.8793945 0.0222168 -0.7460938
v 0.9909668 0.6081543 -0.6115723
v 0.5180664 0.0222168 -0.7460938
v 0.3342285 0.3950195 -0.6115723
vn 0.4960938 -0.7148438 0.4921875
vn 0.7792969 -0.5371094 0.3222656
vn -0.2109375 -0.8085938 0.5488281
vn -0.21875 -0.9726563 0.06640625
vt 0.2041016 -0.03808594
vt 0.2568359 -0.03808594
vt 0.2041016 -0.1044922
vt 0.2568359 -0.1044922
f 302/302/302 303/303/303 304/304/304
f 303/303/303 305/305/305 304/304/304
v 1.062988 0.6777344 -1.401855
v 0.9909668 0.6081543 -0.6115723
v 0.8793945 0.0222168 -1.302979
v 0.8793945 0.0222168 -0.7460938
vn 0.7578125 -0.3066406 -0.578125
vn 0.7792969 -0.5371094 0.3222656
vn 0.5546875 -0.6953125 -0.4570313
vn 0.4960938 -0.7148438 0.4921875
vt 0.1347656 -0.03808594
vt 0.1347656 -0.1044922
vt 0.08886719 -0.03808594
vt 0.08886719 -0.1044922
f 306/306/306 307/307/307 308/308/308
f 307/307/307 309/309/309 308/308/308
v 0.3342285 0.3950195 -0.6115723
v 0.9909668 0.6081543 -0.6115723
v 0.9609375 0.6081543 0.6745605
v 1.381836 1.039063 -0.003417969
vn -0.21875 -0.9726563 0.06640625
vn 0.7792969 -0.5371094 0.3222656
vn 0.8261719 -0.5585938 -0.08007813
vn 0.9589844 -0.2851563 -0.01367188
vt 0.546875 -0.53125
vt 0.546875 -0.7685547
vt 0.08105469 -0.7578125
vt 0.3261719 -0.9101563
f 310/310/310 311/311/311 312/312/312
f 311/311/311 313/313/313 312/312/312
v 0.8493652 0.02246094 0.8044434
v 0.8757324 0.02246094 1.313477
v 0.3583984 0.02246094 0.8598633
v 0.4599609 0.02246094 1.354736
vn 0.3105469 -0.6367188 -0.7050781
vn 0.5976563 -0.7578125 0.2617188
vn -0.5605469 -0.8105469 -0.1660156
vn -0.2070313 -0.6757813 0.7089844
vt 0.2636719 -0.04101563
vt 0.3408203 -0.04101563
vt 0.2636719 -0.1035156
vt 0.3408203 -0.1035156
f 314/314/314 315/315/315 316/316/316
f 315/315/315 317/317/317 316/316/316
v -1.099609 1.045654 -1.588623
v 0 0.7963867 -1.775146
v -1.09082 0.8449707 -1.457031
v -1.381836 1.039063 -0.003417969
v -0.9909668 0.6081543 -0.6115723
v -0.9609375 0.6081543 0.6745605
v 0.2468262 0.3950195 0.7299805
v 0.3342285 0.3950195 -0.6115723
v 0.9609375 0.6081543 0.6745605
v 0 0.7963867 -1.775146
v 0 1.897461 -2.021729
v 1.099609 1.045654 -1.588623
v -0.2468262 0.3950195 0.7299805
v 0 0.5517578 1.735596
v -0.3449707 0.5336914 1.604248
v -0.2148438 1.602539 -2.143799
v 0 1.900146 -2.297363
v 0 1.172852 -2.602783
v 0 1.172852 -2.602783
v 0.2148438 1.602539 -2.143799
v -0.2148438 1.602539 -2.143799
v 0.2148438 1.602539 -2.143799
v 0 1.172852 -2.602783
v 0 1.900146 -2.297363
vn -0.6621094 -0.2109375 -0.71875
vn 0 -0.6835938 -0.7304688
vn -0.6933594 -0.4765625 -0.5390625
vn -0.9667969 -0.2558594 0.001953125
vn -0.8300781 -0.5273438 0.1816406
vn -0.7070313 -0.6679688 -0.2363281
vn -0.15625 -0.9453125 -0.2851563
vn -0.21875 -0.9726563 0.06640625
vn 0.8261719 -0.5585938 -0.08007813
vn 0 -0.6835938 -0.7304688
vn 0 0.1445313 -0.9902344
vn 0.6621094 -0.2109375 -0.71875
vn 0.265625 -0.9628906 -0.04492188
vn 0 -0.9882813 0.1484375
vn 0.01953125 -0.6132813 0.7890625
vn -0.8261719 0.3867188 -0.4082031
vn -0.8378906 0.4238281 -0.3417969
vn -0.7675781 0.2480469 -0.5917969
vn 0 -0.7304688 0.6835938
vn 0 -0.7949219 0.6074219
vn 0 -0.8144531 0.5800781
vn 0.8398438 0.4238281 -0.3398438
vn 0.7675781 0.2480469 -0.5917969
vn 0.8261719 0.3847656 -0.4121094
vt 0.9375 -0.9238281
vt 0.9677734 -0.4101563
vt 0.8701172 -0.8525391
vt 0.3261719 -0.9101563
vt 0.546875 -0.7685547
vt 0.08105469 -0.7578125
vt 0.06152344 -0.4990234
vt 0.546875 -0.53125
vt 0.08105469 -0.7578125
vt 0.8007813 -0.1279297
vt 0.7607422 -0.08300781
vt 0.8330078 -0.08398438
vt 0.4003906 -0.0625
vt 0.3525391 -0.07421875
vt 0.3583984 -0.05761719
vt 0.5996094 -0.09667969
vt 0.5361328 -0.1181641
vt 0.5996094 -0.1171875
vt 0.5996094 -0.1171875
vt 0.6005859 -0.1386719
vt 0.5996094 -0.09667969
vt 0.6005859 -0.1386719
vt 0.5996094 -0.1171875
vt 0.5361328 -0.1181641
f 318/318/318 319/319/319 320/320/320
f 321/321/321 322/322/322 323/323/323
f 324/324/324 325/325/325 326/326/326
f 327/327/327 328/328/328 329/329/329
f 330/330/330 331/331/331 332/332/332
f 333/333/333 334/334/334 335/335/335
f 336/336/336 337/337/337 338/338/338
f 339/339/339 340/340/340 341/341/341
